<svg xmlns="http://www.w3.org/2000/svg" viewBox="0 0 532 616.68"><defs><style>.cls-1{fill:#fcec74;}.cls-2{fill:#fff;}.cls-3{fill:#269ac2;}.cls-4{fill:#b28e8a;}.cls-5{fill:#a1b1c9;}.cls-6{fill:#fef3ee;}.cls-7{fill:#f35528;}</style></defs><g id="Layer_2" data-name="Layer 2"><g id="レイヤー_1" data-name="レイヤー 1"><g id="contents02"><g id="_5" data-name="5"><path class="cls-1" d="M516,240.64a16,16,0,0,1-10.31-3.77L266.09,34.94a12.47,12.47,0,0,0-16.22.2L26.63,233A16,16,0,1,1,5.39,209L228.63,11.18a44.4,44.4,0,0,1,58.09-.72L526.31,212.38A16,16,0,0,1,516,240.64Z"/><path class="cls-1" d="M84,530c-8.84,0-16.27-6.22-16.27-15.06V260.21a16,16,0,0,1,32,0v254.7C99.75,523.75,92.84,530,84,530Z"/><path class="cls-1" d="M448.26,529.92a16,16,0,0,1-16-16V260.21a16,16,0,0,1,32,0v253.7A16,16,0,0,1,448.26,529.92Z"/><path class="cls-1" d="M446.69,530.53H84.31a16,16,0,0,1,0-32H446.69a16,16,0,1,1,0,32Z"/><path class="cls-2" d="M298.75,400.26a59.4,59.4,0,0,0-.14-6.67v-1.11c.43-4.08,0-8.29,0-12.45v-1.22c0-4.35-5.42-5.17-7.51-2.47-2.59.43-5.55,1.16-7.48,2.7l-.44.14c-3.48,1.11-3.78,6-1.2,7.65a3.52,3.52,0,0,0-.46,2.05,38.7,38.7,0,0,1-.2,7.61,5.46,5.46,0,0,0-1.4.22l-3.33-.75c-4.54-1-7.39,5.2-3.21,7.61.34.19.68.39,1,.57.28.35.57.69.88,1a6.88,6.88,0,0,0,6.47,4.91A37.49,37.49,0,0,0,294,408.55C297.37,407.56,299.84,403.78,298.75,400.26Z"/><path d="M287,385.38a65.59,65.59,0,0,1,0,7.68c-.08,1.36.08,4.67-1.77,5s-2.85-1.6-3.3-3a23.41,23.41,0,0,1-.84-5.33,23.39,23.39,0,0,0-1-6.12c-.45-1.24-2.44-.71-2,.54,1.46,4,.5,8.48,2.22,12.42.84,1.92,2.6,3.67,4.85,3.51,2.55-.18,3.46-2.64,3.71-4.82a59.27,59.27,0,0,0,.2-10c-.07-1.31-2.12-1.32-2.06,0Z"/><path d="M298.32,377.8q.26,8.13.52,16.26l.13,4.14a31.78,31.78,0,0,1,0,3.78,4.84,4.84,0,0,1-3.36,4.29,39,39,0,0,1-6.57,1.56l-4.07.83a18.22,18.22,0,0,1-3.67.58c-2.32,0-3.78-2.11-5.13-3.73l-2.51-3a9.73,9.73,0,0,1-1.79-2.78,3.06,3.06,0,0,1,.23-2.82c.73-1,2.06-.7,3-.3,2.32,1,4,3.08,6.73,3a1,1,0,0,0,0-2.06,5.66,5.66,0,0,1-3.24-1.24,14.33,14.33,0,0,0-3.27-1.81c-2.35-.8-4.9.12-5.58,2.64s.81,4.84,2.37,6.73l2.77,3.33a17.42,17.42,0,0,0,2.58,2.71,6.13,6.13,0,0,0,3.43,1.39,15.87,15.87,0,0,0,4.17-.56c2.88-.59,5.77-1.12,8.62-1.76,2.11-.48,4.4-1.22,5.83-2.94,1.77-2.14,1.56-4.93,1.48-7.54l-.66-20.69c0-1.32-2.1-1.33-2.06,0Z"/><path class="cls-2" d="M158.05,401.28a59.31,59.31,0,0,1,.14-6.67v-1.12c-.43-4.08,0-8.29,0-12.44v-1.23c0-4.35,5.42-5.16,7.52-2.47,2.58.43,5.54,1.17,7.47,2.7l.44.14c3.48,1.11,3.78,6,1.21,7.65a3.54,3.54,0,0,1,.45,2.05,39.49,39.49,0,0,0,.2,7.61,5.93,5.93,0,0,1,1.4.22l3.33-.74c4.54-1,7.39,5.19,3.21,7.6l-1,.58c-.28.34-.57.68-.88,1a6.88,6.88,0,0,1-6.46,4.91,37.51,37.51,0,0,1-12.24-1.5C159.43,408.57,157,404.79,158.05,401.28Z"/><path d="M167.78,386.4a67.12,67.12,0,0,0,.11,9c.18,2.15.55,4.88,2.94,5.66,2.21.71,4.37-.83,5.39-2.69a15.78,15.78,0,0,0,1.49-6.12,27.79,27.79,0,0,1,1-7c.46-1.24-1.53-1.78-2-.54-1.27,3.46-.73,7.27-1.66,10.8-.39,1.48-1.19,3.35-2.9,3.61-2,.31-2.17-2.54-2.28-3.89a66.73,66.73,0,0,1-.1-8.83c.07-1.33-2-1.32-2.06,0Z"/><path d="M156.42,378.81q-.28,9.17-.58,18.33c-.05,1.52-.13,3.05-.14,4.57a9.66,9.66,0,0,0,.64,3.88,7.66,7.66,0,0,0,5.08,4,79.64,79.64,0,0,0,7.94,1.73c1.46.3,2.92.64,4.39.88a7.14,7.14,0,0,0,3.94-.27c2.42-1,4-3.48,5.63-5.42s3.65-4,3.86-6.61a4.11,4.11,0,0,0-4.69-4.6,9.56,9.56,0,0,0-3.83,1.72,6.54,6.54,0,0,1-3.74,1.59,1,1,0,0,0,0,2.05c2.33.07,4-1.47,5.88-2.57a4,4,0,0,1,3-.71,2,2,0,0,1,1.33,1.9c.17,2.26-1.94,4.19-3.27,5.78-.77.93-1.54,1.88-2.34,2.8a8.29,8.29,0,0,1-2.43,2.1,5.31,5.31,0,0,1-3.32.16c-1.34-.26-2.67-.54-4-.82-2.4-.48-4.84-.87-7.19-1.51-1.75-.48-3.66-1.26-4.4-3.06a8.34,8.34,0,0,1-.41-3.48c0-1.31.08-2.61.12-3.91q.3-9.24.59-18.48c0-1.32-2-1.32-2.06,0Z"/><path class="cls-2" d="M271,182.32c-3-.83-5.93-1.77-8.82-2.86l-2.06-.8-.39-.15-.16-.08-.59-.28a10.54,10.54,0,0,0-5.25-3.81l-2.52-.82c-.69-.23-1.37-.46-2.05-.71l-1.23-.46-.48-.29c-1.38-.86-2.73-1.74-4.07-2.66-.6-.42-1.21-.85-1.8-1.28l-.08-.06a15,15,0,0,1-.79-1.67l-.58-.38a3.46,3.46,0,0,0-1-.43c.05-.71.1-1.41.14-2.11.23-3.51.76-7.17-.66-10.31a9.52,9.52,0,0,0-.14-1.32,28.53,28.53,0,0,0,2.63-3.57,28.9,28.9,0,0,0,2.94-6.39,23.46,23.46,0,0,0,1-3.78c.57-.38,1.12-.8,1.66-1.23a57.69,57.69,0,0,0,5-3.88c2-2,3.32-4.88,2.63-7.7a6.73,6.73,0,0,0-3.35-4.41,35.55,35.55,0,0,0-.37-6.14c-.58-3.89-2.57-8-6.25-9.68a28.81,28.81,0,0,0-10.17-6.47c-3.84-1.25-8-.64-11.86.34a35.58,35.58,0,0,0-10.55,2.16c-3.7,1.35-7.22,3.63-8.21,7.69,0,.21-.08.41-.1.61a16.14,16.14,0,0,0-2.89,11.32,5.15,5.15,0,0,0-2.67,1c-3.27,2.4-2.75,7.51-.94,10.63a10.75,10.75,0,0,0,6.23,5l0,0a3.18,3.18,0,0,0,0,.62c.08,5.65,2.76,10,6.5,13.47-.49,5.64-1.6,11.24-2.07,16.89a26.59,26.59,0,0,0-5.31,3.28c-3.36,1.34-6.59,3.17-9.75,4.74L177.22,184c-4.51,2.24-6.13,9-3.45,13.16a9.73,9.73,0,0,0,11.32,4.19,9.3,9.3,0,0,0,3.52,1.86,140.85,140.85,0,0,0,28.21,4.8,3.81,3.81,0,0,0,4.25.3l.2.1a3.46,3.46,0,0,0,.36.79c1,1.74,3.87,2.85,5.65,1.48l3.16-2.41a148.48,148.48,0,0,0,22.78-2.41,8.5,8.5,0,0,0,5.62-4.23,91.21,91.21,0,0,1,9.64-.44A9.63,9.63,0,0,0,271,182.32Z"/><path class="cls-3" d="M254.87,104.28a19,19,0,0,0-1.16-3.33c-4.05-8.8-10.86-11.24-19.05-14.69a34,34,0,0,0-14.11-2.84,25.31,25.31,0,0,0-9,1.69,4.36,4.36,0,0,0-2.86.46,25.09,25.09,0,0,0-8.16,7.16,14.53,14.53,0,0,0-4.37,5,28.31,28.31,0,0,0-2.44,7.16c-.63,2.87-1.34,5.91-.24,8.75a8.57,8.57,0,0,0,1.56,2.55v.17a13.81,13.81,0,0,1,4.28,3.3,9.43,9.43,0,0,1,1.86,3.23,1.16,1.16,0,0,0,.24-.14c3.62-2.44,6.4-5.67,9.59-8.49-.49.43,18,7.12,20,7.39,6.55.87,15.67,1.44,20.76-3.64C255.39,114.41,256.05,109.06,254.87,104.28Z"/><path class="cls-1" d="M300.09,358.49a78.79,78.79,0,0,0-.77-9.56,125.85,125.85,0,0,0-5.63-39.63c-.08-.23-.16-.45-.25-.67q-.36-14.94-1-29.88c-.46-10.61,0-22-3.05-32.35.28-2.18.52-4.37.66-6.56a67.72,67.72,0,0,0-1-16.57,45.39,45.39,0,0,0-1.54-6.3c.07-.68.14-1.35.2-2,.45-5.2.89-10.67.1-15.86s-3.76-8.46-8.38-11.13a74.15,74.15,0,0,0-7.3-3.82c-.13-.17-.26-.33-.4-.48a7.14,7.14,0,0,0-4.8-3.53c-6.75-.93-13.83.57-18.27,6.21a12.27,12.27,0,0,0-1.32,2.09l-1.12.65c-3.93,2.3-8,5.17-10.26,9.19q-5.2,3.36-10.63,6.29a4.89,4.89,0,0,1-4.76-.23,12.5,12.5,0,0,0-1.5-2.39,43.59,43.59,0,0,0-14-11.47,28.26,28.26,0,0,0-8.26-9.24,19.5,19.5,0,0,0-5.24-2.77c-3.56-1.15-6.95,1-10.06,2.47a18.58,18.58,0,0,0-5.59,3.34l-.22.24c-4.13,1.07-8,3-10.11,6.21a3.28,3.28,0,0,0-2.52,2.14c-2.07,5.73-2.13,11.65-1.32,17.53a6.94,6.94,0,0,0-1.72,5.1q.62,6.36,1.22,12.72c-2.68,4.81-1.84,10-1.62,15.66.12,3,.12,6.08,0,9.11l-.44,1.22a6.61,6.61,0,0,0-1.09,2.06l-.05.16a6.47,6.47,0,0,0,.19,4.07,11.49,11.49,0,0,0,.09,3.75l-3.59,29.59a6.74,6.74,0,0,0,1.49,4.84,6.65,6.65,0,0,0-2.42,4l-.05.26c1.52,13.43-1.69,26.26-3.7,39.46a61.6,61.6,0,0,0-.9,8.35v.18c0,.57,0,1.14.07,1.71,0,1.09.09,2.19.13,3.29a62.41,62.41,0,0,1,0,6.28c.18.89.39,1.77.63,2.65q.18.64.45,1.44a6.51,6.51,0,0,0-1.07,3.53c0,2.64,2,5.87,4.8,6.3a33,33,0,0,0,8.26.53,4.5,4.5,0,0,0,1.11.69,10,10,0,0,0,7.18.62,5.19,5.19,0,0,1,.37.45,7.37,7.37,0,0,0,.91-.78c.15-.15.29-.3.43-.46a9.07,9.07,0,0,0,1.78-1.44c2.79-2.85,2.8-6.76,3-10.48l.12-1.78a26.35,26.35,0,0,0,2.71-7.58,33.33,33.33,0,0,0,.24-8.8,393,393,0,0,1,58.83-.63c5.3.34,10.59.8,15.87,1.35,5,.53,9.77,1.49,14.77.59a13.69,13.69,0,0,0,4.69-1.77c.58,3.32,1.15,6.63,1.73,9.95a8.57,8.57,0,0,0-.4,11.23c-1.18,4.28,2.31,9.39,6.91,10.36a10.94,10.94,0,0,0,5.6-.22,10.64,10.64,0,0,0,6.54-2.59C299.88,371.1,300.17,364.35,300.09,358.49Z"/><path d="M206.24,98.27c.54,8.63,6.3,16,14,19.59a29.89,29.89,0,0,0,6.83,2.25c1.42.29,2-1.88.6-2.17a25.73,25.73,0,0,1-13-6.62,20.3,20.3,0,0,1-6.16-13c-.09-1.43-2.34-1.44-2.25,0Z"/><path d="M225.18,107.8a19,19,0,0,0,13.65,9.59,1.16,1.16,0,0,0,1.38-.78,1.13,1.13,0,0,0-.78-1.39,16.93,16.93,0,0,1-12.31-8.56c-.69-1.27-2.64-.13-1.94,1.14Z"/><path d="M208,87.52a26.45,26.45,0,0,1,10.67-2.61,43.27,43.27,0,0,1,11.95,1,32.17,32.17,0,0,1,10.31,4.12,25.58,25.58,0,0,1,8.1,8.33,20,20,0,0,1,2.9,12.31,1.13,1.13,0,0,0,1.12,1.12,1.15,1.15,0,0,0,1.13-1.12c.86-8.5-3.92-16.54-10.56-21.51s-15.43-6.74-23.49-6.59a30.26,30.26,0,0,0-13.27,3c-1.29.66-.15,2.6,1.14,1.94Z"/><path d="M201,91.64c-2.89,3.89-5.82,7.87-7.4,12.5a17.41,17.41,0,0,0,.54,13.55c.67,1.29,2.61.15,1.95-1.14-2-3.81-1.6-8.36-.15-12.28,1.55-4.23,4.34-7.91,7-11.49a1.14,1.14,0,0,0-.41-1.54,1.16,1.16,0,0,0-1.54.4Z"/><path d="M202.24,136.66c-4.34,0-7.71-4.14-7.71-7.71V124.4c0-2.52.61-5.87,5.91-5.87a1,1,0,1,1,0,1.92c-3.34,0-4,1.45-4,4V129c0,2.3,2.31,5.79,5.79,5.79a1,1,0,0,1,0,1.92Z"/><path d="M247.26,135.91a1,1,0,0,1,0-1.93c3.59,0,4.89-3.15,4.89-5.28v-4.43c0-2.42-.65-3.82-4-3.82a1,1,0,0,1,0-1.92c4,0,5.91,1.88,5.91,5.74v4.43C254.07,132.19,251.68,135.91,247.26,135.91Z"/><path d="M224.05,159.87a19.58,19.58,0,0,1-8.43-1.9c-8.49-3.83-14.51-14-14.63-24.73a1,1,0,0,1,.95-1h0a1,1,0,0,1,1,.95c.11,10,5.67,19.47,13.52,23a17.92,17.92,0,0,0,14,.55,21,21,0,0,0,11.8-11.2c1.81-4.09,2.58-8.65,3.26-12.69a.94.94,0,0,1,1.1-.78,1,1,0,0,1,.79,1.1c-.7,4.15-1.48,8.84-3.4,13.15a23,23,0,0,1-12.88,12.22A20.36,20.36,0,0,1,224.05,159.87Z"/><path d="M215.21,125.61H215a.8.8,0,0,0-.43.1,1,1,0,0,0-.59.59.72.72,0,0,0-.1.43l0,.3a1.1,1.1,0,0,0,.29.5l.23.18a1.09,1.09,0,0,0,.56.15h.17a.8.8,0,0,0,.43-.1,1,1,0,0,0,.59-.59.84.84,0,0,0,.1-.44l0-.3a1.07,1.07,0,0,0-.29-.49l-.23-.18a1.09,1.09,0,0,0-.56-.15Z"/><path d="M232.87,127.7a1.13,1.13,0,0,0,0-2.25,1.13,1.13,0,0,0,0,2.25Z"/><path d="M222.67,125.77a2.57,2.57,0,0,1,1.53,2.9,13.7,13.7,0,0,1-1.45,3.9,13.45,13.45,0,0,0-1.38,3.36,3.57,3.57,0,0,0,2.32,3.95c.81.31,1.16-1,.36-1.3a2.22,2.22,0,0,1-1.39-2.19,4.58,4.58,0,0,1,.43-1.39c.53-1.24,1.18-2.41,1.69-3.65a7.78,7.78,0,0,0,.79-3.72,3.84,3.84,0,0,0-2.21-3c-.78-.39-1.46.78-.69,1.17Z"/><path d="M217.64,144.36c1.77,2.23,4.77,2.88,7.49,2.82a9.48,9.48,0,0,0,7.06-2.91c.57-.65-.38-1.61-.95-1a8.19,8.19,0,0,1-6.11,2.51c-2.4.06-5-.45-6.54-2.42-.54-.68-1.49.28-1,1Z"/><path d="M208,152.59c.14,2.52.19,5,.21,7.56,0,1.19,0,2.38,0,3.56a4.27,4.27,0,0,1-.4,2.18c-1.16,2.1-4.41,2.48-6.45,3.2a18,18,0,0,0-4.09,2.21c-2,1.33-4,2.58-6.06,3.78a111.16,111.16,0,0,1-12.45,6.22c-3.84,1.63-8,2.85-11.44,5.23a15.6,15.6,0,0,0-6.3,9c-1.09,4.06-1,8.33-1.1,12.5-.13,4.81-.29,9.61-.51,14.42-.9,19.69-3.45,39.22-4.92,58.87q-.57,7.55-.94,15.1c-.24,4.94-.32,9.89-.66,14.82a105.91,105.91,0,0,1-2.24,14.49A91.37,91.37,0,0,0,148.73,340c-.49,9.85-.17,19.78-.14,29.64,0,1.94.41,3.47,2.14,4.55a28.59,28.59,0,0,0,5.9,2.55,43.68,43.68,0,0,0,13,2.3,42.56,42.56,0,0,0,6.58-.35c1.42-.18,1.44-2.43,0-2.25a41.57,41.57,0,0,1-19.56-2.07c-1-.37-2-.77-3-1.23-.8-.36-2.06-.78-2.53-1.58s-.27-2.12-.27-3c0-1.26,0-2.52,0-3.78q0-3.67,0-7.34c0-4.85-.08-9.71.05-14.56a86,86,0,0,1,1.53-14.41c.92-4.62,2-9.2,2.47-13.89s.57-9.56.77-14.34.48-9.78.81-14.66c1.32-19.33,3.91-38.54,5-57.89q.39-7.17.62-14.35c.14-4.44,0-8.93.48-13.35.4-3.86,1.57-7.71,4.54-10.38s7-4,10.63-5.42a115.6,115.6,0,0,0,12.48-5.91q3-1.66,6-3.53a45,45,0,0,1,4.81-3.07c2.33-1.06,5-1.32,7.15-2.84,3-2.15,2.4-5.85,2.37-9.11,0-2.38-.07-4.75-.2-7.12-.07-1.45-2.33-1.45-2.25,0Z"/><path d="M238.79,153.07c-.13,2.45-.18,4.9-.2,7.35,0,1.92-.32,4.15.25,6,.79,2.61,3.33,3.73,5.72,4.5a31.62,31.62,0,0,1,3.66,1.26,49.24,49.24,0,0,1,4.88,3.13A113.45,113.45,0,0,0,265.29,182c3.91,1.83,8,3.21,11.9,5,3.63,1.71,6.69,4.1,8.15,7.95,1.38,3.68,1.4,7.67,1.49,11.55q.17,7.23.47,14.45c.4,9.59,1,19.17,2,28.71s2,19.33,2.78,29,1.19,19.5,1.63,29.27a97,97,0,0,0,1.57,14.22c.92,4.7,2.05,9.35,2.51,14.13.92,9.64.46,19.45.44,29.12V369c0,.9.22,2.22-.27,3a5.29,5.29,0,0,1-2.35,1.5q-1.67.76-3.39,1.38a41.74,41.74,0,0,1-13,2.35,42.58,42.58,0,0,1-6.38-.35c-1.43-.18-1.42,2.07,0,2.25a44.22,44.22,0,0,0,13.44-.36,42.36,42.36,0,0,0,6.35-1.66,27.8,27.8,0,0,0,5.71-2.48c1.81-1.14,2.13-2.75,2.13-4.77,0-2.52,0-5,0-7.56,0-4.88,0-9.75,0-14.63a111.57,111.57,0,0,0-.87-14.73c-.65-4.68-1.88-9.25-2.65-13.9A117,117,0,0,1,295.8,304q-.27-7.33-.72-14.65c-1.24-19.73-3.91-39.33-5.06-59.06q-.43-7.38-.68-14.76c-.16-4.62-.1-9.27-.44-13.87-.27-3.8-1-7.74-3.26-10.9s-5.81-5.1-9.4-6.6c-4.19-1.75-8.41-3.38-12.47-5.42a113.52,113.52,0,0,1-12.17-7.09,16.56,16.56,0,0,0-3.91-2.1c-1.28-.45-2.62-.77-3.88-1.29a4.68,4.68,0,0,1-2.62-2,4.46,4.46,0,0,1-.35-2.08q0-1.89,0-3.78c0-2.45.07-4.9.2-7.35.08-1.44-2.17-1.44-2.25,0Z"/><path d="M224.67,206.83a.92.92,0,0,1-.62-.23c-5.68-4.81-11.5-9.53-17.13-14.1-5.46-4.44-11.11-9-16.6-13.66a1,1,0,0,1,1.24-1.47C197,182,202.67,186.58,208.13,191c5.64,4.57,11.47,9.3,17.16,14.13a1,1,0,0,1-.62,1.69Z"/><path d="M224.93,206.79a.93.93,0,0,1-.74-.36,1,1,0,0,1,.14-1.35c4.94-4,9.91-8.15,14.73-12.18,6.24-5.24,12.7-10.66,19.15-15.7a1,1,0,0,1,1.35.16,1,1,0,0,1-.17,1.35c-6.42,5-12.87,10.43-19.1,15.66-4.82,4-9.8,8.22-14.75,12.21A1,1,0,0,1,224.93,206.79Z"/><path class="cls-2" d="M240.42,165.7c-4.85,3.44-10.15,6.59-16.06,7.39,3.07-.42,9.16,12.09,10.25,14.3,5.7-2.64,11-7.4,16.22-11l-9.51-11.15Z"/><path d="M239.91,164.81c-4.78,3.38-9.93,6.45-15.82,7.29-1.14.16-.88,2.14.27,2h.2c.17,0-.19-.05,0,0,0,0,.26.09.14,0s.16.09.21.12a3.75,3.75,0,0,1,.93.76,18.61,18.61,0,0,1,2.31,2.93,72.26,72.26,0,0,1,4.2,7.3c.45.87.89,1.76,1.33,2.64a1.05,1.05,0,0,0,1.41.37c6-2.79,10.89-7.29,16.22-11.06a1,1,0,0,0,.21-1.61L242,164.46a1,1,0,0,0-1.24-.16l-.89.51a1,1,0,0,0,1,1.77l.9-.5-1.25-.16,9.51,11.14.21-1.61c-5.33,3.77-10.26,8.26-16.22,11.05l1.41.37c-1-2.06-2.07-4.11-3.2-6.12a32.48,32.48,0,0,0-5-7.21,4.06,4.06,0,0,0-2.94-1.48l.28,2c6-.85,11.4-4,16.3-7.5C242,165.82,241,164,239.91,164.81Z"/><path class="cls-2" d="M208.37,165.67c4.85,3.44,10.16,6.59,16.06,7.4-3.06-.42-9.15,12.09-10.24,14.29-5.7-2.63-11-7.39-16.22-11.05l9.51-11.15Z"/><path d="M207.85,166.56c4.9,3.47,10.27,6.64,16.31,7.5l.27-2a3.65,3.65,0,0,0-2.6,1.16,17,17,0,0,0-2.55,3.06,66.24,66.24,0,0,0-4.56,7.76c-.48.94-.95,1.88-1.42,2.83l1.41-.37c-6-2.79-10.89-7.29-16.22-11.06l.2,1.62,9.52-11.15-1.25.16.89.51a1,1,0,0,0,1-1.78l-.89-.51a1,1,0,0,0-1.25.17l-9.51,11.14a1.05,1.05,0,0,0,.21,1.62c5.33,3.77,10.26,8.26,16.22,11.05a1,1,0,0,0,1.41-.37c.94-1.91,1.92-3.82,3-5.69a35,35,0,0,1,4.53-6.82c.2-.22.41-.43.64-.64a2.48,2.48,0,0,1,.48-.38l.31-.18c.21-.12-.06,0,.09,0s.38-.08.08,0h.26c1.15.12,1.43-1.85.28-2-5.89-.83-11-3.91-15.82-7.29C207.81,164,206.78,165.8,207.85,166.56Z"/><path d="M224.55,205.28a1,1,0,0,1-1-1V173.09a1,1,0,0,1,1.92,0v31.23A1,1,0,0,1,224.55,205.28Z"/><path class="cls-2" d="M204.8,592.14A8.78,8.78,0,0,0,193,589.05c-3.44,1.88-7,3.64-10.57,5.18l-1.62.65c-.86.34-1.72.67-2.59,1l-.44.16a7.69,7.69,0,0,0-3.63-2,8.82,8.82,0,0,0-10.59,6c-1.65,4.79.89,10.32,5.17,12.81s8.91,1.53,13.2,0a141,141,0,0,0,19.75-8.87C205.67,601.76,207.27,596,204.8,592.14Z"/><path class="cls-2" d="M291.19,595.45c-.61-4.48-6.58-7.31-10.59-6a9,9,0,0,0-3.64,2.14c-.5,0-.63,0-.42,0-.4-.07-.79-.15-1.18-.25a23.76,23.76,0,0,1-3-.93c.31.09-1.6-.78-1.85-.91-4.6-2.37-8.93-5-13.79-6.83-4.22-1.59-9.62,1.77-10.59,6-1.11,4.9,1.5,8.88,6,10.59l.68.25.59.3c.81.41,1.62.82,2.42,1.25,1.34.72,2.65,1.49,4,2.22a47.38,47.38,0,0,0,10.52,4.54,26.45,26.45,0,0,0,12.13.39,12.74,12.74,0,0,0,6.24-3.27C291.43,602.3,291.67,599,291.19,595.45Z"/><path class="cls-4" d="M249.85,576.53l20,1c3.05-2.43,8.33-2.13,9.8,2.78.22.75.18.71.48,1.08a14.37,14.37,0,0,0,2.31,2.1c1.09.84,3.43,2.4,4.87,3.61a8.48,8.48,0,0,1,2.84,9.39c-1.14,3.21-4.08,5-7.12,6-11.33,3.6-23.45-3.68-33.6-8-2.21-.93-3.34-3.83-3.11-6.2-.53-.73-1-1.47-1.53-2.23C242.39,582.3,245.2,576.3,249.85,576.53Z"/><path class="cls-4" d="M203.36,579.44l-20,2.06c-3.17-2.26-8.43-1.68-9.64,3.3-.18.77-.14.72-.43,1.11a14.37,14.37,0,0,1-2.19,2.22c-1,.9-3.3,2.58-4.68,3.86a8.48,8.48,0,0,0-2.34,9.54c1.29,3.14,4.32,4.82,7.41,5.62,11.5,3,23.22-4.94,33.14-9.78,2.16-1.06,3.14-4,2.79-6.36.49-.76,1-1.53,1.41-2.31C211.11,584.8,208,579,203.36,579.44Z"/><path class="cls-3" d="M177.19,566.54c1.4-3.06,3-6,4.43-9a86.77,86.77,0,0,0,.74-9.53L181,530.59a4.85,4.85,0,0,1,0-1.08c-1.54-8.33-2.68-16.62-1.49-25.21,0,0,0-.05,0-.07a6.86,6.86,0,0,1-1.1-3.3q-.69-10.05-1.26-20.13A4.53,4.53,0,0,1,177,479l.06-.67q-2.82-50.43-2.89-101c0-5.89-.06-11.79.07-17.68a20.57,20.57,0,0,1,1.61-8.22v-.12a6.12,6.12,0,0,1,.7-3.22,6.21,6.21,0,0,1,.19-6.56,6.44,6.44,0,0,0,2.92.53l2.75-.07a8.7,8.7,0,0,0,4.76-1.6,13.88,13.88,0,0,1,1.44-.07q12.94,0,25.88.32,25.88.56,51.71,2.07a7.53,7.53,0,0,1,.83.1c3.51-1.66,8.79,0,9.11,5.24.21,3.32.42,6.63.62,9.95a6.5,6.5,0,0,1,1,3.19L279,390.91a6.57,6.57,0,0,1,.59.92,2.72,2.72,0,0,0-.49,1.72c.22,8,.75,16,1.66,24a2.58,2.58,0,0,0-1.71,2.62c.31,11.92.63,23.83,1.21,35.73-3.56,3.82-2.17,12.54-1.73,16.85.25,2.45.57,4.9.94,7.34,0,.23-.05.46-.08.68a4.26,4.26,0,0,1-.36,1.29q1,16.37.93,32.75c-3.05,2.93-1.88,9.07-1.46,12.81.07.7.15,1.41.22,2.14-1.23,5.22-.65,10.71-1.3,16.08-1,7.85-2.57,15.41-1,23.31a3,3,0,0,0,.16.55c-1.64,3.76-5.32,4.83-9.19,5.32a14.7,14.7,0,0,1-4.68,3.41c-5.53,2.53-11.67,1-16.81-1.76a6.06,6.06,0,0,1-2.27-2.08,11.07,11.07,0,0,1-1.49-.55,2.83,2.83,0,0,0-.56-2.88,7.68,7.68,0,0,1-1.55-4.09c0-.08,0-.16,0-.24a2.17,2.17,0,0,0-.13-1c-.06-1.08,0-2.15,0-3.1,0-2.9.29-5.8.22-8.7a55.38,55.38,0,0,0-1.16-8.54c.2-3.21.39-6.42.62-9.62a39.34,39.34,0,0,1,1.33-8.21q-5.08-31.87-8.71-64a2.91,2.91,0,0,0,1-2.89A194.1,194.1,0,0,1,230,439.16c0-.15.08-.29.13-.43a2.73,2.73,0,0,0,1-1.81,6.86,6.86,0,0,1,1.25-1.16c-.15-.72-.3-1.44-.46-2.15-.33-1.53-.68-3.06-1-4.58-.23-2.63-.57-5.26-.85-7.9a61.74,61.74,0,0,1-.42-7.57,29.92,29.92,0,0,1,.55-4.18,2.74,2.74,0,0,0,.26-1.32l0-1.29c-.08-3.27-4.52-3.57-5.44-1-.22-.8-.45-1.61-.68-2.42-1.85,10-2.2,20.36-2.51,30.63,0,2.19-.05,4.36-.22,6.51-.09,2.56-.2,5.11-.36,7.65.21,12.32.54,24.64.79,37a5.78,5.78,0,0,1-2.17,4.86c1.7,7.36-.51,16.35-1.84,23.45.19,7.32.37,14.64.5,22a2.18,2.18,0,0,0-1.57,2c-1.21,10.11-1,20.26-1.16,30.42a2.59,2.59,0,0,0,.8,2c-.21,1.25-.44,2.5-.7,3.74-.6,2.88-3.14,4.41-5.78,4.74l-11,1.4a6.7,6.7,0,0,1-3.37.79,2.55,2.55,0,0,0-1.95-.75c-2.78.06-5.58,0-8.36-.18-1.48-.08-3-.15-4.46-.33l-.94-.14a2.33,2.33,0,0,0-2.24-.73C175,575.19,175.44,570.36,177.19,566.54Z"/><path class="cls-3" d="M178,338a8,8,0,0,0-1.19-4.33,3,3,0,0,1,.72-.1l95.18-.55a3.45,3.45,0,0,1,.57.05,3.1,3.1,0,0,1,.81-.35,10.08,10.08,0,0,0-.81,3.66,8,8,0,0,0,1.4,4.67,3.3,3.3,0,0,1-1.43.25q-.42.09-.84.15c-4.6.59-9.58.08-14.22.06l-29-.1-29-.1-15.05-.05c-2.7,0-5.26.13-7.46-.81A9.87,9.87,0,0,0,178,338Z"/><path d="M234.09,341.93c6.61-.19,13.22.16,19.83.45,3.29.15,6.57.26,9.86.42,1.67.08,3.35.18,5,.29l1.18.09c.48,0-.15,0,.09,0l.24,0c.49.09,1,.19,1.47.26.89.14,2.07.37,2.8-.3a2.56,2.56,0,0,0,.67-1.47,21.62,21.62,0,0,0,.21-4.89c0-.76-.09-1.53-.19-2.29a4.74,4.74,0,0,0-.42-1.78c-.49-.9-1.86-.94-2.75-1.11a37.35,37.35,0,0,0-4.23-.55c-5.86-.47-11.74.18-17.61.15q-10,0-20-.06-19.89,0-39.77.1c-3.54,0-7.18-1-10.7-.43-1.7.26-2.5,1.65-2.81,3.25a19.89,19.89,0,0,0,.05,6.16c.11.84.24,1.67.38,2.51a1.13,1.13,0,0,0,1.08.83c14.39-1.46,28.85-1.32,43.29-1.45,4.09,0,8.19-.1,12.29-.22,1.44,0,1.45-2.29,0-2.25-14.44.43-28.9.06-43.33.77-4.09.19-8.17.48-12.25.9l1.09.82a36.75,36.75,0,0,1-.56-5,11.61,11.61,0,0,1,.18-2.7,4.26,4.26,0,0,1,.33-1c.06-.12.13-.21.15-.25s.17-.26.07-.09,0,0,.06,0-.19.07,0,0l.18,0c.07,0,.4-.08.25-.06a9.64,9.64,0,0,1,1.08-.06c.87,0,1.75,0,2.63.1,1.62.12,3.24.34,4.86.44,2.73.16,5.51,0,8.24,0l9.45,0q9.39,0,18.8,0t18.65,0c3,0,6,.07,9,0,2.79-.06,5.58-.22,8.37-.27a57.05,57.05,0,0,1,8.37.32c.61.07,1.23.17,1.84.29l1,.2c.28.07.92.4.55,0-.11-.12-.22-.09-.2-.26,0,.07.06.18.07.25s.12.61.13.71a30,30,0,0,1,.19,4.5c0,.35,0,.7-.05,1.05,0,.17,0,.34,0,.51l0,.24c0-.16,0,0,0,.08s-.13.44-.16.65c.05-.4.09-.1,0-.09l0,0c0,.08,0,0,.1-.12-.12.06.06.49.28-.16,0,.05-.11,0-.11,0-.34-.09-.75-.05-1.1-.11s-.89-.17-1.34-.24a33.79,33.79,0,0,0-3.9-.31c-3.15-.19-6.31-.32-9.46-.44-6.23-.24-12.45-.63-18.68-.65-1.55,0-3.1,0-4.65.05A1.13,1.13,0,0,0,234.09,341.93Z"/><path d="M273.08,343a390.19,390.19,0,0,1,4.49,47c.64,15.76.57,31.54.55,47.31,0,15.6,0,31.2-.15,46.8s-.57,31.32-1.44,47c-.72,12.78-3.44,26-.94,38.72a34.31,34.31,0,0,0,1.11,4.24l2.06-.86c-.71-1-2.19-.45-3.18-.22-1.88.45-3.75,1-5.62,1.5-3.87,1.07-7.73,2.3-11.65,3.15-.21.05-.43.1-.65.13.29,0,.06,0-.1,0l-1.31.05a18.43,18.43,0,0,1-4.13-.25,10,10,0,0,1-6.32-4.46c-4-5.72-4-13-4-19.71,0-3.41.15-6.84,0-10.25-.22-4.21-.77-8.41-1.16-12.61q-1.26-13.45-2.38-26.92c-1.49-18-2.84-35.93-4.16-53.89-.58-7.93-.94-15.86-1.41-23.8-.46-7.55-1.12-15.19-3-22.54q-.66-2.55-1.56-5c-.35-.95-1.93-1.18-2.17,0a280.39,280.39,0,0,0-4.62,34.51c-.88,11.82-1.16,23.69-1.6,35.53-.89,23.93-1.8,47.88-3.79,71.76-.55,6.57-1,13.09-1.22,19.68s-.44,12.92-1.85,19.25l.79-.78a156.49,156.49,0,0,1-30.5,1.79c-1.24-.05-2.48-.11-3.72-.19a6.35,6.35,0,0,0-1.72-.11c-.16.13.05,0,.15.14,0,0,.12.16.16.17s-.05.16,0,0a2.05,2.05,0,0,0-.07-.34c0,.12,0-.59,0-.8a40,40,0,0,1,.66-6.07c.8-5.07,1.87-10.1,2.81-15.15,1.23-6.61.54-13.44-.09-20.09-.48-5-1.1-9.94-1.59-14.92s-.79-10-1.08-15c-.6-10.31-1-20.62-1.44-30.93-.78-20.66-1.54-41.34-2-62s-.21-41.24,2-61.73q.39-3.72.89-7.43c.19-1.43-2.07-1.42-2.25,0-2.75,20.87-3.3,41.95-3,63s1.16,42.17,1.92,63.24c.37,10.47.8,20.94,1.37,31.4.29,5.3.56,10.6,1,15.89.41,5,1,9.92,1.55,14.88s1,10.08,1.09,15.14a44.22,44.22,0,0,1-.08,5.15c0,.39-.21,1.38-.33,2-.91,5.09-2,10.14-2.84,15.23a56.31,56.31,0,0,0-.83,6.72c0,1.15-.17,3.08,1.15,3.62a8.68,8.68,0,0,0,2.6.26c1.4.09,2.79.16,4.18.21q3.82.14,7.67.09,7.78-.11,15.53-1,3.72-.42,7.44-1a1.09,1.09,0,0,0,.78-.79c2.5-11.26,1.67-22.93,2.7-34.35,1.07-11.88,1.86-23.78,2.49-35.68s1.1-23.9,1.55-35.86.75-23.95,1.46-35.9A284.61,284.61,0,0,1,228.09,399h-2.17c2.59,7.13,3.59,14.73,4.18,22.26s.78,15.38,1.34,23c1.32,18.05,2.66,36.1,4.13,54.14q1.11,13.59,2.35,27.16c.73,8,1.79,15.92,1.7,23.94-.08,6.79-.53,14.08,2,20.52a18,18,0,0,0,5.3,7.6,12.33,12.33,0,0,0,7.06,2.41,19,19,0,0,0,5.48-.37c1.86-.44,3.7-1,5.54-1.48,3.95-1.09,7.89-2.35,11.91-3.21.21,0,.44-.07.65-.12-.17,0,0,0,0,0h.1c-.11-.16-.68-.25-.86-.52.68,1,2.48.42,2.06-.87-2-6-2.16-12.5-1.91-18.79.25-6.46,1-12.88,1.53-19.32,1.19-15.38,1.43-30.87,1.66-46.29.22-15.62.21-31.25.21-46.87s.14-31.33-.36-47a425.36,425.36,0,0,0-3.87-47q-.42-2.9-.89-5.78c-.24-1.43-2.41-.82-2.17.6Z"/><path class="cls-3" d="M247.51,336.76a2.82,2.82,0,0,1,1-1.57c-.06-.2-.12-.4-.2-.6a.79.79,0,0,1,.51-1,12.67,12.67,0,0,1,3.72-.35,1.59,1.59,0,0,1,1.71-.27.88.88,0,0,1,.57.63.82.82,0,0,1,.28,1h.27a.78.78,0,0,1,.76,1c0,.24-.11.49-.16.73a3.05,3.05,0,0,1,.61,1.12,9.89,9.89,0,0,1,.18,4.71,16.22,16.22,0,0,1-.28,1.77,3.89,3.89,0,0,1-4.78,2.4,2.69,2.69,0,0,1-.7.1,3,3,0,0,1-3-2.43,3.91,3.91,0,0,1-.83-2A14.09,14.09,0,0,1,247.51,336.76Z"/><path class="cls-3" d="M192.28,345.33q.47-3.18.92-6.36c0-1.07,0-2.13-.08-3.2a.7.7,0,0,1,.67-.77.62.62,0,0,1,.41-.42,3.13,3.13,0,0,1,2.81-1.93l.27-.12c1.42-.45,3.54.42,3.81,2.08a25.19,25.19,0,0,1-.34,10.62,2.9,2.9,0,0,1-1.82,2.12,3.07,3.07,0,0,1-2.88,2.61,3.11,3.11,0,0,1-3.14-3l.06-.65A.79.79,0,0,1,192.28,345.33Z"/><path d="M255.47,334.49q.12,4.22.22,8.43a1.16,1.16,0,0,0,1.13,1.13,1.13,1.13,0,0,0,1.12-1.13q-.1-4.21-.22-8.43a1.13,1.13,0,1,0-2.25,0Z"/><path d="M246.72,333.61l-1,9.57a1.13,1.13,0,1,0,2.25,0l1-9.57a1.12,1.12,0,0,0-1.12-1.12,1.15,1.15,0,0,0-1.13,1.12Z"/><path d="M199.79,333.74a60.17,60.17,0,0,1-.39,10.13,1.12,1.12,0,0,0,1.12,1.12,1.16,1.16,0,0,0,1.13-1.12,59.14,59.14,0,0,0,.39-10.13,1.13,1.13,0,0,0-2.25,0Z"/><path d="M192.17,334.51c-.3,3.19-.61,6.39-.92,9.58a1.13,1.13,0,0,0,1.12,1.13,1.16,1.16,0,0,0,1.13-1.13c.31-3.19.62-6.39.92-9.58a1.13,1.13,0,0,0-1.12-1.13,1.16,1.16,0,0,0-1.13,1.13Z"/><path d="M225.19,355.56q.41,15.46.8,30.93a1.13,1.13,0,0,0,2.25,0l-.8-30.93a1.13,1.13,0,0,0-2.25,0Z"/><path d="M273,575.39c2.3,4.75,7.19,7.37,11.18,10.49a23.46,23.46,0,0,1,2.62,2.36,9,9,0,0,1,1.59,2.37c.92,2.22.31,4.53-.87,6.68a11.1,11.1,0,0,1-6.21,5.49,18,18,0,0,1-8.51.33c-6.4-1.08-12.4-3.84-18.31-6.42-1.31-.57-2.63-1.13-3.95-1.67-1.9-.79-3.5-1.75-4.11-3.83a32.86,32.86,0,0,1-.86-6.86c-.19-2.55-.28-5.11-.3-7.66,0-1.28,0-2.55.06-3.83,0-1.45-2.21-1.45-2.26,0a111.31,111.31,0,0,0,.68,16.12c.26,2.16.69,4.41,2.32,6,1.43,1.38,3.35,2,5.14,2.76,6.18,2.59,12.24,5.6,18.81,7.13,6.1,1.42,13.3,1.48,17.65-3.77,1.92-2.3,3.56-5.43,3.42-8.51a9.72,9.72,0,0,0-3.15-6.38c-3.72-3.71-9-5.87-12-10.26a13.2,13.2,0,0,1-1-1.67c-.63-1.3-2.57-.16-1.94,1.14Z"/><path d="M290.41,594.84c1.73,3,.84,6.45-1.05,9.1a12.55,12.55,0,0,1-9.79,4.93c-4.63.25-9.19-1.08-13.48-2.67a50.85,50.85,0,0,1-10.88-5.46,27,27,0,0,1-8.93-9.67c-.68-1.28-2.62-.15-1.95,1.14,4.17,7.95,12.28,12.75,20.41,15.87s19.68,5.7,26-2.3c2.7-3.4,3.89-8.14,1.59-12.07a1.13,1.13,0,0,0-1.95,1.13Z"/><path d="M273.41,579.9a13.42,13.42,0,0,0-10,6.56,1,1,0,0,0,1.78,1,11.25,11.25,0,0,1,8.22-5.54,1.07,1.07,0,0,0,1-1,1,1,0,0,0-1-1Z"/><path d="M175.2,582.89c-3.4,3.37-8,5.46-10.69,9.52a9.45,9.45,0,0,0-1.45,7.14,13.71,13.71,0,0,0,4.9,7.62,14.49,14.49,0,0,0,4,2.37,16.35,16.35,0,0,0,5.16.83,26,26,0,0,0,9.48-1.61c6.15-2.15,11.6-5.82,17.6-8.31a8.23,8.23,0,0,0,2.44-1.27,9.77,9.77,0,0,0,1.67-1.9,11.66,11.66,0,0,0,1.73-4.46c.61-3.36.24-6.76.23-10.14a1.13,1.13,0,0,0-2.25,0c0,2.77.27,5.56,0,8.33a12.09,12.09,0,0,1-.9,3.76,7,7,0,0,1-2.41,3.1c.29-.18,0,0-.09,0s-.41.16-.62.24l-1,.41c-.72.3-1.43.62-2.14,1-1.36.64-2.71,1.33-4.05,2-2.7,1.4-5.38,2.84-8.18,4a29.86,29.86,0,0,1-8.51,2.45c-3,.32-6.26.2-8.9-1.29-4.08-2.29-7.83-7.59-5.34-12.28,2.35-4.41,7.44-6.54,10.87-9.95,1-1-.57-2.61-1.59-1.59Z"/><path d="M161.83,598.83A10.37,10.37,0,0,0,163,609.59a14.48,14.48,0,0,0,10.92,5.94c5.09.41,10.15-1.22,14.78-3.17a54.13,54.13,0,0,0,11.56-6.4,29.61,29.61,0,0,0,9.4-11.11,1.16,1.16,0,0,0-.41-1.54,1.13,1.13,0,0,0-1.54.4c-3.38,7.38-10.31,12.18-17.46,15.52s-17.56,7.08-24,.68c-2.56-2.53-4.2-6.52-2.44-9.94.67-1.29-1.27-2.43-1.94-1.14Z"/><path d="M180.06,586.14a11.2,11.2,0,0,1,8.52,5c.72,1.11,2.51.08,1.78-1a13.36,13.36,0,0,0-10.3-6.06,1,1,0,0,0-1,1,1.05,1.05,0,0,0,1,1Z"/><path d="M173.69,221.24c.6,7.32.78,14.66.78,22,0,6.29,0,12.57.47,18.84.31,4,.67,8,.77,12,.11,4.17,0,8.35-.22,12.51a143.75,143.75,0,0,1-3.7,24.58c-.52,2.15-1.19,4.27-1.66,6.44a9.54,9.54,0,0,0,.18,5.86,11.16,11.16,0,0,0,3.25,3.76c.8.71,2.25,1.76,2,3-.31,1.41,1.86,2,2.17.6.68-3.07-2.29-4.78-4.15-6.63A5.08,5.08,0,0,1,172,320a28.57,28.57,0,0,1,1.21-5.39A146.3,146.3,0,0,0,177.49,290a144,144,0,0,0-.05-25c-.58-6.44-.71-12.87-.71-19.33,0-8.15-.12-16.28-.79-24.4-.12-1.44-2.37-1.45-2.25,0Z"/><path d="M273.16,222.65c-.07,7.69.18,15.38.36,23.06.08,3.63.14,7.27.12,10.9s-.19,7.54-.32,11.31a144.94,144.94,0,0,0,5.86,46.15c.6,2,1.35,4,1.82,6a5.74,5.74,0,0,1-.76,5.06c-1.7,2.1-5.11,3.93-4.26,7.13a1,1,0,0,0,2-.55c-.29-1.07.57-1.95,1.26-2.66a27.57,27.57,0,0,0,2.85-3c2.14-2.91,1-6.51,0-9.62a142.37,142.37,0,0,1-6.77-46c.07-3.74.31-7.47.37-11.21s0-7.36-.05-11c-.17-8.52-.49-17-.42-25.56a1,1,0,0,0-2,0Z"/><path class="cls-2" d="M371.07,587.23a169.63,169.63,0,0,1-20.15-9.82,58.64,58.64,0,0,0-1.7-17.2,26.64,26.64,0,0,0,2-2.73,20.85,20.85,0,0,1,1.79-4.54,2.55,2.55,0,0,1,.9-1c.26-.79.49-1.6.67-2.41a65.84,65.84,0,0,1,1-7.79,125.67,125.67,0,0,1,2-26.21q-.24-5-.34-10c-.06-2.85-.08-5.71-.14-8.57A139.85,139.85,0,0,0,358.32,472a8.45,8.45,0,0,0,2.89-5.79q1.62-17.49,1.76-35.07.06-8.66-.25-17.32c0-.07,0-.15,0-.23a282.82,282.82,0,0,0,3.54-47.93c-.08-5.95-6.08-8.62-11.05-6.34a20.21,20.21,0,0,1-11.56,1.5A7.14,7.14,0,0,0,337,356.5l-6.58.41a54.1,54.1,0,0,0-10.22-2.49c-2.65-2.9-7.48-3.87-10.65-.47-1.5,1.62-3,3.12-4.58,4.53l-1.33.06c-1.53.06-3.07.09-4.6.06q-1.25,0-2.49-.12s-.87-.12-1.32-.16v-1.9a7.32,7.32,0,0,0-14-3,8.92,8.92,0,0,0-6.38,2.53,12.11,12.11,0,0,0-3.52,7.83,6.09,6.09,0,0,0-.23,2l.12,1.94c0,.7.07,1.41.13,2.11q3.63,59.7,7.25,119.4a79.46,79.46,0,0,0,2,32.62q.21,4.7.57,9.38L281,537.1a6.87,6.87,0,0,0-.44.74c2.26,6.43,1.45,13.56,3.45,20.06,1.07.46,2.15.87,3.25,1.23a12,12,0,0,1,.32,2.39,2.63,2.63,0,0,1,.59,1.18c1.53,6.93,2.85,14,1.71,21.09a2.51,2.51,0,0,1-2.61,2.15c0,.48,0,1,0,1.45l-.55.3c-3.31,1.72-4.84,6.92-2.63,10,1.9,2.69,4.34,4.39,7.73,4.42a9.47,9.47,0,0,0,7.94-4.58l0-.05a30.38,30.38,0,0,0,2.81-1.7c4.09-2.84,4.93-6.74,5.46-11.4.12-1.1.23-2.2.32-3.3a29.92,29.92,0,0,1-4.81-16.41c-.38-3.23.26-6.38,2.83-8,1.11-4.34,1.07-8.9,1.07-13.36a2.18,2.18,0,0,1,.42-1.36c-.06-.11-.11-.23-.16-.33a8.31,8.31,0,0,0,1-1.33c.44-2.86.9-5.72,1.28-8.58l1.28-38.94a195.47,195.47,0,0,0,4.32-25.9q.67-6.8.83-13.63a37,37,0,0,0-.62-8.44,147.35,147.35,0,0,1,3.92-29.29c1.65,12.34,1.35,24.73,1,37.28-.25,10.15,0,20.28.39,30.41,3.21,5.07,3.21,11.16,3.51,17,.4,7.75.49,15.52,1.07,23.27.15.94.31,1.89.47,2.83a2.31,2.31,0,0,1,.59,1.35c.32,2.61.46,5.23.52,7.85,0,.46,0,.92,0,1.39,0,1.37,0,2.74,0,4.11.21,1.54.39,3.08.56,4.63.12.49.23,1,.35,1.46a4.3,4.3,0,0,1,.08.45c.39,1.24.83,2.46,1.3,3.68a9.52,9.52,0,0,0,1.52,2.53c0,.42.06.85.1,1.27a2.33,2.33,0,0,1,.66,2c-.66,6.25-.26,12.5,0,18.76a3.86,3.86,0,0,1,0,.6c0,.37,0,.74,0,1.12a7.28,7.28,0,0,0,4.51,6.7l.38.14a6.82,6.82,0,0,0,3,2.85l.41.41c.49.45,1,.86,1.55,1.27a55.85,55.85,0,0,0,8.07,5.47c5.18,2.93,11.46,6.93,17.62,6.53a7.55,7.55,0,0,0,7.07-5.39C375.23,592.67,374,588.48,371.07,587.23Z"/><path class="cls-5" d="M308.59,596a2.75,2.75,0,0,1,.71-.91c.11-1.36.22-2.72.36-4.07a8,8,0,0,0-4.05-2.59,11.17,11.17,0,0,1-5,5.81,2.29,2.29,0,0,1-.93,1.48,11.29,11.29,0,0,1-1.1.77l-.13.18-1.24,1.74a2.47,2.47,0,0,1-4.27-.44,4.07,4.07,0,0,1-2-1.15,3.61,3.61,0,0,1-.68-.28c-2.88-1.59-4.17-4.75-4.31-7.91a6.58,6.58,0,0,0-1.39.49,126.47,126.47,0,0,0,1.15,17.84c2.17,3.48,4.75,6.65,8.29,7.88C299.31,608.85,305.07,603.18,308.59,596Z"/><path class="cls-5" d="M378.27,593.9l-3-.46a16.1,16.1,0,0,0-5-.72,7.33,7.33,0,0,0-5.61,2.68L363.1,595a77.47,77.47,0,0,1-10.16-3.68c-3.74-1.7-7.4-4.26-11.48-5a13.76,13.76,0,0,0-2.72-.25,7.71,7.71,0,0,0-3.15-3.82,6.84,6.84,0,0,0-6.83-.16,52.69,52.69,0,0,0,.62,15.91,11.84,11.84,0,0,0,4.95,3.67,9.36,9.36,0,0,0,2.51-.2,9,9,0,0,0,2.16-.67l.21,0,.94.51a5.37,5.37,0,0,1,1.07-1.8,2.58,2.58,0,0,1,4-.12c1.88,2.2,4.8,3.2,7.46,4.11a2.18,2.18,0,0,1,1.49,1.46,36.9,36.9,0,0,0,6,1.29c3.95.49,7.9,1,11.82,1.63,3.58-.35,7.16-1,10.73-1.4a6.72,6.72,0,0,0,2-3.34,6,6,0,0,0,.22-1.42A25.91,25.91,0,0,1,378.27,593.9Z"/><path class="cls-3" d="M347.91,175.61a11.7,11.7,0,0,1-5.71-6.46,5,5,0,0,1-.29-2.67,36.68,36.68,0,0,1-3.65-14.19,3.89,3.89,0,0,0-3.78-3.78,310.51,310.51,0,0,0-39.87-1.73,3.89,3.89,0,0,0-2.06.65c-.14-.42-.27-.83-.4-1.25a3.88,3.88,0,0,0-3.65-2.77,3.8,3.8,0,0,0-3.64,2.77c-.24,1.12-.46,2.25-.68,3.37a2.62,2.62,0,0,0-.23.75c-.28,1.7-.53,3.4-.76,5.11-.59,4-1,8.1-1.29,12.18a2.85,2.85,0,0,0-.31,1.45,4.11,4.11,0,0,0-1.81,2.19c.12-.32,0,.06-.15.29l-.78.52a6.37,6.37,0,0,1-2.06,2.71,9.41,9.41,0,0,1-4.68,1.85l.19.18a37.4,37.4,0,0,0,3.81,2.93c.66.44,1.33.87,2,1.27l.72.42.69.36q2,1.05,4.16,1.9c1.84.76,3.71,1.42,5.61,2,10.26.55,20.54.82,30.82.93,2.43-.47,4.85-1,7.27-1.52,1.57-.36,3.14-.74,4.71-1.15.82-.21,1.64-.44,2.47-.67l.93-.27.54-.17a80.57,80.57,0,0,0,9.26-3.47c1.46-.66,2.9-1.38,4.3-2.17l1.06-.62.14-.08h0A9.77,9.77,0,0,1,347.91,175.61Z"/><path class="cls-2" d="M354.66,212.21a14.45,14.45,0,0,0-3.6-.21H351a2.81,2.81,0,0,0-1-.82,38.44,38.44,0,0,1-7.19-4.3,12.35,12.35,0,0,1-3.73-1.67c-1.71-1.12-3.51-2.11-5.2-3.26-.47-.32-.91-.66-1.35-1a10.51,10.51,0,0,1-2.56-1.36L328,197.76a10.3,10.3,0,0,1-2-4c-.12,0-.24-.09-.37-.12,0-.61.09-1.21.13-1.82s0-1.24,0-1.86a9.11,9.11,0,0,1,.28-1.59,13,13,0,0,0-.84-6.08,8,8,0,0,0-.12-1.21,27.54,27.54,0,0,0,2.41-3.27,26.58,26.58,0,0,0,2.69-5.83,22.44,22.44,0,0,0,.88-3.46c.52-.35,1-.73,1.51-1.12a52.75,52.75,0,0,0,4.57-3.55,9,9,0,0,0,2-3,12.28,12.28,0,0,1-.63-4.92,9.24,9.24,0,0,1,.17-1.14,6.09,6.09,0,0,0-2.22-2.06,31.51,31.51,0,0,0-.34-5.61c-.52-3.56-2.35-7.31-5.71-8.85a26.39,26.39,0,0,0-9.3-5.92c-.23-.07-.45-.14-.68-.19a10.9,10.9,0,0,0-7.73-3.84,3.23,3.23,0,0,0-1.54.32,12,12,0,0,0-8.78-1.19,14.68,14.68,0,0,0-8.83,7c-2.14,3.73-2.76,8.06-3,12.29a4.27,4.27,0,0,0,0,.81,13.87,13.87,0,0,0-.25,5,4.65,4.65,0,0,0-2.44.9c-3,2.19-2.52,6.87-.86,9.72a9.81,9.81,0,0,0,5.69,4.6l0,0a2.64,2.64,0,0,0,0,.57c.07,5.16,2.52,9.12,5.94,12.31-.45,5.16-1.47,10.27-1.9,15.44-2.66,1.15-5,3.19-7.31,4.87l-11.42,8.46a5.07,5.07,0,0,0-1.23,1.26c-2.83,1-5.63,2.06-8.4,3.22l-.1,0h0l-.9.38c-1.71.72-2.22,3.19-1.55,4.72s2.69,2.91,4.46,2.19l.68-.26q16.28-.78,32.57-1.18a21.55,21.55,0,0,0,2.75,4.49,3.88,3.88,0,0,0,2.75,4.16,3.68,3.68,0,0,0,1.22.13,3.83,3.83,0,0,0,4.63,2.23,3.79,3.79,0,0,0,4.37-2.66c.14-.43.29-.84.43-1.26a2.58,2.58,0,0,0,.36-.6l3.05-6.83c3.37,0,6.73-.06,10.1-.08l7.05.3,7.27.3,3.63.15c1.52.06,3.4.43,4.77-.4C359.22,217.89,358.15,213.15,354.66,212.21Z"/><path class="cls-3" d="M334.32,130.91c-.46-.77-.94-1.52-1.43-2.27-.22-.65-.47-1.29-.75-1.91a15.73,15.73,0,0,0-6.26-7.1c-3.35-3.41-7.91-5.36-12.49-3.53a20.26,20.26,0,0,0-13.78,3.13,4.14,4.14,0,0,0-1.77,2.56c-.89,1.1-1.71,2.28-2.51,3.46l-.26.19a4,4,0,0,0-.59.09c-4.16.9-6.63,5.29-8.14,8.92-.19.47-.37.94-.53,1.41a4,4,0,0,0-.83,1,2.3,2.3,0,0,0-.41.72,22.37,22.37,0,0,0-1.89,8.63c0,.09,0,.19,0,.28a48.58,48.58,0,0,0-.24,7.63c.15,3,4.84,3,4.69,0,0-.66,0-1.33,0-2a3.55,3.55,0,0,0,2.53-1.09,2.75,2.75,0,0,0,.72-.46,7.37,7.37,0,0,0,1.56-2.52c.49-1,1-2.07,1.48-3.11a15.15,15.15,0,0,0,1.51-3.63,2.5,2.5,0,0,0-.11-1.4l.84-1.68c.08-.31.18-.62.27-.92a5.93,5.93,0,0,1,0-.73,7.6,7.6,0,0,1,6.47-7.11l.5-.33.27-.19.2-.09c.26-.14.3-.18.3-.19l.27-.06a5.17,5.17,0,0,0,.72-.19,7.13,7.13,0,0,1,1,0s1.16.15.61,0a8.3,8.3,0,0,1,4,1.76,20.2,20.2,0,0,1,3.58,3.58c.68,1.39,1.58,2.63,2.23,4a15.39,15.39,0,0,1,.7,1.83,16,16,0,0,0,.84,2.93l.21.72c.62,2.09,1.25,4.17,1.87,6.26a2.19,2.19,0,0,0,1.84,1.61,5.3,5.3,0,0,0,1.4,1.44,1.8,1.8,0,0,0,.46.23c2.84,4,6.85,7.78,11.76,8.64a3.89,3.89,0,0,0,4.65-2.64,4.07,4.07,0,0,0-.61-3.26C343.17,147.54,338.61,138,334.32,130.91Z"/><path class="cls-6" d="M389.4,287.1l-.4-.34c1.62-6.71.89-14.17-5.84-17.69-.2-.11-.41-.2-.62-.29l-12.34-34.5c-.29-1.57-.53-3.14-.82-4.72-1-5.45-3.74-11.17-9-13.65a8.1,8.1,0,0,0-1.3-.49,4.68,4.68,0,0,0-2.1-1.59c-.88-.34-1.75-.69-2.63-1.05a21.35,21.35,0,0,0-7.32-5.55,10.6,10.6,0,0,0-7-.86,4.78,4.78,0,0,0-1.4-.2,4.55,4.55,0,0,0-1.95.46,2.77,2.77,0,0,0-1.78-.36c.42-3.77-4.87-5.66-7-2.26a12.43,12.43,0,0,0-1.49,3.47,19,19,0,0,0-2.18,1.43,4.72,4.72,0,0,0-2.4,1.09,5.91,5.91,0,0,0-1.75,5.78,1.46,1.46,0,0,0,.05.2q-3.14,3.95-6.26,7.91c-2.37-2.77-4.75-5.54-7.06-8.35-2.58-3.13-5.2-6.85-6.34-10.71a3.84,3.84,0,0,0-5.56-2.25q-14.75,7.08-29.31,14.52a3.07,3.07,0,0,0-.56.38,2.9,2.9,0,0,0-1.59,1,35.29,35.29,0,0,0-4.41,6.66c-1.33,2.7-2.7,5.75-2.32,8.83a24.61,24.61,0,0,0,1.07,3.68c.29,1.05.3,2.51.51,3.86,0,.13,0,.27.07.4a55.31,55.31,0,0,0-.16,6.81,23.37,23.37,0,0,0,.7,6.13,35.66,35.66,0,0,0-1.34,6.56,26.56,26.56,0,0,0,1.35,10.53c1.93,6.24,3.88,12.61,6.24,18.7a31.39,31.39,0,0,0,1.3,2.89,30.82,30.82,0,0,0,0,3.72,22.8,22.8,0,0,1,1.61,3.15,5.85,5.85,0,0,1,.42,2.6,35.37,35.37,0,0,1,.75,7.12,3.89,3.89,0,0,1-.37,1.67v7.44a3.89,3.89,0,0,1-.21,1.24,86,86,0,0,0,2,9.8,139.92,139.92,0,0,1-3.7,16.49,7.48,7.48,0,0,0,5.13,9,26.27,26.27,0,0,0,3.1.73,29.15,29.15,0,0,0,25.68,4.64,27.12,27.12,0,0,0,12.39-7.5c.34-.38.67-.78,1-1.18a8.55,8.55,0,0,0,1.09-.55,80.22,80.22,0,0,0,20.36,10.46,6.14,6.14,0,0,0,3.34.16,46.61,46.61,0,0,0,6.54,1.26c1.51.55,3.05,1,4.59,1.46h.08a6.58,6.58,0,0,1,4-1.25,79.23,79.23,0,0,0,15-1.05,7.91,7.91,0,0,0,.45-4.87l-4.32-18.21-.87-6.73a11.71,11.71,0,0,0,1.76-3.82,6.12,6.12,0,0,0,1.49-4.21c0-.66-.05-1.33-.07-2,1.16-3.71,1.23-7.89-.39-11v0l.24,0a28,28,0,0,0,8-3.13c6.39-2.59,11.87-7,14.95-13.52C391.71,292.67,391.74,289.25,389.4,287.1Z"/><path class="cls-2" d="M311.23,237.1a2.74,2.74,0,0,0-2.88,1.81,11.76,11.76,0,0,0-2-.22,3,3,0,0,0-3.18,3.22,4,4,0,0,0-1.4,1.49,3.68,3.68,0,0,0,.32,4,3.55,3.55,0,0,0,.33,4.25,3,3,0,0,1,.35,1.38,2.5,2.5,0,0,0,.9,1.61,2.87,2.87,0,0,0,2.92,1.87,6.27,6.27,0,0,0,2.84-.86,1.48,1.48,0,0,1,0-.21,21.91,21.91,0,0,1,.26-4A1.94,1.94,0,0,1,311,249.9v0a1.76,1.76,0,0,1,.46-1l-.14-.17.28-.58a3.6,3.6,0,0,0,.35-1.2,3.56,3.56,0,0,0,1.62-1.68,3.21,3.21,0,0,0,2.13-2.25A4.74,4.74,0,0,0,311.23,237.1Z"/><path class="cls-2" d="M369.85,238.62a4.18,4.18,0,0,0-.5-.53,8.74,8.74,0,0,0,.18-3.34,4.59,4.59,0,0,0-3.78-3.69,3.68,3.68,0,0,0-.32-.37,10.43,10.43,0,0,0-3.68-2.27,3.81,3.81,0,0,0-1.5-.57l-1.42-.5a38.2,38.2,0,0,0-14.31-2.45c-.52,0-1,.08-1.58.14a3.07,3.07,0,0,0-.61-.48,3.38,3.38,0,0,0-4.52,1.18c-.23.31-.44.63-.64,1a10.66,10.66,0,0,0-4.37,3.84,6.94,6.94,0,0,0-.23,6.74c.51,1.2,1.05,2.39,1.61,3.57a1.21,1.21,0,0,1,0,.19,3.45,3.45,0,0,0,1,2.31c0,4.27,3.2,7.84,7.29,9.1,2.21,2.34,5.94,2.79,9.05,2.63A21.13,21.13,0,0,0,361.61,252c2.22-1.38,4.75-3.34,5.61-5.76a6.66,6.66,0,0,0,1.56-.58C371.47,244.26,372.15,240.4,369.85,238.62Z"/><path class="cls-1" d="M377.53,274.58a15.41,15.41,0,0,0-2.34-7.92c0-.18,0-.37,0-.55a1.69,1.69,0,0,1-1.82-1.49c-.74-4.82-2.87-9.45-7.83-11a1.52,1.52,0,0,1-1.16-1.63l-.34-.05a8.16,8.16,0,0,0-4.77.81,1.55,1.55,0,0,1-1.49,1.77c-1.41.1-2.85.27-4.29.42l-1,.31-.2-.2c-3.15.27-6.31.26-9.2-1.17a1.84,1.84,0,0,1-1-1.17l-.79-.21a32.33,32.33,0,0,1-7.05-2.62c-1.1-.39-2.18-.81-3.26-1.24l-.36-.15-.46-.21-1.81-.83c-2.34-1.12-4.6-2.61-7.09-3.39a6.25,6.25,0,0,0-5.08-2.36,4.73,4.73,0,0,0-.53,0c-.51.63-1,1.25-1.56,1.87-2,3-3.93,6.21-4.44,9.83l0,.13a7.67,7.67,0,0,0,1,2.89c1.88,2.92,4.95,3.71,8.07,4.65l13.88,4.18a6,6,0,0,0,1.83.24,4.9,4.9,0,0,0,.87,2.21,18.49,18.49,0,0,0,1.73,2,20.92,20.92,0,0,0-.71,3.54c-.28,2.41-.13,4.84-.27,7.26,0,.65-.1,1.3-.16,1.95,0,.17,0,.3,0,.4s0,.23-.07.39c-.15.85-.31,1.69-.5,2.52a17.93,17.93,0,0,0-5,4c-1.39,1.49-2.77,3-4.16,4.46a7.54,7.54,0,0,0-1.74.67c-4,2.21-7.68,4.94-9.51,9.29-2.11,5-.7,10.25,2.79,14.21a22.39,22.39,0,0,0,6.66,4.74,7.78,7.78,0,0,0-.17,1.47c1.77,1.66,3.4,3.47,5.16,5.15.5.48,1,1,1.55,1.43l1.82,1.06a1.58,1.58,0,0,1,.74.86,9.79,9.79,0,0,0,3.94,1.45,1.67,1.67,0,0,1,1.52,1.36l.1,0a39.74,39.74,0,0,0,6.06-2.16,4.15,4.15,0,0,0,.32-.53,25.14,25.14,0,0,0,2.15-5.8,17.26,17.26,0,0,1-1-1.92,15.84,15.84,0,0,1-1.62-2.67l-.22-.33a4.89,4.89,0,0,1-1.41-1.81,3.07,3.07,0,0,1-.15-2c-.06-.32-.11-.65-.14-1a1.86,1.86,0,0,1,.65-1.71,7.12,7.12,0,0,1,5.06-1.46,1.9,1.9,0,0,1,.93.41l.27,0a8,8,0,0,1,1.76,0l.67.05c1-.33,2.06-.64,3.09-.94,5.3-1.51,12.19-1.72,14.73-7.45A117.45,117.45,0,0,0,375.7,291a31.87,31.87,0,0,0,1.41-12.33A16.3,16.3,0,0,0,377.53,274.58Zm-45.89,56.68-.59-.24a1.44,1.44,0,0,1,.69.23Z"/><path class="cls-3" d="M372.92,229.75a3,3,0,0,0-.42-1.14,11.63,11.63,0,0,0-.5-1.84,11.13,11.13,0,0,0-3.56-7.43,17.31,17.31,0,0,0-6.37-3.12l-.31-.09c-.29-.2-.58-.39-.88-.56a10.16,10.16,0,0,0-5.65-1.29,3.43,3.43,0,0,0-3.51-1.41,28.48,28.48,0,0,0-5.24,1.3,16.36,16.36,0,0,0-7.53,3.89,19.26,19.26,0,0,0-5.46,5.32,3.62,3.62,0,0,0-.24.43,13.24,13.24,0,0,0-1.85,6.26c-.29,6.35,9.91-2.08,11.25-3.59,1.12-1.26,2.86-.88,4.13-1.89-2.66,2.13,7.26,7.13,8.7,7.16a2,2,0,0,1,1,.17c.45.25.6.83,1,1.2a2.69,2.69,0,0,0,1.12.56c1.54.48,5.63,1.07,8,2.25a3,3,0,0,0,1.51,1.21,2.1,2.1,0,0,1,.15.3,3.26,3.26,0,0,0,.44-.15,3.46,3.46,0,0,0,4-3.14c0-.05,0-.1,0-.15l.07-.16A7.88,7.88,0,0,0,372.92,229.75Z"/><path class="cls-2" d="M347.14,340.56a4.36,4.36,0,0,0,3.11-5.79,3.43,3.43,0,0,0-3.42-2.41,2.64,2.64,0,0,0-1.71,0,6.27,6.27,0,0,0-1.62.91,34.44,34.44,0,0,0-3.73,1.54,22.21,22.21,0,0,0-2.38,1.36,3.42,3.42,0,0,0-.57,0,5.4,5.4,0,0,0-2.95,1.74,3.35,3.35,0,0,0-1.2,1.56l-.23.36-.59.1a3.25,3.25,0,0,0-2.31,2.31,4.1,4.1,0,0,0,4.92,5.23,3.62,3.62,0,0,0,2.12-1.44,23.91,23.91,0,0,0,9.54-4.73A9.81,9.81,0,0,0,347.14,340.56Z"/><path d="M339.38,224.17a4.82,4.82,0,0,1,0,.93,1.09,1.09,0,0,1,0,.26c0-.14,0-.16,0,0s-.06.31-.1.46l-.12.41-.09.23c-.08.2.06-.11,0,0a8.13,8.13,0,0,1-.45.82l-.12.18s-.21.25,0,0l-.28.33a5.77,5.77,0,0,1-.68.63c.11-.09.09-.07,0,0l-.18.12a3.91,3.91,0,0,1-.44.26l-.19.1c-.17.08,0,.07,0,0-.05.08-.4.14-.48.17a1.12,1.12,0,1,0,.59,2.17,7,7,0,0,0,4.85-7.11,1.13,1.13,0,1,0-2.25,0Z"/><path d="M350.48,256.16c-5.33,0-10.45-1.6-13.52-4.49-4.4-4.14-4.74-12.37-4.74-14.8a1,1,0,1,1,1.92,0c0,4.6,1.08,10.53,4.14,13.4,3.84,3.62,11.76,5,18.41,3.16,2.89-.79,7.95-2.87,9.43-8a1,1,0,0,1,1.84,0A3.89,3.89,0,0,0,369,245a5.33,5.33,0,0,0,2-5.45,2.4,2.4,0,0,0-2.61-1.81,1,1,0,1,1,0-1.92h0a4.32,4.32,0,0,1,4.44,3.19,7.24,7.24,0,0,1-2.79,7.61,5.23,5.23,0,0,1-2,.77,4.62,4.62,0,0,1-.65.09c-1.65,3.69-5.22,6.42-10.24,7.79A25.39,25.39,0,0,1,350.48,256.16Z"/><path d="M354.31,241.23h.14a.67.67,0,0,0,.37-.08.76.76,0,0,0,.32-.2.72.72,0,0,0,.2-.32.82.82,0,0,0,.09-.38l0-.26a.94.94,0,0,0-.25-.43l-.2-.16a1.05,1.05,0,0,0-.49-.13h-.14a.73.73,0,0,0-.38.09.87.87,0,0,0-.51.51.73.73,0,0,0-.09.38l0,.26a1,1,0,0,0,.25.44l.2.15a1,1,0,0,0,.49.13Z"/><path d="M342,240.36a1,1,0,0,0,0-2,1,1,0,0,0,0,2Z"/><path d="M350.86,246.27a6.27,6.27,0,0,1-6.67-.53.6.6,0,0,0-.81.21.62.62,0,0,0,.21.81,7.44,7.44,0,0,0,7.86.52c.67-.36.07-1.37-.59-1Z"/><path d="M345.05,222.21a10.76,10.76,0,0,0,11.54,11.24c2.91-.25,6.39-1.73,6.88-5a4.79,4.79,0,0,0-4.86-5.63,4.25,4.25,0,0,0-3.93,2.64c-.52,1.77.9,3,2.31,3.74s2.43-1.28,1.14-1.94c-.54-.27-1.71-.75-1.1-1.47a2.45,2.45,0,0,1,2.29-.67,2.61,2.61,0,0,1,1.56,4c-1.12,1.74-3.78,2.19-5.68,2.09a8.36,8.36,0,0,1-5.58-2.56,8.66,8.66,0,0,1-2.32-6.45c.08-1.45-2.18-1.44-2.25,0Z"/><path d="M373.64,235.58A15.48,15.48,0,0,0,372.59,223a21.46,21.46,0,0,0-9.29-8.45c-8-4-18.37-4.27-25.61,1.5-4.31,3.45-7.82,9-6.92,14.7a1.13,1.13,0,0,0,1.38.79,1.15,1.15,0,0,0,.79-1.38c-.71-4.48,2.28-8.84,5.42-11.72A18.13,18.13,0,0,1,349.25,214c7.54-.58,16.25,2.54,20.63,9a13.34,13.34,0,0,1,1.59,12c-.46,1.38,1.71,2,2.17.6Z"/><path d="M363.34,252.65c7.68,4.59,10.73,13.84,12.11,22.19a55.42,55.42,0,0,1,.43,14.44c-.42,4.34-1.08,9-2.92,13a22,22,0,0,1-7.56,9.13,11.76,11.76,0,0,1-5.26,2,40.92,40.92,0,0,1-7.5-.39c-3.83-.34-10.18-1-11,4.15a8.32,8.32,0,0,0,1.1,5.31c1.06,1.84,2.59,3.38,3.56,5.27.39.75,1,2,.37,2.74a6.43,6.43,0,0,1-2.64,1.44c-2.19.92-4.51,1.64-6.85.85a24.59,24.59,0,0,1-6-3.57,59,59,0,0,1-5.71-4.61c-3.18-2.91-6.17-6.29-7.72-10.36-1.44-3.78-1.61-8.29.48-11.87,1.91-3.28,5.43-5.06,8.6-6.9,3.45-2,6.63-4.31,8.49-7.95,1.95-3.81,2.47-8.13,2.91-12.33.24-2.24.42-4.56-.61-6.64a8.32,8.32,0,0,0-4.33-3.72c-2-.85-4-1.37-6.05-2q-3.51-1.14-6.92-2.53c-2.32-.94-4.59-2-6.83-3.1-.82-.41-2.12-.81-2.67-1.59s-.1-2.08.11-2.9a19.29,19.29,0,0,1,2.65-6.06,15.75,15.75,0,0,1,1.94-2.44,1.3,1.3,0,0,1,1.11-.51,6.49,6.49,0,0,1,1.72.68l14.28,6.72,6.94,3.27c1.3.61,2.44-1.33,1.13-1.95l-14.95-7c-2.42-1.14-4.84-2.34-7.29-3.42a3.82,3.82,0,0,0-3.51-.14,8.16,8.16,0,0,0-2.36,2.36,21.71,21.71,0,0,0-3.31,6.14c-.67,1.93-1.63,4.76-.28,6.59a7.19,7.19,0,0,0,2.73,1.91c1.16.59,2.33,1.16,3.51,1.7q3.54,1.63,7.2,3c2.37.89,4.78,1.67,7.21,2.41,1.81.55,3.81,1.16,5.17,2.55,1.6,1.64,1.44,4,1.23,6.12a60.37,60.37,0,0,1-.93,6.55,20,20,0,0,1-2.18,6.06,14.07,14.07,0,0,1-4,4.28c-3.25,2.33-7,3.85-10,6.55a14.18,14.18,0,0,0-4.47,11.49,21.8,21.8,0,0,0,5.26,12.32,52.07,52.07,0,0,0,10.78,9.64,23.14,23.14,0,0,0,6.5,3.6,11.3,11.3,0,0,0,7.43-.87c2-.83,4.62-1.7,4.77-4.28.13-2.23-1.42-4.31-2.68-6s-2.47-3.19-2.65-5.21a3.71,3.71,0,0,1,.44-2.31,3.16,3.16,0,0,1,2.43-1.22c5-.62,10.14,1.32,15.13.22,4.18-.93,7.58-3.92,10.12-7.24a24.91,24.91,0,0,0,3.23-5.41,33.53,33.53,0,0,0,1.94-6.72,64.4,64.4,0,0,0,1.21-14.66,57.35,57.35,0,0,0-2.67-15.09,30.93,30.93,0,0,0-6.38-11.62,21.77,21.77,0,0,0-4.83-3.93,1.13,1.13,0,0,0-1.14,1.94Z"/><path d="M317.79,241.73a34.27,34.27,0,0,0-3.23-3.78,6.24,6.24,0,0,0-3.92-2.13,3.24,3.24,0,0,0-3.27,2,2.71,2.71,0,0,0,1.15,3.34l.57-2.1-4-.13c-1.12,0-2.32,0-3,1a2.64,2.64,0,0,0,0,3,4.91,4.91,0,0,0,2.89,1.78v-2.17a25.58,25.58,0,0,1-3.28.24,3.17,3.17,0,0,0-2.29,1.49,2.57,2.57,0,0,0,0,2.52,2.17,2.17,0,0,0,1,.84c.27.11,1,.11,1.17.24.16-.63.33-1.26.5-1.88a3.17,3.17,0,1,0,2.56,5.75l-1.69-1c0,.18-.12.23-.37.44a7,7,0,0,0-1.08.95,2.42,2.42,0,0,0,.1,3.19c.9,1,2.29,1.11,3.57,1.15l4.65.16c1.45.05,1.45-2.2,0-2.25l-3.78-.13c-.58,0-2.53.21-2.82-.49-.13-.33.71-.79,1-1a2.31,2.31,0,0,0,1-2,1.14,1.14,0,0,0-1.69-1c-1.1.57-2-1.17-.84-1.63a1.15,1.15,0,0,0,.5-1.89,2.72,2.72,0,0,0-1.73-.67c-.4,0-.12-.11-.11,0,0,0,0,0,0-.06a.54.54,0,0,1,.16-.35c.39-.38,1.19-.31,1.67-.3a8,8,0,0,0,2.43-.23,1.14,1.14,0,0,0,0-2.17,3,3,0,0,1-1.58-.78c-.29-.43-.13-.52.3-.56a40.58,40.58,0,0,1,4.8.15,1.14,1.14,0,0,0,.57-2.1c-.38-.2-.24-.71.07-.92a2,2,0,0,1,2,.27,10.92,10.92,0,0,1,2,1.88c.72.79,1.4,1.61,2,2.47a1.16,1.16,0,0,0,1.54.4,1.13,1.13,0,0,0,.41-1.54Z"/><path d="M348.45,332a5.7,5.7,0,0,1,.68,6.4c-1.34,2.4-4.24,3.33-6.7,4.09a36.39,36.39,0,0,0-4.18,1.48,39.64,39.64,0,0,0-3.75,2.39,2.14,2.14,0,0,1-2.8-.25,3.41,3.41,0,0,1-.93-3c.58-3.14,3.89-5.44,6.4-7,1.22-.77.09-2.72-1.14-1.94-2.91,1.83-6.14,4.28-7.25,7.68-1,2.95.6,6.85,4,7.23,1.75.2,3.11-.86,4.44-1.83a16.24,16.24,0,0,1,4.84-2.22c3.21-1,6.66-2,8.7-4.9a8,8,0,0,0-.7-9.66c-1-1.08-2.56.52-1.59,1.59Z"/><path class="cls-6" d="M367.19,308.75a39.19,39.19,0,0,0-7.62-4.88,88.29,88.29,0,0,0-8.9-4.09c-9.33-3.74-19.12-6.41-28.87-9-5.65-3.13-11.23-6.46-17.59-8-4.13-1-5.89,5.38-1.75,6.36a38.67,38.67,0,0,1,5.72,1.88,3.26,3.26,0,0,0,1.52,3.13l1.09.69-.12.09a3.35,3.35,0,0,0-2.53,5.64,28,28,0,0,0,3,2.59l-4.1-.86a3.34,3.34,0,0,0-3.73,4.77c0,.06,0,.12-.05.18-2.19-.49-4.39-1-6.59-1.44-1.21-.67-2.42-1.38-3.61-2.09a65.59,65.59,0,0,1-7.54-5,11.59,11.59,0,0,1-3.35-3.82,16.46,16.46,0,0,1,7.88.94,3.34,3.34,0,0,0,4.06-2.31,3.38,3.38,0,0,0-2.31-4.06,22.4,22.4,0,0,0-14-.39,3.25,3.25,0,0,0-2.3,2.31c-.94,6.25,3.19,10.67,8,14q1,.7,2,1.38a3.26,3.26,0,0,0,2.23,3.85l11.45,4.09a3.23,3.23,0,0,0,2.31,3.38c7.53,2.63,15.41,4.15,23.24,5.68L328.3,325a94.51,94.51,0,0,0,20.24,4.86,31.9,31.9,0,0,0,8.29.29l5.1,1.2c2.29.54,4.94-1.57,4.06-4.06-.55-1.57,0-3,.43-4.57s.85-3.1,1.28-4.65C368.56,315,370.07,311.34,367.19,308.75Z"/><path d="M291.9,167.66a7.44,7.44,0,0,1-7.06-7.06v-4.17c0-3.62,1.77-5.38,5.42-5.38a.9.9,0,0,1,0,1.79c-3,0-3.64,1.32-3.64,3.59v4.17c0,2.1,2.11,5.27,5.28,5.27a.9.9,0,0,1,0,1.79Z"/><path d="M333.06,167a.9.9,0,0,1,0-1.8,4.54,4.54,0,0,0,4.44-4.4.9.9,0,1,1,1.79.15,6.31,6.31,0,0,1-6.23,6Z"/><path d="M312.17,189a20.35,20.35,0,0,1-16.68-9.15c-3.24-4.79-4.3-10.48-4.92-15.4a1,1,0,0,1,1.91-.24c.58,4.7,1.59,10.11,4.6,14.56,4.92,7.29,13.93,10.23,21.42,7a20,20,0,0,0,8.84-8c2.5-4,3.33-8.69,3.82-12.69a1,1,0,0,1,1.91.23c-.52,4.21-1.4,9.1-4.09,13.47a21.72,21.72,0,0,1-9.72,8.79A17.92,17.92,0,0,1,312.17,189Z"/><path d="M303.75,157.54h-.14a.87.87,0,0,0-.4.09.72.72,0,0,0-.33.21.84.84,0,0,0-.21.33.71.71,0,0,0-.09.4l0,.27a1,1,0,0,0,.27.46l.21.16a1,1,0,0,0,.52.14h.14a.68.68,0,0,0,.4-.09.72.72,0,0,0,.33-.21.78.78,0,0,0,.21-.33.71.71,0,0,0,.09-.4l0-.27a1,1,0,0,0-.27-.46l-.21-.16a1,1,0,0,0-.52-.14Z"/><path d="M319.91,159.45a1,1,0,0,0,0-2.06,1,1,0,0,0,0,2.06Z"/><path d="M310.58,157.69a2.35,2.35,0,0,1,1.4,2.65,12.52,12.52,0,0,1-1.33,3.57,12.74,12.74,0,0,0-1.26,3.06,3.27,3.27,0,0,0,2.12,3.62c.74.29,1.07-.91.33-1.19a2,2,0,0,1-1.27-2,4.35,4.35,0,0,1,.39-1.27c.48-1.13,1.08-2.2,1.55-3.34a7.16,7.16,0,0,0,.72-3.4,3.46,3.46,0,0,0-2-2.77c-.71-.36-1.34.71-.63,1.07Z"/><path d="M306,174.69c1.62,2,4.36,2.63,6.85,2.57a8.67,8.67,0,0,0,6.46-2.65c.52-.6-.35-1.48-.88-.88a7.4,7.4,0,0,1-5.58,2.3c-2.19.05-4.55-.41-6-2.21-.49-.63-1.36.25-.87.87Z"/><path d="M371.21,238c2.59,5.43,4.12,11.19,5.81,16.94a80.86,80.86,0,0,0,3,8.84c1.19,2.84,2.56,5.6,3.84,8.39,2.37,5.12,4.57,10.57,4.26,16.31a24.84,24.84,0,0,1-5,13.29,23.28,23.28,0,0,1-13.11,8.85c-1.4.34-.81,2.51.6,2.17,10-2.41,17.83-11.51,19.43-21.59.92-5.77-.46-11.26-2.68-16.58-1.24-3-2.66-5.85-4-8.76a76.34,76.34,0,0,1-3.48-9c-2.1-6.75-3.73-13.57-6.78-20-.62-1.31-2.57-.17-2,1.13Z"/><path d="M325.35,181.45c-.14,3.4-.29,6.8-.43,10.2-.06,1.47-.3,3,.35,4.38a7.38,7.38,0,0,0,2.28,2.47,113.26,113.26,0,0,0,15,10.2q4.53,2.51,9.29,4.55a1.17,1.17,0,0,0,1.54-.4,1.13,1.13,0,0,0-.4-1.54,102.53,102.53,0,0,1-15.43-8.26c-2.43-1.59-4.81-3.29-7.09-5.09a23.93,23.93,0,0,1-2.69-2.23c-.91-1-.69-2.11-.64-3.34.15-3.65.31-7.29.46-10.94.06-1.45-2.19-1.45-2.25,0Z"/><path d="M297.08,182.21a42.94,42.94,0,0,1,.26,9.41c-.07.77-.16,1.52-.28,2.28-.07.38-.13.76-.21,1.14s-.06.63-.3.86c-1.07,1-2.18,2-3.31,2.9a83.67,83.67,0,0,1-14.44,9.38,65.09,65.09,0,0,1-7.52,3.52,36,36,0,0,0-6.73,3.1,16.46,16.46,0,0,0-5.28,5.09,19,19,0,0,0-2.39,8.87c-.37,6.4-.73,12.81-.68,19.22,0,3.23.14,6.46.4,9.68.14,1.65.31,3.29.52,4.94a33,33,0,0,1,.22,4.33,62.19,62.19,0,0,0,2,15.65c1.27,4.92,3.08,9.91,6.5,13.76s7.81,6.42,12.21,8.78c5.09,2.73,10.27,5.3,15.5,7.74a236.44,236.44,0,0,0,34,13,153.28,153.28,0,0,0,35.54,6.16,3.87,3.87,0,0,0,3.31-1.4,10.84,10.84,0,0,0,1-1.62,8.52,8.52,0,0,0,.8-2.34,54.84,54.84,0,0,0,1.5-9,57.72,57.72,0,0,0,0-9.11c-.06-.75-.14-1.5-.22-2.24a5.13,5.13,0,0,0-.49-2.24c-.73-1.12-1.94-1-3.1-1.2a183.46,183.46,0,0,1-36.23-11c-5.74-2.35-11.36-5-17.08-7.35-2.87-1.2-5.77-2.32-8.72-3.31a13.92,13.92,0,0,1-3.65-1.45c-1.12-.77-1.33-2.24-1.7-3.46-.91-3-1.83-6.09-2.75-9.13a1.13,1.13,0,0,0-2.17.6l2.67,8.85a12.13,12.13,0,0,0,1.47,3.83,6.39,6.39,0,0,0,2.86,2c1.22.49,2.49.84,3.72,1.27,1.41.48,2.8,1,4.18,1.54,2.68,1,5.34,2.17,8,3.32,5.3,2.31,10.56,4.71,16,6.78s11.09,4.07,16.75,5.76q4.75,1.42,9.59,2.56c1.61.38,3.22.73,4.85,1.05.83.17,1.67.33,2.51.47a3,3,0,0,0,.94.1.34.34,0,0,1,.14,0c-.18-.06-.16-.12,0,.15l-.15-.57a59.32,59.32,0,0,1,.34,13.71,50.49,50.49,0,0,1-1.13,6.67,9.21,9.21,0,0,1-1,3c-.44.67-.83,1.53-1.74,1.54-2.24,0-4.52-.26-6.75-.47s-4.45-.48-6.67-.8q-6.69-1-13.28-2.55c-17.61-4.16-34.45-11.1-50.59-19.21-3.59-1.81-7.21-3.61-10.66-5.68a32.62,32.62,0,0,1-8.67-7.05c-2.36-2.87-3.71-6.48-4.77-10a59.69,59.69,0,0,1-2.28-11.78c-.17-1.87-.22-3.74-.22-5.62a22.45,22.45,0,0,0-.08-3.07c-.17-1.26-.33-2.51-.46-3.78a131.27,131.27,0,0,1-.6-14.44c0-4.82.28-9.64.56-14.45.06-1.16.07-2.34.2-3.49a22.74,22.74,0,0,1,.79-3.57,11.15,11.15,0,0,1,3-5c2.56-2.54,6-4,9.33-5.17a54.33,54.33,0,0,0,5.81-2.66q2.89-1.43,5.68-3a83.18,83.18,0,0,0,10.65-7.29q1.2-1,2.37-2c.39-.34.77-.69,1.15-1a2.68,2.68,0,0,0,1-1.6,38.2,38.2,0,0,0,.81-7.15,45.63,45.63,0,0,0-.41-6.71,1.17,1.17,0,0,0-1.12-1.13,1.14,1.14,0,0,0-1.13,1.13Z"/><path class="cls-2" d="M379.8,306.9c.11-1.12.35-3.21-1.22-3.45a1.07,1.07,0,0,0-1.27.72c-.31.85-.59,1.72-.84,2.59a27.22,27.22,0,0,0-1.4,3.46,1.22,1.22,0,0,0-.64.47l-2.84,3.74a1,1,0,0,0-.71.29c-.14.14-.28.28-.41.43a1,1,0,0,0-1.28.43h0v2.66l.1.09-.1.06c0,1.84,0,3.68-.08,5.52a1.36,1.36,0,0,0,1.55.14,4.2,4.2,0,0,0,1.38-1.48l.11-.08.5-.39a2.51,2.51,0,0,0,1.95-.94,5.88,5.88,0,0,0,1.75-3.72,17.48,17.48,0,0,0,1.79-3.43c.18-.48.34-1,.48-1.45,0-.17.09-.34.14-.51s.07-.25.11-.37a30.42,30.42,0,0,0,.92-3.09,1.09,1.09,0,0,0-.09-.74C379.74,307.54,379.77,307.22,379.8,306.9Z"/><path d="M368.33,326.23c2.58-.26,4.46-2.06,6.16-3.86a29.16,29.16,0,0,0,4.39-5.91c2.32-4.23,3.77-9.8,1.68-14.39a1.14,1.14,0,0,0-1.54-.41,1.16,1.16,0,0,0-.41,1.54,10.72,10.72,0,0,1,.44,6.29,19.25,19.25,0,0,1-2.12,5.83,26.68,26.68,0,0,1-3.62,5c-1.28,1.4-3,3.43-5,3.64a1.15,1.15,0,0,0-1.12,1.12,1.13,1.13,0,0,0,1.12,1.13Z"/><path d="M312.64,228.09a1,1,0,0,1-.84-.51c-2.33-4.3-4.73-8.53-7-12.62s-4.57-8.06-6.82-12.21a1,1,0,1,1,1.68-.91c2.25,4.13,4.57,8.22,6.81,12.18s4.72,8.33,7.06,12.65a1,1,0,0,1-.39,1.3A.93.93,0,0,1,312.64,228.09Z"/><path d="M312.75,228.05a.9.9,0,0,1-.47-.13,1,1,0,0,1-.36-1.31c2-3.55,4.07-7.28,6.05-10.89,2.57-4.69,5.22-9.53,7.87-14.05a1,1,0,1,1,1.66,1c-2.63,4.49-5.28,9.32-7.84,14-2,3.62-4,7.36-6.07,10.92A1,1,0,0,1,312.75,228.05Z"/><path class="cls-6" d="M341.25,195.56c-4.44,3.14-9.29,6-14.69,6.76,2.81-.38,8.37,11.06,9.37,13.08,5.21-2.42,10.09-6.77,14.83-10.11l-8.7-10.19Z"/><path d="M340.73,194.67c-4.37,3.09-9.07,5.89-14.44,6.66-1.14.16-.88,2.14.27,2,.08,0,.36,0,.06,0l.29.08c-.25-.09.08,0,.13.08l.32.2s.39.35.53.49.41.43.6.65a28.75,28.75,0,0,1,2.72,3.94c1.39,2.32,2.63,4.73,3.83,7.15a1,1,0,0,0,1.41.37c5.45-2.55,9.95-6.66,14.83-10.1a1.06,1.06,0,0,0,.21-1.62l-8.7-10.19a1,1,0,0,0-1.25-.16l-.81.46a1,1,0,0,0,1,1.78l.81-.47-1.25-.16L350,206l.21-1.61c-4.87,3.45-9.38,7.55-14.83,10.11l1.41.37c-.94-1.91-1.91-3.8-3-5.65a29,29,0,0,0-4.56-6.56,3.74,3.74,0,0,0-2.74-1.38l.27,2c5.53-.79,10.45-3.69,14.94-6.86C342.84,195.69,341.81,193.9,340.73,194.67Z"/><path d="M297.34,134.33c.11-2.14,2.38-3.44,4.19-4,2.41-.79,5.32-1.06,7.62.17,3.41,1.83,4.7,5.89,5.75,9.34,1.21,4,2.24,8,4.87,11.31a32.86,32.86,0,0,0,11.61,9.2,25.76,25.76,0,0,0,16.46,2.27c1.42-.31.82-2.48-.6-2.17-9.83,2.14-20.56-3.57-26.29-11.44-2.42-3.31-3.12-7.57-4.39-11.38s-3.26-8-7.37-9.57a12.8,12.8,0,0,0-9.17.44c-2.51,1-4.78,3-4.94,5.86-.07,1.45,2.18,1.44,2.26,0Z"/><path d="M318.88,131.44c9,5.58,6.95,19.67,16.66,24.58a10.7,10.7,0,0,0,9.7.25c1.29-.65.15-2.6-1.14-1.94a8.43,8.43,0,0,1-7.72-.41,12.65,12.65,0,0,1-4.75-4.93c-2.44-4.21-3.5-9.06-5.9-13.29a17,17,0,0,0-5.71-6.2c-1.24-.77-2.37,1.18-1.14,1.94Z"/><path d="M348.88,174.54c-3.16-.61-5.38-3.35-6.51-6.22-1.45-3.73-1.41-7.89-1.33-11.83a63.18,63.18,0,0,0-.45-12.45,58.26,58.26,0,0,0-2.48-9.46c-2.08-5.83-5.26-11.52-10.2-15.4a24.14,24.14,0,0,0-16.46-4.8C305.2,114.73,298,117,295,123c-.64,1.29,1.3,2.43,1.94,1.13,2.47-5,8.29-6.94,13.48-7.4,5.58-.5,11.17.54,15.72,4,4.81,3.6,7.89,9.15,9.86,14.72a59.14,59.14,0,0,1,2.4,9.26c.71,4,.44,8.09.36,12.13-.08,4.29,0,8.82,1.7,12.82,1.42,3.31,4.12,6.41,7.8,7.12,1.41.27,2-1.9.6-2.17Z"/><path d="M335.88,176.6a8.05,8.05,0,0,0,8.66,4,1,1,0,1,0-.55-2l-.26,0c-.05,0-.23,0-.09,0l-.52,0a7.31,7.31,0,0,1-1.05-.05l-.3-.06-.51-.13-.5-.17-.25-.09c.13.05-.05,0-.09-.05a7.58,7.58,0,0,1-.88-.49,5,5,0,0,1-.7-.55,5.22,5.22,0,0,1-1.19-1.54,1,1,0,1,0-1.77,1Z"/><path d="M292.91,125.37c-3.9,1.08-6.58,4.4-8.24,7.93A38.11,38.11,0,0,0,281.51,146c-.41,4.39-.41,8.82-.66,13.23-.24,4-.46,8.25-2.22,11.95-1.32,2.76-3.75,6.06-7.2,4.68a1.13,1.13,0,0,0-.6,2.17c3.28,1.32,6.26-.53,8.2-3.13a21.49,21.49,0,0,0,3.62-10.28c1.14-9,0-18.3,2.72-27,1.29-4.08,3.66-8.88,8.14-10.11a1.13,1.13,0,0,0-.6-2.17Z"/><path d="M285.44,174.11a7.53,7.53,0,0,1-.3,1.33,5.07,5.07,0,0,1-.47,1.05,5.51,5.51,0,0,1-.37.61l-.18.27a1.1,1.1,0,0,1-.11.14,9.06,9.06,0,0,1-.91,1,6.94,6.94,0,0,1-4.42,1.8,1,1,0,0,0,0,2.06,9.23,9.23,0,0,0,8.75-7.67,1.07,1.07,0,0,0-.72-1.26,1,1,0,0,0-1.27.72Z"/><path d="M295.69,137.69c-1.88,2-2.57,4.69-3.22,7.29-.56,2.25-1.13,4.93-3.16,6.34-1.18.82-.06,2.78,1.14,2,2.32-1.62,3.29-4.19,4-6.83.64-2.45,1.06-5.24,2.86-7.16,1-1.06-.6-2.65-1.59-1.59Z"/><path d="M289.53,179.55a2.65,2.65,0,0,1-.12.37l-.06.18s-.08.22,0,.06l0,.05-.09.18a2.79,2.79,0,0,1-.18.34q-.18.3-.39.6l-.05.07.06-.08s-.1.13-.12.15l-.24.27a6,6,0,0,1-.51.5s-.26.17-.27.23c.12-.1.14-.11.05-.05l-.05,0a.91.91,0,0,1-.16.11,4.72,4.72,0,0,1-.61.37l-.34.17-.06,0c-.11,0-.08,0,.06,0a1.34,1.34,0,0,0-.18.07,1.06,1.06,0,0,0-.72,1.27,1,1,0,0,0,1.27.72,7.81,7.81,0,0,0,4.75-5.08,1,1,0,0,0-2-.54Z"/><path d="M331.08,181.59A9,9,0,0,1,333,182.7l-.21-.16a10.07,10.07,0,0,1,1.17,1.09,1,1,0,0,0,1.46,0,1.05,1.05,0,0,0,0-1.45,9.46,9.46,0,0,0-3.3-2.37,1.17,1.17,0,0,0-.8-.11,1,1,0,0,0-.24,1.89Z"/><path class="cls-6" d="M285.11,195.88c4.43,3.14,9.28,6,14.68,6.76-2.8-.38-8.37,11.06-9.37,13.08-5.21-2.42-10.08-6.77-14.83-10.11l8.7-10.19Z"/><path d="M284.59,196.77c4.49,3.17,9.4,6.07,14.93,6.86l.27-2a3.48,3.48,0,0,0-2.45,1.11,15.67,15.67,0,0,0-2.34,2.79,61.82,61.82,0,0,0-4.15,7.08c-.45.86-.88,1.73-1.31,2.61l1.4-.37c-5.45-2.56-9.95-6.66-14.83-10.11l.21,1.61,8.7-10.19-1.25.16.82.47a1,1,0,0,0,1-1.78l-.81-.46a1,1,0,0,0-1.25.16l-8.7,10.19a1.06,1.06,0,0,0,.21,1.62c4.88,3.44,9.39,7.55,14.84,10.1a1,1,0,0,0,1.4-.37c1.2-2.42,2.44-4.83,3.83-7.15a29.52,29.52,0,0,1,2.68-3.89c.2-.24.42-.48.64-.7s.54-.49.54-.49a3.28,3.28,0,0,1,.31-.2c.05,0,.38-.17.13-.08l.29-.08c-.3.05,0,0,.06,0,1.14.12,1.42-1.86.28-2-5.38-.77-10.08-3.57-14.45-6.66C284.54,194.22,283.51,196,284.59,196.77Z"/><path d="M266.56,297.88c1.9,2.95,1.78,6.73,1.94,10.11.17,3.87.29,7.74.3,11.62a175.88,175.88,0,0,1-1.23,22.47c-.54,4.33-1.28,8.64-2.21,12.9-.28,1.29,1.7,1.84,2,.55,3.37-15.44,3.93-31.22,3.24-47-.17-3.92,0-8.31-2.25-11.73-.71-1.11-2.49-.08-1.77,1Z"/><path d="M267,357.56l11.89,2.31c3.92.76,7.83,1.6,11.77,2.21,6.87,1.06,14.15,1.18,20.35-2.39a16.58,16.58,0,0,0,6.9-7.26L316,351.3c-1.17,2.75,1,4.9,3.22,6.27a29.84,29.84,0,0,0,7.11,3.12,113.22,113.22,0,0,0,12.8,3.39,63.52,63.52,0,0,0,15,.49c5.57-.31,11.23-.59,16.57-2.34a1.16,1.16,0,0,0,.78-1.39,218.69,218.69,0,0,1-3-33.21,1.13,1.13,0,0,0-2.25,0,222.77,222.77,0,0,0,3.11,33.81l.79-1.38a53.73,53.73,0,0,1-13.58,2.13,82.52,82.52,0,0,1-14.32.1,79.72,79.72,0,0,1-13-3.11,43.22,43.22,0,0,1-6.82-2.43,13.72,13.72,0,0,1-3.53-2.24c-.16-.16-.46-.48-.52-.56a2.23,2.23,0,0,1-.2-.3s-.21-.41-.14-.24a1.22,1.22,0,0,1-.06-1,1.17,1.17,0,0,0-.41-1.54,1.15,1.15,0,0,0-1.54.41c-2.43,5.26-8,8.19-13.57,9-7.35,1-14.86-1-22-2.39l-12.76-2.48c-1.41-.28-2,1.89-.6,2.17Z"/><path d="M317.47,355.89q.16,16.11-.83,32.21c-.08,1.44,2.17,1.44,2.26,0q1-16.1.82-32.21a1.13,1.13,0,0,0-2.25,0Z"/><path d="M269.88,358c-.58,15.18.39,30.35,1.33,45.49.47,7.6,1,15.2,1.61,22.79.27,3.55.65,7.07,1.12,10.6a35.69,35.69,0,0,1,.3,4.85,50.44,50.44,0,0,0,.34,5.21c1.51,15.07,1.88,30.21,2.29,45.33.2,7.6.42,15.19.82,22.78.38,7.4,1.14,14.75,1.9,22.12q.59,5.55,1.15,11.09c.19,1.89.36,3.78.57,5.67a5.62,5.62,0,0,0,1.47,3.38c1.61,1.67,4.25,2.18,6.46,2.46a21.89,21.89,0,0,0,5.11-.26,46.05,46.05,0,0,0,5.22-.95A44.08,44.08,0,0,0,304.7,557c1.35-.5.77-2.67-.59-2.17a43.27,43.27,0,0,1-10.13,2.5c-2.75.32-5.68.47-8.28-.69a3.37,3.37,0,0,1-2-2.12,30.81,30.81,0,0,1-.59-5.26q-.55-5.46-1.13-10.92c-.74-7.16-1.53-14.3-1.93-21.48-.41-7.4-.64-14.8-.85-22.21-.41-14.78-.71-29.57-2-44.31q-.25-2.77-.55-5.55a45.7,45.7,0,0,1-.11-4.68c0-3.36-.87-6.7-1.13-10.05-.57-7.35-1.18-14.69-1.63-22.05-.89-14.81-2-29.63-1.75-44.48,0-1.83.08-3.66.15-5.5.05-1.45-2.2-1.44-2.25,0Z"/><path d="M306.3,555.67q3.52-29.49,6.15-59.09c1.77-19.92,3.15-39.87,4.48-59.83.74-11.19,1.32-22.39,1.4-33.6a1.13,1.13,0,0,0-2.25,0c-.15,20-1.91,39.93-3.24,59.87s-3.11,39.77-5.13,59.61q-1.69,16.53-3.66,33a1.13,1.13,0,0,0,1.12,1.13,1.16,1.16,0,0,0,1.13-1.13Z"/><path d="M364,361.88A164.84,164.84,0,0,1,363.4,383c-.15,1.76-.37,3.51-.52,5.26s.1,3.61-.11,5.4c-.43,3.57-.76,7.14-1,10.74-.09,1.77-.17,3.54-.28,5.31s-.32,3.53-.55,5.3c-.42,3.34-.81,6.65-1.05,10-.52,7.26-.93,14.53-1.28,21.81-.7,14.36-1.21,28.74-2,43.1-.42,7.28-.92,14.55-1.57,21.82-.61,6.89-.86,13.78-1.25,20.68-.2,3.41-.46,6.82-.89,10.22-.22,1.72-.49,3.44-.81,5.15a31.1,31.1,0,0,1-1.17,5,6.29,6.29,0,0,1-.41.92c-.06.1-.38.48-.23.39a6,6,0,0,1-1.05.26l-1.22.31a25.77,25.77,0,0,1-4.38.59,23.46,23.46,0,0,1-8.72-1.19,19,19,0,0,1-3.8-1.84c.17.23.34.45.52.67-.42-2.39-1.1-4.73-1.63-7.1s-.21-4.93-.49-7.42q-.79-7.37-1.56-14.74-1.51-14.76-2.81-29.53-2.55-29.22-4.12-58.51-.88-16.62-1.39-33.24a1.13,1.13,0,0,0-2.25,0q1.14,37.18,4.07,74.27,1.44,18.66,3.27,37.27.9,9.18,1.88,18.35a90.15,90.15,0,0,1,.79,9.56,18.89,18.89,0,0,0,.32,4c.33,1.59.76,3.16,1.14,4.74.29,1.23.23,3,1.38,3.74a18.27,18.27,0,0,0,3.23,1.59,23.88,23.88,0,0,0,7.51,1.58,27.75,27.75,0,0,0,7.49-.63,8,8,0,0,0,3.17-1A5.76,5.76,0,0,0,353.2,553a47.63,47.63,0,0,0,1.78-9c.39-2.84.67-5.7.88-8.56.42-5.89.55-11.79.94-17.67.4-6.11,1.05-12.21,1.47-18.31s.77-12.48,1.08-18.72c.62-12.33,1.07-24.67,1.7-37,.32-6.25.68-12.5,1.13-18.75.21-2.92.57-5.79.9-8.7.16-1.38.45-2.75.55-4.14.11-1.64.2-3.29.29-4.94.16-3,.3-6.08.57-9.11.15-1.55.4-3.09.56-4.63s0-3,0-4.48.28-3,.43-4.52.28-3.23.4-4.84q.31-4.41.41-8.84c.06-3,0-5.94-.09-8.9-.06-1.45-2.31-1.45-2.25,0Z"/><path d="M287.25,558.57a52.71,52.71,0,0,1,.43,20.6c-.92,5.63-3.59,12,.09,17.18a9.19,9.19,0,0,0,7.63,4.14c3.18-.16,5.54-2.35,7.55-4.62a17.8,17.8,0,0,0,4.09-7.14c.83-3.06.26-5.94-.52-8.94-.91-3.57-2.11-7.07-2.81-10.69s.35-7.32.93-10.81c.24-1.41-1.93-2-2.17-.6a57.64,57.64,0,0,0-1.19,9.13c0,3.13,1,6.22,1.87,9.2.41,1.45.83,2.9,1.2,4.36a22.31,22.31,0,0,1,.89,4.49,12.29,12.29,0,0,1-2.19,7.22,21,21,0,0,1-2.46,3,12.41,12.41,0,0,1-3,2.52c-2.71,1.34-5.64.19-7.51-2A9.49,9.49,0,0,1,288.1,589a24.41,24.41,0,0,1,.75-4.15c.37-1.64.7-3.3,1-5a55.69,55.69,0,0,0-.41-21.94c-.33-1.41-2.5-.81-2.17.6Z"/><path d="M284.36,585.37c-1.15,4.51-2.11,9.21-1.72,13.88a25.71,25.71,0,0,0,4.69,12.6c1.35,1.93,3,4.31,5.53,4.76,2.78.51,4.37-1.85,5.91-3.73a73.4,73.4,0,0,0,8-10.85,26.58,26.58,0,0,0,3.21-14.91c-.1-1.43-2.36-1.44-2.25,0a24.07,24.07,0,0,1-2.07,12.13,49.24,49.24,0,0,1-6.68,9.89l-2.06,2.52a10.78,10.78,0,0,1-2.28,2.48c-1.91,1.22-3.92-1.49-4.89-2.81A24.24,24.24,0,0,1,285,600.06c-.56-4.75.39-9.5,1.56-14.09a1.13,1.13,0,0,0-2.17-.6Z"/><path d="M348.6,556.36q.15,8,.41,16c.05,1.45,2.3,1.45,2.25,0q-.25-8-.41-16a1.13,1.13,0,0,0-2.25,0Z"/><path d="M329.66,553.58c2.79,7.29,1.6,15.12,1.79,22.72.16,6.11,6,9.66,10.66,12.46a14.73,14.73,0,0,1,1.8,1.65,14.4,14.4,0,0,0,2.6,1.47,43.29,43.29,0,0,0,5.14,2.22,35.87,35.87,0,0,0,10.79,2.1,32.87,32.87,0,0,0,5.61-.29c.87-.12,1.74-.27,2.6-.46a7.76,7.76,0,0,0,2.58-.85c1.18-.73,2.59-2,2-3.55-.31-.8-1.33-1.33-2-1.85s-1.57-1.2-2.37-1.79c-6.74-5-13.93-9.33-20-15.19-1-1-2.64.58-1.6,1.59,5.06,4.91,10.91,8.82,16.66,12.85q2.12,1.47,4.2,3c.71.53,1.42,1.07,2.12,1.62l.42.34.21.17q.25.33.21.09c-.06,0,0-.16,0-.16s-.3.38-.28.36c-1.08,1.11-2.92,1.25-4.36,1.49a30.12,30.12,0,0,1-5,.39,33.33,33.33,0,0,1-10-1.62,37.14,37.14,0,0,1-4.87-1.94c-.77-.37-1.53-.76-2.27-1.17a6,6,0,0,1-1-.62c-.4-.33-.74-.77-1.13-1.13a24.05,24.05,0,0,0-3.5-2.26,26.26,26.26,0,0,1-3.21-2.33c-1.86-1.59-3.56-3.66-3.75-6.2-.13-1.88,0-3.81,0-5.7s.08-4,0-6.08a35.07,35.07,0,0,0-2-11.94,1.16,1.16,0,0,0-1.38-.79,1.13,1.13,0,0,0-.79,1.39Z"/><path d="M329.79,579.54c-3.33,1.86-3.14,7-2.81,10.25a30.86,30.86,0,0,0,1,5.63,8.16,8.16,0,0,0,3.47,4.87,17.84,17.84,0,0,0,7.66,2.2,1.12,1.12,0,0,0,1.08-.83l.66-2.43a1.13,1.13,0,0,0-2.17-.6l-.66,2.43,1.09-.82a17.09,17.09,0,0,1-5.77-1.46,5.88,5.88,0,0,1-3.12-3.72,24.53,24.53,0,0,1-1.07-10,8.49,8.49,0,0,1,.53-2.18,5.17,5.17,0,0,1,.5-.86,2.09,2.09,0,0,1,.7-.58,1.13,1.13,0,0,0-1.14-1.94Z"/><path d="M340.06,597.81A83.77,83.77,0,0,0,356,605a86,86,0,0,0,8.49,2.35,47.89,47.89,0,0,0,6.62,1.11,25.13,25.13,0,0,0,9.76-.93c2.57-.87,5.08-2.75,4.37-5.78-.47-2-2.11-3.72-3.59-5.07a17.91,17.91,0,0,1-2.39-3,8.65,8.65,0,0,0-3-2.8c-1.28-.68-2.41,1.26-1.13,1.94,2,1.05,2.77,3.14,4.22,4.74,1.23,1.37,2.78,2.45,3.55,4.18a2.65,2.65,0,0,1,.25,1.3c0,.2.05-.12,0,.13s-.06.2-.1.31,0,0,0,0l-.08.17c-.07.1-.13.21-.21.31.14-.19-.1.11-.14.14l-.25.24a3.45,3.45,0,0,1-.56.39,7.24,7.24,0,0,1-1.56.7,23.27,23.27,0,0,1-8.75.85,39.39,39.39,0,0,1-5.58-.88c-2.71-.57-5.38-1.28-8-2.11a81.09,81.09,0,0,1-16.63-7.39,1.13,1.13,0,0,0-1.14,1.94Z"/><path class="cls-2" d="M380.05,307c2.47-5.63,3.89-10.51,3.63-17.31-.05-1.19-.12-2.38-.27-3.55-1-7.58-5-10.81-9.64-13.38-1.21-.68-2.87-1.15-3.55.43a3.81,3.81,0,0,0,.31,3.16,8.27,8.27,0,0,0,1.9,2,25.28,25.28,0,0,1,5.86,8c-1.86.86-3.87-.12-5.75-.9a30.08,30.08,0,0,0-7-2,1.09,1.09,0,0,0-1.09.25c-.56.68-.13,2,.42,2.71,3.18,4,9,2.35,11.37,7.37l-11-1.14a1,1,0,0,0-.73.1c-.57.36-.59,1.61-.2,2.3a3.17,3.17,0,0,0,1.63,1.23,34.36,34.36,0,0,1,7.48,4.55c-2.28,2.22-5.36.92-8.07,1.66a1.78,1.78,0,0,0-1.34,2.05,1.49,1.49,0,0,0,1.12.94,14.12,14.12,0,0,1,5.39,3.45c1.57,1.56,3.16,3.64,5.06,3.41S379,309.45,380.05,307Z"/><path d="M381,307.56a42.09,42.09,0,0,0,3.64-12.79,40.24,40.24,0,0,0,0-7.28,22.12,22.12,0,0,0-1.43-6.49,17.29,17.29,0,0,0-6.53-7.77c-1.36-.92-2.93-2-4.59-2.21-2.19-.24-3.43,1.78-3.22,3.77.28,2.67,2.44,3.95,4.12,5.75a25.52,25.52,0,0,1,4.29,6.43c.23-.55.45-1.11.68-1.66a4.7,4.7,0,0,1-3.67-.28c-1.29-.5-2.55-1.06-3.87-1.49a29.7,29.7,0,0,0-4.16-1c-1.21-.21-2.47-.18-3,1.14-.84,2.09,1,4.17,2.61,5.26a19.92,19.92,0,0,0,5,2.1,6.94,6.94,0,0,1,4.4,3.42c.32-.56.64-1.13,1-1.69l-7.85-.82a19.92,19.92,0,0,0-3.69-.32,2.13,2.13,0,0,0-1.81,2.15,3.37,3.37,0,0,0,1,2.68,9.53,9.53,0,0,0,2.62,1.43,34.49,34.49,0,0,1,6.07,3.83v-1.59c-1.72,1.6-4.31.9-6.43,1.16a3.74,3.74,0,0,0-3,1.62,2.46,2.46,0,0,0,.7,3.34,8.31,8.31,0,0,0,1.47.62,11.06,11.06,0,0,1,1.78.91,15.48,15.48,0,0,1,3.05,2.54c1.56,1.62,3.5,3.8,6,3.14s3.84-3.71,4.79-5.88a1.16,1.16,0,0,0-.4-1.54,1.13,1.13,0,0,0-1.54.4,24.51,24.51,0,0,1-1.4,2.81,4.74,4.74,0,0,1-1.67,1.88c-1.6.84-3.25-1.42-4.2-2.4a16.4,16.4,0,0,0-5.35-3.84c-.44-.19-1.92-.41-1.09-1.06a4.43,4.43,0,0,1,2.45-.38c2.35,0,4.58,0,6.4-1.73a1.12,1.12,0,0,0,0-1.59,37.75,37.75,0,0,0-5-3.39c-.87-.49-1.77-.93-2.68-1.34-.54-.24-1.21-.48-1.33-1.14,0-.1.07-.65-.09-.47s.26.1.44.11l.87.09,3.19.34,6.69.69c.91.09,1.31-1,1-1.7a8.05,8.05,0,0,0-3.64-3.61c-1.47-.72-3.06-1.11-4.58-1.68-1.32-.5-3-1.37-3.55-2.77-.06-.17-.08-.34-.12-.5-.1-.36.11-.08-.16-.11a16.31,16.31,0,0,1,1.7.29,30.24,30.24,0,0,1,3.75,1.06c2.5.88,5.23,2.63,7.93,1.5a1.15,1.15,0,0,0,.68-1.65,29,29,0,0,0-3.34-5.35,22.14,22.14,0,0,0-1.87-2.12c-.68-.67-1.45-1.24-2.09-1.94a3.12,3.12,0,0,1-.84-2.19c0-.6.21-1.06.86-1a5.14,5.14,0,0,1,1.82.81c.65.38,1.3.78,1.92,1.2a14.63,14.63,0,0,1,5.42,6.51c1.52,3.77,1.63,8.13,1.34,12.12a38.46,38.46,0,0,1-3.41,12.52,1.17,1.17,0,0,0,.4,1.54A1.14,1.14,0,0,0,381,307.56Z"/><ellipse class="cls-7" cx="334.18" cy="166.95" rx="2.98" ry="3.06"/><path d="M334.18,170.77a3.82,3.82,0,1,1,3.74-3.82A3.79,3.79,0,0,1,334.18,170.77Zm0-6.13a2.31,2.31,0,1,0,2.23,2.31A2.28,2.28,0,0,0,334.18,164.64Z"/><ellipse class="cls-7" cx="288.46" cy="166.17" rx="2.98" ry="3.06"/><path d="M288.46,170a3.82,3.82,0,1,1,3.74-3.82A3.79,3.79,0,0,1,288.46,170Zm0-6.13a2.31,2.31,0,1,0,2.23,2.31A2.27,2.27,0,0,0,288.46,163.86Z"/></g></g></g></g></svg>