<svg xmlns="http://www.w3.org/2000/svg" width="307" height="211" viewBox="0 0 305.66 210.08"><defs><style>.cls-1{fill:#fff;}.cls-2{fill:#fcec74;}.cls-3{fill:#269ac2;}.cls-4{fill:#f35528;}.cls-5{fill:#f0e8e6;}</style></defs><g id="Layer_2" data-name="Layer 2"><g id="レイヤー_1" data-name="レイヤー 1"><g id="contents02"><g id="_3" data-name="3"><path class="cls-1" d="M116.18,53a5,5,0,0,0,.27-1.36Z"/><path class="cls-1" d="M168.13,156.88a2.31,2.31,0,0,1,.91-2c-1-2.65-2-5.29-3.08-7.9l0-.1A139.69,139.69,0,0,0,164.5,132l-.06-5.78a7.44,7.44,0,0,1-3.1-2.36,25.4,25.4,0,0,1-2.46-4l-.18-.19c-.45-.34-.89-.67-1.36-1s-1-.63-1.51-.92c-.1,0-.4-.2-1-.54-1.53-.68-3.1-1.28-4.69-1.81a87.13,87.13,0,0,0-8.66-2.33l-1.48-.31-2.24-.38c-1.22-.19-2.44-.37-3.66-.53a10.33,10.33,0,0,1-4-1.4,37.2,37.2,0,0,1-11.54-4,14.68,14.68,0,0,1-5.32-5.17,2.78,2.78,0,0,1-.82-1,5.5,5.5,0,0,0-2,.28,5.16,5.16,0,0,0-4.51-3.18q.08-7-.25-14a6,6,0,0,0-.07-.61,11.84,11.84,0,0,0,5-7.44,4.85,4.85,0,0,0-.13-2.42c.09-.17.18-.34.28-.5a2.4,2.4,0,0,1,.91-.88v0a5.82,5.82,0,0,1,.06-1.77c0-.2.07-.38.11-.57v0c.33-.58.65-1.15.94-1.74,1.92-3.82,3.63-7.87,2.77-12,.18-.55.35-1.1.51-1.66s.24-.88.35-1.33c.07-.28.14-.57.2-.86,0-.49,0-1,.07-1.38,0-.08,0-.16,0-.24a2.55,2.55,0,0,1-.26-.74,8.32,8.32,0,0,1,.2-6.79A55.31,55.31,0,0,0,114,32.8c-1.49-4.16-3.28-9-6.62-12.11a11.24,11.24,0,0,0-7-3,10.07,10.07,0,0,0-5-.51,17.92,17.92,0,0,0-5.5-3.15c-5-1.67-9.8.65-13.56,4.21A11.33,11.33,0,0,0,69.65,20c-4.89,3-7.93,9-9.8,14.23a22.61,22.61,0,0,0-.71,13.43,14,14,0,0,0-2.48,15.64A10.74,10.74,0,0,0,63,68.94a89.75,89.75,0,0,1,4.14,17.64,7.28,7.28,0,0,0,.33,1.47,24,24,0,0,0,1.15,8,6.15,6.15,0,0,0-4.89,2.91,3.71,3.71,0,0,0-.26.53,5,5,0,0,0-1.62,1.34,19.08,19.08,0,0,0-3.21.38c-1.11.23-2.22.51-3.33.82-1.33.72-2.61,1.53-3.9,2.34a2.52,2.52,0,0,1-1.17.4C44.39,108,37.68,110,31.37,111.88c-3.34,1-6.7,2-10.07,2.91l-3,.82-.64.46c-.71.54-1.39,1.11-2.06,1.69s-1.3,1.18-1.92,1.8c-.21.21-.41.43-.61.64a48,48,0,0,0-4.88,7.34,55.8,55.8,0,0,0-1.1,9.34c-2.5,10.41-4.89,21-5,31.6A3.82,3.82,0,0,0,4,171.73a60.06,60.06,0,0,0-2,13.34c-.13,3.2,3.05,4.3,5.34,3.34a1.8,1.8,0,0,0,.43.13l.51.06h0l1.86.25H28.63a5.25,5.25,0,0,1,2.32.55H168.1a7.92,7.92,0,0,0,2.52-1.46C169.54,177.6,168.17,167.29,168.13,156.88Z"/><path class="cls-2" d="M168.66,179.62c0-.11-.34-2.72-.14-1l-.24-2q-.47-4.24-.68-8.52c0-.21,0-.41,0-.62a81.59,81.59,0,0,0,.25-16.46,10.63,10.63,0,0,0-.59-2.67c.18-3.3.37-6.6.55-9.9.1-1.78.17-3.56.13-5.31-.43-.57-.84-1.15-1.26-1.74a8.85,8.85,0,0,1-3.74-2.51c-2.18-2.52-3.53-5.71-5.06-8.64-.23-.45-.48-.89-.72-1.33a9.32,9.32,0,0,1-3.82-2.81c-.66-.34-1.31-.69-1.94-1.07a12.54,12.54,0,0,1-1.68-.84,6.53,6.53,0,0,1-.74-.52l-1.74-.32-18.53-3.19c-3.07-.52-6-1.25-8.94.44a29.72,29.72,0,0,0-4.19,3.52q-3.72,3.3-7.47,6.56-7.17,6.24-14.44,12.4-3.48,2.94-7,5.85l0,0c-2-1.62-3.93-3.59-5.77-5.33q-3.51-3.35-6.8-6.9c-2.18-2.38-4.3-4.82-6.32-7.34-.32-.38-.62-.77-.94-1.16l-.32-.42c-.21-.27-.42-.54-.62-.82-1.05-1.39-2.06-2.8-3.06-4.23-2-2.87-5.91-5.26-9.57-3.89l-.7.26a15,15,0,0,0-4.45-.77,20.36,20.36,0,0,0-7.35,1.33,15.76,15.76,0,0,0-3.91,1.51A108.15,108.15,0,0,0,16,117.71a7,7,0,0,1-2.28,3.06c-.46.31-.85.71-1.29,1l-.15.21a27.23,27.23,0,0,0-1.85,3.12l-.24.5c-.26.56-.51,1.13-.77,1.69-.15.33-.3.67-.46,1a8.78,8.78,0,0,0,1,2.6,251.63,251.63,0,0,0-7.95,59.31H30a5.61,5.61,0,0,1,3.67,1.44H167.34a7.23,7.23,0,0,0,1.13-1.51,9.57,9.57,0,0,0,.85-6.53C169.09,182.3,168.86,181,168.66,179.62Zm-91.92,5.13,1.11-.2a1.4,1.4,0,0,0,.1.16Z"/><path d="M86.58,138.69a1.44,1.44,0,0,1-1-.37l-31.9-28.86a1.43,1.43,0,0,1,1.92-2.13l31.9,28.86a1.44,1.44,0,0,1,.1,2A1.4,1.4,0,0,1,86.58,138.69Z"/><path d="M86.71,138.72a1.43,1.43,0,0,1-.95-2.5l32.38-28.55a1.43,1.43,0,0,1,1.89,2.15L87.66,138.37A1.43,1.43,0,0,1,86.71,138.72Z"/><path d="M3.1,185c.79-8,1.8-15.9,2.63-23.85.39-3.74.58-7.49.74-11.24.08-1.88.17-3.75.31-5.62.07-.92.15-1.84.25-2.76,0-.45.11-.91.16-1.36,0-.28-.05.37,0-.09,0-.1,0-.19,0-.29,0-.26.07-.52.11-.78a40.07,40.07,0,0,1,1.11-5.06c.21-.69.44-1.37.69-2.05.07-.17.14-.35.2-.52s.27-.66.11-.26c.13-.35.3-.69.45-1A29.38,29.38,0,0,1,12,126.4c.39-.6.8-1.19,1.24-1.75.06-.08.19-.3,0,0a2.09,2.09,0,0,1,.14-.17l.34-.43c.23-.28.47-.56.71-.83a30.42,30.42,0,0,1,3-2.94l.8-.68.39-.31.21-.17c.09-.07.06,0-.09.08l.13-.1c.57-.44,1.16-.85,1.76-1.25a35,35,0,0,1,3.66-2.11l1-.46.46-.21.26-.11.17-.08c-.23.1.11,0,.13,0l.21-.09.52-.21,1.06-.39c3.47-1.22,7.07-2.14,10.65-3s7.47-1.72,11.23-2.48l2.74-.55a1.56,1.56,0,0,0,1.08-1.9,1.59,1.59,0,0,0-1.91-1.08A221.24,221.24,0,0,0,29.2,110.5a37.27,37.27,0,0,0-15.59,9,32.24,32.24,0,0,0-8.67,15.66c-1.7,7.5-1.38,15.25-2,22.87-.33,4-.82,8-1.28,11.93s-.92,8-1.34,12C.2,183,.1,184,0,185a1.54,1.54,0,0,0,1.54,1.55A1.59,1.59,0,0,0,3.1,185Z"/><path d="M112.81,100.5a8.92,8.92,0,0,1-.49-.85l-.21-.45c-.09-.19.1.27,0,.06L112,99a12.44,12.44,0,0,1-.53-1.9,1.6,1.6,0,0,0-.71-.92,1.77,1.77,0,0,0-1.2-.16,11.26,11.26,0,0,0-3.95,1.69c-1.29.79-2.5,1.69-3.76,2.52a19.26,19.26,0,0,1-1.85,1.11l-.47.23-.2.09c-.19.09.38-.15.1,0-.44.17-.87.35-1.31.51A48.06,48.06,0,0,1,93,103.79c-1,.25-2,.47-3,.65l-.7.12-.34,0-.24,0h.07a4.06,4.06,0,0,0-.7.09l-.82.08a1.55,1.55,0,0,0-1.21.61,1.42,1.42,0,0,0-.28,1.34c1.56,3.94,3.15,7.85,4.77,11.76.46,1.11.92,2.22,1.39,3.33a1.6,1.6,0,0,0,.9,1,1.57,1.57,0,0,0,1.37-.07q6.48-3.28,12.7-7c1.17-.71,2.32-1.43,3.47-2.16a1.55,1.55,0,1,0-1.56-2.67q-6.14,3.9-12.55,7.32c-1.2.64-2.4,1.26-3.62,1.87L95,121q-2.44-5.85-4.82-11.74c-.45-1.11-.89-2.23-1.34-3.35l-1.49,2a43.27,43.27,0,0,0,10.89-2.49,23.75,23.75,0,0,0,4.51-2c1.31-.81,2.55-1.73,3.84-2.57a18.44,18.44,0,0,1,2.11-1.23c.15-.08.32-.14.48-.22l-.06,0,.28-.11a7.8,7.8,0,0,1,1.06-.26l-1.91-1.08a12.23,12.23,0,0,0,1.62,4.12,1.55,1.55,0,1,0,2.67-1.56Z"/><path d="M61.33,103.61a13.15,13.15,0,0,0,4.58-5.31L64.16,99l.21.08c.22.08-.45-.2-.23-.1l.14.07c.23.1.45.21.68.33.63.32,1.25.66,1.88,1,1.71.94,3.41,1.89,5.13,2.81,1.91,1,3.84,2,5.82,2.93a27.73,27.73,0,0,0,5.3,2c1.54.35,3.42.46,4.42-1a2.66,2.66,0,0,0,.28-.59l-3-.82q-2.36,5.9-4.78,11.75l-1.39,3.33,2.27-.93q-6.85-3.47-13.42-7.49-1.86-1.14-3.69-2.32a1.57,1.57,0,0,0-2.12.55,1.59,1.59,0,0,0,.56,2.12q6.45,4.17,13.23,7.8c1.29.69,2.58,1.36,3.88,2a1.54,1.54,0,0,0,1.37.08,1.65,1.65,0,0,0,.9-1q2.46-5.85,4.83-11.73c.45-1.12.9-2.23,1.34-3.35a1.55,1.55,0,0,0-.15-1.19,1.59,1.59,0,0,0-.93-.72,1.55,1.55,0,0,0-1.19.16,1.79,1.79,0,0,0-.71.93c.25-.61.16-.36.09-.23s-.21.12.15-.19l-.09.09c-.17.2.41-.26.18-.13l-.12.07c-.2.12.48-.17.21-.1l-.29.08c-.25,0,.52,0,.21,0h-.6l-.21,0c-.28,0,.51.08.16,0l-.47-.09a15.36,15.36,0,0,1-2.22-.67q-.66-.24-1.29-.51c-.12,0-.35-.15.15.07l-.16-.07-.27-.12-.72-.32c-3.7-1.68-7.24-3.68-10.79-5.64-.7-.38-1.41-.77-2.12-1.14A10.7,10.7,0,0,0,65,96a1.56,1.56,0,0,0-1.75.71,13.33,13.33,0,0,1-.73,1.34c-.14.23-.29.46-.45.68l-.06.08c-.1.13-.09.11,0-.07,0,.1-.19.24-.26.31a10.92,10.92,0,0,1-1,1.1l-.55.46c-.13.11-.1.09.08,0l-.17.12-.33.23a1.55,1.55,0,1,0,1.56,2.67Z"/><path d="M174.39,187.27c-.8-8-1.82-16.06-2.65-24.09-.4-3.81-.57-7.62-.74-11.45a97.14,97.14,0,0,0-1-11.56,34.89,34.89,0,0,0-2.85-9.42,31.82,31.82,0,0,0-4.9-7.4,35.87,35.87,0,0,0-14.78-9.84,107.93,107.93,0,0,0-10.71-3.05c-3.77-.93-7.57-1.75-11.38-2.52l-2.74-.55a1.55,1.55,0,0,0-.82,3,226,226,0,0,1,22.38,5.33c.78.24,1.57.48,2.34.76l1,.35.47.19.26.11.15.06-.11,0a6,6,0,0,0,.93.41c.34.15.67.31,1,.48.65.32,1.28.67,1.91,1a38.35,38.35,0,0,1,3.55,2.36l0,0,.26.21.34.27c.29.23.57.47.84.71.54.47,1.07,1,1.57,1.46s1,1,1.47,1.56c.21.25.43.5.64.76l.34.42a1.24,1.24,0,0,0,.14.18c-.26-.24-.05-.06,0,0a29.26,29.26,0,0,1,2.35,3.6q.51.93,1,1.89c.14.3.25.63.41.92-.17-.31,0-.1,0,0s.07.17.1.26l.21.53a33.14,33.14,0,0,1,1.31,4.5c.19.88.35,1.78.5,2.67l.09.64c0,.12,0,.24.05.36.05.31,0,.08,0,0,.07.48.12,1,.18,1.44.2,1.88.33,3.77.43,5.67.19,3.72.27,7.46.6,11.18.34,3.94.82,7.86,1.27,11.79s.91,7.92,1.33,11.89l.3,2.94a1.58,1.58,0,0,0,1.55,1.54,1.55,1.55,0,0,0,1.54-1.54Z"/><path class="cls-3" d="M127.69,31.59A25.89,25.89,0,0,1,114,18.83l-.75-.57c-3.63-4.55-7.44-9.22-12-12.8l-1.78,0a6.18,6.18,0,0,0-4.73-2,25.8,25.8,0,0,1-2.63.1,22.78,22.78,0,0,0-7.05-.56,24.21,24.21,0,0,0-8.51.39,18.3,18.3,0,0,0-3.85,1.51L70,4.75C63.84,6,59.44,12.13,56.68,17.94a25.55,25.55,0,0,0-3.46,8.83,27.91,27.91,0,0,0-.87,5c-.12.71-.22,1.43-.3,2.15a21.77,21.77,0,0,0-.77,5.67c1.88,2.35,1.82,6.92,1.5,9.81a3.83,3.83,0,0,0,.73.29l.28.25c1.53,1.21,4.29,1.45,5.61-.35l.66-.92h0l.06-.09A160.7,160.7,0,0,0,73.7,26.28a15.76,15.76,0,0,1,2.93-.8,2.24,2.24,0,0,1,.71-1c2.36-1.76,5.18-1.59,7.68-.38A39.83,39.83,0,0,1,94.67,30c3.75,2.87,7.24,6.09,10.71,9.34a1.93,1.93,0,0,1,.41.57l.73.4q2.36,1.7,4.78,3.25a33.65,33.65,0,0,0,5.3,3.09c5-3.66,9.3-8.37,11.19-14.57A4.4,4.4,0,0,0,127.69,31.59Z"/><path d="M100,59.05a1.57,1.57,0,0,0,0-3.13,1.57,1.57,0,0,0,0,3.13Z"/><path d="M82.44,58.71a1.57,1.57,0,0,0,0-3.13,1.57,1.57,0,0,0,0,3.13Z"/><path d="M88.44,67.23a4.24,4.24,0,0,0,5.76.1,1.19,1.19,0,0,0,0-1.66,1.2,1.2,0,0,0-1.67,0c-.07.07-.28.2,0,0l-.18.12-.33.18c.33-.18.13-.06,0,0l-.16,0a3,3,0,0,1-.43.09l.32,0a3.71,3.71,0,0,1-.88,0l.31,0a3.15,3.15,0,0,1-.42-.09l-.21-.07-.1,0s.29.13.1,0l-.37-.22c-.19-.12.2.18,0,0l-.18-.16a1.17,1.17,0,0,0-1.66,1.66Z"/><path d="M94.38,75.2a1,1,0,0,1,.14-.53s0,0,0,0a.53.53,0,0,0-.06.1l-.2.31-.54.75-.27.36,0,0,0,0a4.77,4.77,0,0,1-.59.6l-.15.13s-.14.11,0,0,0,0,0,0l-.16.11-.3.16c-.12.06,0,0,0,0l-.24.07s-.29.1-.32.07.29,0,0,0h-.13a1.82,1.82,0,0,1-.33,0H91c-.15,0,0,0,0,0a2.07,2.07,0,0,1-.63-.15l-.31-.11-.13,0c.24.1,0,0,0,0a9.14,9.14,0,0,1-1.2-.73s-.17-.14,0,0l-.16-.12-.3-.26c-.19-.17-.38-.35-.56-.54s-.37-.39-.54-.59l-.23-.28s-.07-.07-.08-.1.1.13,0,.06l-.08-.1L85,75.93c.48.52,1.37.48,2,.49s1.32,0,2,0c2.19-.07,4.38-.1,6.57,0L94.72,76h0a1.17,1.17,0,0,0,1.66,0,1.2,1.2,0,0,0,0-1.66A1.71,1.71,0,0,0,95.06,74l-1,0c-.65,0-1.3,0-2,0-1,0-2,0-2.92.07q-.9,0-1.8,0c-.32,0-.65,0-1,0h-.2c-.26,0,.28.06.12,0l-.12,0a1.15,1.15,0,0,1,.43.25A1.18,1.18,0,0,0,84.8,75.7c1.32,1.77,3.15,3.57,5.41,4a4.51,4.51,0,0,0,3.61-.64,8.48,8.48,0,0,0,1.77-1.82,4.39,4.39,0,0,0,1.14-2.06A1.17,1.17,0,0,0,95.56,74,1.2,1.2,0,0,0,94.38,75.2Z"/><path d="M90,93.64a30,30,0,0,1-15.25-4.48A31.64,31.64,0,0,1,62.18,75.48,22,22,0,0,1,61.4,73a27,27,0,0,0-1.47-4.38c-4.4-1.17-7.28-5.11-7.74-10.61,0,0,0-.08,0-.12,0-5.41,2.44-11.47,7.78-12a1.45,1.45,0,1,1,.29,2.89c-3.77.38-5.15,5.61-5.16,9.07.15,1.69,1,6.93,5.83,8.05,1.45.33,2.11,2.19,3.28,6.34.23.82.49,1.75.62,2,4.65,10.25,17.05,17.57,27.64,16.31,10.14-1.2,16.25-8.83,19.22-24,.19-1,.4-2,.61-3,1.15-5.57,2.34-11.34,1.87-16.65a1.45,1.45,0,1,1,2.89-.25c.5,5.73-.73,11.71-1.92,17.49-.21,1-.41,2-.61,3-2,10.44-6.51,24.52-21.72,26.32A23.65,23.65,0,0,1,90,93.64Z"/><path d="M77.72,25.65a4.85,4.85,0,0,1,.16-.63c0-.08.06-.16.09-.25.1-.3-.17.35,0,0a4.53,4.53,0,0,1,.27-.48c0-.06.22-.3,0-.06s0,0,.09-.1a4.12,4.12,0,0,1,.37-.35c.23-.2-.17.12-.1.07l.24-.16c.13-.08.27-.15.41-.22l.11,0c.17-.08-.37.14-.2.08l.27-.09.46-.13.26-.05.12,0c.17,0-.46.05-.19,0a9.48,9.48,0,0,1,1.06,0l.5,0,.13,0-.21,0,.3.05a9.81,9.81,0,0,1,1,.25l.46.16.22.08c.34.14-.36-.16,0,0a9.79,9.79,0,0,1,1,.54c.48.28.94.58,1.39.9.21.15.41.32.62.46-.35-.24,0,0,.1.08l.36.3a55.75,55.75,0,0,1,4.87,4.73c2.45,2.58,5,5.1,7.61,7.5a52.7,52.7,0,0,0,9.09,6.92c3.07,1.76,6.55,3.09,10.14,2.59a7.81,7.81,0,0,0,1.07-.22,1.57,1.57,0,1,0-.83-3,5,5,0,0,1-.53.12l-.27.05-.14,0c-.21,0,.21,0,.22,0s-.43,0-.55,0l-.59,0c-.37,0-.74,0-1.12-.07s.41.06.06,0l-.28,0-.61-.12a15.65,15.65,0,0,1-2.32-.74l-.29-.11.15.06-.15-.06-.58-.27c-.4-.19-.79-.39-1.18-.6a37.25,37.25,0,0,1-4.7-3.08l-.28-.22h0l-.59-.47c-.37-.29-.73-.59-1.09-.89-.73-.61-1.43-1.23-2.13-1.86-2.66-2.4-5.21-4.93-7.68-7.52A61.38,61.38,0,0,0,89.49,24a17.77,17.77,0,0,0-5.42-3.38C81,19.53,76.72,20,75.2,23.32a6.78,6.78,0,0,0-.5,1.5,1.57,1.57,0,0,0,3,.83Z"/><path d="M69.13,31.26a2.66,2.66,0,0,0,0,.28c0-.44,0-.2,0-.09s-.06.34-.08.51q-.09.51-.21,1c-.14.64-.31,1.27-.51,1.9-.11.31-.21.63-.33.93,0,.15-.11.3-.17.44l-.09.22c-.11.29.15-.34,0,0-.27.62-.57,1.22-.89,1.81a19.6,19.6,0,0,1-1,1.7c-.19.29-.38.57-.59.85-.09.12-.2.24-.28.37.18-.3.14-.18.07-.09l-.23.3A22.76,22.76,0,0,1,62,44.29l-.43.37a1.33,1.33,0,0,0-.19.14l-.13.11c.21-.17,0,0-.07.05l-.27.2c-.15.11-.3.22-.46.32a19.77,19.77,0,0,1-2,1.2,1.58,1.58,0,0,0-.57,2.14,1.61,1.61,0,0,0,2.15.57A24,24,0,0,0,71.18,36.16a22.83,22.83,0,0,0,1.08-4.9,1.54,1.54,0,0,0-.45-1.11,1.66,1.66,0,0,0-1.11-.46,1.57,1.57,0,0,0-1.11.46,1.81,1.81,0,0,0-.46,1.11Z"/><path d="M82.39,4.93a3.88,3.88,0,0,1,.31-.26c.21-.18-.28.19,0,0a7.48,7.48,0,0,1,.66-.43c.19-.12.4-.22.6-.32l.21-.1c-.21.08,0,0,0,0l.23-.09a10.41,10.41,0,0,1,1.45-.41l.33-.06.2,0c.17,0-.19,0-.18,0,.26,0,.52-.05.78-.07a12.68,12.68,0,0,1,1.51,0l.68.07c.21,0-.34,0-.13,0l.19,0,.38.07c.93.16,1.85.37,2.75.61s1.76.51,2.61.82c.43.16.86.32,1.28.5l.12,0c.18.08-.31-.13-.13-.06l.28.13.64.28a33.28,33.28,0,0,1,4.57,2.61c.36.24.71.49,1.06.75l.52.38.13.11-.14-.11.3.24c.69.55,1.37,1.12,2,1.71a49.05,49.05,0,0,1,3.77,3.86c.6.69,1.19,1.4,1.76,2.11l.42.54.09.11-.08-.1.25.33.83,1.11c1.13,1.55,2.19,3.14,3.22,4.75s2,3.38,3.09,5a9.75,9.75,0,0,0,4.78,4.1,5.6,5.6,0,0,0,1.57.25,1.59,1.59,0,0,0,1.57-1.57,1.61,1.61,0,0,0-1.57-1.57H125c-.27,0,.41.07,0,0a4.71,4.71,0,0,1-.64-.19c-.34-.11.26.13,0,0a2.11,2.11,0,0,1-.3-.16,5.15,5.15,0,0,1-.58-.37c-.22-.15.27.22,0,0l-.24-.2c-.18-.16-.35-.33-.52-.51s-.32-.34-.46-.52a3.36,3.36,0,0,1-.24-.29c-.11-.13.1.14.1.13l-.15-.19c-1.17-1.58-2.1-3.34-3.15-5A78.75,78.75,0,0,0,112,13.41a45.18,45.18,0,0,0-8.13-7.5A33.94,33.94,0,0,0,94,1.11,24,24,0,0,0,88,0,11.63,11.63,0,0,0,81.6,1.63a12.46,12.46,0,0,0-1.43,1.08,1.58,1.58,0,0,0,0,2.22,1.61,1.61,0,0,0,2.22,0Z"/><path d="M70,6.55A28.51,28.51,0,0,0,49.83,38.46c.32,2.1.88,4.15,1.28,6.24.1.49.18,1,.26,1.5s0-.36,0,0c0,.15,0,.31,0,.46s0,.54.07.81a14.81,14.81,0,0,1,0,1.49c0,.27,0,.54,0,.81,0,.08,0,.48,0,0a3.4,3.4,0,0,1-.08.46,1.74,1.74,0,0,0,.16,1.21,1.58,1.58,0,0,0,.94.72,1.59,1.59,0,0,0,1.93-1.09A18.28,18.28,0,0,0,54.34,45c-.29-1.83-.75-3.62-1.13-5.42-.1-.47-.19-.93-.27-1.39l-.09-.58c0-.1,0-.21-.05-.31s0-.14,0,.1c0-.07,0-.15,0-.22a23.91,23.91,0,0,1-.19-2.54c0-.82,0-1.64.06-2.45,0-.43.06-.85.11-1.28a1.49,1.49,0,0,0,0-.21l0-.1c0-.18,0-.14,0,.1a2.66,2.66,0,0,1,.12-.74,27.75,27.75,0,0,1,1.25-4.84c.15-.4.31-.8.47-1.19s-.11.24,0,0l.11-.24c.1-.23.2-.46.31-.68.37-.77.77-1.52,1.21-2.25s.82-1.3,1.27-1.92l.35-.47c.21-.28-.22.28,0,0l.18-.23c.25-.3.5-.6.76-.89a27,27,0,0,1,3.31-3.19l.23-.18.16-.12q.2-.15-.09.06a2.71,2.71,0,0,0,.55-.41q.51-.37,1.05-.72c.71-.47,1.44-.9,2.19-1.3.4-.21.81-.42,1.22-.61l.54-.24c.08,0,.19-.07.27-.12-.23.09-.26.11-.11,0l.19-.07a26.16,26.16,0,0,1,2.49-.87,1.57,1.57,0,0,0-.83-3Z"/><path d="M108.84,34.42a34.06,34.06,0,0,0,12.39,5.7,1.57,1.57,0,0,0,.84-3q-1.6-.37-3.15-.9c-.52-.18-1-.36-1.54-.57l-.41-.16c-.16-.07-.13-.06.08,0l-.21-.09c-.25-.1-.5-.22-.74-.33a33.41,33.41,0,0,1-5.68-3.36,1.56,1.56,0,0,0-1.21-.16,1.56,1.56,0,0,0-.37,2.86Z"/><path d="M65.48,82.22q.45,6.3.88,12.61c.08,1.21.17,2.42.25,3.62a1.57,1.57,0,1,0,3.14,0q-.45-6.3-.88-12.61c-.08-1.21-.17-2.41-.25-3.62a1.57,1.57,0,0,0-3.14,0Z"/><path d="M104.81,84.2c0,3.81.3,7.61.42,11.42,0,1.17.06,2.34.06,3.52a1.57,1.57,0,0,0,3.14,0c0-3.82-.3-7.62-.42-11.43Q108,86,108,84.2a1.57,1.57,0,1,0-3.14,0Z"/><path class="cls-1" d="M272.88,79.14a12.72,12.72,0,0,0-4.29-6.21,10,10,0,0,0-1.07-1.58,9.43,9.43,0,0,0,.9-3.49,15.39,15.39,0,0,0,3.32-11.56A23.92,23.92,0,0,0,270.31,45c-.26-.64-.52-1.26-.8-1.84A29.54,29.54,0,0,0,268.36,39,32.36,32.36,0,0,0,261,27c-3-8.18-12.34-12.23-21.19-12.21a19.14,19.14,0,0,0-6.45.43,57.77,57.77,0,0,0-10,3.79A61.51,61.51,0,0,0,208,29.1c-6.17,5.42-10.78,12.13-11.57,20.46A23.2,23.2,0,0,0,199,62.11a19.24,19.24,0,0,0,.35,2.69,14.59,14.59,0,0,0,8.34,10.07l.21.55a23.36,23.36,0,0,0,1.52,8.46A30.86,30.86,0,0,0,219,97.17c-.23,1.39-.49,2.78-.8,4.15a91.55,91.55,0,0,1-2.58,9.3q-.69,2.05-1.47,4.08a45.25,45.25,0,0,0-8.64,6.31,7.85,7.85,0,0,0-2,3.07,7.62,7.62,0,0,0-1,4.07c.16,3.66,2.67,8.21,6.69,8.79a29.65,29.65,0,0,0,4.06.34,38.82,38.82,0,0,0,19.59,3.51A37.64,37.64,0,0,0,246.05,138a15.56,15.56,0,0,0,3-1.77,12.16,12.16,0,0,0,7.14-1.33c4.93-2.52,5.61-9,2.78-13.13a10.93,10.93,0,0,0-3.13-6.17,28,28,0,0,0-4-3l-1.13-.75-.81-.55-.52-.53,0,0-.06-.14c-.08-.14-.28-.65-.45-.94l0-.1c-.16-.51-.3-1-.41-1.56a2.6,2.6,0,0,1,0-.28c0-.3-.12-1.1-.14-1.28,0-.64,0-1.29-.07-1.94,0-2,0-4-.11-5.94.39.08.78.15,1.18.21a15.73,15.73,0,0,0,4.93-.16,13.36,13.36,0,0,0,7-2.56,13.78,13.78,0,0,0,5.84-1.67A13.09,13.09,0,0,0,272.88,79.14Z"/><path class="cls-2" d="M302.41,166.47a58.65,58.65,0,0,0-1.79-10.85,28.12,28.12,0,0,0-3.31-13,21.36,21.36,0,0,0-2-3.18c-.3-.73-.62-1.47-1-2.2a9.58,9.58,0,0,0-1.48-2.17c-2.18-6.76-6.18-12.88-13.46-14.8a15.82,15.82,0,0,0-9.82.58c-.61,0-1.23.08-1.85.16a61.83,61.83,0,0,0-11.46,2.35c-4.9,1.55-9.67,3.49-14.71,4.51-.65,0-1.29.07-1.94.07a15.07,15.07,0,0,0-8,2.4l-.56,0a55.68,55.68,0,0,1-9.52-2.54c-6.89-3.32-13-8.41-20.62-10-7-1.43-13.63,1.28-17,7.18a20.14,20.14,0,0,0-1.8,1.78c-6.25,7-10.6,15.9-13.37,24.81a112.63,112.63,0,0,0-2.94,11.71,46.63,46.63,0,0,0-.85,6l-.27.21c-.47,6.69-.52,13.4-.8,20.1,0,.14,0,.27,0,.4v.52H302.07c-.43-7.89.3-15.83.33-23.74A2.18,2.18,0,0,1,302.41,166.47Z"/><path d="M233,100.42l-.89,0a24,24,0,0,1-15.86-7.14,35.73,35.73,0,0,1-9.16-15.89c-4.13-.93-7.08-5.63-6.85-11.24.2-5.16,3.07-9.48,7-10.5a1.4,1.4,0,0,1,.7,2.71c-2.67.7-4.72,4-4.87,7.9-.18,4.46,2.18,8.27,5.26,8.48a1.41,1.41,0,0,1,1.26,1c3.36,12.85,12.26,21.43,22.67,21.84l.77,0c10.38,0,19.94-8.39,23.95-21.14a1.42,1.42,0,0,1,.71-.83,1.4,1.4,0,0,1,1.08-.08,3.81,3.81,0,0,0,1.1.2c3.15.14,5.86-3.47,6-8s-2.23-8.36-5.38-8.49a1.4,1.4,0,0,1,.12-2.8c4.69.19,8.31,5.3,8.06,11.4S264.58,78.58,260,78.58h-.27a4.38,4.38,0,0,1-.51,0C254.62,91.78,244.28,100.42,233,100.42Z"/><path d="M241.11,68.46a1.68,1.68,0,0,0,0-3.36,1.68,1.68,0,0,0,0,3.36Z"/><path d="M223,68.09a1.68,1.68,0,0,0,0-3.36,1.68,1.68,0,0,0,0,3.36Z"/><path d="M229.32,77.14a4.1,4.1,0,0,0,5.67.11,1,1,0,0,0-1.42-1.43l-.11.1c-.11.11,0,0,.06,0l-.24.16-.22.12c-.14.08,0,0,.07,0l-.13,0a4.39,4.39,0,0,1-.52.13c-.19,0,.19,0,.07,0h-.42l-.25,0c-.13,0,.25,0,.07,0l-.13,0c-.18,0-.34-.12-.51-.15.22,0,.14.07.06,0l-.13-.06A1.82,1.82,0,0,1,231,76s-.06,0-.1-.06c.19.08.13.11.06,0l-.23-.22a1,1,0,0,0-1.42,0,1,1,0,0,0,0,1.43Z"/><path d="M215.3,93.48c.32,1.09.6,2.2.82,3.32.11.54.21,1.08.29,1.62,0,.12,0,.24.05.36-.09-.53,0,0,0,.09s.06.53.08.8a23.7,23.7,0,0,1,.1,3q0,.71-.09,1.41c0,.12,0,.25,0,.37s0,.09,0,.14c0,.24,0-.18,0-.18,0,.25-.08.51-.12.75a17,17,0,0,1-.7,2.63c-.07.21-.16.41-.24.62s.15-.35,0,0c-.06.13-.12.25-.17.38-.19.39-.4.78-.62,1.16s-.47.77-.74,1.14c-.06.08-.12.17-.19.25s.21-.26.09-.11a1.71,1.71,0,0,0-.11.14l-.46.54a16.94,16.94,0,0,1-2.05,1.92l.09-.07-.18.13-.35.25c-.22.16-.45.31-.68.46a16.93,16.93,0,0,1-1.56.88l-.83.41-.4.18c-.09,0-.39.15,0,0l-.25.1c-.62.26-1.25.48-1.89.69a1.51,1.51,0,1,0,.8,2.92c4.32-1.39,8.34-3.79,10.88-7.63a19.09,19.09,0,0,0,2.74-11.69,35.71,35.71,0,0,0-1.42-7.8,1.54,1.54,0,0,0-1.87-1,1.53,1.53,0,0,0-1,1.86Z"/><path d="M248.15,92.54a56.16,56.16,0,0,0-1.79,9.87,18.73,18.73,0,0,0,1.13,8.2,13.1,13.1,0,0,0,3.87,5.31,19,19,0,0,0,5.8,3.12,38.29,38.29,0,0,0,7.11,1.59,1.67,1.67,0,0,0,1.16-.15,1.55,1.55,0,0,0,.7-.91,1.53,1.53,0,0,0-1.06-1.86,39.72,39.72,0,0,1-6.2-1.3c-.49-.14-1-.31-1.45-.49l-.65-.25.15.06-.21-.09-.35-.16a14.69,14.69,0,0,1-2.52-1.45l-.24-.17c-.32-.24.27.22,0,0l-.56-.47a10.17,10.17,0,0,1-1-1l-.24-.28-.11-.14-.11-.15a4,4,0,0,1-.23-.34,10.33,10.33,0,0,1-.75-1.29l-.15-.32c-.05-.11-.19-.51,0,0-.09-.26-.2-.51-.28-.77a14.76,14.76,0,0,1-.45-1.61c-.06-.28-.11-.56-.15-.85l0-.18c0-.26,0,.1,0,.12a3.53,3.53,0,0,1-.08-.72,19.65,19.65,0,0,1-.08-2.3,26.21,26.21,0,0,1,.18-2.66l0-.24c0-.06,0-.47,0-.08a5,5,0,0,1,.1-.66c.06-.42.13-.85.21-1.27.33-1.76.76-3.5,1.19-5.24a1.52,1.52,0,1,0-2.92-.81Z"/><path d="M167.06,189.84c.07-9.2,0-18.42,1-27.57a84.75,84.75,0,0,1,2.45-13.33,65.23,65.23,0,0,1,4-10.91c2.77-5.85,6.37-11.54,11.48-15.6a18.83,18.83,0,0,1,8.05-3.82,16,16,0,0,1,4.61-.17,27.37,27.37,0,0,1,5.84,1.36,102,102,0,0,1,11.27,5A48,48,0,0,0,227.9,129,47.52,47.52,0,0,0,254,125.88c4-1.63,7.9-3.56,12-4.86,3.7-1.17,7.68-1.86,11.5-.86,7.21,1.9,12.28,8.49,15.81,14.67A68.41,68.41,0,0,1,301,158a161.24,161.24,0,0,1,1.62,24.55c0,2.43,0,4.86,0,7.29a1.51,1.51,0,0,0,3,0c0-8.85,0-17.72-.93-26.54a83.25,83.25,0,0,0-6.12-24.66,53.94,53.94,0,0,0-6.33-10.87,32.2,32.2,0,0,0-8.38-8,19.16,19.16,0,0,0-11.06-3A37.92,37.92,0,0,0,260,120a115.25,115.25,0,0,1-12.38,4.88,44.94,44.94,0,0,1-13.15,1.74,37.3,37.3,0,0,1-12.83-2.52c-4-1.53-7.68-3.6-11.55-5.32a36.08,36.08,0,0,0-12.26-3.46,19.27,19.27,0,0,0-9.77,2.13c-6.1,3.08-10.61,8.84-14,14.65a70.37,70.37,0,0,0-8.08,22.7c-1.67,9.27-1.91,18.7-2,28.1,0,2.3,0,4.6-.05,6.91a1.52,1.52,0,0,0,3,0Z"/><path d="M244.25,13.62c-5.41-2.15-11.63-1.66-17,.27a54.31,54.31,0,0,0-14.32,8.27A66.9,66.9,0,0,0,202.35,32,37.06,37.06,0,0,0,195,44.64a22,22,0,0,0,.21,14.23c.25.67.53,1.34.83,2a1.52,1.52,0,0,0,2.07.54,1.55,1.55,0,0,0,.55-2.07c-.08-.15-.15-.31-.22-.46a1.54,1.54,0,0,0-.08-.19s.14.33,0,.08-.24-.58-.34-.88a18,18,0,0,1-.54-1.72,15.84,15.84,0,0,1-.36-1.66c0-.15,0-.31-.08-.46s0-.12,0-.18c.06.41,0,.22,0,.12,0-.3-.07-.61-.09-.91a20.33,20.33,0,0,1,0-3.31c0-.25.05-.5.08-.76s-.05.31,0,.09l0-.22c0-.15,0-.3.07-.44.1-.54.21-1.07.34-1.59a23.9,23.9,0,0,1,1-3.2c0-.11.09-.23.14-.34.12-.3-.12.26,0,.06l.09-.21.34-.76c.25-.51.51-1,.78-1.53.54-1,1.14-2,1.78-3,.33-.5.68-1,1-1.48l.48-.66c0-.05.13-.12.15-.19s-.22.29-.06.08l.3-.38a61.54,61.54,0,0,1,9.94-9.75l.63-.5.14-.11-.09.07.39-.29c.45-.35.91-.69,1.37-1,1.1-.8,2.21-1.58,3.35-2.33a47.82,47.82,0,0,1,7.16-3.92c.26-.12,0,0-.06,0a.64.64,0,0,0,.21-.09l.51-.2.94-.35c.66-.24,1.34-.46,2-.65s1.3-.33,1.95-.47l1-.18.45-.07c.36,0-.25,0,0,0l.34,0a23.82,23.82,0,0,1,4.05-.12l1,.08c.14,0,.3,0,.44.05-.37-.08-.12,0,0,0l.33.05a19.07,19.07,0,0,1,2,.44,17.66,17.66,0,0,1,1.9.64,1.47,1.47,0,0,0,1.16-.15,1.63,1.63,0,0,0,.7-.91,1.57,1.57,0,0,0-1.06-1.86Z"/><path d="M256.28,23.58a40,40,0,0,1,4.25,4c.66.72,1.3,1.47,1.91,2.24l.21.27-.08-.11.09.12.48.64.84,1.19a46.82,46.82,0,0,1,2.94,5c.44.87.85,1.75,1.23,2.63l.14.33s-.14-.33,0-.09l.06.14.28.7c.18.45.35.9.51,1.36a52.9,52.9,0,0,1,2.59,10.21c0,.2.05.4.08.6a1.38,1.38,0,0,0,0-.19.88.88,0,0,0,0,.17c0,.12,0,.23,0,.35.05.41.09.83.13,1.25.07.83.12,1.67.13,2.51s0,1.66-.08,2.49c0,.42-.09.84-.13,1.26,0,0,.05-.36,0-.19a.69.69,0,0,1,0,.13c0,.09,0,.19,0,.29s-.07.41-.11.62a18.06,18.06,0,0,1-.61,2.38c-.13.38-.27.75-.42,1.12s.16-.34,0,0l-.12.26c-.08.19-.17.37-.27.56a14.53,14.53,0,0,1-1.27,2l-.07.1.08-.11-.19.24-.41.48a12.5,12.5,0,0,1-.88.9,12.94,12.94,0,0,1-1,.84,1.54,1.54,0,0,0-.44,1.07,1.52,1.52,0,0,0,1.51,1.52,1.72,1.72,0,0,0,1.07-.45,16.47,16.47,0,0,0,5.62-8.84,28.17,28.17,0,0,0,.52-10.39,54.56,54.56,0,0,0-2.32-10.56,49.52,49.52,0,0,0-5.12-11,42.12,42.12,0,0,0-7.83-9.22c-.38-.33-.77-.65-1.16-1a1.63,1.63,0,0,0-1.07-.44,1.51,1.51,0,0,0-1.07,2.58Z"/><path d="M210.38,44.52c0,.11,0,.23.05.34l0,.18c0,.18,0-.11,0-.11s0,.32.05.4,0,.28,0,.41c.06.5.1,1,.12,1.51.06,1,.07,2,0,3s-.1,2-.21,3l-.09.75c0,.3,0-.24,0,.06l-.06.4c-.07.5-.16,1-.25,1.5a68.64,68.64,0,0,1-3.4,11.75c-1.43,3.83-3.16,7.54-4.55,11.37-1.3,3.57-2.25,7.45-1.77,11.26a14.06,14.06,0,0,0,4.43,9.09,14.54,14.54,0,0,0,1.17.9,1.53,1.53,0,0,0,2.07-.55,1.55,1.55,0,0,0-.54-2.07c-.15-.1-.29-.21-.45-.31,0,0,.26.2.13.09l-.1-.08-.28-.24a8.51,8.51,0,0,1-.8-.79c-.13-.14-.25-.29-.38-.44s.18.24,0,0l-.18-.25c-.22-.31-.42-.63-.61-1s-.37-.69-.53-1l0-.12c-.07-.16.06.16.06.15s-.07-.17-.1-.26-.15-.4-.22-.6a15,15,0,0,1-.57-2.29,2.51,2.51,0,0,1,0-.27.68.68,0,0,1,0-.14s0,.34,0,.17-.05-.43-.07-.64c0-.39-.05-.77-.06-1.16s0-.8,0-1.2c0-.22,0-.44,0-.67s0-.23,0-.34a.88.88,0,0,1,0-.17s0-.3,0-.09,0,0,0,0l0-.23.06-.34c0-.25.09-.49.14-.74.1-.49.21-1,.34-1.46.25-1,.54-1.9.87-2.83,1.33-3.79,3-7.44,4.47-11.2a73.58,73.58,0,0,0,3.51-11.61,39.67,39.67,0,0,0,.73-12.1q-.1-.9-.24-1.8a1.54,1.54,0,0,0-.7-.9,1.51,1.51,0,0,0-2.22,1.71Z"/><path d="M267,74.25l.51.37c.29.22-.2-.16,0,0l.29.24c.34.28.65.58,1,.88s.57.61.84.93l.21.26c.16.2-.2-.27,0,0l.38.54a15.05,15.05,0,0,1,1.21,2.19c.1.22-.06-.13-.06-.14l.06.15a2.77,2.77,0,0,1,.1.26c.08.2.15.41.22.61.12.39.23.79.32,1.2,0,.18.07.36.11.54a3.11,3.11,0,0,0,0,.32s0-.41,0-.17c0,0,0,.11,0,.16,0,.4.07.81.07,1.22s0,.81-.07,1.22a.77.77,0,0,0,0,.15s.06-.37,0-.2a2.87,2.87,0,0,0-.05.31c0,.2-.08.41-.13.61a10.76,10.76,0,0,1-.35,1.14l-.12.3c-.05.15.09-.19.08-.17a.91.91,0,0,0-.07.14,6.45,6.45,0,0,1-.29.59,9.37,9.37,0,0,1-.67,1.09l-.17.24c-.07.09-.18.16.08-.1a.76.76,0,0,0-.11.14c-.15.18-.3.35-.46.52a11.43,11.43,0,0,1-1.13,1.07.79.79,0,0,0-.17.14c0-.07.23-.17.06,0l-.39.28c-.25.17-.51.33-.77.48s-.56.31-.85.45a3.52,3.52,0,0,1-.39.17l.07,0-.25.1a13.93,13.93,0,0,1-1.78.52,1.52,1.52,0,0,0-1.06,1.86,1.55,1.55,0,0,0,1.86,1.06,12.9,12.9,0,0,0,9.61-8.48,13.52,13.52,0,0,0-1.61-10.9,16,16,0,0,0-4.61-4.81,1.53,1.53,0,0,0-2.07.54,1.56,1.56,0,0,0,.55,2.07Z"/><path d="M261.46,85.73a8.57,8.57,0,0,1,.52.81c.08.14.16.28.23.43l.08.17a1.42,1.42,0,0,1,.08.18h0c-.13-.19,0,0,0,.08a1.34,1.34,0,0,1,.07.18l.15.46a9.26,9.26,0,0,1,.25,1l0,.19c.06.34,0-.37,0,0,0,.14,0,.29,0,.43a8.68,8.68,0,0,1,0,1,3.87,3.87,0,0,1,0,.48c0,.07,0,.13,0,.2v.09c0,.17,0,.13,0-.11a1.93,1.93,0,0,0-.07.43,4.7,4.7,0,0,1-.12.51,7.69,7.69,0,0,1-.29.93l-.06.18c-.13.32.14-.32,0,0-.08.16-.15.32-.24.48s-.29.51-.45.76-.19.25-.27.38c.2-.33.1-.14,0,0l-.21.25c-.19.22-.4.43-.61.63l-.31.29-.22.18c-.08.06-.33.21,0,0-.54.33-1,.69-1.6,1l-.25.11c-.26.13.31-.12,0,0l-.48.17a9.92,9.92,0,0,1-1,.29c-.17,0-.34.07-.51.09s-.33,0,.08,0l-.28,0A10.29,10.29,0,0,1,255,98a1.52,1.52,0,0,0-1.52,1.51A1.55,1.55,0,0,0,255,101a10.9,10.9,0,0,0,8.14-3.34,10.52,10.52,0,0,0,2.81-8.52,10.66,10.66,0,0,0-1.84-5,1.59,1.59,0,0,0-.9-.69,1.51,1.51,0,0,0-1.71,2.22Z"/><path d="M222.9,35.59A16.32,16.32,0,0,0,225,45.44,16,16,0,0,0,232.18,52a16.88,16.88,0,0,0,5.62,1.52A1.52,1.52,0,0,0,239.31,52a1.56,1.56,0,0,0-1.51-1.52l-.3,0c-.09,0-.44-.07,0,0l-.49-.08c-.39-.07-.78-.15-1.16-.25s-.64-.18-1-.28l-.52-.18-.23-.09c-.09,0-.5-.24-.09,0-.66-.32-1.31-.62-1.94-1-.31-.19-.61-.39-.91-.6l-.16-.12c-.1-.07-.34-.17,0,0a2.73,2.73,0,0,1-.46-.38A13.92,13.92,0,0,1,229,45.93c-.14-.15-.26-.31-.39-.46a1.83,1.83,0,0,0-.13-.16c.27.3,0,0,0,0-.23-.32-.45-.65-.66-1s-.36-.62-.53-.94l-.23-.46-.13-.28a1.42,1.42,0,0,0-.08-.18c-.06-.15,0-.13,0,.07a1.76,1.76,0,0,1-.18-.47c-.06-.16-.12-.32-.17-.49-.13-.39-.25-.78-.35-1.18s-.18-.8-.24-1.21a1,1,0,0,1-.05-.3c0,.23,0,.27,0,.1a.78.78,0,0,1,0-.16c0-.22,0-.44-.06-.66a15.64,15.64,0,0,1,.06-2.56,1.51,1.51,0,0,0-1.51-1.51,1.55,1.55,0,0,0-1.51,1.51Z"/><path d="M249.36,47.05a12.2,12.2,0,0,0,5.88,10.86,11.18,11.18,0,0,0,3.3,1.34,1.52,1.52,0,1,0,.81-2.92,10,10,0,0,1-1.32-.39l-.29-.11c.43.16.06,0,0,0a6.25,6.25,0,0,1-.63-.33,10.79,10.79,0,0,1-1.15-.75c-.16-.11.24.2.09.08l-.1-.09-.27-.23c-.18-.15-.35-.31-.52-.48s-.31-.32-.46-.49l-.21-.23a1.34,1.34,0,0,0-.11-.14s-.2-.26-.05,0-.06-.09-.09-.14l-.21-.29c-.13-.19-.26-.39-.38-.6l-.32-.58-.14-.28c0-.06-.05-.11-.07-.17s-.13-.3,0-.06,0-.08-.06-.15l-.12-.33c-.08-.22-.15-.45-.21-.68s-.12-.48-.17-.73-.05-.26-.07-.39,0-.28,0,.14a1.1,1.1,0,0,1,0-.18,9.5,9.5,0,0,1,0-1.6,1.52,1.52,0,0,0-1.51-1.51,1.55,1.55,0,0,0-1.52,1.51Z"/><path d="M237.12,45.3c1.34,3.25,3.47,6.52,6.78,8a10.54,10.54,0,0,0,3.31.88,1.51,1.51,0,0,0,1.51-1.51,1.56,1.56,0,0,0-1.51-1.52h-.14c-.17,0,.18,0,.17,0l-.28,0c-.21,0-.42-.08-.63-.14l-.52-.15-.25-.09-.15-.06c.23.1,0,0-.1-.05l-.24-.12c-.17-.08-.34-.18-.5-.27l-.49-.31-.21-.16-.11-.07.1.07a17.48,17.48,0,0,1-1.63-1.59l-.17-.2-.08-.1c.15.19,0,0-.07-.1l-.18-.26c-.23-.32-.44-.65-.64-1s-.42-.73-.61-1.11c-.1-.2-.2-.41-.29-.61s-.09-.19-.13-.29a.61.61,0,0,1-.05-.12c-.08-.17.15.36,0,.07a1.69,1.69,0,0,0-.7-.9,1.52,1.52,0,0,0-1.16-.15,1.54,1.54,0,0,0-1.06,1.86Z"/><path d="M236,83.6a1,1,0,0,1,.14-.54s0,0,0,0l-.06.1-.2.3c-.17.26-.35.51-.54.76l-.26.35s-.18.23,0,.06,0,0,0,0a5.57,5.57,0,0,1-.59.6l-.15.13s-.14.12,0,0l0,0-.16.1-.3.17c-.12.06,0,0,.05,0l-.25.08s-.28.09-.32.06.3,0,0,0h-.46l-.18,0c-.15,0,0,0,0,0a1.76,1.76,0,0,1-.63-.15l-.31-.1-.13,0c.24.09,0,0,0,0a7.68,7.68,0,0,1-1.2-.73h0l-.15-.12-.3-.25-.56-.54c-.19-.19-.37-.39-.54-.59l-.24-.28a.76.76,0,0,1-.08-.11c.09.11.1.13.05.07a.76.76,0,0,0-.08-.11l-1.84,1.43c.48.52,1.37.47,2,.48s1.32,0,2,0c2.19-.06,4.37-.1,6.56,0l-.83-.34h0a1.18,1.18,0,0,0,1.66,0,1.2,1.2,0,0,0,0-1.67,1.74,1.74,0,0,0-1.33-.37l-1,0h-2c-1,0-2,0-2.93.07-.59,0-1.19,0-1.79,0-.33,0-.65,0-1,0l-.19,0c-.26,0,.27.07.11,0l-.11,0a1.28,1.28,0,0,1,.42.25,1.17,1.17,0,0,0-1.54-.09,1.16,1.16,0,0,0-.31,1.52c1.33,1.78,3.16,3.57,5.41,4a4.57,4.57,0,0,0,3.62-.65,8.44,8.44,0,0,0,1.76-1.82,4.38,4.38,0,0,0,1.15-2.05,1.18,1.18,0,0,0-1.18-1.18A1.2,1.2,0,0,0,236,83.6Z"/><path class="cls-1" d="M270.21,138.78c-.41-1.19-.82-2.39-1.24-3.58a4.13,4.13,0,0,0-.3-.68l-.24-5.7a21.81,21.81,0,0,0-3-15.95,24.81,24.81,0,0,0-2.58-7.28,58.92,58.92,0,0,0-6.64-9.3,10.23,10.23,0,0,0-1.76-1.72c-.39-.62-.77-1.26-1.12-1.9a2.92,2.92,0,0,0-3.28-1.34,3.17,3.17,0,0,0-1.51,1,2.9,2.9,0,0,0-.94-.16,2.86,2.86,0,0,0-2.52,1.44,6.94,6.94,0,0,0-.74,3.38,8.65,8.65,0,0,0,.11.89,3,3,0,0,0-2.56.32,3,3,0,0,0-1,4l1.7,2.85a3,3,0,0,0-2,.6,2.91,2.91,0,0,0-.74,3.75l.72,1.28a2.93,2.93,0,0,0-.75.85c-.15.26-.29.52-.43.78a2.73,2.73,0,0,1,1.86,2.58c0,.34,0,.67,0,1a15.15,15.15,0,0,1,1.51,3.6,2.71,2.71,0,0,1,2.2,2.68,49.77,49.77,0,0,0,1,9,2.39,2.39,0,0,1,1.31,1.34c1.2,2.75,2.41,5.5,3.47,8.29,0,0,0,0,0-.06a12.87,12.87,0,0,0,.6,1.44c.85,1.77,2.31,3.58,4.34,4a4.29,4.29,0,0,0,.7.08,2.7,2.7,0,0,0,1.25.75,1.83,1.83,0,0,0,.25.06,2.42,2.42,0,0,1,1.09-.91c1.66-.71,3.35-1.4,5.05-2l.73-.33a44.48,44.48,0,0,1,5.68-4.16C270.39,139.31,270.3,139.05,270.21,138.78Z"/><path d="M260.34,110.27l-9-16c-.35-.62-.72-1.24-1-1.88l-.1-.2s-.14-.36-.06-.13,0-.12,0-.14a1.72,1.72,0,0,1-.07-.21,3.31,3.31,0,0,1-.12-.42c0-.06,0-.35,0-.12s0-.11,0-.17,0-.14,0-.21-.1.36,0,0l.06-.21c.07-.29,0,.08-.05.07s.29-.49.12-.23,0,0,.07-.06c.18-.2-.27.18,0,0s.06.07-.11,0l.19,0s-.35,0-.13,0-.26-.08-.08,0a1.36,1.36,0,0,0,.22.07s-.33-.17-.1,0l.17.1.12.08-.1-.08a2.5,2.5,0,0,0,.34.31l.31.33c.21.23.4.46.6.7.42.48.83,1,1.25,1.46.77.9,1.53,1.8,2.29,2.71s1.49,1.82,2.22,2.75c.08.1.15.21.23.3-.31-.32.05.05.11.14l.51.67c.34.46.68.92,1,1.39a47.89,47.89,0,0,1,3.55,5.76c.26.49.5,1,.74,1.49l.35.77.15.35s.14.32,0,.08,0,.08,0,.12c.45,1.09.85,2.2,1.19,3.32s.68,2.42.93,3.65c.13.64.25,1.28.35,1.92a1.57,1.57,0,0,0,0,.23s0,.39,0,.14,0,.12,0,.14l0,.23c0,.36.08.72.11,1.08.52,5.65,0,11.41,1.32,17,.16.66.35,1.32.57,2a1.5,1.5,0,1,0,2.89-.8,26.33,26.33,0,0,1-1-4.19c0-.19-.06-.38-.08-.56,0,0,0,.34,0,.06l0-.23-.12-1.13q-.09-1.08-.15-2.16c-.15-2.91-.11-5.83-.31-8.74a41.14,41.14,0,0,0-4.11-15.45,61.72,61.72,0,0,0-8.07-11.88c-.79-1-1.59-1.91-2.39-2.85L254,90.14c-.41-.49-.81-1-1.27-1.45a4.31,4.31,0,0,0-2.08-1.21,2.91,2.91,0,0,0-2.7.82c-1.35,1.4-1.13,3.39-.43,5a43.63,43.63,0,0,0,2.15,4c.77,1.38,1.54,2.77,2.32,4.15q2.29,4.13,4.61,8.24c.38.69.77,1.38,1.16,2.07a1.5,1.5,0,0,0,2.05.54,1.53,1.53,0,0,0,.54-2Z"/><path d="M250.21,92.7A6.12,6.12,0,0,0,248,90.59a3.6,3.6,0,0,0-3.33,0A4.56,4.56,0,0,0,242.73,93a5,5,0,0,0-.14,3,9.91,9.91,0,0,0,1.24,2.83c.53.9,1.09,1.79,1.64,2.68,1.14,1.83,2.27,3.67,3.4,5.5,1.28,2.06,2.55,4.13,3.82,6.19a1.5,1.5,0,0,0,2.6-1.51l-6.21-10.06c-1-1.6-2.05-3.18-3-4.84-.09-.16-.17-.32-.25-.48a2,2,0,0,1-.14-.3l.07.16-.08-.2a4.48,4.48,0,0,1-.2-.62c0-.07,0-.14-.05-.2s0-.14,0-.21c0,.22,0,.25,0,.08s0-.4,0-.61-.08.37,0,.06c0-.07,0-.14.05-.21l.06-.21,0-.08c.06-.15,0-.11-.05.11a3.85,3.85,0,0,0,.3-.53c.16-.26-.24.26,0,0a1.54,1.54,0,0,1,.17-.19c.13-.12.25-.11-.05,0a1.67,1.67,0,0,0,.28-.18l.07,0c.14-.07.1,0-.13,0a1.18,1.18,0,0,0,.31-.08s-.39,0-.16,0h.17c.16,0,.11,0-.14,0a1.27,1.27,0,0,0,.28.06c.15.06.12,0-.1,0l.17.09.24.14c.24.15-.23-.21,0,0s.33.32.48.49.19.18.19.23c-.14-.18-.16-.2-.06-.08l.11.16a1.5,1.5,0,0,0,2.6-1.51Z"/><path d="M244.45,96.74a2.65,2.65,0,0,0-2.07-.88,3.63,3.63,0,0,0-2.19.86,4,4,0,0,0-1,4.38,14.42,14.42,0,0,0,1.07,2.33l1.19,2.2,2.31,4.29c.88,1.65,1.77,3.29,2.66,4.94a1.5,1.5,0,0,0,2,.54,1.52,1.52,0,0,0,.54-2.05l-4.17-7.75-2.1-3.9q-.22-.4-.42-.81l-.12-.26c-.09-.2.09.24,0,0s-.13-.35-.18-.53a1.73,1.73,0,0,1-.11-.49s0,.36,0,.07v-.21a1.86,1.86,0,0,0,0-.22c.05.06-.06.29,0,.07,0,0,0-.12,0-.18.05-.26-.16.3,0,.09l.07-.13c.1-.16.18-.13-.06.06.09-.07.17-.18.26-.26s.12,0-.13.09a1.86,1.86,0,0,0,.19-.11l.13-.07c-.23.18-.27.1-.09,0l.14,0c.17,0,.24.06-.13,0,.08,0,.45,0,.14,0s-.07,0,0,0c.23,0-.3-.14-.14-.06s0,.12-.12-.1c0,.05.11.1.15.15a1.5,1.5,0,0,0,2.12,0,1.53,1.53,0,0,0,0-2.12Z"/><path d="M241.56,103.62c-2-.16-3.49,1.43-4.08,3.16a6.41,6.41,0,0,0,1,5.36c.46.76,1,1.46,1.5,2.18a22.39,22.39,0,0,1,1.47,2.38c.21.4.41.8.6,1.21.09.21.2.42.28.64,0,0-.11-.27-.05-.11l.06.15c.05.12.1.23.14.35a24.25,24.25,0,0,1,.85,2.62c.13.5.24,1,.34,1.53.05.24.09.49.13.74l.06.37s0,.23,0,0,0,.07,0,.12a23.21,23.21,0,0,1,.16,3.12,1.51,1.51,0,0,0,1.5,1.5,1.53,1.53,0,0,0,1.5-1.5,25.55,25.55,0,0,0-2.28-10.82,26.14,26.14,0,0,0-2.65-4.51,17.61,17.61,0,0,1-1.35-2.08c-.05-.09-.1-.18-.14-.27l0-.09c-.07-.15-.06-.12,0,.08a1.86,1.86,0,0,1-.21-.57c-.06-.2-.1-.39-.14-.59-.07-.36,0,.37,0,.06,0-.11,0-.22,0-.33a1.94,1.94,0,0,1,0-.24c0-.27-.08.4,0,0a3.59,3.59,0,0,1,.12-.47c0-.08.07-.16.09-.23-.11.41,0,.12,0,0l.12-.2c.07-.13.31-.34,0,0,.13-.12.24-.26.37-.39s-.3.2-.06,0l.26-.16c.24-.14-.36.12-.09,0l.29-.08c.27-.08-.39,0-.1,0h.31a1.5,1.5,0,0,0,0-3Z"/><path d="M243,120.38a27,27,0,0,0,1.82,11.86,46.81,46.81,0,0,0,5.78,10.51c1.34,1.89,2.77,3.72,4.21,5.53a1.51,1.51,0,0,0,2.13,0,1.55,1.55,0,0,0,0-2.12l-.89-1.12-.42-.54-.21-.27a1.34,1.34,0,0,1-.11-.14c.07.09.13.17,0,0-.6-.77-1.18-1.54-1.75-2.33-1.13-1.56-2.2-3.15-3.17-4.81-.48-.82-.94-1.65-1.36-2.5-.23-.44-.44-.89-.64-1.34-.1-.21-.19-.42-.28-.63s.08.21,0-.06l-.15-.37a30.57,30.57,0,0,1-1.65-5.53c0-.26-.1-.52-.14-.79l-.06-.39a.47.47,0,0,0,0-.17c0,.07,0,.27,0,.06-.07-.53-.12-1.05-.15-1.58a24.24,24.24,0,0,1,0-3.3,1.51,1.51,0,0,0-1.5-1.5,1.54,1.54,0,0,0-1.5,1.5Z"/><path d="M256.83,149.35c.39-.32.78-.64,1.18-.95l.31-.24c.22-.18-.18.13.05,0l.62-.48c.81-.61,1.63-1.19,2.47-1.76q2.51-1.71,5.15-3.2c.88-.49,1.77-1,2.68-1.42l1.36-.67.66-.31.3-.14a.81.81,0,0,1,.21-.1c-.09,0-.25.12-.07,0s.2,0,0,0a1.66,1.66,0,0,1-.58-.11c.22.08-.08,0-.09-.07s.08.08.1.1c.17.19.34.39.5.59.34.4.67.8,1,1.21l1,1.23.25.32s-.16-.21-.05-.07l.1.14.5.64q2.13,2.85,4,5.85a1.5,1.5,0,1,0,2.59-1.52q-1.77-2.81-3.74-5.47-1.05-1.41-2.16-2.79c-.35-.44-.71-.87-1.07-1.31a7.21,7.21,0,0,0-1.12-1.22,2.27,2.27,0,0,0-2.4-.26c-.54.23-1.07.49-1.6.74-1,.45-1.88.93-2.8,1.42q-2.82,1.51-5.49,3.29a74.29,74.29,0,0,0-6,4.45,1.52,1.52,0,0,0,0,2.12,1.56,1.56,0,0,0,2.13,0Z"/><path d="M254.79,149.64a80.48,80.48,0,0,0,6.67,11.29,1.54,1.54,0,0,0,2.06.54,1.51,1.51,0,0,0,.53-2.05,82.65,82.65,0,0,1-6.67-11.29,1.5,1.5,0,0,0-2-.54,1.53,1.53,0,0,0-.54,2Z"/><circle class="cls-4" cx="260.84" cy="76.57" r="3.54" transform="translate(-9.9 101.05) rotate(-21.53)"/><path d="M260.84,81h0a4.42,4.42,0,1,1,0-8.83h0a4.42,4.42,0,1,1,0,8.83Zm0-7.08a2.67,2.67,0,1,0,0,5.33h0a2.67,2.67,0,1,0,0-5.33Z"/><path class="cls-1" d="M228.91,184.59c-2.7-10.75-13.32-18.8-24.43-18.35a7.19,7.19,0,0,0-3.51,1.11l-.72.09a37.54,37.54,0,0,0-1.25-6.67,6.35,6.35,0,0,0-1.37-2.5c2.42-1.29,4.85-2.58,7.26-3.89a6.44,6.44,0,0,0,3.16-4.79,6.78,6.78,0,0,0,5.27-4.77,7.18,7.18,0,0,0-1.73-6.5l.13-.28a7.14,7.14,0,0,0,.35-1,73.54,73.54,0,0,0,3.48-7.58,4.9,4.9,0,0,0,.23-2.73,15.93,15.93,0,0,0,.81-2.63,22.82,22.82,0,0,0-.61-11.73,4.21,4.21,0,0,0-.12-.48,17.14,17.14,0,0,0-1.87-4.14c0-.26,0-.52,0-.77.15-3.61-3.11-6.43-6.53-6.54H207a16.82,16.82,0,0,0-2.31-1.2,8,8,0,0,0-4.42-.78,20.16,20.16,0,0,0-11.13-6.61c-4.44-.81-9.49-.25-12.87,2.92a30,30,0,0,0-18.06,13.42,23.36,23.36,0,0,0-3.28,10,16.48,16.48,0,0,0,0,4.21,15.54,15.54,0,0,0,.32,5.72,19.68,19.68,0,0,0,4.8,8.37,5.48,5.48,0,0,0-.61.9c-1.3,2.46-1.2,6,1,7.92a25.77,25.77,0,0,0,5.26,3.61,15.65,15.65,0,0,0,7.06,9.32,14.76,14.76,0,0,0,5.16,1.91.22.22,0,0,0,0,.08,4,4,0,0,0-.83,1.22q-1.31,3-2.66,6.06a18.57,18.57,0,0,0-7.09.45,13.37,13.37,0,0,0-7.84,1.5c-6.27,3.34-8.72,11.19-11.55,17.21a7.93,7.93,0,0,0-.6,5h78.92a6.17,6.17,0,0,0,.94-.78A6.64,6.64,0,0,0,228.91,184.59Z"/><path class="cls-2" d="M146.31,191.72h83.06a5.42,5.42,0,0,0,.41-3.82,33.23,33.23,0,0,0-6-11.91c-2.64-3.4-6.33-7-10.52-8.34a8.09,8.09,0,0,0-7.23,1q-1.68.15-3.33.45a57.41,57.41,0,0,0-9.1,1.69,16,16,0,0,0-3.56,1.39c-1.52-.33-3-.77-4.53-1.15a24,24,0,0,0-9.63-.77,19.34,19.34,0,0,0-11.94-1.74,4.53,4.53,0,0,0-1.88.82,9.28,9.28,0,0,0-3.54,1.69,3.87,3.87,0,0,0-.43.27A33.19,33.19,0,0,0,147,184.9c-.83,1.92-1.51,3.71-1,5.85A7.35,7.35,0,0,0,146.31,191.72Z"/><path class="cls-3" d="M220.58,117.05A25.17,25.17,0,0,0,213,101.59c-2.13-2-5-4.16-8-4.55a8.48,8.48,0,0,0-1.11-.07,17.62,17.62,0,0,0-2.61-.76A11.29,11.29,0,0,0,198.63,95a9.11,9.11,0,0,0-2.5-.43,8.62,8.62,0,0,0-2.92-2.34,10.35,10.35,0,0,0-3.51-1c-2.45-1.29-5.59-1.34-8.59-.77a30.28,30.28,0,0,0-9.81,4.25,34.16,34.16,0,0,0-7.78,6.28,25.62,25.62,0,0,0-1.67,2.1c-6,1.4-8.16,8-8.84,13.73-.33,2.68-.56,5.41-.68,8.1-.14,2.92.54,6.33,3,8.24a7.8,7.8,0,0,0,2.44,1.36c-.3-.09,5.41-6.2,6.07-6.69,2.14-1.56,4.53-2.74,6.18-4.89,2-2.64,3.65-5.56,5.85-8.14l.52-.61.28-.27c1.22-1.18,2.41-2.4,3.58-3.62a7,7,0,0,0,.21,1.35c1,3.94,4.52,6.79,8,8.5,3.93,1.9,7.87,3.66,12.3,3.88,6.3.3,11.32,5.28,12.5,11.34a4.08,4.08,0,0,1,.05,1.09,4.45,4.45,0,0,0,2.37-2.17C218.33,128.73,221.32,123.41,220.58,117.05Z"/><path d="M185.51,162.22a43.23,43.23,0,0,1-6.21-.51c-3.6-.52-6.63-2.28-9.56-4l-.05,0a21.12,21.12,0,0,1-7.64-8.63l-.22-.07c-2-.63-4.48-1.42-5.55-4.11A6.19,6.19,0,0,1,158.8,137a1.32,1.32,0,0,1,1.28,2.3,3.57,3.57,0,0,0-1.36,4.6c.61,1.53,2.14,2,3.91,2.57l.78.25a1.34,1.34,0,0,1,.77.69,18.56,18.56,0,0,0,6.91,8c2.83,1.65,5.5,3.21,8.58,3.65a32.69,32.69,0,0,0,9.39.24,54.21,54.21,0,0,0,6.45-1.61,19.05,19.05,0,0,0,10-9.13,1.35,1.35,0,0,1,.87-.71,10.5,10.5,0,0,1,2.39-.25,4.51,4.51,0,0,0,2.66-.55,4.1,4.1,0,0,1,.87-.89l.38-.33a3.17,3.17,0,0,0,.81-2.55,4,4,0,0,0-1.81-2.76,1.31,1.31,0,0,1,1.44-2.2,6.63,6.63,0,0,1,3,4.62,5.78,5.78,0,0,1-1.48,4.67l0,.05a6.36,6.36,0,0,1-.59.53,2.06,2.06,0,0,0-.36.33,1.57,1.57,0,0,1-.32.41,6.58,6.58,0,0,1-4.45,1.3,12.59,12.59,0,0,0-1.26.07,21.85,21.85,0,0,1-11.12,9.83l-.1,0a56.1,56.1,0,0,1-6.85,1.72h-.07A28.76,28.76,0,0,1,185.51,162.22Z"/><path d="M193,141.34a1.59,1.59,0,0,0,0-3.17,1.59,1.59,0,0,0,0,3.17Z"/><path d="M177,141a1.59,1.59,0,0,0,0-3.17,1.59,1.59,0,0,0,0,3.17Z"/><path d="M182.5,144.89a3.78,3.78,0,0,0,5.24.1,1.06,1.06,0,0,0-1.5-1.5l-.14.14c.15-.12.18-.14.09-.08l-.08.06a3.3,3.3,0,0,1-.32.18c-.07,0,.28-.11.05,0a.7.7,0,0,1-.19.06,1.8,1.8,0,0,1-.39.08l.28,0a3.05,3.05,0,0,1-.74,0l.28,0a3.28,3.28,0,0,1-.41-.08l-.18-.06s-.16-.07,0,0,0,0,0,0a3.79,3.79,0,0,1-.34-.2l.1.07s-.07-.06-.1-.08l-.16-.15a1.06,1.06,0,0,0-1.49,0,1.08,1.08,0,0,0,0,1.49Z"/><path d="M158.18,133.22c-.21-.24-.41-.49-.61-.73s.2.27,0,0c0-.06-.08-.11-.11-.17s-.22-.29-.32-.44a17.62,17.62,0,0,1-1-1.68q-.19-.39-.39-.81a1.42,1.42,0,0,0-.08-.18c-.13-.31.09.22,0,0s-.14-.35-.2-.52a16.56,16.56,0,0,1-.58-1.81c-.16-.62-.3-1.25-.4-1.88a2.89,2.89,0,0,1-.08-.5c0,.32,0,.17,0,.08l0-.25c0-.34-.07-.67-.09-1a23.82,23.82,0,0,1,.07-3.87l.09-.89a1.2,1.2,0,0,1,0-.2c-.1.38,0,.07,0,0s.05-.33.08-.49c.1-.63.22-1.24.35-1.86a31.42,31.42,0,0,1,1.07-3.67l.33-.88c.06-.14.11-.28.17-.41s.1-.31,0,0c0-.09.08-.18.12-.27.25-.57.52-1.14.81-1.7a28.39,28.39,0,0,1,2-3.25l.52-.72.15-.2c-.21.24-.09.12,0,.06l.34-.43c.41-.5.83-1,1.28-1.45a25.48,25.48,0,0,1,2.86-2.63l.21-.17c.06,0,.26-.21,0,0l.4-.29c.28-.21.56-.42.85-.62.58-.41,1.18-.8,1.79-1.17,1.2-.74,2.43-1.42,3.7-2,.62-.3,1.25-.6,1.88-.88.3-.13.6-.27.9-.39l.07,0,.2-.09.5-.2c1.25-.51,2.52-1,3.79-1.44a49.86,49.86,0,0,1,5.73-1.76c.5-.11,1-.2,1.51-.28l.15,0c-.41.08-.24,0-.15,0l.39,0c.25,0,.5,0,.76-.06a11.21,11.21,0,0,1,1.42,0l.67.05c.39,0-.33-.05.06,0l.36.06a8.08,8.08,0,0,1,1.36.38l.31.11c-.46-.15,0,0,.06,0a5.84,5.84,0,0,1,.65.35,5.57,5.57,0,0,1,.57.37l.12.09c.23.16-.21-.18-.07-.06l.33.28a9.71,9.71,0,0,1,1.08,1.14c.15.18-.06-.06-.07-.09a1.77,1.77,0,0,0,.16.22l.21.3c.17.26.33.52.49.8a1.43,1.43,0,0,0,1.94.51,1.45,1.45,0,0,0,.51-1.94,10.55,10.55,0,0,0-5.36-4.8,12.5,12.5,0,0,0-6.1-.53,32.69,32.69,0,0,0-6.32,1.59c-2.54.87-5.06,1.81-7.51,2.9-5.2,2.3-10.21,5.43-13.81,9.9a31,31,0,0,0-6.47,14.75,26.74,26.74,0,0,0,0,8.47,19,19,0,0,0,3,7.59,17.76,17.76,0,0,0,1.37,1.74,1.42,1.42,0,0,0,2,0,1.45,1.45,0,0,0,0-2Z"/><path d="M214.53,136.13a24.55,24.55,0,0,0,4.4-8.82,29.44,29.44,0,0,0,.9-9.49,28.34,28.34,0,0,0-7.43-17.7,14.71,14.71,0,0,0-9.53-4.85,1.43,1.43,0,0,0-1.42,1.42,1.46,1.46,0,0,0,1.42,1.42l.6,0c.17,0,.09,0-.08,0a.79.79,0,0,1,.3,0,7.77,7.77,0,0,1,1.06.25c.33.09.65.21,1,.33.09,0,.3.08,0,0,.09,0,.18.08.27.12l.53.26a14.72,14.72,0,0,1,1.85,1.16l.16.12c.28.21-.24-.19,0,0l.39.32c.28.23.55.48.81.73a18.91,18.91,0,0,1,1.51,1.59l.33.4.2.24.08.1c-.14-.18.07.09.08.11l.18.25a4.67,4.67,0,0,1,.36.51,24.35,24.35,0,0,1,2.2,3.88l.24.53c.09.2-.13-.33,0,0a2.49,2.49,0,0,0,.11.29c.15.36.28.72.41,1.08.25.72.48,1.45.67,2.19s.36,1.45.49,2.19q.1.53.18,1.08s.06.36,0,.12,0,.09,0,.12c0,.2,0,.41.07.62a29.88,29.88,0,0,1,.12,4.54,15.63,15.63,0,0,1-.2,2.16c.08-.39,0,0,0,0s0,.21,0,.31l-.09.51c-.06.37-.14.75-.22,1.12a23.88,23.88,0,0,1-.67,2.44c-.13.4-.28.81-.43,1.21,0,.06-.05.13-.08.19s-.24.47-.05.14a5.62,5.62,0,0,0-.25.56,24,24,0,0,1-1.15,2.19c-.22.36-.44.71-.67,1.05l-.36.5a2.35,2.35,0,0,1-.19.25l-.12.17,0,0a1.56,1.56,0,0,0-.42,1,1.47,1.47,0,0,0,.42,1,1.45,1.45,0,0,0,2,0Z"/><path d="M179.08,109.28a19.7,19.7,0,0,0,4.74,9,21.69,21.69,0,0,0,8.43,5.67,19.69,19.69,0,0,0,5.63,1.17,1.42,1.42,0,0,0,1.41-1.42,1.44,1.44,0,0,0-1.41-1.42c-.39,0-.77-.06-1.16-.11s.34,0,0,0l-.26,0-.57-.11a18.22,18.22,0,0,1-2.28-.6l-1.08-.4-.12,0-.16-.07-.53-.25a18,18,0,0,1-2.06-1.15c-.33-.21-.65-.43-1-.65l-.21-.16-.14-.11c.17.14-.07,0-.11-.08l-.24-.19a20.35,20.35,0,0,1-1.74-1.61c-.27-.28-.53-.57-.78-.86l-.35-.41c-.06-.08-.13-.16-.19-.25s.17.23,0,0a17.19,17.19,0,0,1-1.3-2q-.32-.56-.6-1.14c-.1-.2-.19-.4-.28-.6s.11.26,0,0l-.12-.29a17.88,17.88,0,0,1-.76-2.56,1.42,1.42,0,1,0-2.74.75Z"/><path d="M197.63,118.18a10.08,10.08,0,0,0,8,8.1,8.59,8.59,0,0,0,3.57-.12,1.42,1.42,0,1,0-.75-2.74l-.6.13c-.31,0,.27,0,0,0l-.33,0c-.4,0-.8,0-1.21,0,.42,0,.12,0,0,0l-.28-.06c-.21,0-.42-.1-.63-.16s-.36-.12-.54-.19a.94.94,0,0,1-.15-.06c-.15,0,.16.07.15.07a2.6,2.6,0,0,0-.34-.16,8.43,8.43,0,0,1-1.08-.63l-.23-.17-.14-.1.09.07-.48-.41a8.39,8.39,0,0,1-.86-.93c-.22-.27.13.18,0,0l-.2-.27c-.13-.19-.25-.39-.36-.58s-.22-.4-.32-.61c0,0,0-.1-.07-.16-.11-.23.09.23,0,.07l-.12-.33a8.22,8.22,0,0,1-.37-1.48,1.44,1.44,0,0,0-1.75-1,1.46,1.46,0,0,0-1,1.75Z"/><path d="M161.56,130.44a25.22,25.22,0,0,0,11.81-12.22,24.79,24.79,0,0,0,1.62-4.79,1.42,1.42,0,0,0-2.74-.75c-.15.67-.32,1.34-.53,2-.11.33-.22.65-.34,1,0,.14-.11.29-.16.44l-.09.21c0,.1-.11.43,0,0a5.49,5.49,0,0,1-.38.86c-.16.34-.33.67-.51,1-.31.59-.66,1.17-1,1.73A12.85,12.85,0,0,1,168,121.6c.28-.31-.09.12-.16.19l-.33.4c-.22.27-.45.52-.68.78-.47.5-1,1-1.46,1.45l-.71.62-.43.36-.15.12-.15.11.07,0a24.12,24.12,0,0,1-3.91,2.4,1.44,1.44,0,0,0-.51,2,1.47,1.47,0,0,0,1.94.51Z"/><path d="M188.57,150a1.06,1.06,0,0,1,.09-.39c.11-.26.05-.11,0-.08l-.05.09c-.06.1-.13.2-.2.3l-.49.69-.27.35s-.15.21,0,0,0,0,0,.06a7.27,7.27,0,0,1-.55.56l-.23.2c-.12.11.14-.09,0,0l-.12.08-.26.14c-.19.1,0,0,0,0l-.2.06-.32.07H186l-.18,0h-.28c-.08,0-.4,0-.15,0a5.63,5.63,0,0,1-.59-.14l-.31-.1,0,0-.13-.06a7.12,7.12,0,0,1-1.12-.68l-.12-.09c.17.13,0,0,0,0l-.3-.25c-.18-.16-.36-.33-.53-.51l-.51-.56-.2-.24s-.14-.18-.05-.06-.07-.09-.07-.1l-1.76,1.36c.46.5,1.31.45,1.93.46s1.24,0,1.86,0c2.09-.06,4.19-.09,6.29,0l-.8-.33h0a1.12,1.12,0,0,0,1.59-1.59,1.68,1.68,0,0,0-1.3-.35l-.87,0c-.63,0-1.25,0-1.87,0-.95,0-1.9,0-2.84.06-.58,0-1.16,0-1.74,0-.3,0-.6,0-.91,0l-.14,0c-.26,0,.25.07.1,0l-.12,0a1.33,1.33,0,0,1,.39.24,1.12,1.12,0,0,0-1.47-.08,1.11,1.11,0,0,0-.29,1.44c1.27,1.7,3,3.42,5.17,3.85a4.39,4.39,0,0,0,3.44-.62,8,8,0,0,0,1.67-1.72,4.31,4.31,0,0,0,1.11-2,1.14,1.14,0,0,0-1.13-1.12A1.15,1.15,0,0,0,188.57,150Z"/><path d="M175.23,159.89a7.38,7.38,0,0,1,0,1.05,4.19,4.19,0,0,1,0,.5c0,.06,0,.12,0,.18l0-.18a2.19,2.19,0,0,0,0,.27,8.85,8.85,0,0,1-.27,1c0,.12-.09.41-.17.48.07-.18.09-.21.05-.12l-.06.13-.12.24a7,7,0,0,1-.52.88l-.15.22c-.19.27.19-.23,0,0l-.37.42a7,7,0,0,1-.74.7c-.09.08-.27.14,0,0a1.6,1.6,0,0,0-.23.16,4.66,4.66,0,0,1-.47.3,1.38,1.38,0,0,0-.49,1.88,1.4,1.4,0,0,0,1.88.49,9.16,9.16,0,0,0,4.45-8.65,1.4,1.4,0,0,0-1.37-1.37c-.68,0-1.46.61-1.37,1.37Z"/><path d="M197,158.61a11.7,11.7,0,0,0,2.4,10.27,1.43,1.43,0,0,0,2,0,1.47,1.47,0,0,0,0-2,2.11,2.11,0,0,0-.19-.23c.24.21.05.07,0,0l-.3-.45c-.2-.32-.39-.65-.56-1l-.12-.27,0-.09,0,.07a2.25,2.25,0,0,1-.2-.51c-.12-.35-.22-.72-.31-1.08,0-.18-.08-.36-.11-.54s0-.19,0-.29,0,.31,0,0-.06-.79-.06-1.18,0-.72.06-1.08-.05.32,0,0c0-.09,0-.19.05-.29s.08-.38.12-.58a1.42,1.42,0,1,0-2.73-.75Z"/><path d="M232.1,189.48A42.08,42.08,0,0,0,227.45,177c-2.06-3.63-4.66-7.19-8.23-9.46-3.76-2.37-8.34-2.76-12.66-2.2-4.71.62-9.19,2.27-13.84,3.19l-1.58.28c-.49.08.27,0-.22,0l-.3,0-1,.09a24.65,24.65,0,0,1-3.1,0c-.51,0-1-.06-1.54-.12l-.7-.08c-.45-.05.28.05-.17,0l-.42-.06q-1.5-.24-3-.57c-4-.88-8-2.08-12.07-2.58a20.27,20.27,0,0,0-5.61,0,13.43,13.43,0,0,0-4.12,1.42,20.86,20.86,0,0,0-6.73,6,38,38,0,0,0-4.58,8,49.31,49.31,0,0,0-2.8,8.43q-.21.89-.36,1.77a1.42,1.42,0,1,0,2.74.76,43,43,0,0,1,2.16-7.73c.12-.32.24-.65.37-1l.2-.48.12-.3c-.09.22,0,.1,0,0,.3-.69.61-1.37.94-2a37.29,37.29,0,0,1,2.25-4c.41-.64.84-1.25,1.29-1.86h0l.16-.2.36-.44c.24-.29.48-.58.74-.85.47-.52,1-1,1.48-1.5.24-.22.49-.43.74-.64l.23-.18c.25-.2-.19.13,0,0l.47-.34a15.22,15.22,0,0,1,1.74-1.06,4.09,4.09,0,0,1,.42-.2,1.47,1.47,0,0,1,.42-.2l-.17.08.18-.07.17-.07.53-.19a14.5,14.5,0,0,1,1.95-.45c.21,0-.37,0,0,0l.28,0a3.87,3.87,0,0,1,.48,0c.43,0,.86,0,1.3,0,1,0,2,.12,3,.24-.29,0,.16,0,.18,0l.28,0,.69.11c.53.09,1.06.2,1.58.3,1.93.4,3.83.89,5.74,1.36a40.05,40.05,0,0,0,12.11,1.55c4.62-.3,9-1.88,13.5-2.94,1.06-.25,2.12-.47,3.19-.63l.44-.07h.06l.81-.09c.57-.06,1.13-.09,1.7-.11a22.6,22.6,0,0,1,3.08.11c.47.05-.14,0,.13,0l.36.06.72.13c.52.11,1,.25,1.54.41a13.34,13.34,0,0,1,4.72,2.84,20.83,20.83,0,0,1,2,2.1l.48.59c.16.21-.19-.26.07.1l.21.27c.31.43.62.86.91,1.3a39.66,39.66,0,0,1,3.07,5.47,29.07,29.07,0,0,1,1.17,2.84c.36,1,.68,2,1,3s.53,2,.73,3.05a1.43,1.43,0,0,0,1.75,1,1.46,1.46,0,0,0,1-1.75Z"/><path class="cls-1" d="M73.19,154.1c6.55-3.84,13.74-7.46,21.44-7.93,2.71-.16,7.84-.38,9.72,2.07,2.83,3.68-3.83,5.11-6,5.56a33,33,0,0,0-11.26,4.31"/><path d="M74,155.49c2-1.15,3.93-2.26,6-3.27,1-.51,2-1,3.1-1.45a3.88,3.88,0,0,1,.36-.15s-.34.14-.08,0l.21-.09.78-.31c.53-.21,1.08-.41,1.62-.6A36.17,36.17,0,0,1,92.51,148l.23,0c-.23,0,0,0,0,0l.22,0,.88-.09,1.28-.09c.74,0,1.49-.06,2.23-.06.42,0,.84,0,1.25,0a7.21,7.21,0,0,1,1.23.11s-.44-.06-.18,0l.16,0,.28,0,.59.12a9.3,9.3,0,0,1,1.14.34l.14.06c.16,0-.24-.09-.21-.09a1.07,1.07,0,0,1,.27.12l.49.28.21.14c.25.17-.27-.23-.08-.06a4.59,4.59,0,0,1,.39.37c0,.06.23.28,0,.05s0,0,0,.07.18.3.26.46a.37.37,0,0,1,0,.11s-.15-.43-.09-.22c0,.06,0,.12.06.19a1.16,1.16,0,0,0,0,.18c.05.18,0-.27,0-.28a.57.57,0,0,0,0,.13V150c0,.27.06-.26,0-.22s-.07.25-.1.36c.14-.45.12-.24,0,0l-.09.14c-.09.15.27-.33.16-.21l-.08.1a3.07,3.07,0,0,1-.26.25l-.16.14c-.14.12.38-.27.11-.08s-.49.31-.74.45l-.41.2-.2.09.21-.09a.59.59,0,0,1-.14.06l-.88.32c-.57.19-1.15.34-1.73.48-1.63.4-3.27.71-4.87,1.19a33.71,33.71,0,0,0-6.55,2.7c-.49.27-1,.55-1.43.85a1.6,1.6,0,1,0,1.62,2.77A26.07,26.07,0,0,1,91,157.78l.77-.34-.13.05.2-.08.47-.19c.55-.22,1.11-.42,1.67-.61,1.83-.6,3.69-1,5.57-1.44a19.76,19.76,0,0,0,3.9-1.27,5.24,5.24,0,0,0,3-3c.54-1.88-.68-3.7-2.14-4.76a10.43,10.43,0,0,0-5.31-1.55,31,31,0,0,0-4.82,0A34.34,34.34,0,0,0,87,145.94a62.51,62.51,0,0,0-13.13,5.92c-.5.28-1,.57-1.48.86a1.61,1.61,0,0,0-.58,2.19,1.63,1.63,0,0,0,2.19.58Z"/><path class="cls-1" d="M81.5,166.64c3,1.91,6,4,9.44,4.79,1.8.41,6.12.4,4.42-2.84-.68-1.3-2.09-2.06-3.1-3-1.18-1.15-2.11-2.58-3.24-3.79-6.86-7.35-22.79-12-28.6-.92-1.81,3.43-1.69,7.5-2,11.37-.56,7.35-8.75,14.87-12.69,21a2.92,2.92,0,0,0-.63,1.74c.08,1,1,1.6,1.9,2.05a87.51,87.51,0,0,0,10.36,4.67c2,.77,4.22,1.47,6.33,1,3.75-.84,4.74-4.71,7.13-7.15,3.07-3.15,7.12-3.07,10.38-5.66,2.64-2.1,4.46-5.63,7.11-7.95,3.3-2.9,7-5.21,7.8-9.89.24-1.33.17-2.7.42-4,.53-2.82,2.44-5.57,1.6-8.31a1.54,1.54,0,0,0-.65-.95,1.79,1.79,0,0,0-1.21-.06,26,26,0,0,0-7.63,2.78"/><path d="M80.72,168c1.6,1,3.17,2.08,4.84,3a18.18,18.18,0,0,0,5.19,2,9.48,9.48,0,0,0,3.6,0,3.42,3.42,0,0,0,2.85-2.35c.43-1.74-.7-3.5-2-4.61-.62-.54-1.3-1-1.89-1.58a19.75,19.75,0,0,1-1.85-2.13,22.87,22.87,0,0,0-2.93-3.13,27.68,27.68,0,0,0-3.21-2.37,28.05,28.05,0,0,0-7.23-3.21,21.45,21.45,0,0,0-7.68-.84,14.4,14.4,0,0,0-7.22,2.5,14.19,14.19,0,0,0-5.25,7.5,27.94,27.94,0,0,0-.88,5.83c-.06.95-.11,1.9-.17,2.85,0,.42,0,.84-.1,1.25s.06-.35,0-.08a1.87,1.87,0,0,1,0,.25c0,.2-.07.39-.11.58a13.92,13.92,0,0,1-.65,2.11c-.06.18-.15.36-.21.54,0,0,.14-.31.07-.16l-.06.12a2.55,2.55,0,0,1-.13.29c-.16.37-.34.72-.52,1.08a38.76,38.76,0,0,1-2.62,4.2c-.5.7-1,1.39-1.54,2.08l-.36.47s.19-.25.09-.11l-.09.11a3,3,0,0,1-.22.28l-.79,1c-1.09,1.37-2.18,2.74-3.24,4.13-.46.61-.92,1.24-1.36,1.87a9.67,9.67,0,0,0-1.35,2.38,3.33,3.33,0,0,0,.84,3.31,8.4,8.4,0,0,0,2.37,1.56c1.82.94,3.68,1.83,5.56,2.65s3.94,1.69,6,2.34a10.1,10.1,0,0,0,6.24.3,8.19,8.19,0,0,0,3.79-2.71c.93-1.15,1.68-2.42,2.55-3.62a1.33,1.33,0,0,1,.14-.19c0-.05.21-.28,0-.07l0-.06.2-.25c.24-.27.49-.54.75-.79s.33-.3.51-.44a1,1,0,0,0,.11-.1s-.25.19-.11.09l.28-.2A12.1,12.1,0,0,1,74.1,195c.36-.2.73-.38,1.11-.55l.26-.11c.26-.12-.29.12,0,0l.61-.25c.75-.29,1.5-.57,2.24-.87A15.18,15.18,0,0,0,83,190.35a35,35,0,0,0,3.4-4A25.13,25.13,0,0,1,90,182.57c2.38-2,5-4,6.51-6.81a11.73,11.73,0,0,0,1-2.5,17.11,17.11,0,0,0,.42-3.11l.06-.78a2.69,2.69,0,0,1,.07-.77s0,.3,0,.12l0-.18c0-.12,0-.25.07-.37s.11-.45.17-.67c.25-.9.59-1.77.89-2.66.62-1.8,1.13-3.91.41-5.77a3,3,0,0,0-1.24-1.63,3.09,3.09,0,0,0-2.13-.29,19.89,19.89,0,0,0-2.84.68,28,28,0,0,0-5.47,2.31,1.56,1.56,0,0,0-.56,2.11,1.58,1.58,0,0,0,2.12.55l1.2-.62.62-.29.31-.14.21-.09c-.2.08-.22.09-.06,0,.88-.35,1.77-.67,2.67-.94.44-.12.88-.24,1.32-.34l.66-.15.34-.07.2,0h-.1c.13,0,.41.06,0,0,.33.07-.27-.16,0,0l-.18-.13c.11.12.09.08-.07-.11a1.49,1.49,0,0,0,.14.24l-.09-.2.06.18c0,.1.06.2.08.3l.06.3c0,.17,0,.13,0-.11,0,.07,0,.13,0,.2a4,4,0,0,1,0,.6c0,.1,0,.21,0,.31v.1c0,.17,0,.13,0-.11a3.22,3.22,0,0,0-.11.6c-.06.24-.12.48-.19.71-.23.82-.54,1.63-.82,2.44a14,14,0,0,0-.69,2.62c-.15,1.09-.17,2.18-.29,3.27,0,.09,0,.46,0,.06a1.88,1.88,0,0,1-.05.33c0,.19-.08.38-.13.57a7.44,7.44,0,0,1-.36,1.16c0,.09-.07.17-.1.26.13-.42.06-.14,0,0s-.15.32-.24.48a9.7,9.7,0,0,1-.58,1c-.1.15-.2.29-.31.43s-.27.3,0,0l-.16.21c-.22.27-.45.53-.69.79-.51.54-1,1-1.6,1.53-1.14,1-2.36,1.94-3.48,3a30.82,30.82,0,0,0-3.34,3.87,24,24,0,0,1-3.26,3.65l-.22.18c-.26.22.28-.2,0,0l-.49.34c-.35.23-.71.44-1.08.64s-.69.34-1,.49c-.09,0-.4.14,0,0l-.26.11-.61.25a31,31,0,0,0-4.54,2,12.57,12.57,0,0,0-3.76,3.5c-.4.54-.76,1.1-1.13,1.66-.18.27-.35.53-.54.79l-.27.39-.14.19c-.25.33.17-.2,0,0A16.13,16.13,0,0,1,65,200.45c.38-.36,0,0-.13.08l-.33.2a4.23,4.23,0,0,1-.42.22c-.13.06-.34.09.07,0l-.32.11a4.5,4.5,0,0,1-.49.14l-.32.07-.11,0H63a2,2,0,0,1-.69,0,7.22,7.22,0,0,1-.8,0c-.08,0-.47,0,0,0l-.34-.05c-.23,0-.46-.09-.68-.15a14.55,14.55,0,0,1-1.47-.42c-.94-.31-1.86-.68-2.78-1l-1.33-.54-.07,0-.33-.14-.77-.34c-1.79-.78-3.55-1.63-5.29-2.53-.37-.19-.75-.38-1.11-.6a3.91,3.91,0,0,0-.45-.3l.16.13-.13-.12c-.07-.06-.17-.22-.25-.25l.14.17a.71.71,0,0,1-.1-.14l0-.07c-.07-.14-.06-.1.05.14a1,1,0,0,0-.07-.25l0,.24v-.2l0,.2a1.42,1.42,0,0,1,0-.2l0-.1c.06-.16,0-.13,0,.08,0-.06.12-.24.15-.29s.14-.24.22-.36c.38-.61.79-1.2,1.21-1.78l.64-.87.33-.44.17-.22,0-.06c1-1.23,2-2.49,2.94-3.73a51.38,51.38,0,0,0,5.6-8.22,19.11,19.11,0,0,0,1.69-4.42,32.6,32.6,0,0,0,.51-5.21c0-.92.12-1.83.23-2.73l0-.27c0-.24-.06.39,0,0s.06-.43.1-.64c.08-.46.17-.92.29-1.37s.22-.83.36-1.24l.23-.6c.13-.35-.15.31,0,0,.06-.13.12-.26.19-.39a11.81,11.81,0,0,1,1-1.75l.27-.37c.17-.23-.25.31-.06.08a2.09,2.09,0,0,1,.14-.17c.2-.24.4-.48.62-.7s.4-.4.61-.59l.32-.27.16-.13c.2-.17-.34.26,0,0a12.48,12.48,0,0,1,1.38-.89c.24-.12.48-.25.73-.36l.18-.08-.12.05.44-.17a11.7,11.7,0,0,1,1.63-.48l.81-.16.41-.06c-.61.09,0,0,.14,0a17.35,17.35,0,0,1,3.53,0l.36,0,.21,0c.29,0-.41-.06-.12,0l.93.15c.61.12,1.2.25,1.8.41s1.18.34,1.77.54l.84.31.41.17.21.08c.24.1-.4-.17,0,0a27,27,0,0,1,3.21,1.65c.51.31,1,.63,1.51,1,.23.16.46.32.68.5l.17.12c-.41-.3-.18-.14-.09-.07l.37.31a19.21,19.21,0,0,1,2.71,2.7c.58.7,1.12,1.43,1.72,2.11a14.25,14.25,0,0,0,1.8,1.67c.3.24.6.48.88.73s.28.26.41.4l.19.21.12.15c-.14-.19-.16-.22-.07-.09s.2.32.29.49a2,2,0,0,0,.1.21c-.22-.4-.09-.22,0-.1s.07.26.1.38,0-.43,0-.18a1.48,1.48,0,0,0,0,.21c0,.34.08-.46,0-.07,0,.15-.16.21.09-.2l-.06.12a.76.76,0,0,1-.08.11c.23-.41.24-.28.13-.17l-.1.09c-.15.16.39-.26.13-.1l-.25.14c-.13.07-.29.07.18-.07l-.14.05a4.2,4.2,0,0,1-.7.17c-.13,0-.34,0,.19,0l-.18,0-.29,0h-.76a4.89,4.89,0,0,1-.66-.05c-.34,0,.46.07.05,0l-.32-.06a16.47,16.47,0,0,1-2.47-.78c-.35-.14.31.14,0,0l-.3-.13-.59-.28c-.43-.21-.85-.43-1.27-.66-1.54-.86-3-1.84-4.5-2.79a1.56,1.56,0,0,0-2.11.56,1.58,1.58,0,0,0,.55,2.11Z"/><path class="cls-1" d="M66,159.19a21.71,21.71,0,0,1,14.46,6.09c2.06,2,7.9,7.67,3.57,10.09-2.27,1.27-4.74.15-6.52-1.42-2.29-2-4.06-5.09-7.25-5.78"/><path d="M66,160.79c.43,0,.85.05,1.28.09l.6.06.2,0c.19,0-.18,0-.17,0l.35.05a23,23,0,0,1,2.44.52,22.34,22.34,0,0,1,2.39.8l.27.11-.16-.07.14.06.58.27c.39.18.77.37,1.14.58a23.63,23.63,0,0,1,2.09,1.31l.48.36.12.09-.13-.1.28.22c.34.27.67.56,1,.86.78.72,1.54,1.49,2.27,2.27.42.46.82.92,1.2,1.4a1.15,1.15,0,0,1,.14.17l-.14-.18.06.09.29.39c.17.24.34.49.49.75s.3.52.44.79l.08.18c.11.24,0,0,0-.14a2.3,2.3,0,0,0,.14.39,6,6,0,0,1,.19.73c0,.24,0-.43,0-.19,0,0,0,.11,0,.17s0,.26,0,.39.08-.44,0-.21c0,.05,0,.1,0,.16s-.17.48,0,.17,0,0-.09.13l-.09.14c-.06.11.15-.23.16-.2s-.07.08-.07.09a3.31,3.31,0,0,1-.27.26.93.93,0,0,1-.15.13c.4-.35.17-.13,0,0s-.3.18-.45.26l-.15.07.14-.06a1.1,1.1,0,0,0-.35.11l-.3.07a1,1,0,0,0-.15,0s.36,0,.18,0-.43,0-.64,0-.21,0-.3,0l.18,0-.15,0a5.48,5.48,0,0,1-.67-.17l-.29-.1-.14-.06c-.16-.06.15.07.15.07-.18-.12-.41-.2-.59-.3l-.53-.32-.26-.18-.12-.09c-.17-.12,0,0,.07.07-.58-.52-1.15-1-1.69-1.59s-1-1.11-1.53-1.65a12.39,12.39,0,0,0-4.13-3,8.3,8.3,0,0,0-1.07-.34,1.63,1.63,0,0,0-2,1.12,1.61,1.61,0,0,0,1.12,2l.57.16a1.25,1.25,0,0,1,.25.09l.12,0c.26.1-.27-.12-.09,0a9.58,9.58,0,0,1,1,.55c.16.11.31.23.47.33s-.29-.22-.15-.12l.1.09.27.22c.29.25.57.52.85.79,1.13,1.13,2.12,2.4,3.35,3.43a8.21,8.21,0,0,0,5.73,2.25,5.33,5.33,0,0,0,4.47-2.72C88,172,86,169,84.23,167a28.37,28.37,0,0,0-6.38-5.75,23.82,23.82,0,0,0-10.54-3.52c-.44,0-.88-.07-1.33-.09a1.62,1.62,0,0,0-1.6,1.6,1.64,1.64,0,0,0,1.6,1.6Z"/><path class="cls-1" d="M63.8,166.46c6.27-.51,11.58,4.28,16,8.73a.89.89,0,0,1,.36.68.91.91,0,0,1-.45.59,9.38,9.38,0,0,1-12.2-1.73"/><path d="M63.8,168.06a11.64,11.64,0,0,1,1.67,0l.43,0,.19,0c.22,0-.35-.06-.13,0l.85.15a12.65,12.65,0,0,1,1.57.44c.26.09.51.19.77.3s.15.13-.12,0l.18.08.4.18a21.44,21.44,0,0,1,3,1.74l.66.48.32.24-.08-.06.24.19c.46.36.9.73,1.34,1.11.88.76,1.73,1.56,2.56,2.37l.61.6.29.29.14.14.11.11c.09.1.09.1,0,0a1.1,1.1,0,0,1-.14-.57,1.25,1.25,0,0,1,.17-.62l.08-.1c-.1.09-.08.08,0,0s0,0,0,0-.42.27-.65.4l-.63.32c-.1,0-.27.08.15-.06a.76.76,0,0,0-.16.06l-.35.13a9.94,9.94,0,0,1-1.43.35l-.16,0s.43-.05.17,0l-.33,0-.76,0c-.23,0-.45,0-.68,0l-.33,0-.17,0c-.32,0,.41.06.09,0a10.41,10.41,0,0,1-1.56-.37l-.4-.13-.2-.08c.28.12-.16-.08-.23-.11l-.34-.17c-.24-.13-.48-.28-.72-.43l-.31-.22h0c.22.19,0,0-.07-.05a8,8,0,0,1-1.16-1.17,1.61,1.61,0,0,0-2.26,0,1.65,1.65,0,0,0,0,2.27c3.06,3.74,8.7,4.67,13,2.65a7.22,7.22,0,0,0,1.3-.78,2.48,2.48,0,0,0,1-1.35,2.24,2.24,0,0,0-.56-2.09A16.44,16.44,0,0,0,79.84,173c-.45-.44-.91-.88-1.37-1.3a32.92,32.92,0,0,0-6.24-4.72,15.12,15.12,0,0,0-8.43-2.08,1.6,1.6,0,1,0,0,3.2Z"/><rect class="cls-5" x="112.85" y="142.86" width="28.94" height="46.92" rx="8.02"/><path d="M133.78,191.54H120.87a9.78,9.78,0,0,1-9.77-9.77V150.88a9.78,9.78,0,0,1,9.77-9.77h12.91a9.78,9.78,0,0,1,9.77,9.77v30.89A9.78,9.78,0,0,1,133.78,191.54Zm-12.91-46.92a6.27,6.27,0,0,0-6.26,6.26v30.89a6.27,6.27,0,0,0,6.26,6.26h12.91a6.27,6.27,0,0,0,6.26-6.26V150.88a6.27,6.27,0,0,0-6.26-6.26Z"/><path class="cls-1" d="M154.31,183.69c.09-1,.12-2,.12-3a2.51,2.51,0,0,1-1.72-1.48c-1.14-3.14-3.78-4.86-6.26-6.9a3.62,3.62,0,0,1-1.08-1.45,28.07,28.07,0,0,1-4.35-2.1,2.85,2.85,0,0,1-.91-.88,89,89,0,0,0-15.35-6c-2.19-.64-4.76.83-5.75,2.76a5,5,0,0,0-.23,4.07,5.43,5.43,0,0,0-.51,4.2,5.79,5.79,0,0,0,1.45,2.47,6.72,6.72,0,0,0,.82.67,4.47,4.47,0,0,0,.83,3.83c1,1.34,2,2.69,2.92,4.06a5.29,5.29,0,0,0-.31.87,5.14,5.14,0,0,0-.54,6.29c1.14,1.57,2.29,3.14,3.43,4.72,0,.53-.07,1.06-.07,1.57,0,1.41,0,2.87,0,4.32.62,1.1,1.22,2.2,1.77,3.33a2.75,2.75,0,0,1,1.22.85c2.78,3.27,6.87,3.4,11,2.8,3.15-1.08,6.15-2.6,9.27-3.77l.11-.15c.13-1.08.23-2.16.32-3.25a48,48,0,0,0,3.5-9.17C154.68,189.68,155.57,186.32,154.31,183.69Z"/><path d="M121,168a2.15,2.15,0,0,0-1.61-.73,2.45,2.45,0,0,0-1.64.74,5.67,5.67,0,0,0-1.34,2.45,4.74,4.74,0,0,0,.32,3.43,8.94,8.94,0,0,0,2.12,2.51,44,44,0,0,0,4.35,3.46c1.17.81,2.38,1.57,3.55,2.38l1.06.76.59.44s.17.13,0,0l0,0,.3.23c.93.75,1.84,1.54,2.72,2.35a1.6,1.6,0,1,0,2.27-2.26,51.51,51.51,0,0,0-4.43-3.66c-1.09-.79-2.22-1.53-3.34-2.27-.55-.36-1.1-.74-1.63-1.12-.3-.21-.59-.43-.88-.65l-.1-.08c-.14-.1.17.14.15.12l-.24-.19-.49-.39c-.7-.58-1.39-1.17-2-1.79l-.48-.47-.2-.22L120,173s-.23-.28-.07-.08,0-.08-.08-.13a2.2,2.2,0,0,1-.19-.3,2.1,2.1,0,0,0-.13-.26s.11.32.07.16,0-.13-.07-.19-.1-.49-.06-.21,0-.1,0-.18,0-.11,0-.16c0-.22,0,.22,0,.22s0-.23,0-.25a3.47,3.47,0,0,1,.16-.55.36.36,0,0,1,0-.11c.08-.26,0,0-.06.12a2.72,2.72,0,0,1,.11-.25c.09-.16.19-.32.29-.48s.12-.16,0,.06,0,.06,0,0l.15-.15c.08-.11-.24.18-.22.16s.23-.11-.06,0-.16.07-.1.05-.32,0-.29,0,.2,0-.13,0a.62.62,0,0,1-.32-.09c-.16-.07-.19-.09-.1,0s-.27-.26-.23-.17a1.14,1.14,0,0,0,.11.11,1.61,1.61,0,0,0,2.26,0,1.66,1.66,0,0,0,0-2.27Z"/><path d="M119.44,175.84a11.37,11.37,0,0,0,1.42,8.56,20.3,20.3,0,0,0,5,5.59,14.11,14.11,0,0,1,2.08,2.22,1.61,1.61,0,0,0,2.27,0,1.59,1.59,0,0,0,.47-1.13,1.85,1.85,0,0,0-.47-1.13,13.31,13.31,0,0,0-1.82-2c-.7-.6-1.41-1.17-2.08-1.8a14.45,14.45,0,0,1-1.33-1.38l-.32-.39c-.06-.07-.18-.24.06.09l-.12-.17c-.21-.28-.41-.57-.61-.87a13.62,13.62,0,0,1-.94-1.72l-.08-.18c-.14-.31.11.28,0,.06s-.11-.27-.16-.41c-.11-.31-.21-.63-.3-.94s-.14-.7-.21-1.05c.11.51,0-.06,0-.2s0-.35,0-.53,0-.32,0-.48a3.77,3.77,0,0,0,0-.58s-.06.42,0,.14c0-.09,0-.19,0-.28s.08-.38.13-.57a1.6,1.6,0,1,0-3.08-.85Z"/><path d="M120.7,184.13c-1.63,2.16-.8,5.12.1,7.39a15,15,0,0,0,.9,1.95,17.5,17.5,0,0,0,1,1.56,23.24,23.24,0,0,1,2.12,3.25c0,.07.22.36.2.44s-.15-.37,0-.09a1.54,1.54,0,0,1,.08.19c.11.3.22.59.31.89.19.6.34,1.2.48,1.81a22,22,0,0,0,1.07,3.66,8.22,8.22,0,0,0,4.56,4.39,8.09,8.09,0,0,0,3.12.51,22.38,22.38,0,0,0,4-.68l4.36-1c1.4-.3,2.81-.57,4.2-.93a7,7,0,0,0,4.73-3.62,15.14,15.14,0,0,0,1-3.31c.31-1.42.68-2.83,1-4.24a39.4,39.4,0,0,0,1.43-8.05,20.51,20.51,0,0,0-.9-7.13,23.43,23.43,0,0,0-8.71-11.58,44,44,0,0,0-12.26-6c-2.1-.71-4.23-1.32-6.38-1.88-1-.26-2.07-.52-3.1-.76a14.11,14.11,0,0,0-3.09-.55,5.22,5.22,0,0,0-3,.87,5.06,5.06,0,0,0-2.17,3.54,5.61,5.61,0,0,0,.9,3.59,9.73,9.73,0,0,0,3.25,2.5,38.35,38.35,0,0,0,5.68,2.7c.81.31,1.63.61,2.43.93l.65.26.29.12c-.51-.21,0,0,.07,0q.74.32,1.44.66c1.13.54,2.22,1.15,3.3,1.79a1.6,1.6,0,0,0,1.62-2.77,45.07,45.07,0,0,0-6.23-3.08l-2.34-.9-1.19-.46-.28-.12-.14-.05c-.17-.08.35.15.18.07l-.64-.28c-.92-.41-1.82-.87-2.7-1.37-.52-.3-1-.61-1.54-.93l-.78-.5c-.07-.05-.41-.27-.17-.09s-.07-.08-.13-.14l-.1-.12c.24.2.18.25.1.13s-.14-.21-.2-.32-.2-.44-.08-.16,0,.05,0,0A1.83,1.83,0,0,1,119,166a3.37,3.37,0,0,1-.09-.34l0-.17c0-.2,0,.37,0,.17a6.66,6.66,0,0,1,0-.77c0-.07,0-.27,0,0s0,.07,0,0a.85.85,0,0,0,.09-.22s-.17.36,0,.13.28-.44.39-.66c0,0-.27.31-.1.14l.1-.12.21-.21.12-.09c-.29.28-.26.18-.15.11l.3-.19.25-.12c-.44.24-.21.09,0,0s.4-.1.6-.15c-.53.12-.23,0-.08,0h.28c.21,0,.42,0,.62,0-.55,0-.23,0-.08,0l.31.06.74.18,1.44.34c2,.49,4,1,6,1.6s4.14,1.31,6.15,2.13l.35.14.18.08c-.4-.15-.21-.09-.12-.05l.78.34c.48.21,1,.44,1.45.67,1,.48,1.91,1,2.83,1.54a29.69,29.69,0,0,1,2.65,1.76l.3.22-.11-.08.14.11.64.52c.4.34.78.68,1.15,1a24.22,24.22,0,0,1,2.21,2.43c.13.16-.19-.25-.06-.08l.13.17.27.37c.18.25.35.5.52.76.31.48.6,1,.86,1.46.13.23.24.46.36.7s.11.23.16.35a1.42,1.42,0,0,1,.08.18l.08.18-.09-.21c.2.51.4,1,.56,1.53s.31,1.07.43,1.61q.09.38.15.75c0,.14.05.28.07.43a1.48,1.48,0,0,0,0,.19c0-.13-.05-.36,0-.1a19.73,19.73,0,0,1,.13,3.35c0,.57-.07,1.13-.13,1.69,0,.14,0,.27-.05.41,0-.48,0-.05,0,.08-.05.31-.1.61-.16.92-.51,2.71-1.33,5.35-1.93,8-.13.6-.24,1.21-.38,1.8-.05.21-.11.42-.17.62s-.07.22-.11.33,0,.09-.05.14c-.09.25.06-.1.06-.15a1.59,1.59,0,0,1-.26.54c-.1.18-.22.34-.33.51s.25-.3.13-.16l-.08.1-.18.2a5.82,5.82,0,0,1-.45.4c-.14.12.32-.22.16-.12l-.11.08-.26.17c-.19.11-.39.21-.58.3s.39-.15,0,0l-.3.11-.73.22c-1.32.33-2.66.58-4,.88l-4.18.91-2.12.46-.39.09a1.51,1.51,0,0,1-.36.06s.44-.06.17,0l-.17,0-.43,0h-.66l-.33,0-.16,0c-.3,0,.39.07.12,0a7.64,7.64,0,0,1-1.27-.33c-.36-.14.27.12,0,0l-.3-.15a5.51,5.51,0,0,1-.58-.34l-.25-.17c-.15-.11.3.24.15.11l-.12-.09c-.17-.14-.33-.3-.49-.46a2.23,2.23,0,0,1-.43-.49s.25.35.11.14l-.09-.12c-.08-.11-.15-.22-.22-.33s-.22-.36-.32-.55l-.14-.3a1,1,0,0,0-.07-.15c-.13-.28.15.38,0,.08a28,28,0,0,1-.87-3.26,18.56,18.56,0,0,0-1.26-3.7,21.36,21.36,0,0,0-2-3.13c-.36-.49-.71-1-1-1.5-.15-.25-.29-.49-.42-.74s-.14-.29-.2-.43.11.27,0,.09l-.09-.21a15.82,15.82,0,0,1-1-3.16c0-.21,0,.35,0,.14a2,2,0,0,0,0-.23c0-.12,0-.25,0-.37s0-.24,0-.37,0-.12,0-.17-.08.41,0,.15.15-.45.19-.68c-.05.31-.13.27-.06.14s.07-.13.11-.2a4,4,0,0,1,.23-.34,1.61,1.61,0,0,0-.57-2.19,1.58,1.58,0,0,0-1.24-.16,1.81,1.81,0,0,0-1,.73Z"/></g></g></g></g></svg>