<svg xmlns="http://www.w3.org/2000/svg" width="245" height="223" xmlns:xlink="http://www.w3.org/1999/xlink" viewBox="0 0 243.75 221.18"><defs><style>.cls-1,.cls-3{fill:#fcec74;}.cls-1,.cls-11{stroke:#000;stroke-linecap:round;stroke-linejoin:round;stroke-width:2px;}.cls-2{fill:#fff;}.cls-4{fill:#269ac2;}.cls-5{fill:#e5b7ad;}.cls-6{fill:#e2deda;}.cls-7{fill:#fefaf9;}.cls-8{clip-path:url(#clip-path);}.cls-9{fill:#f35528;}.cls-10{fill:#c0b2b0;}.cls-11{fill:none;}</style><clipPath id="clip-path"><path class="cls-1" d="M107.6,105.64l1,31.4L80.77,122.1l-.06,0a61.84,61.84,0,1,1,26.89-16.48Z"/></clipPath></defs><g id="Layer_2" data-name="Layer 2"><g id="レイヤー_1" data-name="レイヤー 1"><g id="contents02"><g id="_1" data-name="1"><path class="cls-2" d="M155.42,195.83h88.32c-2.07-13.92-1.05-28.09-1-42.1a3,3,0,0,1,.21-1.09c-.08-.64-.16-1.29-.25-1.94-.49-3.64-1.06-7.27-1.82-10.86-.38-1.79-.8-3.57-1.28-5.33s-.91-3.2-1.47-4.77a71.46,71.46,0,0,0-4.59-10.31c-1.07-2-2.28-3.81-3.42-5.71a6.22,6.22,0,0,1-1.11-.35,27.26,27.26,0,0,0-3.9-3.24,8,8,0,0,1-1.23-2.24,8.5,8.5,0,0,0-1.48.6A29.06,29.06,0,0,0,209,105.17H209c-.22,0-.43,0-.65,0a6.79,6.79,0,0,1-2.21-.47q-1-.1-2.1-.12c0-.34,0-.67,0-1a7.46,7.46,0,0,1-1.27-1.16,8.52,8.52,0,0,1-2-5.87,14.75,14.75,0,0,1,1.9-6.85l-.18-.23a9,9,0,0,0,1.7-4.79c.4-1.15.76-2.33,1.21-3.47a26.69,26.69,0,0,0,3.23-3.66,30.23,30.23,0,0,0,8.28-8.87,9.44,9.44,0,0,0,1-2.52,16.36,16.36,0,0,0,2.71-6,13.33,13.33,0,0,0-3.14-11.53,18.51,18.51,0,0,0-1.72-1.71,46.29,46.29,0,0,0-3.09-7.45l3.45-2.56c3.09-2.3,5-5.26,4.45-9.3a8.87,8.87,0,0,0-1.84-4.41c-1.11-1.44-3-3.08-4.84-3.34a17.64,17.64,0,0,0-6.52,0,14.55,14.55,0,0,0-4.11,1.59,17.68,17.68,0,0,0-5.22,4.44c-1.13,1.41-2.15,2.87-3.16,4.34a22.4,22.4,0,0,0-2.91.29,44.47,44.47,0,0,0-10.46,3.47,29.66,29.66,0,0,0-6.53,4,35.71,35.71,0,0,0-6.82,6.23,41.65,41.65,0,0,0-6.34,10.71c-1.24,3,.28,7,2.4,9.08a9.42,9.42,0,0,0,5.17,2.61c.37,2.36.85,4.74,1.46,7.09a14,14,0,0,0,.93,5.15,9.49,9.49,0,0,0,1.93,4.41,8.79,8.79,0,0,0,2.32,2.11l.18,4c.16.16.31.33.46.51a6.08,6.08,0,0,1,1.51,2.81,6,6,0,0,1,.45,3.06V96a8.06,8.06,0,0,1-1.33,3.91l-.6.69.09,2a10.68,10.68,0,0,0-3.06,4.36c-7.25.8-12.25,6.74-16.1,13.13a69.17,69.17,0,0,0-11.87,17,5.42,5.42,0,0,0-.37,1c-.87,1.41-1.71,2.84-2.5,4.28-1.78,3.22-3.41,6.53-5,9.83-5.94,8.14-10.62,17.23-17.11,24.92a5.17,5.17,0,0,0-.88,1.45,9.14,9.14,0,0,0-3.54,6.09,10.19,10.19,0,0,0,.19,3.73,8.46,8.46,0,0,0-2.39,1,5.34,5.34,0,0,1,1,.71,5.81,5.81,0,0,1,7.11,1.08c1.34,1.51,2.62,3.08,3.85,4.68h13.44l6.37-9q3-2.37,5.87-4.88c.53-.46,1-.92,1.55-1.39.14-.59.26-1.18.37-1.78a3.18,3.18,0,0,1,3.31-2.89,3.14,3.14,0,0,1,2.89,3.32C159,184.91,156.25,190.17,155.42,195.83Z"/><path class="cls-3" d="M218.12,148.16c.33-2.26.67-4.52,1.07-6.79a3.86,3.86,0,0,0-2.57-1l-55,.4a4,4,0,1,0,0,8.07l55-.41A3.92,3.92,0,0,0,218.12,148.16Z"/><path class="cls-3" d="M216.18,161.94c.37-2.43.71-4.87,1-7.32a3.64,3.64,0,0,0-2.08-.58l-50.24.87a4,4,0,1,0,0,8.06l50.24-.87A3.7,3.7,0,0,0,216.18,161.94Z"/><path class="cls-3" d="M213.26,176.26c.65-2.38,1.2-4.78,1.68-7.19a3.73,3.73,0,0,0-2.39-.8q-23.84.47-47.63,2.23a4.11,4.11,0,0,0-4,4c.1,2.05,1.78,4.2,4,4q23.78-1.77,47.63-2.22A5.51,5.51,0,0,0,213.26,176.26Z"/><path class="cls-3" d="M209.6,183.54l-49.5,1a4,4,0,0,0,0,8.07l49.5-1a4,4,0,0,0,0-8.07Z"/><path class="cls-4" d="M218.76,52.43a3.75,3.75,0,0,0,.05-4.06,29.14,29.14,0,0,0-5.44-6.23l-.82-.67c-.13-.25-.27-.49-.42-.74-.28-.47-.56-.94-.83-1.42l-.4-.73s-.07-.14-.13-.28h.29a11.46,11.46,0,0,0,4-.89,6.43,6.43,0,0,0,3.56-4.83,9.92,9.92,0,0,0-1.53-7.84,8,8,0,0,0-2.52-3.33A8.82,8.82,0,0,0,206.67,20a8.43,8.43,0,0,0-5.6,5.66,9.82,9.82,0,0,0-.79,1.83,11.76,11.76,0,0,0-.4,2.42c0,.27,0,.53,0,.79a.74.74,0,0,1,0,.21l0,.07a17.66,17.66,0,0,0-7.12-.61l-.23,0a5.83,5.83,0,0,0-3.62-.35c-10.56,2.16-19.13,9.8-23.36,19.42a25.43,25.43,0,0,0-2,3.26,26.16,26.16,0,0,0-2.31,6.16c-.65,3,0,7,3.23,8.32,3.35,1.43,6.42.31,7.76-3.16l.17-.45c0-.05,0-.11.09-.18q.31-.7.66-1.38c.42-.84.88-1.65,1.37-2.45s1-1.58,1.54-2.35c.29-.42.59-.83.9-1.24l.18-.24.26-.32a116,116,0,0,1,7.92-8.53c.56-.55,1.11-1.1,1.68-1.64a5.39,5.39,0,0,0,.91-.43,12.67,12.67,0,0,0,2.73,6A10.49,10.49,0,0,0,199,54.59a31.18,31.18,0,0,0,8,4.07l.23.06a5.1,5.1,0,0,0,2.56,2.71c.18.63.35,1.26.51,1.9a3.36,3.36,0,0,1,3.05,1.16L214.82,66a3.48,3.48,0,0,1,.85,2.53v0c2.69-.08,5.4-2,5.35-5.17A29.93,29.93,0,0,0,218.76,52.43Z"/><path d="M190.11,93.88a17.71,17.71,0,0,1-11.42-4.18,26.37,26.37,0,0,1-7.86-12.41,1,1,0,1,1,2-.63,24.38,24.38,0,0,0,7.22,11.44,15.59,15.59,0,0,0,13.73,3.23c5-1.22,8.48-4.93,10.53-7.83a28.33,28.33,0,0,0,3.11-5.83s0-.18,0-.28a2.42,2.42,0,0,1,.43-1.3,2.06,2.06,0,0,1,1.77-.7H210a5.3,5.3,0,0,0,2.67-1c1.84-1.43,2.48-4.44,2.15-6.55a7.37,7.37,0,0,0-1.53-3.53,5,5,0,0,0-2.89-1.39,1.05,1.05,0,1,1,.47-2,6.88,6.88,0,0,1,4,2.09,9.66,9.66,0,0,1,2,4.55c.42,2.69-.32,6.51-2.93,8.54a7.41,7.41,0,0,1-3.72,1.45c-.21,0-.4,0-.57,0h-.1a.62.62,0,0,0,0,.13,3,3,0,0,1-.18.84A30.45,30.45,0,0,1,206,84.71c-2.26,3.19-6.14,7.29-11.75,8.67A17.94,17.94,0,0,1,190.11,93.88Z"/><path d="M176.81,89.22a30.29,30.29,0,0,1,.73,3.3l.06.36c0,.22,0,.05,0,0l0,.2.09.88c0,.57.07,1.14.06,1.71a13.82,13.82,0,0,1-.09,1.58c0,.07-.06.44,0,.19,0,.12,0,.23,0,.34-.05.28-.1.56-.16.83-.12.51-.27,1-.44,1.52-.05.12-.1.24-.14.37l-.08.18h0c-.12.25-.23.5-.36.75a12.31,12.31,0,0,1-.9,1.43l-.11.16s-.17.21,0,0l-.27.33c-.19.23-.39.45-.59.67a1.13,1.13,0,0,0,1.6,1.6,13.81,13.81,0,0,0,3.38-6,18.1,18.1,0,0,0,.31-7.07,30.53,30.53,0,0,0-.84-4,1.14,1.14,0,1,0-2.19.61Z"/><path d="M176.69,88.79l.08.29a.93.93,0,0,0,.2.38,1.06,1.06,0,0,0,.74.43.89.89,0,0,0,.46,0l.27-.12a1.12,1.12,0,0,0,.41-.4l.11-.27a1.26,1.26,0,0,0,0-.61c0-.09-.05-.19-.08-.28a.81.81,0,0,0-.2-.39.89.89,0,0,0-.32-.29,1.32,1.32,0,0,0-.88-.11l-.27.11a1.12,1.12,0,0,0-.4.41l-.12.27a1.22,1.22,0,0,0,0,.6Z"/><path d="M201.25,87.91c-.76,3.19-1.55,6.48-1.27,9.78a12.49,12.49,0,0,0,3,7.32,8.69,8.69,0,0,0,3.68,2.44,1.14,1.14,0,0,0,1.4-.79,1.18,1.18,0,0,0-.8-1.4l-.22-.08c-.07,0-.31-.08,0,0a2.21,2.21,0,0,1-.35-.16,6.79,6.79,0,0,1-.74-.43l-.32-.21-.06,0,.05,0a.61.61,0,0,1-.15-.13,7.45,7.45,0,0,1-.65-.6c-.18-.19-.35-.39-.52-.59s.15.2,0,0l-.1-.12-.29-.43a12,12,0,0,1-.81-1.5c-.11-.25.1.24,0,0l-.06-.15-.15-.41c-.1-.29-.19-.59-.27-.88s-.12-.52-.17-.78-.06-.28-.08-.43,0-.25,0,0c0-.13,0-.25,0-.37a15.38,15.38,0,0,1-.07-2.25c0-.38,0-.77.07-1.15l.06-.52,0-.27a.77.77,0,0,1,0-.15c0,.13,0,.12,0,0,.26-1.72.64-3.4,1.05-5.08a1.14,1.14,0,0,0-2.19-.61Z"/><path d="M198.74,28.83A18.26,18.26,0,0,0,186,29a40.32,40.32,0,0,0-10.81,6.22,50.5,50.5,0,0,0-7.94,7.38,28,28,0,0,0-5.56,9.53,16.46,16.46,0,0,0,.17,10.67c.19.51.4,1,.62,1.49a1.15,1.15,0,0,0,1.56.41,1.17,1.17,0,0,0,.4-1.55l-.14-.33a.56.56,0,0,1-.07-.16s.09.22,0,0-.17-.43-.25-.65c-.15-.43-.29-.86-.4-1.29s-.2-.83-.27-1.25l-.06-.32c0-.29,0,.15,0-.06s-.06-.45-.07-.67a13.81,13.81,0,0,1,0-2.49c0-.2.05-.41.06-.62,0,0,0,.24,0,.11a.78.78,0,0,0,0-.16l.06-.34c.07-.42.16-.83.26-1.23a19.32,19.32,0,0,1,.78-2.37c0-.09.07-.18.1-.26s0,0,0,0a.94.94,0,0,0,.06-.15l.27-.59c.19-.39.38-.77.59-1.15A25.86,25.86,0,0,1,166.78,47c.24-.35.48-.71.74-1l.37-.5.1-.14c-.15.2-.05.08,0,0l.23-.3a46.76,46.76,0,0,1,7.45-7.3l.47-.36c.22-.18-.15.11.07-.06l.28-.21c.34-.27.69-.52,1-.78.83-.59,1.66-1.18,2.51-1.73a37.23,37.23,0,0,1,5.33-2.92c.15-.07-.17.07,0,0l.18-.07.31-.13.77-.29c.49-.17,1-.33,1.47-.47s1-.25,1.47-.35l.76-.14.34,0c.17,0-.19,0,0,0l.24,0a18.18,18.18,0,0,1,3-.09q.36,0,.72.06l.38,0s-.23,0,0,0l.23,0a14.62,14.62,0,0,1,1.46.32,12.36,12.36,0,0,1,1.45.49,1.14,1.14,0,0,0,1.4-.8,1.16,1.16,0,0,0-.79-1.39Z"/><path d="M207.77,36.3a29.16,29.16,0,0,1,3.19,3c.49.54,1,1.09,1.42,1.66l.16.2c.13.17-.1-.13,0,.05l.34.45c.22.29.42.59.63.89a32.06,32.06,0,0,1,2.21,3.75c.33.65.64,1.31.93,2l.1.24c-.07-.18,0,0,0,.06l.22.52c.13.34.26.68.38,1a39.84,39.84,0,0,1,1.94,7.68l0,.22s0,.29,0,.11,0,.07,0,.11l0,.26c0,.31.07.63.1.94.05.63.09,1.25.09,1.88s0,1.25-.06,1.87c0,.3-.06.61-.09.92,0,0,0-.25,0-.12s0,.07,0,.11l0,.21-.09.47a13.36,13.36,0,0,1-.45,1.76c-.09.28-.2.56-.31.84s.09-.2,0,0l-.09.2c-.06.14-.13.28-.2.42a10.12,10.12,0,0,1-1,1.54s-.18.18-.07.09,0,0-.07.09l-.31.36c-.21.24-.43.46-.66.68s-.49.43-.74.63a1.14,1.14,0,0,0,0,1.61,1.17,1.17,0,0,0,1.6,0,12.43,12.43,0,0,0,4.22-6.61,21.11,21.11,0,0,0,.39-7.8A39.76,39.76,0,0,0,220,50.62a36.48,36.48,0,0,0-3.85-8.28,31.32,31.32,0,0,0-5.87-6.91c-.28-.25-.57-.49-.87-.73a1.16,1.16,0,0,0-1.61,0,1.14,1.14,0,0,0,0,1.6Z"/><path d="M181.78,45.18a53.26,53.26,0,0,0-6.22,7.66,56,56,0,0,0-4.79,8.68A52.11,52.11,0,0,0,167.58,71a37.75,37.75,0,0,0-.81,4.85,18.41,18.41,0,0,0,.18,4.57,13.78,13.78,0,0,0,4,7.9c.32.29.65.55,1,.81a1.14,1.14,0,0,0,1.56-.41,1.17,1.17,0,0,0-.41-1.55c.15.11.07,0,0,0l-.21-.18-.39-.34c-.25-.24-.5-.5-.73-.77s-.2-.28-.32-.39.13.18,0,.08a.61.61,0,0,0-.07-.1c0-.07-.11-.14-.16-.22-.2-.29-.39-.59-.57-.89s-.33-.6-.47-.91a2,2,0,0,1-.1-.21s-.13-.31-.07-.16l0-.12c0-.09-.07-.17-.1-.26a14.29,14.29,0,0,1-.59-2c-.08-.36-.14-.72-.2-1.08s0,.21,0,0l0-.25c0-.18,0-.37,0-.56a19.1,19.1,0,0,1,0-2.14c0-.35,0-.69.08-1l0-.24s0-.11,0-.16,0,.08,0,.08,0-.2,0-.26l.06-.34c.11-.76.25-1.51.4-2.26a50.82,50.82,0,0,1,2.85-9.1c.07-.16-.07.17,0,0l.06-.13a2.72,2.72,0,0,1,.11-.25c.08-.2.17-.4.26-.59.16-.36.33-.73.5-1.09.34-.73.71-1.46,1.09-2.18q1.14-2.15,2.46-4.2c.42-.66.87-1.32,1.32-2l.72-1,.33-.43.19-.26.08-.1c-.06.07-.09.11,0,0,1-1.23,2-2.43,3-3.57l.79-.81a1.15,1.15,0,0,0,0-1.61,1.17,1.17,0,0,0-1.61,0Z"/><path d="M206,51.93a35.4,35.4,0,0,0,2.34,9.44c.6,1.55,1.26,3.08,1.92,4.6l1,2.2.49,1.12.22.52.12.28a.61.61,0,0,1,.05.12c0-.08-.06-.15,0,0A44.38,44.38,0,0,1,215,79.31c0,.2.07.4.1.6a2.22,2.22,0,0,1,.1.61s0-.21,0-.08l0,.13c0,.11,0,.21,0,.31l.06.62a23.3,23.3,0,0,1,.1,2.64c0,.45,0,.9-.06,1.34,0,.21,0,.42-.07.62a.76.76,0,0,1,0,.15c0-.23,0-.08,0,0l-.06.38a13.52,13.52,0,0,1-.65,2.48c0,.1-.07.21-.11.31l0,.12c-.09.2-.18.4-.28.6a10.82,10.82,0,0,1-.57,1,4.15,4.15,0,0,1-.3.43s-.17.24-.08.12,0,0,0,0a.64.64,0,0,1-.1.13c-.23.28-.48.55-.74.81l-.42.38-.19.15s-.11.08-.12.11.16-.13,0,0a8.4,8.4,0,0,1-.94.61l-.46.25-.21.1,0,0c.15-.07,0,0-.05,0a7.66,7.66,0,0,1-1.06.33l-.51.1c-.22,0,.21,0,0,0l-.33,0a1.14,1.14,0,0,0-1.13,1.13A1.16,1.16,0,0,0,208,97a10.08,10.08,0,0,0,7.9-5.31c1.81-3.23,2.06-7.13,1.65-10.73A37.49,37.49,0,0,0,215,71.28c-.63-1.6-1.31-3.17-2-4.74-.33-.74-.66-1.49-1-2.23-.16-.38-.33-.75-.49-1.12l-.05-.12c-.08-.2,0,0,0,0l-.12-.28c-.08-.19-.16-.38-.23-.57a39.38,39.38,0,0,1-2.75-9.31c0-.21,0,.21,0-.09a2.91,2.91,0,0,1,0-.31l-.06-.61a1.16,1.16,0,0,0-1.14-1.13A1.14,1.14,0,0,0,206,51.93Z"/><path d="M187.75,42.33a8.81,8.81,0,0,0,.69,6.78,12.21,12.21,0,0,0,4.76,4.8,20.47,20.47,0,0,0,3.6,1.63,1.14,1.14,0,0,0,1.4-.79,1.17,1.17,0,0,0-.79-1.4l-.72-.26-.33-.13-.07,0-.15-.07c-.47-.21-.92-.43-1.37-.67a15.35,15.35,0,0,1-1.33-.82l-.29-.21-.14-.1c-.17-.13,0,0,0,0a3.3,3.3,0,0,1-.61-.51,12,12,0,0,1-1-1.09l-.14-.17c-.1-.12.12.16,0,0l-.2-.28q-.23-.33-.42-.66a6.82,6.82,0,0,1-.34-.66,3,3,0,0,1-.15-.31s.09.22,0,0l-.09-.25a7.73,7.73,0,0,1-.38-1.41.65.65,0,0,0,0-.17c0,.14,0,.17,0,.09s0-.09,0-.13l0-.39c0-.26,0-.54,0-.8a3,3,0,0,1,0-.43c-.06.25,0,.12,0,0s0-.17,0-.25a7.84,7.84,0,0,1,.23-.83,1.14,1.14,0,0,0-.79-1.39,1.16,1.16,0,0,0-1.4.79Z"/><path d="M198,48.3a9.37,9.37,0,0,0,5.25,6.27,1.14,1.14,0,0,0,1.14-2,7.72,7.72,0,0,1-1.6-.92c-.18-.12.11.1,0,0l-.18-.15-.34-.3c-.22-.21-.43-.43-.64-.67l-.12-.15-.08-.1.05.07c0-.1-.19-.27-.25-.36a8,8,0,0,1-.47-.8c-.07-.13-.14-.26-.2-.4l-.05-.11c.06.14.07.17,0,.09l-.07-.19a7.54,7.54,0,0,1-.29-.92,1.15,1.15,0,0,0-1.39-.8,1.17,1.17,0,0,0-.8,1.4Z"/><path d="M202.31,26.82a4.63,4.63,0,0,1-.23-.83c0-.17,0,0,0,.05a.56.56,0,0,0,0-.17c0-.17,0-.34,0-.52l0-.38c0-.18-.05.27,0,0,0-.06,0-.12,0-.18a5.25,5.25,0,0,1,.23-.84s.11-.27,0-.11.05-.09.05-.1l.18-.35a5.71,5.71,0,0,1,.51-.77s-.15.18,0,0l.12-.13c.09-.12.19-.22.29-.33s.42-.41.65-.6l.17-.14c.14-.11-.22.16,0,0l.32-.23q.36-.25.75-.48a14.6,14.6,0,0,1,1.52-.79l.15-.06.05,0,.32-.12c.28-.1.57-.19.86-.27a7,7,0,0,1,.79-.18l.17,0s.29,0,.1,0h.1l.25,0a6.91,6.91,0,0,1,.91,0h.16l.16,0-.14,0a1.32,1.32,0,0,1,.48.09l.38.11.19.07c.08,0,.05,0-.08,0l.11,0a5,5,0,0,1,.8.49,1.13,1.13,0,0,0,1.55-.41,1.16,1.16,0,0,0-.41-1.55c-2.11-1.59-5.07-1.26-7.39-.33s-5,2.57-6.05,5.06a6.14,6.14,0,0,0-.29,4.68,1.16,1.16,0,0,0,1.4.79,1.15,1.15,0,0,0,.79-1.4Z"/><path d="M212.36,28.64l-.15.1c-.05,0-.18.05,0,0s0,0-.06,0l-.14,0s-.12,0-.14,0,.23,0,.09,0a2.1,2.1,0,0,0-.35,0c.08-.06.25.06,0,0l-.18-.05c-.09,0-.18-.07-.28-.09.29.08,0,0,0-.05l-.16-.09c-.21-.15.07.07,0,0l-.24-.23c-.12-.12,0,.06,0,.06a.66.66,0,0,1-.08-.13l-.09-.15-.05-.09c.07.14,0,0,0-.06a2.17,2.17,0,0,1-.07-.24.94.94,0,0,1,0-.16v0c0-.13,0-.11,0,.05,0-.07,0-.25,0-.34s0-.25,0-.38-.06.28,0,0c0-.07,0-.14.05-.21a2.26,2.26,0,0,1,.11-.37.76.76,0,0,1,.06-.16c-.07.06-.08.16,0,0a6,6,0,0,1,.36-.6c.11-.17.05,0,0,0a.87.87,0,0,0,.09-.11l.19-.21a3.07,3.07,0,0,1,.26-.25c0-.05.25-.17.27-.23s-.22.16-.06.05l.12-.08a1.78,1.78,0,0,1,.27-.17l.28-.16s.31-.12.32-.16-.27.11-.07,0l.13-.05.31-.1a4.88,4.88,0,0,1,.66-.16l.14,0c.2,0-.07,0-.09,0s.25,0,.32,0a5.14,5.14,0,0,1,.68,0h0c.1,0,.22,0,.32.05a4.84,4.84,0,0,1,.65.19l.13,0c-.08,0-.22-.11,0,0l.29.15.29.18.14.09.14.1-.09-.07c.07,0,.24.2.29.25l.27.27.24.25a1.34,1.34,0,0,0,.11.14c.16.19-.11-.15,0,0a8.53,8.53,0,0,1,.8,1.33c.06.12.11.25.17.37s-.09-.25,0,0c0,.05.05.11.07.17.1.27.18.54.26.81s.13.56.18.84l0,.18c0-.24,0-.07,0,0s0,.34,0,.52a7,7,0,0,1,0,.79c0,.06,0,.12,0,.19,0,.3,0-.17,0,0l-.09.45a8.36,8.36,0,0,1-.27.89c-.06.16.12-.25,0,0l-.1.21c-.06.12-.13.23-.2.35l-.22.33c-.06.09-.1,0,0,0,0,0-.11.14-.15.18a5.11,5.11,0,0,1-.57.57l-.12.1c-.21.17.2-.14,0,0l-.33.22a3.9,3.9,0,0,1-.35.19.61.61,0,0,1-.14.07c-.22.11.2-.07,0,0a4.39,4.39,0,0,1-.79.21c-.06,0-.2,0-.05,0s-.07,0-.12,0h-.43a1.14,1.14,0,1,0,0,2.27A6.22,6.22,0,0,0,221,32.66a9.13,9.13,0,0,0-1.19-7.85,7,7,0,0,0-2.84-2.6,6.39,6.39,0,0,0-3.56-.48,6.23,6.23,0,0,0-5.08,4.09,4.2,4.2,0,0,0,1,4.3,3.56,3.56,0,0,0,4.19.49,1.14,1.14,0,0,0-1.15-2Z"/><path d="M181.87,65.26h-.15a.64.64,0,0,0-.36.08.6.6,0,0,0-.3.19.69.69,0,0,0-.2.3.86.86,0,0,0-.08.36l0,.25a.86.86,0,0,0,.24.41l.19.15a.94.94,0,0,0,.47.12h.15a.68.68,0,0,0,.36-.08.81.81,0,0,0,.49-.49.73.73,0,0,0,.08-.36l0-.25a1.06,1.06,0,0,0-.24-.41l-.19-.15a1,1,0,0,0-.47-.12Z"/><path d="M194.55,67.87a.94.94,0,0,0,0-1.87.94.94,0,0,0,0,1.87Z"/><path d="M183.52,79.45a8.7,8.7,0,0,0,10.16.52.91.91,0,0,0,.32-1.21.89.89,0,0,0-1.21-.31,7.07,7.07,0,0,1-1,.58l-.15.07c.09,0,.09,0,0,0l-.22.08a4.68,4.68,0,0,1-.53.17c-.21.06-.41.11-.62.15l-.24,0h0l-.16,0a8.84,8.84,0,0,1-1.15,0l-.6,0c-.26,0,.18,0-.08,0l-.32-.05a7.29,7.29,0,0,1-1.11-.3l-.26-.1c-.1,0-.1,0,0,0l-.15-.06-.49-.25a5.55,5.55,0,0,1-.48-.29l-.26-.18-.13-.1h0a.91.91,0,0,0-1.25,0,.89.89,0,0,0,0,1.25Z"/><path d="M186.18,69.19s-.07.15-.06.2c.06-.13.07-.16,0-.07l0,.07a3.21,3.21,0,0,1-.19.31l0,.07c-.06.07,0,.06,0,0a.79.79,0,0,0-.14.17l-.25.29a4.31,4.31,0,0,0-1,1.5,2.39,2.39,0,0,0,.27,2A2.64,2.64,0,0,0,186.92,75a.88.88,0,0,0,.88-.88.89.89,0,0,0-.88-.88c-.2,0,.14,0,0,0l-.22-.07q-.09,0,.06,0l-.09,0-.06,0a.64.64,0,0,1-.15-.13l0,0c-.07-.07-.06-.07,0,0s-.1-.15-.11-.17-.14-.22,0,0c0-.08,0-.29-.09-.35,0,.15,0,.17,0,.08V72.4s0-.25,0-.08,0,0,0-.06a.44.44,0,0,0,.06-.16c0,.08-.08.17,0,0l.08-.13c.05-.09.13-.17.17-.26-.08.19-.06.08,0,0l.11-.12.47-.54a3.78,3.78,0,0,0,.83-1.44.89.89,0,0,0-1.71-.46Z"/><path class="cls-5" d="M212.7,76.48a2.66,2.66,0,1,1-2.54-2.77A2.65,2.65,0,0,1,212.7,76.48Z"/><path d="M210.05,80h-.16a3.6,3.6,0,1,1,3.74-3.43h0A3.53,3.53,0,0,1,212.47,79,3.58,3.58,0,0,1,210.05,80Zm0-5.32a1.73,1.73,0,1,0,1.73,1.8h0a1.73,1.73,0,0,0-1.65-1.8Z"/><path d="M174.42,108a55.56,55.56,0,0,0,10.67,2.2,54.82,54.82,0,0,0,10.64.13,56,56,0,0,0,6.18-.86,1.15,1.15,0,0,0,.79-1.4,1.17,1.17,0,0,0-1.4-.79c-.86.17-1.73.32-2.6.44l-.3,0h-.1l-.7.09-1.32.14c-1.73.16-3.47.25-5.21.24s-3.52-.08-5.27-.25l-1.31-.14-.66-.08c.2,0,0,0-.1,0l-.35,0c-.87-.12-1.74-.27-2.6-.44a54.39,54.39,0,0,1-5.75-1.46,1.14,1.14,0,0,0-.61,2.19Z"/><path d="M140.85,192.74c2.5-2.52,5-5.09,7.38-7.69s4.82-5.27,7.16-8q2-2.27,3.89-4.57a1.17,1.17,0,0,0,0-1.61,1.15,1.15,0,0,0-1.6,0q-3.42,4.09-7,8.07t-7.27,7.86c-1.39,1.45-2.78,2.88-4.19,4.3a1.13,1.13,0,0,0,1.6,1.61Z"/><path d="M169.65,107.32a40.22,40.22,0,0,0-12.88,10A93.32,93.32,0,0,0,146.65,132c-3.22,5.51-6.33,11.07-9.54,16.58s-6.37,10.75-9.77,16-6.85,10.15-10.59,14.94c-.47.61-.94,1.21-1.42,1.81a1.16,1.16,0,0,0,0,1.6,1.13,1.13,0,0,0,1.6,0c3.86-4.82,7.48-9.83,10.9-15s6.72-10.53,9.89-15.92,6.3-10.95,9.46-16.42a114.35,114.35,0,0,1,9.72-14.92,49.42,49.42,0,0,1,5.68-6,33.42,33.42,0,0,1,3-2.4,35.42,35.42,0,0,1,3.41-2.14c.59-.31,1.18-.61,1.78-.9a1.14,1.14,0,0,0,.41-1.55,1.16,1.16,0,0,0-1.55-.41Z"/><path d="M162.2,130.35a16.2,16.2,0,0,0-4.79,9.6,35.13,35.13,0,0,0,.35,11c.37,2.18.86,4.34,1.3,6.51.23,1.15.45,2.31.63,3.48.05.28.09.56.13.84,0,0,0,.22,0,.06,0,.06,0,.12,0,.18l.06.48c.07.59.12,1.18.16,1.76a29.15,29.15,0,0,1,0,3.62c0,.59-.07,1.17-.14,1.76l-.09.85,0,.18c0,.21,0-.14,0,.07s0,.32-.07.48c-.35,2.36-.88,4.7-1.45,7-1.15,4.74-2.33,9.48-3.49,14.23-.15.59-.29,1.18-.44,1.77a1.14,1.14,0,1,0,2.19.6q1.74-7.08,3.49-14.18c1.14-4.65,2.32-9.37,2.36-14.19s-1.17-9.48-2.09-14.16c-.18-.9-.35-1.8-.49-2.71l-.09-.62c0-.1,0-.26,0,0,0-.12,0-.24,0-.36-.06-.45-.11-.9-.15-1.36a31.87,31.87,0,0,1-.08-5.26c0-.44.08-.88.13-1.31,0,.28,0,0,0-.1s0-.21,0-.32.08-.44.12-.66a18.12,18.12,0,0,1,.68-2.5c.07-.19.15-.38.22-.58,0,0,.09-.21,0-.07s0,0,0,0l.15-.33a12.29,12.29,0,0,1,.59-1.14,11.23,11.23,0,0,1,.7-1.09l.18-.26s.14-.18,0-.06,0,0,0,0l.45-.53c.29-.33.61-.65.94-1a1.13,1.13,0,0,0-1.6-1.61Z"/><path d="M218.42,144c-.14,1.17-.28,2.33-.44,3.49,0,.14,0,.28,0,.42s0,.07,0,0l0,.21c0,.3-.09.6-.13.9l-.24,1.74q-.51,3.48-1.1,6.94-1.19,6.93-2.71,13.8c-.57,2.56-1.17,5.12-1.82,7.67a1.14,1.14,0,0,0,2.2.6q1.72-6.87,3.11-13.82t2.4-13.85q.6-4.05,1.08-8.12a1.13,1.13,0,0,0-1.13-1.13,1.17,1.17,0,0,0-1.14,1.13Z"/><polygon class="cls-6" points="192.23 206.09 156.48 214.59 156.27 202.72 192.23 206.09"/><polygon class="cls-6" points="192.23 206.09 192.67 210.89 155.83 220.48 156.48 214.59 192.23 206.09"/><polygon class="cls-6" points="156.48 214.59 155.83 220.48 65.37 205 65.58 200.05 65.59 200.44 156.48 214.59"/><polygon class="cls-6" points="156.48 214.59 65.59 200.44 65.58 200.05 65.59 199.77 156.48 214.59"/><path d="M155.4,221.09h-.18L64.76,205.6a1,1,0,0,1-.87-1.08l.21-5.23a1.09,1.09,0,0,1,.39-.77,1,1,0,0,1,.83-.22l90.9,14.82a1,1,0,1,1-.34,2.07L66.16,200.56,66,203.68,155.57,219a1.06,1.06,0,0,1,.86,1.22A1,1,0,0,1,155.4,221.09Z"/><path d="M155.39,221.18a1.13,1.13,0,0,1-.74-.27,1.15,1.15,0,0,1-.39-1l.65-5.88a1.15,1.15,0,0,1,.87-1l35.75-8.5a1.15,1.15,0,0,1,.93.19,1.12,1.12,0,0,1,.47.82l.44,4.8a1.15,1.15,0,0,1-.85,1.21l-36.84,9.59A1.36,1.36,0,0,1,155.39,221.18Zm1.7-6.1-.38,3.44L191,209.59l-.22-2.52Z"/><path d="M191.8,206.8h-.11l-36.08-3.38a1.14,1.14,0,1,1,.22-2.27h.11l36,3.37a1.14,1.14,0,0,1-.1,2.28Z"/><path class="cls-2" d="M179.85,199.28a5.9,5.9,0,0,0-1.11-.76,3.74,3.74,0,0,0,.75-.94,4.14,4.14,0,0,0-1.45-5.52,20.79,20.79,0,0,0-11.62-3.72,5.89,5.89,0,0,0-3.54.27,4.43,4.43,0,0,0-2.79,2.81A35.18,35.18,0,0,0,149,200a4.08,4.08,0,0,0,.31,5.87h.24a3.2,3.2,0,0,1,2.82,1.92c1.12.51,2.24,1,3.39,1.47a27.38,27.38,0,0,0,3.43,1.1l.17,0,.17,0c.36,0,.71.11,1.07.14a16.92,16.92,0,0,0,1.88.1,3.3,3.3,0,0,1,2.94,2.17,20.73,20.73,0,0,0,6.31-2l4-.81c2.24-.45,4.52-1,5.8-3.1C183.14,204.28,182,201.12,179.85,199.28Z"/><path d="M168.44,188.42a11.18,11.18,0,0,0-7.61.14,13.67,13.67,0,0,0-3.51,2,24.84,24.84,0,0,0-2.93,2.78c-1.83,2-3.48,4.13-5.26,6.15a6.35,6.35,0,0,0-1.76,3,2.7,2.7,0,0,0,.85,2.57c1.82,1.54,4.66.88,6.52-.21a1.14,1.14,0,1,0-1.15-2c-.2.12-.41.23-.62.33l-.17.07s.23-.09.07,0-.26.11-.4.15l-.6.17-.29.05-.16,0c.31-.08.15,0,.05,0a5.07,5.07,0,0,1-.55,0h-.33c-.16,0-.33-.06-.49-.11a1.72,1.72,0,0,0-.21-.07c.24,0,.22.1.11,0l-.14-.08-.16-.1c-.16-.09.22.2.09.07l-.06-.06-.14-.14c-.09-.09.18.27.09.11l-.06-.1a.59.59,0,0,1,0-.08c-.1-.16.09.29,0,.11a.84.84,0,0,1,0-.17c-.07-.25,0,.3,0,0,0-.08,0-.16,0-.24s-.07.3,0,.1c0,0,0-.07,0-.11s.05-.18.08-.28,0-.07,0-.11,0,.08,0,.09a2,2,0,0,0,.19-.36,4.74,4.74,0,0,1,.39-.6c.12-.16,0,0,0,0a1.24,1.24,0,0,1,.18-.22l.32-.36c1.66-1.89,3.2-3.89,4.9-5.76a30.12,30.12,0,0,1,2.65-2.65l.35-.3.14-.11c.23-.19-.12.09,0,0s.49-.35.74-.52a11.42,11.42,0,0,1,1.49-.84l.16-.07c.11-.05.22-.11,0,0a4.84,4.84,0,0,1,.49-.18,6.59,6.59,0,0,1,.86-.27c.29-.08.58-.14.87-.19l.26-.05-.14,0,.17,0,.43,0c.32,0,.64,0,1,0a4,4,0,0,1,.49,0l.21,0c.07,0,.35,0,.06,0a9.49,9.49,0,0,1,2,.47,1.14,1.14,0,0,0,1.39-.79,1.16,1.16,0,0,0-.79-1.4Z"/><path d="M163.9,195.43c-3.55,2.21-7.52,3.92-10.44,7-1.24,1.3-2.75,3.28-1.72,5.13s3.57,1.62,5.27,1.06a14.51,14.51,0,0,0,3.21-1.64c.48-.3.95-.61,1.43-.89.25-.15.51-.3.77-.43l.4-.2.16-.07c.22-.1-.18.08.06,0a1.16,1.16,0,0,0,.79-1.4,1.14,1.14,0,0,0-1.39-.79,15.82,15.82,0,0,0-2.73,1.44c-.8.5-1.58,1-2.43,1.45l-.32.15-.07,0-.07,0-.68.23-.45.12a5.21,5.21,0,0,0-.57.1h-.05l-.24,0c-.19,0-.42,0-.6,0,.18,0,.22,0,.1,0l-.13,0-.26-.07c-.18-.05.21.12,0,0l-.11-.07c-.17-.1,0,0,0,0a1.07,1.07,0,0,0-.19-.18c.11,0,.13.19.06.06l-.07-.11c-.07-.12.06-.05,0,.09,0,0,0-.11,0-.13s0-.1,0-.12,0,.27,0,.11a2.18,2.18,0,0,0,0-.25c0,.16-.05.23,0,.1a.5.5,0,0,0,0-.13l.08-.26a.38.38,0,0,0,.06-.13c0,.08-.11.22,0,0s.17-.32.27-.47l.17-.25.08-.12s.14-.21,0-.06.08-.1.11-.14l.18-.2c.11-.14.23-.27.35-.4q.47-.48,1-.93l.51-.45.28-.22.14-.12c.09-.07.14-.11,0,0a20.27,20.27,0,0,1,2.4-1.63c1.88-1.15,3.85-2.16,5.72-3.33a1.15,1.15,0,0,0,.41-1.55,1.16,1.16,0,0,0-1.56-.41Z"/><path d="M168.51,200.46a44.89,44.89,0,0,0-10.72,6.18,6.4,6.4,0,0,0-2,2.09,2.18,2.18,0,0,0-.07,1.93,2,2,0,0,0,1.4,1,5.51,5.51,0,0,0,1.57,0c.6-.07,1.19-.15,1.78-.24,1-.16,2-.37,3-.63a31.53,31.53,0,0,0,6.62-2.57,1.14,1.14,0,0,0,.41-1.55,1.17,1.17,0,0,0-1.56-.41l-1.28.64-.59.26-.18.08-.05,0-.09,0-.18.07c-.87.35-1.76.67-2.66.94s-1.84.51-2.77.69c-.46.1-.91.18-1.37.25l-.34.05-.15,0c.24,0,.06,0,0,0l-.73.08-.6.06h-.29s-.22,0,0,0h0c-.14,0,.18.11.07,0s.07.07.07.07-.11-.15,0,.06c0,0-.08-.15,0,0s0,0,0,0c.06.23,0,.19,0,.09,0,.38,0,0,0,0s-.11.2,0,.09a.61.61,0,0,0,.07-.14s.17-.24.08-.12.09-.1.13-.14a2.39,2.39,0,0,1,.23-.22c.34-.3.71-.59,1.07-.87l.12-.09h0l.23-.18.58-.43,1.14-.8c.76-.52,1.54-1,2.33-1.48s1.79-1,2.72-1.47c.46-.23.92-.45,1.39-.66l.71-.31.13-.06c-.21.09,0,0,0,0l.41-.16a1.28,1.28,0,0,0,.67-.52,1.13,1.13,0,0,0-1.28-1.67Z"/><path d="M165.24,208.27a9.06,9.06,0,0,0-3.76,3.23,2.27,2.27,0,0,0,.08,2.84c.72.71,1.86.62,2.79.59a25.76,25.76,0,0,0,9.85-2.22,24.41,24.41,0,0,0,4.77-2.77,1.17,1.17,0,0,0,.41-1.55,1.16,1.16,0,0,0-1.56-.41,23.4,23.4,0,0,1-3.8,2.32c-.33.17-.67.32-1,.47l-.07,0-.26.11-.51.2c-.7.26-1.41.5-2.12.7s-1.44.36-2.17.5c-.37.06-.74.13-1.1.17.25,0,.08,0,0,0l-.27,0-.65.07c-.74.06-1.48.09-2.23.09h-.56l-.08,0,.12.05c-.18-.1.1.12.12.17-.12-.21.06.25,0,0l0,.16a.66.66,0,0,1,0-.14c0,.18,0,.2,0,.08s0-.1.05-.15l-.06.13.07-.15.16-.26.1-.14c-.2.2.06-.07.1-.11a7.23,7.23,0,0,1,.86-.89,3.14,3.14,0,0,1,.4-.34l.06,0,.29-.2a9.36,9.36,0,0,1,1.08-.6,1.14,1.14,0,0,0,.41-1.55,1.17,1.17,0,0,0-1.56-.41Z"/><path class="cls-6" d="M155.84,202.29l.21,11.87-90.9-14.83v.28l-1.51-50.2c-.12-3.77,3.58-6.74,7.78-6.26l77.1,8.81c3.7.43,6.49,3.2,6.55,6.52Z"/><path d="M156.05,215.15a1,1,0,0,1-1-1l-.22-11.87-.77-43.8c0-2.8-2.49-5.19-5.67-5.55l-77.1-8.82a6.43,6.43,0,0,0-5.07,1.57,4.78,4.78,0,0,0-1.61,3.68l1.52,50.2a1,1,0,1,1-2,.06l-1.51-50.2a6.74,6.74,0,0,1,2.25-5.2,8.39,8.39,0,0,1,6.63-2.08l77.1,8.82c4.17.48,7.36,3.69,7.43,7.49l.78,43.8.21,11.87a1,1,0,0,1-1,1Z"/><ellipse class="cls-7" cx="104.82" cy="178.74" rx="9.05" ry="9.59"/><path class="cls-2" d="M235.65,184.6l-.08,0a9,9,0,0,0-.53-1.56,4,4,0,0,0-3.14-2,3.4,3.4,0,0,0-3.07-1.49q-10.56,1.16-21,3-10.29,1.53-20.47,3.66-3.42.57-6.83,1.18-5.3,1-10.56,2c-.2-.13-.4-.25-.61-.36a1.62,1.62,0,0,1,.19.18,3,3,0,0,1,.32.39,20,20,0,0,1,6.58,4,3.65,3.65,0,0,0-.41,3.07c.45,1.38.91,2.76,1.36,4.14.12.35.23.69.36,1a3.37,3.37,0,0,1-.32.19,3.14,3.14,0,0,1-1.31.34,3.54,3.54,0,0,1-.53.62l-.17.15c.79.12,1.6.21,2.42.28a4.93,4.93,0,0,0,4.24,5.32,4.78,4.78,0,0,0,3.72-1.08,3.8,3.8,0,0,0,1.39-.49l1.07-.61a5.39,5.39,0,0,0,1.81.18,47.86,47.86,0,0,0,5.54-.95c1.66-.32,3.32-.66,5-1q5.11-1.08,10.19-2.3c5-1.12,10.06-2.4,15-3.83,2.58-.68,5.15-1.38,7.72-2.08a3.91,3.91,0,0,0,2-1.33l.37-.2a11.31,11.31,0,0,0,4.81-5.59C241.93,186.66,238.39,183.8,235.65,184.6Z"/><path d="M221.05,178.56a136.13,136.13,0,0,0-21,3.34c-6.84,1.54-13.64,3.29-20.54,4.57A107.51,107.51,0,0,1,168,188a1.14,1.14,0,0,0-1.11,1,1.12,1.12,0,0,0,.81,1.25c2.75.61,5.57,1.66,7.45,3.86a11.25,11.25,0,0,1,2,4.17c.5,1.66,1,3.34,1.34,5A23.16,23.16,0,0,1,179,209a1.15,1.15,0,0,0,1.14,1.14c5.61.09,10.88-1.9,16.26-3.21s10.75-1.6,16-3c2.63-.72,5.13-1.79,7.75-2.54s5.29-1.36,8-1.92,5.44-1.12,8.14-1.74c2.28-.53,4.67-1.36,5.67-3.67a16.7,16.7,0,0,0,.94-3.9c.24-1.45.43-2.92.57-4.38.28-2.81.38-5.63.38-8.44,0-5.59-.26-11.18-.52-16.75s-.62-11.29-1.36-16.89a89.17,89.17,0,0,0-3.18-15.26c-2.59-8.14-7-16.29-14.51-20.88a23.17,23.17,0,0,0-2.75-1.44,1.17,1.17,0,0,0-1.55.41,1.14,1.14,0,0,0,.4,1.55c7.66,3.41,12.48,10.74,15.32,18.36,3.55,9.55,4.56,19.92,5.15,30q.47,8.26.68,16.55a89.4,89.4,0,0,1-.77,16.27,17.34,17.34,0,0,1-.82,3.78,3.49,3.49,0,0,1-2,1.85,19.26,19.26,0,0,1-3.17.85c-1.32.3-2.65.58-4,.85A104.6,104.6,0,0,0,215,200.6c-5,1.88-10.3,2.39-15.52,3.32s-10.23,2.89-15.49,3.65a24.13,24.13,0,0,1-3.89.25l1.13,1.13A34.56,34.56,0,0,0,179.4,198a15,15,0,0,0-2.22-4.93,11.46,11.46,0,0,0-3.77-3.18,19.22,19.22,0,0,0-5.15-1.85l-.3,2.23a141.05,141.05,0,0,0,20.82-3.44c6.85-1.56,13.66-3.3,20.58-4.54a104.29,104.29,0,0,1,11.69-1.47,1.16,1.16,0,0,0,1.13-1.14,1.15,1.15,0,0,0-1.13-1.14Z"/><path class="cls-3" d="M107.6,105.64l1,31.4L80.77,122.1l-.06,0a61.84,61.84,0,1,1,26.89-16.48Z"/><g class="cls-8"><rect class="cls-7" x="61.87" y="15.18" width="24.75" height="24.75"/><path class="cls-2" d="M86.87,40.17H61.62V14.93H86.87Zm-24.75-.5H86.37V15.43H62.12Z"/><line class="cls-5" x1="65.01" y1="18.79" x2="65.01" y2="36.31"/><path class="cls-9" d="M65,36.63a.32.32,0,0,1-.32-.32V18.79a.32.32,0,0,1,.32-.32.32.32,0,0,1,.32.32V36.31A.32.32,0,0,1,65,36.63Z"/><line class="cls-5" x1="64.88" y1="36.28" x2="82.4" y2="36.28"/><path class="cls-9" d="M82.4,36.6H64.88a.32.32,0,0,1,0-.64H82.4a.32.32,0,1,1,0,.64Z"/><line class="cls-5" x1="64.9" y1="32.2" x2="68.15" y2="29.45"/><path class="cls-9" d="M64.9,32.53a.3.3,0,0,1-.24-.12.32.32,0,0,1,0-.45l3.25-2.76a.33.33,0,0,1,.45,0,.32.32,0,0,1,0,.45l-3.25,2.76A.34.34,0,0,1,64.9,32.53Z"/><line class="cls-5" x1="68.15" y1="29.55" x2="73.76" y2="30.73"/><path class="cls-9" d="M73.76,31.05h-.07l-5.61-1.18a.32.32,0,0,1,.13-.63l5.62,1.18a.32.32,0,0,1,.24.38A.31.31,0,0,1,73.76,31.05Z"/><line class="cls-5" x1="75.73" y1="26.79" x2="73.66" y2="30.83"/><path class="cls-9" d="M73.66,31.15a.28.28,0,0,1-.15,0,.31.31,0,0,1-.13-.43l2.06-4a.32.32,0,0,1,.57.29L74,31A.33.33,0,0,1,73.66,31.15Z"/><line class="cls-5" x1="75.73" y1="26.59" x2="79.27" y2="28.86"/><path class="cls-9" d="M79.27,29.18a.34.34,0,0,1-.17-.05l-3.55-2.27a.32.32,0,0,1,.35-.54l3.54,2.27a.31.31,0,0,1,.1.44A.31.31,0,0,1,79.27,29.18Z"/><line class="cls-5" x1="82.91" y1="21.38" x2="79.27" y2="28.86"/><path class="cls-9" d="M79.27,29.18a.35.35,0,0,1-.14,0,.33.33,0,0,1-.15-.43l3.64-7.48a.32.32,0,0,1,.58.28L79.56,29A.33.33,0,0,1,79.27,29.18Z"/><path class="cls-9" d="M68.94,29.55a.84.84,0,1,1-1.68,0,.84.84,0,1,1,1.68,0Z"/><path class="cls-9" d="M68.1,30.47a.92.92,0,1,1,.87-.92A.9.9,0,0,1,68.1,30.47Zm0-1.77a.85.85,0,1,0,.8.85A.83.83,0,0,0,68.1,28.7Z"/><path class="cls-9" d="M74.45,30.43a.84.84,0,1,1-1.68,0,.84.84,0,1,1,1.68,0Z"/><path class="cls-9" d="M73.61,31.35a.92.92,0,1,1,.87-.92A.9.9,0,0,1,73.61,31.35Zm0-1.77a.85.85,0,1,0,.8.85A.83.83,0,0,0,73.61,29.58Z"/><path class="cls-9" d="M76.81,26.89A.84.84,0,1,1,76,26,.86.86,0,0,1,76.81,26.89Z"/><path class="cls-9" d="M76,27.81a.92.92,0,1,1,.88-.92A.9.9,0,0,1,76,27.81ZM76,26a.85.85,0,1,0,.8.85A.83.83,0,0,0,76,26Z"/><path class="cls-9" d="M80.35,28.86a.84.84,0,1,1-1.67,0,.84.84,0,1,1,1.67,0Z"/><path class="cls-9" d="M79.52,29.78a.92.92,0,1,1,.87-.92A.9.9,0,0,1,79.52,29.78Zm0-1.77a.85.85,0,1,0,.8.85A.83.83,0,0,0,79.52,28Z"/><path class="cls-9" d="M83.6,21.48a.84.84,0,1,1-.84-.89A.86.86,0,0,1,83.6,21.48Z"/><path class="cls-9" d="M82.76,22.4a.92.92,0,1,1,.88-.92A.9.9,0,0,1,82.76,22.4Zm0-1.77a.85.85,0,1,0,.81.85A.83.83,0,0,0,82.76,20.63Z"/><path class="cls-2" d="M61,67.75a7.53,7.53,0,0,0,2-6.45,6.36,6.36,0,0,0-3.11-4.25,6.72,6.72,0,0,0-2.18-2.13,10.55,10.55,0,0,0-2.16-8.55,11.48,11.48,0,0,0-4.71-3.58l-.31-.21a17,17,0,0,0-8.37-2.18c-3.05-.16-6.36.7-7.67,3.57a13.31,13.31,0,0,0-3.91,3.11,10.7,10.7,0,0,0-1.95,3.35,16.4,16.4,0,0,0-1.72,10.84,16.22,16.22,0,0,0,2.4,6.14,15,15,0,0,0,2.82,6.74,11.84,11.84,0,0,0,1.8,1.94c0,.11,0,.22,0,.34a48.16,48.16,0,0,0,.38,10.46,4.45,4.45,0,0,0-1.68,2.19c-.18.46-.35.93-.51,1.4-.58.73-1.2,1.47-1.86,2.21-1.31,1.49-2.68,2.91-4.11,4.29a3.82,3.82,0,0,0-.29,5,3.67,3.67,0,0,0,3.75,1.37c0,.63-.06,1.27-.07,1.9a3.8,3.8,0,0,0,3.3,3.74,4.22,4.22,0,0,0,3.07-.9,4.21,4.21,0,0,0,1.11-.44l0,.61a3.87,3.87,0,0,0,3.81,3.8H41a3.88,3.88,0,0,0,4.45,2.15,3.83,3.83,0,0,0,6.12-1.85l1.8-6.51a3.8,3.8,0,0,0,1.64-3.7,3.2,3.2,0,0,0,1.5-.51c1.63-1,2.57-3.45,1.36-5.21l-1.47-2.19a3.89,3.89,0,0,0-2-3.12q-1.53-2.46-3-5l-.61-5.32a5.7,5.7,0,0,0,.83-1.12,7.5,7.5,0,0,0,.91-2.59,22.32,22.32,0,0,0,4.59-6.25A13.93,13.93,0,0,0,58.5,70a17,17,0,0,0,1.61-1.33A5.05,5.05,0,0,0,61,67.75Z"/><path class="cls-3" d="M6.38,123.63a8.66,8.66,0,0,0,.36,1.81H81.2a5.57,5.57,0,0,0-.86-3.53c1.58-3.74.62-7.88-.78-11.61a5.5,5.5,0,0,0-.74-1.37,4.74,4.74,0,0,0-1.2-3.42,27.46,27.46,0,0,0-5.79-5.17A4.74,4.74,0,0,0,71,99.7a4.8,4.8,0,0,0-1.9-2.53,12.13,12.13,0,0,0-1.48-.86l-1.1-.64a4.15,4.15,0,0,0-3-.47c-1.42-2.22-3.58-4-6.25-3.85A4.44,4.44,0,0,0,53,95.18l-9.78,17.33a30.39,30.39,0,0,0-4.42-7.83c-1.52-1.93-3.21-3.71-4.76-5.62L34,98.87l-.55-.78c-.31-.48-.61-1-.88-1.49-.06-.11-.21-.54-.33-.74a2.25,2.25,0,0,1-.08-.24c-.06-.2-.12-.4-.17-.6a3.88,3.88,0,0,0-1.14-3.73,5,5,0,0,0-8,1.79,79.42,79.42,0,0,0-7.4,6.18,11.32,11.32,0,0,0-6.17,6.8,8.15,8.15,0,0,0-.34,2.65,24.43,24.43,0,0,0-1.32,4.23,19.43,19.43,0,0,0-.47,5.22,21.6,21.6,0,0,0,.16,2.9A3.58,3.58,0,0,0,6.38,123.63Z"/><path class="cls-4" d="M67.87,64.29a19.85,19.85,0,0,0-1-5.67,20,20,0,0,0-1.4-3A6.19,6.19,0,0,1,64.7,54c-.53-1.8-.72-3.63-1.68-5.28a9.82,9.82,0,0,0-.71-1,4.32,4.32,0,0,0-1.84-3c.59.45-.27-.31-.38-.43s-.11-.13-.17-.2-.09-.12-.18-.26c-.36-.6-.75-1.19-1.11-1.79a15,15,0,0,0-3-4,9.36,9.36,0,0,0-6.4-2.41A5.92,5.92,0,0,0,46,35.29l-.44-.18a3.74,3.74,0,0,0-4.06,1.39,6.53,6.53,0,0,0-3.16-.88,7.86,7.86,0,0,0-4.87,2,10.13,10.13,0,0,0-6.72,7.5,4.91,4.91,0,0,0-.06,1.43c-.34.43-.66.86-1,1.29s-.56.71-.82,1.08a7.33,7.33,0,0,0-1.2.79,26.18,26.18,0,0,1-3.45,10.39c0,.14-.05.28-.07.42-.05.39-.1.78-.14,1.17a10.18,10.18,0,0,0,.31,10,6.62,6.62,0,0,0,.93,2.15,7.3,7.3,0,0,0,.52.72,8,8,0,0,0,1.78,3.14,4.06,4.06,0,0,0,1.54,1l.11.16c1.52.29,3,.69,4.5,1.06a14.59,14.59,0,0,0,4.24.65A3.43,3.43,0,0,0,35,79.05a12.57,12.57,0,0,1-2.62-3.43c-2.28-2.74-2.81-6.63-2.31-10.09a2.82,2.82,0,0,1,.23-.78l0-.16c.06-1.25.12-2.5.19-3.75.91-3.18,1.69-6.4,2.8-9.54l.19-.52c.16-.13.31-.27.47-.39s.2-.17.25-.21c.21-.17.43-.33.65-.49L36,48.81a3.71,3.71,0,0,0,2,.22A5,5,0,0,1,38.6,48a2.18,2.18,0,0,1,.74-1.71,6.18,6.18,0,0,1,2-1.28h0a4.67,4.67,0,0,0,.85-1,3.74,3.74,0,0,0,2.59.72l.09.08.21.26a6,6,0,0,1,1.52.87c2,1.56,3.23,3.79,4.56,5.89a1.73,1.73,0,0,1,.26.87A20.51,20.51,0,0,0,57,57.13l1.12,1.61A2.2,2.2,0,0,1,59.63,60a7.81,7.81,0,0,1,.93,3.16,2.63,2.63,0,0,1,.17,1.82A5.89,5.89,0,0,1,60.34,66c0,.48,0,1,0,1.45s0,.75,0,1.13v.09a4.1,4.1,0,0,0-.7,0,3.85,3.85,0,0,0-1.34-.49,15.54,15.54,0,0,1-4,6.9c.1.12.2.23.31.34-.13.2-.27.4-.41.59a12.68,12.68,0,0,1-3.78,3.26h0a3.23,3.23,0,0,0,1.65.37l1.13-.15a4.85,4.85,0,0,0,.75-.29,22.61,22.61,0,0,0,6.11-1.51,21.89,21.89,0,0,0,7.07-5.27A19.47,19.47,0,0,0,67.87,64.29Z"/><path d="M42.43,82.6a12,12,0,0,1-2.72-.31c-4.82-1.12-8.8-4.92-10.93-10.41a.78.78,0,0,1,1.46-.56c1.94,5,5.52,8.45,9.82,9.45,5.26,1.23,9.88-1.8,12.45-5a19.57,19.57,0,0,0,3.33-6.57.79.79,0,0,1,.39-.47.81.81,0,0,1,.61-.05c1.67.56,3-1,3.64-2.44A5.49,5.49,0,0,0,60,61a3.35,3.35,0,0,0-2.31-1.45A.78.78,0,1,1,57.93,58a4.86,4.86,0,0,1,3.38,2.11,7.07,7.07,0,0,1,.6,6.65c-.8,1.88-2.5,3.79-4.79,3.49a21,21,0,0,1-3.39,6.4A14.62,14.62,0,0,1,42.43,82.6Z"/><path d="M48.83,63.44a.94.94,0,0,0,0-1.87.94.94,0,0,0,0,1.87Z"/><path d="M38.7,63.46a.94.94,0,0,0,0-1.88.94.94,0,0,0,0,1.88Z"/><path d="M42.37,68.41a2.29,2.29,0,0,0,3.16,0,.57.57,0,0,0,0-.8.57.57,0,0,0-.79,0l-.12.11s.11-.07,0,0l-.06,0-.14.07-.07,0,0,0-.31.08h-.06c.16,0,.08,0,0,0h-.3s-.12,0,0,0,0,0,0,0l-.29-.08c-.06,0,.13.06,0,0l0,0-.14-.07-.06,0c-.06,0,.1.09,0,0a.57.57,0,0,1-.11-.11.57.57,0,1,0-.8.8Z"/><path d="M32.6,78.65c.23.81.44,1.63.59,2.46,0,.2.07.39.1.59,0,0,0,.3,0,.15,0,.11,0,.22,0,.33,0,.42.08.83.09,1.25s0,.79,0,1.19c0,.19,0,.38-.06.57,0,0,0,.19,0,.09s0,0,0,0,0,.21-.05.32A9.67,9.67,0,0,1,33,86.83c-.06.18-.12.36-.19.54l-.06.15,0,0c0-.07,0,.05,0,.05a1.08,1.08,0,0,1-.08.19,9.06,9.06,0,0,1-.7,1.21A7.93,7.93,0,0,1,31,90.11a.86.86,0,0,0,0,1.19.85.85,0,0,0,1.19,0,10.37,10.37,0,0,0,2.61-4.81,14.21,14.21,0,0,0,0-5.36,22.45,22.45,0,0,0-.67-2.92.84.84,0,1,0-1.62.44Z"/><path d="M50.9,78.13a23,23,0,0,0-1,7.27,9.2,9.2,0,0,0,2.18,5.43,6.54,6.54,0,0,0,2.72,1.82.84.84,0,0,0,1-.58.86.86,0,0,0-.59-1L55.1,91l-.28-.13a4.74,4.74,0,0,1-.54-.31L54,90.35c.13.09-.11-.09-.13-.11a6.14,6.14,0,0,1-.45-.43,6,6,0,0,1-.41-.47c.09.11-.06-.09-.08-.12s-.13-.19-.2-.29a7.15,7.15,0,0,1-.59-1.13l-.07-.17L52,87.37c-.07-.22-.14-.44-.19-.66s-.09-.39-.13-.58l0-.16s0-.19,0-.08,0-.07,0-.07l0-.32a13.69,13.69,0,0,1,.12-3.21c.19-1.25.49-2.48.8-3.71a.87.87,0,0,0-.59-1,.86.86,0,0,0-1,.59Z"/><path d="M35.59,99.84q6.1-.33,12.22-.38h3.47a.81.81,0,0,0,.79-.79.8.8,0,0,0-.79-.79q-6.12,0-12.23.22l-3.46.16a.8.8,0,1,0,0,1.59Z"/><path d="M8.19,123.87C8.06,117.77,7,111,10,105.39a24.68,24.68,0,0,1,5.17-6.23,48.89,48.89,0,0,1,7-5.44,22.52,22.52,0,0,1,8.07-3.55l-.45-1.62c-.77.18-.7,1-.47,1.54s.54,1.16.84,1.73c.95,1.81,2,3.59,3,5.36Q35,100.54,37,103.85c1.22,2,2.44,4.05,3.69,6.06.72,1.15,1.41,2.34,2.23,3.43l.24.31a.84.84,0,0,0,1.32-.18c3.34-5.94,7.06-11.68,10-17.85.84-1.77,1.62-3.58,2.3-5.42l-1.62-.45c-.22.82.7,1.28,1.28,1.62.88.51,1.78,1,2.69,1.44C61.27,93.9,63.43,95,65.57,96a31.9,31.9,0,0,1,6,3.82,21,21,0,0,1,6.45,8.11c1.7,4,1.82,8.64,1.75,13,0,.58,0,1.17,0,1.75a.84.84,0,0,0,1.68,0c.14-4.56.17-9.34-1.24-13.74a21.07,21.07,0,0,0-5.88-9A32.44,32.44,0,0,0,70,96.61,25.45,25.45,0,0,0,67.37,95c-2-1-4-1.94-5.93-2.93-1-.52-2.08-1-3.11-1.61l-1.13-.62-.41-.26-.14-.1c-.17-.11.14.14,0,0s0-.07-.07-.07c.19,0,.23.57.18.74a.84.84,0,1,0-1.62-.45c-2.36,6.31-5.85,12.1-9.25,17.89q-1.47,2.48-2.88,5l1.32-.17c-.16-.18.1.15,0,0s-.11-.15-.16-.22-.29-.41-.42-.62c-.42-.63-.82-1.27-1.22-1.9-1.17-1.86-2.3-3.73-3.43-5.61-1.31-2.16-2.59-4.33-3.86-6.51-1.09-1.87-2.17-3.74-3.2-5.64-.34-.63-.68-1.27-1-1.91,0-.12-.11-.23-.16-.34l-.07-.15c-.08-.18,0,0,0,0a1.8,1.8,0,0,1-.08-.21c0-.07-.05-.26,0,0a.8.8,0,0,1-.58.83.84.84,0,0,0,.59-1,.86.86,0,0,0-1-.59,22.39,22.39,0,0,0-7.55,3.15,48.12,48.12,0,0,0-7.45,5.56,30.74,30.74,0,0,0-5.63,6.26,20,20,0,0,0-2.75,9.38c-.27,3.65.08,7.31.15,11a.85.85,0,0,0,1.69,0Z"/><path d="M40,73.16c1.32,0,2.64,0,4,0a15.05,15.05,0,0,0,1.78-.06,8.06,8.06,0,0,1,1.77,0l-.38-.68a.63.63,0,0,0,0,.09s0-.07,0,0,0,.1-.08.16l-.09.14c-.07.1,0,0-.07.09a3,3,0,0,1-.25.25l-.06,0-.17.12a3.53,3.53,0,0,1-1.38.48,1.47,1.47,0,0,1-.32,0l-.44,0a6.33,6.33,0,0,1-.87,0h-.09c.08,0,0,0,0,0l-.21,0-.43-.1a5.15,5.15,0,0,1-.76-.24c-.1,0,0,0,0,0l-.1,0-.21-.1a2.6,2.6,0,0,1-.36-.21L40.94,73s0,0,0,0l-.09-.07a2.37,2.37,0,0,1-.27-.28.56.56,0,1,0-.79.79A5.11,5.11,0,0,0,43,74.91a5.91,5.91,0,0,0,3.83-.6,3,3,0,0,0,1.31-1.58.56.56,0,0,0-.39-.68,29.18,29.18,0,0,0-3.74,0c-1.36,0-2.71,0-4.07,0a.56.56,0,0,0,0,1.11Z"/><circle class="cls-5" cx="57.97" cy="69.24" r="1.97" transform="translate(-19.59 115.48) rotate(-80.87)"/><path d="M58,71.7h0A2.42,2.42,0,0,1,56.23,71a2.45,2.45,0,0,1-.72-1.74A2.46,2.46,0,0,1,58,66.77h0a2.47,2.47,0,0,1,0,4.93Zm0-4a1.47,1.47,0,0,0-1,.43,1.54,1.54,0,0,0-.44,1,1.52,1.52,0,0,0,.44,1.06,1.47,1.47,0,0,0,1,.43h0A1.47,1.47,0,0,0,59,70.29,1.48,1.48,0,0,0,58,67.75Z"/><path d="M40.89,35.58c-2.89-1.28-6.35-.62-9,1-2.9,1.72-4.48,4.72-5.84,7.68-1.52,3.28-3.17,6.48-4.57,9.81A43,43,0,0,0,18.3,64.73c-.45,3.24-.51,6.84,1.31,9.72a11.66,11.66,0,0,0,.79,1.06.84.84,0,0,0,1.19-1.19,2.56,2.56,0,0,1-.26-.34,5.25,5.25,0,0,1-.33-.49,7.91,7.91,0,0,1-.52-1c.05.11,0-.08,0-.11s-.07-.19-.11-.28l-.18-.56a10.3,10.3,0,0,1-.25-1.1c0-.09,0-.17,0-.25a.88.88,0,0,0,0-.17s0-.14,0-.06,0,0,0,0a.53.53,0,0,0,0-.13l0-.34c0-.38-.05-.76-.05-1.15A19.27,19.27,0,0,1,19.83,66c.08-.84.21-1.63.38-2.51s.37-1.74.61-2.6a47.77,47.77,0,0,1,1.71-5.06c.64-1.6,1.36-3.2,2.11-4.8s1.52-3.11,2.25-4.67,1.3-2.88,2.08-4.25a11.27,11.27,0,0,1,2.78-3.47.27.27,0,0,1,.08-.07c-.11.09,0,0,0,0l.18-.13.45-.3c.3-.19.61-.36.92-.52l.47-.22.11,0h0l.27-.1c.34-.13.68-.24,1-.34s.7-.17,1.06-.23l.12,0c.14,0-.12,0,0,0l.24,0,.56,0a9.21,9.21,0,0,1,1.05,0l.19,0,.16,0,.52.11.47.14.21.07L40,37s-.14-.07,0,0a.86.86,0,0,0,1.15-.3.85.85,0,0,0-.3-1.16Z"/><path d="M62.86,75.87a12.16,12.16,0,0,0,5.46-8,14,14,0,0,0-.23-5.61,31.09,31.09,0,0,0-2-5.41,33.84,33.84,0,0,1-2-5.26c-.48-1.87-.81-3.78-1.44-5.61a18.44,18.44,0,0,0-6.77-8.81,15.51,15.51,0,0,0-11.09-2.81,13.33,13.33,0,0,0-1.4.28.84.84,0,0,0-.59,1,.85.85,0,0,0,1,.59,12.69,12.69,0,0,1,5.2-.18,14.48,14.48,0,0,1,2.67.74,11,11,0,0,1,1.14.5c.41.2.8.42,1.19.65a16.73,16.73,0,0,1,3.83,3.22l.43.51.16.2a1.34,1.34,0,0,1,.11.14l.06.07c0-.05,0,0,0,0,.26.34.51.69.74,1a16.88,16.88,0,0,1,1.28,2.32A18,18,0,0,1,61.55,48c.24.9.44,1.82.65,2.74s.43,1.81.72,2.69A25.76,25.76,0,0,0,64,56.19c.73,1.69,1.44,3.18,2,4.91a13.72,13.72,0,0,1,.8,5.17c0,.19,0,.38,0,.57l0,.28s0,.14,0,0,0,.1,0,.12c-.06.38-.14.76-.23,1.13a10.34,10.34,0,0,1-.36,1.07s-.12.31-.06.16a2.72,2.72,0,0,1-.11.25c-.08.17-.16.35-.25.52q-.27.49-.57,1l-.32.45s-.11.14,0,.07,0,0,0,0l-.19.24a12.39,12.39,0,0,1-1.68,1.64l-.09.07c.1-.08,0,0,0,0l-.23.17-.51.35a.87.87,0,0,0-.31,1.15.85.85,0,0,0,1.16.3Z"/><path d="M37.72,47.3a6.48,6.48,0,0,0-3.2.75,6.78,6.78,0,0,0-2.26,2.1A15.18,15.18,0,0,0,30,56.31a60.79,60.79,0,0,0-.7,6.87c-.06.89-.11,1.78-.19,2.67l-.06.55s0,.09,0,0,0,0,0,.08,0,.2,0,.3-.09.45-.14.67a11.22,11.22,0,0,1-.35,1.26c-.06.2-.14.41-.22.61s-.12.31-.21.52a14,14,0,0,1-1.31,2.33,8.5,8.5,0,0,1-.72.93c-.28.33-.57.65-.88,1l-.48.44c-.15.14-.37.32-.48.41a12.14,12.14,0,0,1-1.09.73c-.2.11-.4.22-.61.32l-.29.14-.26.11a9.44,9.44,0,0,1-1.31.39l-.31.06-.18,0c-.24,0-.49,0-.73,0a.84.84,0,1,0,0,1.68c3.88-.09,7.17-2.77,9.16-5.94a14.82,14.82,0,0,0,2-5,24.57,24.57,0,0,0,.32-3c.14-2.15.25-4.31.53-6.46,0-.15,0,.19,0,0l0-.2c0-.15.05-.3.07-.45s.09-.56.14-.84c.11-.57.23-1.12.37-1.68s.3-1.06.49-1.57c0-.12.08-.23.13-.35a1,1,0,0,1,.08-.19s-.08.19,0,.06l0-.09c.11-.24.22-.48.34-.71s.24-.43.37-.63l.2-.3.1-.13a.35.35,0,0,0,.05-.08l0,0a8.08,8.08,0,0,1,1-1c.09-.08-.17.11,0,0l.13-.09.31-.19.28-.16.14-.07.08,0c.15-.08-.14.05,0,0s.46-.17.69-.23l.34-.07.17,0h0a5.17,5.17,0,0,1,.79,0,.85.85,0,0,0,0-1.69Z"/><path d="M59.3,72.61c0,.1,0,.19,0,.29s-.06.23,0,.29,0-.16,0,0,0,.1,0,.16,0,.18-.07.28a3.74,3.74,0,0,1-.17.54.34.34,0,0,1,0,.12s.06-.14,0,0l-.12.26c-.09.16-.18.32-.28.47s-.1.16-.16.24.08-.09,0,0l-.08.1a5.33,5.33,0,0,1-.4.42l-.21.19s-.07.08-.1.08.1-.07,0,0l-.08,0a.87.87,0,0,0-.3,1.16.85.85,0,0,0,1.15.3A6.18,6.18,0,0,0,61,72.61a.85.85,0,0,0-1.69,0Z"/><path d="M26.33,77a3.37,3.37,0,0,0,.3,1.17,3.09,3.09,0,0,0,.57.85,3.21,3.21,0,0,0,1.76,1,.92.92,0,0,0,.65-.09.83.83,0,0,0,.38-.5.86.86,0,0,0-.08-.65.81.81,0,0,0-.5-.39,2.15,2.15,0,0,1-.51-.15l.2.08a2.17,2.17,0,0,1-.53-.31l.17.13a2.56,2.56,0,0,1-.47-.46l.13.17a3.16,3.16,0,0,1-.33-.56l.09.2a2.7,2.7,0,0,1-.17-.6l0,.22A.49.49,0,0,0,28,77a.9.9,0,0,0-.25-.6.85.85,0,0,0-.59-.24.83.83,0,0,0-.6.24.85.85,0,0,0-.24.6Z"/><path d="M40.83,46.05c0-.07.05-.13.07-.2-.07.19,0,0,0,0s.09-.19.14-.28l.16-.25c.11-.17-.12.14,0,0l.11-.13.2-.19.12-.1c-.21.12,0,0,0,0l.22-.14.11,0c.19-.1-.14,0,0,0a4.67,4.67,0,0,1,.5-.14.4.4,0,0,1,.15,0c-.21,0-.1,0,0,0H43l.55,0c.19,0-.2,0,0,0l.12,0,.36.08.59.17.29.1.16.07c.2.08-.16-.08,0,0a8.79,8.79,0,0,1,1.17.63c.18.11.35.23.52.35l.12.09c.17.12-.14-.12,0,0l.26.21a7.23,7.23,0,0,1,.83.83l.07.08c.12.14-.14-.19,0,.06l.29.4c.2.3.38.61.57.92L49.8,50c.49.87,1,1.74,1.48,2.6a17.48,17.48,0,0,0,3.61,4.63,8.38,8.38,0,0,0,3,1.63,8.54,8.54,0,0,0,3.73.2.84.84,0,0,0,.59-1,.87.87,0,0,0-1-.59H61l-.23,0-.37,0a8.19,8.19,0,0,1-.86,0l-.35,0c-.22,0,.12,0,0,0a.9.9,0,0,0-.16,0c-.26,0-.52-.11-.77-.18l-.6-.22h0l-.17-.08-.33-.17a6.53,6.53,0,0,1-.56-.35l-.28-.19s-.17-.13-.06,0l-.12-.09a10.26,10.26,0,0,1-1-1c-.16-.17-.32-.35-.47-.53l-.21-.26,0,0-.12-.16a25.32,25.32,0,0,1-1.66-2.55c-.5-.86-1-1.73-1.48-2.59a18.84,18.84,0,0,0-2.06-3.16A9.25,9.25,0,0,0,44.47,43a5,5,0,0,0-3,.09A4,4,0,0,0,39.2,45.6a.84.84,0,0,0,.59,1,.86.86,0,0,0,1-.58Z"/><path class="cls-10" d="M39,67.58a3.81,3.81,0,0,1-3.82-3.81.64.64,0,0,1,.63-.64h0a.64.64,0,0,1,.63.64,2.53,2.53,0,0,0,.75,1.8,2.57,2.57,0,0,0,1.8.74h0a2.55,2.55,0,0,0,2.54-2.55.64.64,0,0,1,.63-.64h0a.64.64,0,0,1,.63.64A3.81,3.81,0,0,1,39,67.58Z"/><path class="cls-10" d="M48.61,67.58a3.77,3.77,0,0,1-2.69-1.11,3.81,3.81,0,0,1-1.13-2.7.64.64,0,0,1,.64-.64h0a.64.64,0,0,1,.64.64,2.53,2.53,0,0,0,2.54,2.54h0a2.53,2.53,0,0,0,1.8-.75,2.48,2.48,0,0,0,.74-1.8.64.64,0,0,1,.64-.64h0a.64.64,0,0,1,.64.64,3.82,3.82,0,0,1-3.81,3.82Z"/><path class="cls-10" d="M42.24,64.08a.64.64,0,0,1,0-1.28h3a.64.64,0,1,1,0,1.27Z"/><path class="cls-10" d="M51.78,64.06a.63.63,0,0,1-.63-.64.62.62,0,0,1,.63-.63h1.49a.63.63,0,0,1,.63.63.64.64,0,0,1-.63.64Z"/><path class="cls-10" d="M33.76,63.88a.64.64,0,1,1,0-1.27h1.7a.64.64,0,0,1,0,1.28Z"/><path class="cls-2" d="M74,101.59a1.23,1.23,0,0,1-.4-1l.23-8.9a1.32,1.32,0,0,1,.36-.9,24,24,0,0,1,.5-3.94,1.34,1.34,0,0,1,1-1,4.43,4.43,0,0,1,1.26-2.27c.14-2.51.27-5,.34-7.52a24.3,24.3,0,0,0,0-2.83c-.07-1,.18-2.2,1.39-2.39s2,1,2.06,2.08a7,7,0,0,1-.14,1.12,6,6,0,0,0,0,1.46A41.39,41.39,0,0,1,80.9,82a1.72,1.72,0,0,1-.11.51,2.59,2.59,0,0,1,.63-.07,2.53,2.53,0,0,1,.91.17,2.3,2.3,0,0,1,1.82.26,3.48,3.48,0,0,1,1.3,1.63,1.85,1.85,0,0,1,1.71.6,2,2,0,0,1,1.27,1.29,6.35,6.35,0,0,1,.38,1.75,1.79,1.79,0,0,1,.73.18,2.21,2.21,0,0,1,1.19.76,2,2,0,0,1,.59.79,3,3,0,0,1,0,1.95,2.59,2.59,0,0,1-.38,1.4,2.08,2.08,0,0,1-.65.67c-.5,1.4-.92,2.82-1.28,4.27.59,1.57-1.61,2.57-2.73,3.22a10.3,10.3,0,0,0-2.51,1.81,1.59,1.59,0,0,1,0,.89c0,.86-.83,1.8-1.75,1.43-.39-.16-.78-.33-1.16-.51q-2.2,0-4.41-.3c-1-.12-2.29-.09-2.62-1.29a4.6,4.6,0,0,1,0-1.57Z"/><path d="M77.88,81.93l0-5.25,0-2.65c0-.37,0-.74,0-1.11,0-.13,0-.27,0-.41s0,.15,0-.07l.06-.26a.93.93,0,0,0,0-.13c.06-.2-.07.11,0-.07l.1-.17c.09-.16-.1.07,0,0a.65.65,0,0,1,.53-.2h.13l.14,0s.24.09.11,0l.22.11s.21.15.1.06l.17.16a1.51,1.51,0,0,1,.26.41,6.9,6.9,0,0,1,.37,2c.1.85.18,1.7.24,2.56.14,1.92.18,3.85.13,5.77a.78.78,0,0,0,.77.78.79.79,0,0,0,.78-.78,56.47,56.47,0,0,0-.11-5.67q-.1-1.41-.27-2.82a8.22,8.22,0,0,0-.55-2.6c-.69-1.51-3-2.31-4.19-.9a3.38,3.38,0,0,0-.69,2.06c0,.9,0,1.8,0,2.7,0,2.15,0,4.3,0,6.44a.78.78,0,0,0,1.56,0Z"/><path d="M82,83.21a5.74,5.74,0,0,1,1.9.12,2.07,2.07,0,0,1,1.11.78c-.08-.1,0,0,0,.06a.91.91,0,0,1,.11.16,3.9,3.9,0,0,1,.19.35,3.15,3.15,0,0,1,.23.63,2.74,2.74,0,0,1,.09.39s0,.26,0,.11c0,.06,0,.13,0,.2a8.65,8.65,0,0,1,0,1.14,14.41,14.41,0,0,1-.37,2c-.07.29-.14.59-.23.88,0,.05,0,.1,0,.16-.08.23.06-.09,0,.12l-.08.15s-.14.2-.07.11a1.25,1.25,0,0,1-.16.17s-.11.07,0,0a1,1,0,0,1-.17.1s.15,0,0,0-.36.07-.17,0a1.78,1.78,0,0,1-.4,0h0l-.16,0s-.32-.11-.17,0l-.31-.16-.18-.12c.11.08,0,0,0-.06a.47.47,0,0,1-.1-.1l-.09-.1c.05.07.05.06,0,0a4,4,0,0,1-.2-.35,4.21,4.21,0,0,1-.21-.81,6.84,6.84,0,0,1,.17-2,.78.78,0,0,0-1.5-.41c-.33,1.49-.46,3.24.54,4.53a3,3,0,0,0,3.62,1,2.81,2.81,0,0,0,1.29-1.75,16.82,16.82,0,0,0,.54-2.31,6.52,6.52,0,0,0-.62-4.55A4.06,4.06,0,0,0,84.63,82a6.33,6.33,0,0,0-2.67-.3.78.78,0,0,0,0,1.56Z"/><path d="M85,92.7A3.56,3.56,0,0,0,88,93a3.06,3.06,0,0,0,1.92-2.14,14.83,14.83,0,0,0,.26-3.19,4.39,4.39,0,0,0-.57-2.49,3,3,0,0,0-3.12-1,.78.78,0,0,0-.54,1,.79.79,0,0,0,1,.54h.58q.15,0,.06,0l.17,0,.16,0,.06,0a1,1,0,0,1,.52.63,2.72,2.72,0,0,1,.15,1c0,.52,0,1,0,1.56a9.68,9.68,0,0,1-.16,1.53,1,1,0,0,1-.18.46l-.09.14,0,0a2.44,2.44,0,0,1-.23.22l-.17.11s-.28.14-.18.1a1.76,1.76,0,0,1-.56.12,2.06,2.06,0,0,1-1.16-.3A.78.78,0,0,0,85,92.7Z"/><path d="M90.57,89.22c.18-.11,0,0,0,0s.18-.06,0,0c0,0,.13,0,0,0s0,0,.08,0,0,0,0,0l.13.07c-.06,0,0,0,0,.06l.08.13s0,.13,0,0a1.12,1.12,0,0,1,.08.26,2.61,2.61,0,0,1,.06.27c0,.18,0-.14,0,0s0,.45,0,.67a2,2,0,0,1,0,.34c0,.19,0-.13,0,0a1.85,1.85,0,0,1,0,.23,4.85,4.85,0,0,1-.19.75c0,.13-.08.24-.13.37,0-.14,0-.07,0,0l-.09.17a3.21,3.21,0,0,1-.19.31l0,.06c0,.08.11-.12,0-.05l-.12.13-.11.11c-.13.13.08,0,0,0L90,93.2l-.07,0s.17,0,0,0l-.15,0c-.11,0,.18,0,0,0s-.25,0-.12,0a.76.76,0,1,0-.1,0l-.22-.07c.17.06,0,0-.07,0a1,1,0,0,1-.21-.14c.1.09,0,0,0,0s.08.18,0,0a.78.78,0,1,0-1.5.42A2.23,2.23,0,0,0,90,94.81a2.46,2.46,0,0,0,1.8-1.15,5.2,5.2,0,0,0,.75-1.92,5.6,5.6,0,0,0,.09-2,2.67,2.67,0,0,0-.75-1.57,1.72,1.72,0,0,0-2.06-.25.78.78,0,0,0,.79,1.34Z"/><path d="M75.43,103.68a69.49,69.49,0,0,1-.64-7.2,32.89,32.89,0,0,1,.49-7.26,19.91,19.91,0,0,1,1-3.47c.11-.29.15-.38.27-.65s.26-.54.4-.81.25-.46.39-.68a1.36,1.36,0,0,1,.43-.4.61.61,0,0,1,.49,0c-.13,0,.24.16.13.08l.11.1.11.12c0-.06,0-.05,0,0s0,.09.07.13c-.07-.15,0,.13,0,.14a1.73,1.73,0,0,1,0,.35,3.41,3.41,0,0,1-.26.91A9,9,0,0,0,77.75,87,4.24,4.24,0,0,0,78,89.2c.27.75.67,1.46,1,2.19a9.44,9.44,0,0,1,.67,2.11,9.25,9.25,0,0,1-.21,4.34.78.78,0,1,0,1.5.41,10.78,10.78,0,0,0,.31-4.59,10.18,10.18,0,0,0-.51-2.06,22.69,22.69,0,0,0-1-2.13,6.5,6.5,0,0,1-.36-.86,3.18,3.18,0,0,1-.18-.92,4.7,4.7,0,0,1,.57-1.82,3.89,3.89,0,0,0,.39-2.46,2.35,2.35,0,0,0-1.29-1.56,2.11,2.11,0,0,0-2.19.18,4.3,4.3,0,0,0-1.2,1.59,18.58,18.58,0,0,0-1.39,3.61,30.47,30.47,0,0,0-.93,7.84,65.28,65.28,0,0,0,.66,8.61.82.82,0,0,0,.78.78c.38,0,.84-.36.78-.78Z"/><path d="M88.93,95.56a9.48,9.48,0,0,1-.18,2.87,3.14,3.14,0,0,1-.49,1,.36.36,0,0,1-.07.1c.06-.08,0,0,0,0s-.13.14-.2.2a1.27,1.27,0,0,1-.41.32l-.26.13-.15.06c-.21.07-.42.13-.64.18a9.1,9.1,0,0,0-1.22.39,3.25,3.25,0,0,0-1.8,2,6.85,6.85,0,0,0-.28,1.27c0,.23-.06.45-.1.68s0,.21,0,.31l0,.14,0-.06a.54.54,0,0,1,.53-.16.78.78,0,0,0-.41,1.51,1.18,1.18,0,0,0,1.39-1c.1-.43.12-.87.2-1.3q0-.32.12-.63l.09-.3a.78.78,0,0,1,0-.14c0-.13,0,0,0-.06s.09-.18.14-.27l.08-.12c.07-.11-.06.07,0,0l.19-.19a1.19,1.19,0,0,1,.23-.16l.14-.07s.13-.07,0,0a1.82,1.82,0,0,1,.3-.11c.22-.08.45-.13.68-.19a7,7,0,0,0,1.39-.49,4.24,4.24,0,0,0,1.88-2.3,9.47,9.47,0,0,0,.37-3.67.78.78,0,0,0-1.56,0Z"/><path class="cls-3" d="M70.14,115.67c0-1,.09-2,.14-3,0,0,0-.06,0-.09a1.8,1.8,0,0,1-.16-1.77,16.65,16.65,0,0,1,1.29-2.61c.36-.79.69-1.59,1-2.39a2.14,2.14,0,0,1-.16-2.59,3.34,3.34,0,0,1,1.93-1.42,45.11,45.11,0,0,0,14.47,2.27,1.72,1.72,0,0,1-.1.6.56.56,0,0,1,0,.12,2.58,2.58,0,0,1,.09.7q-.1,4-.19,7.92c0,.08,0,.15,0,.22s0,.25,0,.37h0v.06a6.73,6.73,0,0,1-.13,2l-.14,5.78c-.06,2.47.19,5.25-.74,7.61a7.48,7.48,0,0,1-2.45,3.2,9.07,9.07,0,0,1-1.67,2.25,5.62,5.62,0,0,1-6.61.94,6.49,6.49,0,0,1-2.42-2.62A10.34,10.34,0,0,1,71.77,129a8.2,8.2,0,0,1-.51-4.08c0-.19,0-.39,0-.58a5,5,0,0,1-.2-.78,2.11,2.11,0,0,1-.88-1.79c0-.56,0-1.11,0-1.66a2.69,2.69,0,0,1-.27-1A13.65,13.65,0,0,1,70.14,115.67Z"/><path d="M72,106.35a20,20,0,0,1,.39-2c.06-.23.13-.46.21-.68a2.77,2.77,0,0,1,.1-.26c-.08.19,0,0,0,0l.09-.16a1.18,1.18,0,0,1,.11-.19s0-.1.07-.1-.13.14,0,0l.12-.12c.12-.12,0,0,0,0a.41.41,0,0,1,.11-.07l.09,0c.09-.06-.09,0-.09,0a1.45,1.45,0,0,1,.19-.06s.15,0,0,0l.27,0a1.91,1.91,0,0,1,.46.13,42.14,42.14,0,0,0,9.25,1.78c1.73.15,3.47.22,5.2.23l-.72-.55c0,.13,0,.27.07.4,0,0,0-.14,0,0s0,.14,0,.22a8,8,0,0,1,0,.85c0,.59-.08,1.19-.15,1.78s-.13,1.08-.17,1.62a11.46,11.46,0,0,0,0,1.55c.13,2.6.37,5.19.44,7.79a32.39,32.39,0,0,1-.53,7.58,19.23,19.23,0,0,1-1.12,3.59,17.07,17.07,0,0,1-.89,1.76c-.14.23-.28.47-.44.69s-.18.27-.27.4l-.24.29A8.64,8.64,0,0,1,81.72,135a7.52,7.52,0,0,1-3.25.82,6.25,6.25,0,0,1-1.62-.2l-.68-.2-.3-.11s-.21-.1-.05,0l-.17-.08a7.57,7.57,0,0,1-1.13-.66l-.14-.1c.13.09,0,0,0,0l-.27-.23a6.33,6.33,0,0,1-.46-.44,5.82,5.82,0,0,1-.4-.45l-.09-.11c-.13-.15.09.13,0,0s-.14-.19-.2-.29a7.73,7.73,0,0,1-.66-1.11c-.09-.17-.18-.35-.26-.54a1.11,1.11,0,0,1-.07-.16c-.09-.19.05.15,0,0s-.09-.23-.13-.34q-.24-.63-.42-1.29a20.11,20.11,0,0,1-.55-2.65.78.78,0,0,1,0-.16c0-.2,0,.17,0,0s0-.21,0-.31,0-.45-.07-.68c0-.44-.08-.89-.1-1.33a76.41,76.41,0,0,1,1-15.62c.11-.76.23-1.53.35-2.29a.77.77,0,0,0-.53-.92.75.75,0,0,0-.92.52A93.43,93.43,0,0,0,69,123.21a32,32,0,0,0,.64,5.6A13.43,13.43,0,0,0,71.85,134a8.22,8.22,0,0,0,4.73,3.14A9,9,0,0,0,84,135.3a13.62,13.62,0,0,0,4.26-6.62,26.66,26.66,0,0,0,1.19-7.94c0-2.69-.16-5.38-.34-8.07a23.77,23.77,0,0,1-.13-3.58c.09-1.16.3-2.32.32-3.49a7.15,7.15,0,0,0-.16-1.73.77.77,0,0,0-.73-.55,53.16,53.16,0,0,1-9.59-.83,35.25,35.25,0,0,1-4.65-1.2,2.29,2.29,0,0,0-2.63.92,4.82,4.82,0,0,0-.6,1.42,18.33,18.33,0,0,0-.47,2.32.78.78,0,0,0,.52.93A.76.76,0,0,0,72,106.35Z"/><rect class="cls-9" x="80.44" y="43.71" width="23.43" height="23.43" rx="4.68"/><path class="cls-9" d="M99.19,67.53H85.12a5.07,5.07,0,0,1-5.07-5.06V48.39a5.07,5.07,0,0,1,5.07-5.06H99.19a5.07,5.07,0,0,1,5.07,5.06V62.47A5.07,5.07,0,0,1,99.19,67.53ZM85.12,44.1a4.3,4.3,0,0,0-4.3,4.29V62.47a4.3,4.3,0,0,0,4.3,4.29H99.19a4.3,4.3,0,0,0,4.3-4.29V48.39a4.3,4.3,0,0,0-4.3-4.29Z"/><path class="cls-9" d="M90.12,33.89,75.55,47.45a2.4,2.4,0,0,0,1.63,4.16h29.73a2.49,2.49,0,0,0,1.69-4.31L94.19,33.89A3,3,0,0,0,90.12,33.89Z"/><path class="cls-9" d="M106.91,52.15H77.18a2.95,2.95,0,0,1-2-5.1L89.75,33.49h0a3.55,3.55,0,0,1,4.81,0L109,46.9a3,3,0,0,1-2.06,5.25ZM90.49,34.28,75.92,47.84a1.86,1.86,0,0,0,1.26,3.23h29.73a2,2,0,0,0,1.33-3.38L93.82,34.28a2.45,2.45,0,0,0-3.33,0Z"/><rect class="cls-2" x="87.22" y="51.1" width="10.19" height="10.19"/><rect class="cls-9" x="91.3" y="48.81" width="2.04" height="15.28"/><rect class="cls-9" x="83.91" y="54.92" width="17.32" height="2.04"/><rect class="cls-6" x="88.78" y="65.15" width="27.24" height="12.74"/><path class="cls-2" d="M116.28,78.15H88.52V64.88h27.76ZM89,77.63h26.71V65.41H89Z"/><path class="cls-2" d="M99.8,68.51h1.14l1.46,2.39,1.4-2.39h1.14l-1.57,2.71h1.2v.94h-1.63v.31h1.63v.89h-1.63v1.08h-1.11V73.36H100.2v-.89h1.63v-.34H100.2v-.91h1.17Z"/><rect class="cls-6" x="91.1" y="67.96" width="27.24" height="12.74"/><path class="cls-2" d="M118.6,81H90.84V67.7H118.6Zm-27.23-.53h26.71V68.22H91.37Z"/><path class="cls-2" d="M102.12,71.32h1.15l1.45,2.4,1.4-2.4h1.14L105.69,74h1.2v1h-1.63v.31h1.63v.89h-1.63v1.08h-1.11V76.18h-1.63v-.89h1.63V75h-1.63V74h1.17Z"/><circle class="cls-6" cx="89.97" cy="74.41" r="6.28"/><path class="cls-2" d="M90,81a6.55,6.55,0,1,1,6.55-6.54A6.55,6.55,0,0,1,90,81Zm0-12.56a6,6,0,1,0,6,6A6,6,0,0,0,90,68.39Z"/><path class="cls-2" d="M87.37,71.65h1.15L90,74l1.4-2.39h1.14l-1.57,2.71h1.2v.94H90.51v.31h1.63v.89H90.51v1.08H89.4V76.5H87.77v-.89H89.4v-.34H87.77v-.91h1.17Z"/><circle class="cls-6" cx="91.9" cy="76.29" r="6.28"/><path class="cls-2" d="M91.9,82.83a6.55,6.55,0,1,1,6.55-6.54A6.55,6.55,0,0,1,91.9,82.83Zm0-12.56a6,6,0,1,0,6,6A6,6,0,0,0,91.9,70.27Z"/><path class="cls-2" d="M89.3,73.53h1.15l1.45,2.39,1.4-2.39h1.14l-1.57,2.71h1.2v.94H92.45v.32h1.62v.88H92.45v1.09H91.33V78.38H89.7V77.5h1.63v-.35H89.7v-.91h1.18Z"/><circle class="cls-6" cx="94.17" cy="78.03" r="6.28"/><path class="cls-2" d="M94.17,84.58A6.55,6.55,0,1,1,100.72,78,6.55,6.55,0,0,1,94.17,84.58Zm0-12.57a6,6,0,1,0,6,6A6,6,0,0,0,94.17,72Z"/><path class="cls-2" d="M91.57,75.27h1.15l1.45,2.4,1.4-2.4h1.14L95.14,78h1.2v1H94.71v.31h1.63v.89H94.71v1.08H93.6V80.13H92v-.89H93.6V78.9H92V78h1.17Z"/></g><path class="cls-11" d="M107.6,105.64l1,31.4L80.77,122.1l-.06,0a61.84,61.84,0,1,1,26.89-16.48Z"/></g></g></g></g></svg>