<svg xmlns="http://www.w3.org/2000/svg" viewBox="0 0 400.72 460.51"><defs><style>.cls-1,.cls-9{fill:#fff;}.cls-2{fill:#fcec74;}.cls-3{fill:#269ac2;}.cls-4{fill:none;stroke-width:5.87px;}.cls-4,.cls-5,.cls-8{stroke:#000;}.cls-4,.cls-7,.cls-8,.cls-9{stroke-linecap:round;}.cls-4,.cls-8,.cls-9{stroke-linejoin:round;}.cls-5,.cls-7{fill:#e5b7ad;stroke-miterlimit:10;}.cls-5{stroke-width:3.67px;}.cls-6{fill:#f35528;}.cls-7{stroke:#fff;stroke-width:12.42px;}.cls-8{fill:#e2deda;}.cls-8,.cls-9{stroke-width:6.57px;}.cls-9{stroke:#c0b2b0;}</style></defs><g id="Layer_2" data-name="Layer 2"><g id="レイヤー_1" data-name="レイヤー 1"><g id="contents02"><g id="_1" data-name="1"><path class="cls-1" d="M306.94,115a25.16,25.16,0,0,0-3.1-10.22,35,35,0,0,0-5-6.38c-2.28-2.37-4.58-4.67-6.66-7.2a66.83,66.83,0,0,1-7-12,67.76,67.76,0,0,1-3.81-13.91,66.49,66.49,0,0,1-.36-8.7l-.4-3c-.38-.91-.77-1.81-1.15-2.72a11.3,11.3,0,0,0-5.43-4.65,10.81,10.81,0,0,0-5.89-.78,10.58,10.58,0,0,0-6.53,3.13,55.87,55.87,0,0,0-8,11.89c-.25.2-.49.42-.73.64-.53.49-1,1-1.56,1.49a11.64,11.64,0,0,0-8.72,1.23A67.31,67.31,0,0,0,227.2,77a48.58,48.58,0,0,0-13.77,10.43,17.3,17.3,0,0,0-4.07.5A26.64,26.64,0,0,0,204.31,90q-2.06,1-4,2.14A19.11,19.11,0,0,0,194.4,91a18.28,18.28,0,0,0-4.49.55,16.19,16.19,0,0,0-4.09,1.66,15.44,15.44,0,0,0-1.77,1.29A16.23,16.23,0,0,0,182.28,96a16.91,16.91,0,0,0-2.81,3.73q-.28.56-.54,1.11a15.53,15.53,0,0,0-6.14,12,8.18,8.18,0,0,0,0,1.64,22.08,22.08,0,0,0,.76,4.43,39.56,39.56,0,0,0,2.53,5.74l1.77,2.3c.77.59,1.54,1.18,2.3,1.78a11.31,11.31,0,0,0,7.25,1.35,11.6,11.6,0,0,0,2.34-.56c.13.56.27,1.12.41,1.68a65,65,0,0,0,.83,16,50.58,50.58,0,0,0,3.1,10.65c.83,2,1.71,4,2.68,5.94a1.44,1.44,0,0,1,1.2.78,5.21,5.21,0,0,0,.93,1.31,2.74,2.74,0,0,0,.89.6,1.4,1.4,0,0,1,.54,2.25,33.68,33.68,0,0,0,2.35,2.74l0,0a6,6,0,0,1,4.49,4.73,61.94,61.94,0,0,1-.11,9.83,9.51,9.51,0,0,0-4.95,4.6,71.21,71.21,0,0,0-6.67,20.42,15,15,0,0,0,.48,7c-.89,5-1.11,10.19.51,15a31,31,0,0,0,4,8c1.83,2.59,3.86,5,5.83,7.52q2.68,3.35,5.35,6.7c.32,1.35.65,2.7,1,4a11.6,11.6,0,0,0,2.92,5,11,11,0,0,0,5.7,3c1.37,1.7,2.75,3.41,4.14,5.11a19.54,19.54,0,0,0,8.94,6.26,16.4,16.4,0,0,0,13-1.5c3.24-1.81,5.53-4.63,7.65-7.59,1.39-1.94,2.6-4,3.87-6q8.19-12.93,16.39-25.87l4-6.38c2.21-3.49,1.89-8,0-11.48l-.33-.62a11.62,11.62,0,0,0,2.81-10.87q-3.09-12.72-6.75-25.28a141,141,0,0,0-4.4-13.74,5.32,5.32,0,0,1,1.15-1.35,110.66,110.66,0,0,0,9-8.44,5.52,5.52,0,0,1,.3-1.6,16.33,16.33,0,0,1,6.24-8c.49-.84,1-1.66,1.52-2.5.22-.83.42-1.67.6-2.51a1.67,1.67,0,0,1-.09-.55v-1a1.38,1.38,0,0,1,2.41-.8,1.31,1.31,0,0,1,.29.56,37.49,37.49,0,0,0,5.22-4.2,30.23,30.23,0,0,0,6.58-9,31,31,0,0,0,2.56-7.17A25.93,25.93,0,0,0,306.94,115Z"/><path class="cls-2" d="M392,311.11c-6.85-16.22-17-30.95-26.45-45.76a104.22,104.22,0,0,0-24.19-41.61,99.36,99.36,0,0,0-9.41-8.48,65.41,65.41,0,0,1-8.88-8.07c-.18-.26-.35-.52-.52-.78s-.36-.63-.55-.93a11.8,11.8,0,0,0-4.08-4.08,22.71,22.71,0,0,0-3-1.25,40.13,40.13,0,0,0-4.46-1.33,57.74,57.74,0,0,0-11.93-1.52,58.75,58.75,0,0,0-12,1.14,44.48,44.48,0,0,0-8.9,2.66,54.18,54.18,0,0,0-10.29,5.32q-.06.33-.15.66a15.77,15.77,0,0,1-1.72,3.7c-.63,1.09-1.34,2.13-2.07,3.16-3.63,5.1-7.73,9.86-11.7,14.69-1.87,2.27-3.74,4.55-5.53,6.88-.86,1.12-1.76,2.25-2.51,3.46a6.51,6.51,0,0,1-.93,2.77,6.1,6.1,0,0,1-8.39,1.69,6.77,6.77,0,0,1-2.79-6.34q-6.58-9.24-12.47-18.94-2.29-3.77-4.46-7.6a35.52,35.52,0,0,0-5.72-7.92,21,21,0,0,0-11.14-5.8c-3.74-.59-7.52-.91-11.3-1.17q-9.84-.66-19.71-.35a4.08,4.08,0,0,0-.61,0,16.52,16.52,0,0,0-3.29.47A11.64,11.64,0,0,0,156,201l-.16.39a15.49,15.49,0,0,0-6.34,5.43,33.52,33.52,0,0,0-7,3.91,46.46,46.46,0,0,0-7.75,7l-.5.61a17.93,17.93,0,0,0-6.61,4,29.09,29.09,0,0,0-5.23,7.18,74.32,74.32,0,0,0-6.11,14c-.9,2.78-1.64,5.61-2.26,8.47a143.05,143.05,0,0,0-30,72.43,122.51,122.51,0,0,0,0,29,16.62,16.62,0,0,0,1,4.14c-.05.13-.11.24-.17.37-6.11,14.69.7,31.44,13.06,40.3a9.53,9.53,0,0,0,9.4,1A66.06,66.06,0,0,0,114,402l.45,1c3.28,6.85,11.81,6.92,17.07,3a71.83,71.83,0,0,0,18.72-.73,9.21,9.21,0,0,0,5.91-3.62c19.28,3.53,39.79,1.06,59.17.22q39.23-1.69,78.45-3.42l36.74-.18c9.07,0,18.24.28,27.3-.24,9.84-.57,19.3-3.39,25.36-11.63a23.31,23.31,0,0,0,4.34-12.69,51,51,0,0,0,8.64-17.07C400.6,341.38,398,325.51,392,311.11ZM301.7,345.62q-.07.36-.12.72l-4,.15a11.9,11.9,0,0,0-.87-.87Zm-101.19,0q-9.44.48-18.86,1.32l-8.47-1.34Z"/><path class="cls-3" d="M323.21,88.81A80.48,80.48,0,0,0,320.64,81a245.79,245.79,0,0,0-18.31-39.17C296.47,32,289.6,22.5,280.86,15s-19.51-12.93-31-14c-15.31-1.42-30.4,5-43,13.77C186.6,28.81,163,47.35,158.34,73c-1.29,7.07,1.3,16.8,4.13,23.21,5.65,12.78,12.88,5.52,22.36.22a24.72,24.72,0,0,1,5.67-2.57c3-.8,6.19-.43,9.3-.26,26.88,1.44,53.94-14,66.38-37.88a233.73,233.73,0,0,0,16,30.45c1.95,3.11,4.15,6.34,7.51,7.82,2.22,1,4.7,1.07,7.06,1.61,9.16,2.11,15.86,11.86,14.54,21.17a22.3,22.3,0,0,0,13-18.22A29.3,29.3,0,0,0,323.21,88.81Z"/><path d="M259.05,41a36.93,36.93,0,0,1-.15,9.56,38.81,38.81,0,0,1-2.73,9.2,44.9,44.9,0,0,1-2.31,4.4c-.43.71-.88,1.4-1.35,2.09-.34.49-1,1.43-1.19,1.64a40.78,40.78,0,0,1-6.8,6.79,38.39,38.39,0,0,1-4.75,3.06,28.89,28.89,0,0,1-4.93,2.15,3.25,3.25,0,0,0-2.21,3.9,3.19,3.19,0,0,0,3.9,2.21c14.25-4.84,25.2-17.65,28.22-32.36A39.77,39.77,0,0,0,265.39,41a3.26,3.26,0,0,0-3.17-3.17c-1.56,0-3.36,1.46-3.17,3.17Z"/><path d="M225.42,57.6a43.29,43.29,0,0,1-26.88,26.65,3.25,3.25,0,0,0-2.21,3.9,3.19,3.19,0,0,0,3.9,2.21,49.78,49.78,0,0,0,31.3-31.08,3.17,3.17,0,1,0-6.11-1.68Z"/><path d="M261.07,3.05c-23.35-9.22-47.61,4.11-65.84,18a138.83,138.83,0,0,0-22.14,20.65c-6.58,7.81-12.25,16.57-15.33,26.38a46.74,46.74,0,0,0,2.21,34,3.2,3.2,0,0,0,4.34,1.13,3.24,3.24,0,0,0,1.14-4.34,39.16,39.16,0,0,1-2.32-26.45c2.27-8.86,7.13-17.13,12.86-24.26A130.17,130.17,0,0,1,196.53,28c7.95-6.33,17.21-12.68,26.85-16.87,11.3-4.91,24.34-6.61,36-2,1.6.63,3.49-.69,3.9-2.21a3.24,3.24,0,0,0-2.21-3.9Z"/><path d="M286.29,23.92c12.42,10,21.49,23.62,26.87,38.51a112.21,112.21,0,0,1,5.37,21.12c.15,1,.18,1.15.27,1.89.11.91.21,1.83.29,2.75.15,1.71.25,3.44.27,5.16s0,3.54-.14,5.3a33.06,33.06,0,0,1-.57,4.5,39.42,39.42,0,0,1-1.41,5.46,25,25,0,0,1-2.06,4.66,27.26,27.26,0,0,1-7.32,8.52c-1.35,1.06-1.12,3.37,0,4.48a3.24,3.24,0,0,0,4.48,0c12.1-9.59,14.54-25.64,12.88-40.15a108.36,108.36,0,0,0-15.56-45.26,87.43,87.43,0,0,0-18.89-21.42,3.25,3.25,0,0,0-4.48,0c-1.11,1.11-1.34,3.4,0,4.48Z"/><path class="cls-4" d="M184.19,93.93c-6.73,1.76-12,9.64-12.41,19.28-.44,11,5.69,20.26,13.76,20.82,7.12,27.2,26.58,47,50.23,48,24.4,1,46-18.42,54.75-46.32a11.78,11.78,0,0,0,3.14.58c8.23.33,15.26-8.47,15.71-19.65s-5.86-20.5-14.09-20.83"/><path d="M271.57,66.19c-.41,13.15,10.06,22.69,19.29,30.47a3.25,3.25,0,0,0,4.49,0,3.2,3.2,0,0,0,0-4.48c-4.32-3.64-8.67-7.35-12.17-11.79-3.23-4.1-5.43-9-5.27-14.2a3.17,3.17,0,0,0-6.34,0Z"/><path d="M259.75,125.44a3.53,3.53,0,1,0-3.52-3.53,3.58,3.58,0,0,0,3.52,3.53Z"/><path d="M221.68,124.66a3.52,3.52,0,1,0-3.52-3.52,3.58,3.58,0,0,0,3.52,3.52Z"/><path d="M235,143a8.58,8.58,0,0,0,11.89.24,2.11,2.11,0,1,0-3-3l-.21.2c-.25.23,0,0,.11-.07-.17.09-.32.23-.49.33l-.46.25c-.3.16,0,0,.13,0-.09,0-.18.07-.27.1a8.58,8.58,0,0,1-1.08.28c-.41.08.4,0,.15,0l-.29,0a5.86,5.86,0,0,1-.59,0c-.18,0-.36,0-.53,0s.52.09.15,0l-.29-.06c-.36-.07-.71-.25-1.06-.32.46.1.3.14.13,0l-.27-.13c-.17-.09-.33-.2-.49-.3a1.21,1.21,0,0,0-.2-.14c.4.18.27.22.11.08L238,140a2.11,2.11,0,0,0-3,3Z"/><path d="M223.5,153.7c3.63,5.67,9.31,9.76,16.2,9.92,6.49.16,12.59-3.15,16.92-7.82,1.85-2-1.13-5-3-3-3.53,3.81-8.32,6.62-13.63,6.59-5.49,0-10-3.34-12.85-7.84-1.46-2.28-5.12-.16-3.65,2.14Z"/><path d="M204.63,173.41c0,.1-.06.53,0,.19,0,.23-.06.45-.1.68-.07.46-.15.91-.24,1.37-.18,1-.41,1.91-.66,2.86s-.52,1.77-.83,2.63-.6,1.61-.9,2.28a32.75,32.75,0,0,1-6,9.06,3.17,3.17,0,0,0,4.49,4.48A40.78,40.78,0,0,0,211,173.41c.2-1.71-1.6-3.18-3.17-3.18a3.25,3.25,0,0,0-3.17,3.18Z"/><path d="M266.73,170.12c-.25,13,5.46,27.28,18.56,31.94a3.21,3.21,0,0,0,3.9-2.22,3.24,3.24,0,0,0-2.22-3.9,18.06,18.06,0,0,1-6.3-4,19.44,19.44,0,0,1-2.33-2.72,27.69,27.69,0,0,1-2.16-3.68,34.28,34.28,0,0,1-3.11-15.45c.08-4.08-6.26-4.08-6.34,0Z"/><path d="M113.06,396.09c-8.66-1.57-20-3.58-24.79-11.92-2.94-5.06-3-11.76-3.39-17.44-.43-6-.57-12-.43-18a197.89,197.89,0,0,1,14.66-69.09A221.49,221.49,0,0,1,115.05,248q4.62-7.68,9.81-15c3.51-5,7.11-9.81,12-13.59,5.06-4,10.73-7.07,15.58-11.33a37.91,37.91,0,0,0,6.36-7.14c1.31-1.95,2.36-4.63,5-5,3.15-.4,6.6.32,9.73.7,3.46.42,6.93.82,10.39,1.23s6.86.83,10.3,1.2c2.68.3,5.82.52,8.08,2.17,2.1,1.53,3.44,4.14,4.81,6.28,1.84,2.89,3.65,5.81,5.52,8.68,3,4.59,6.15,9.09,9.14,13.68,2.18,3.36,4.35,6.73,6.68,10,2.15,3,4.43,6.43,7.54,8.55,3.82,2.59,8.14.31,10.73-2.83,2.9-3.53,4.67-7.75,7.35-11.41,3.86-5.27,7.34-10.79,10.89-16.27,1.77-2.72,3.5-5.46,5.27-8.18,1.4-2.14,2.59-4.29,4.89-5.55a18,18,0,0,1,6.24-1.7c2.83-.38,5.69-.57,8.53-.87,3.34-.36,6.67-.77,10-1.14s6.65-1,10-1.18a9.89,9.89,0,0,1,4.16.33c1.1.48,1.83,1.77,2.46,2.73,1.69,2.56,3.36,5.08,5.22,7.52,3.67,4.82,7.64,9.39,11.69,13.88,7.95,8.81,16.18,17.45,22.35,27.65a373.25,373.25,0,0,1,18.19,34.29c5.59,11.86,10.68,24,15.18,36.3,2.19,6,4.22,12.16,5,18.51a50.46,50.46,0,0,1-.35,14.17c-3,17.76-13.71,35.86-30.16,44.12a36.61,36.61,0,0,1-11.82,3.6,3.27,3.27,0,0,0-3.17,3.17c0,1.56,1.46,3.37,3.17,3.17,20.36-2.34,35.77-18.68,43.45-36.8,3.82-9,6.1-19,5.46-28.83-.9-13.65-6.72-26.69-11.85-39.18S377.94,279,371.64,267c-6.08-11.6-12.44-22.94-20.83-33.06-7.79-9.4-16.65-17.93-24-27.69-1.9-2.51-3.55-5.16-5.33-7.75-2.06-3-4.38-5-8.08-5.42-3.44-.4-6.86.17-10.26.66s-6.93.82-10.39,1.21c-5.71.65-11.88.61-17.4,2.32a15.93,15.93,0,0,0-7,4.18c-2.24,2.41-3.89,5.49-5.66,8.24s-3.6,5.63-5.45,8.42-3.48,5.48-5.34,8.15c-1.7,2.46-3.58,4.82-5.1,7.39-1.13,1.92-2.19,3.89-3.4,5.76a17.36,17.36,0,0,1-1.66,2.26,11.11,11.11,0,0,1-1.09,1.08c.3-.25-.58.37-.74.45-.45.23.43-.17,0,0-.17.07-.78.15-.09,0-.49.08,0-.15,0,0,0,0-.62-.16-.56-.17.47-.07.53.32,0-.09s.09.08.14.12l-.53-.46c-2.93-2.68-4.9-5.82-7.16-9.16-5.95-8.79-11.86-17.64-17.52-26.62a73.51,73.51,0,0,0-5.68-8.39,14.72,14.72,0,0,0-7.81-4.75,73.77,73.77,0,0,0-10-1.4L180.1,191.1c-3.49-.41-7-.87-10.48-1.24s-7-.68-10.1.81c-2.94,1.39-4.5,4.46-6.25,7a33.14,33.14,0,0,1-6.41,6.76c-5.15,4.29-11.16,7.42-16.22,11.84-4.77,4.16-8.42,9.41-12,14.57a237.31,237.31,0,0,0-18.83,31.87A211.78,211.78,0,0,0,79.05,334,187.63,187.63,0,0,0,78.9,371c.59,6.17,1.17,12.76,4.94,17.94,3.23,4.44,7.78,7.32,12.81,9.35a74,74,0,0,0,14.73,3.87,3.27,3.27,0,0,0,3.9-2.21,3.19,3.19,0,0,0-2.22-3.9Z"/><path class="cls-5" d="M295.85,127.56a7.43,7.43,0,1,0,7.42,7.43A7.43,7.43,0,0,0,295.85,127.56Z"/><circle class="cls-5" cx="181.28" cy="133.29" r="7.42" transform="translate(-5.97 258.05) rotate(-70)"/><path class="cls-6" d="M95.7,106.3a57.29,57.29,0,1,1,17.13-27.82l14.07,30.78Z"/><line class="cls-7" x1="43.26" y1="62.3" x2="52.82" y2="75.38"/><line class="cls-7" x1="52.82" y1="74.87" x2="78.98" y2="51.74"/><rect class="cls-8" x="119.41" y="438.52" width="232.98" height="18.71" rx="7.52"/><rect class="cls-8" x="118.78" y="290.99" width="234.26" height="154.67" rx="16.7"/><circle class="cls-9" cx="238.53" cy="374.32" r="19.56" transform="translate(-180.15 521.71) rotate(-76.89)"/></g></g></g></g></svg>