<svg xmlns="http://www.w3.org/2000/svg" viewBox="0 0 362.49 350.7"><defs><style>.cls-1{fill:#fff;}.cls-2{fill:#269ac2;}.cls-3{fill:#fcec74;}</style></defs><g id="Layer_2" data-name="Layer 2"><g id="レイヤー_1" data-name="レイヤー 1"><g id="contents02"><g id="_6" data-name="6"><path class="cls-1" d="M48.33,349.12H357.86a18.21,18.21,0,0,0-2.47-3.94c0-3.12,0-6.25-.13-9.37-.55-13.87-2.1-28.28-5.92-41.66a63.94,63.94,0,0,0-11.08-22.47c-.41-1.45-.85-2.9-1.34-4.33s-1-2.86-1.6-4.27c-4.74-20.06-14.31-39.25-35.23-44.2a58.92,58.92,0,0,0-9.87-1.39A117.68,117.68,0,0,0,278,214.3c-3.68-.74-7.46-1.42-11.25-1.85-1-.47-1.92-1-2.85-1.51a48.81,48.81,0,0,1-6-4.16,48.7,48.7,0,0,0-7.45-3.87,6,6,0,0,1-3.42-6.64q-1-.15-2-.27a13.25,13.25,0,0,0-4.76.25c-.51-1.33-1-2.65-1.61-3.94l-3.52-10.08q2.48-15.79,5.73-31.45c1-.29,2-.62,3-1,.6-.15,1.18-.32,1.76-.51a4,4,0,0,1,1-2.46,13,13,0,0,1,2.33-2.15,13.08,13.08,0,0,1,4.23-4,5.75,5.75,0,0,1,4.39-.18c.2-.13.4-.26.59-.4,6.61-5,11.75-12.64,10.43-21.14a38.32,38.32,0,0,0-2.36-6,5.47,5.47,0,0,1-.55-2,28.61,28.61,0,0,0-2.93-4.33,24.43,24.43,0,0,0,.52-9.09,27.68,27.68,0,0,0-.8-3.85,61.74,61.74,0,0,0,2.64-8.17c.68-.69,1.32-1.4,1.93-2.14.73-5,1.33-10,1.69-15.1-.27-3.66-.65-7.32-1.1-11a35.69,35.69,0,0,0-10.5-13.83,5.56,5.56,0,0,1-2-3.09c-.52-.43-1-.86-1.51-1.29C249,34.81,245,30.1,244.18,23.86a14.17,14.17,0,0,0-2.39-1.44,34.49,34.49,0,0,0-4.21-1.68A25,25,0,0,0,227.4,14.2a39.8,39.8,0,0,0-8.65-2.2,31.42,31.42,0,0,0-3.08-1.95c-.2-.35-.42-.67-.63-1-7.15-1.33-14.65.25-21.6,2a208.16,208.16,0,0,0-24.55,8.13c-6.49,2.58-12.93,5.12-19.45,7.31a65.75,65.75,0,0,1-10.28,15.35,34.12,34.12,0,0,1-5,9.15c-.09.45-.17.9-.27,1.35.07.48.14,1,.24,1.41a17.87,17.87,0,0,0,0,2.07,19.3,19.3,0,0,0-1.69,2.24l-.26.65a5.66,5.66,0,0,1-.32.79l-.06.16c-1.43,8.92-1,17.67.22,26.45a22.83,22.83,0,0,0,1.74,2,32.33,32.33,0,0,0,8.49,18.91,16.79,16.79,0,0,0-4.2,5.92c-3.27,7.61-1.45,15,2.39,21.47a16.86,16.86,0,0,1,8.84,7.08l.66.47,0,0c.37.29.75.6,1.12.93a4.23,4.23,0,0,1,1.2,5c.16.47.31.95.46,1.42a9.08,9.08,0,0,0,1.2.72,36.39,36.39,0,0,1,5.45,7,87.22,87.22,0,0,1,5.28,11.55q.63,1.51,1.29,3a9,9,0,0,0-4.15,7.56c0,2.84,0,5.68-.05,8.52.27.76.54,1.52.88,2.26,1.79,3.92-2.18,9.47-6.62,7.46l-.93-.44c-3.83,5.43-9.4,9.25-15.57,12.43,0,.16-.06.33-.08.49l-1.31.2-1.22.58c-12.53-.46-25.16,1.19-36.43,5.61-10.16,4-16.54,11.84-21.71,21.19A115.33,115.33,0,0,0,70,257.71a98.48,98.48,0,0,0-8.54,11.43c0,1.24-.18,2.55-.3,3.95-.55,6-2.33,11.69-3.94,17.44-3.57,12.81-4.92,26.27-5.66,39.51a4.84,4.84,0,0,1-2.49,4.18A103.83,103.83,0,0,1,48.33,349.12Z"/><path class="cls-2" d="M269.7,55.29a66.94,66.94,0,0,0-21.15-33.58A72.06,72.06,0,0,0,207.92,4.86h-.11A14.33,14.33,0,0,0,205,3.39c-6.43-2.46-13.75-1.61-19.92,1.46a60.34,60.34,0,0,0-13.85,5.28,32,32,0,0,0-9.56,7.59c-.28.1-.55.21-.82.33a29.55,29.55,0,0,0-15.1,17.51,5.53,5.53,0,0,0-.17,2.79,45.94,45.94,0,0,0-10.69,17.54,19.18,19.18,0,0,0,.15,11.7,73,73,0,0,0-3.14,8.51l0,.18a166.09,166.09,0,0,1,1.25,20.55c2.34,2.74,6,4,10.42,3.25a25,25,0,0,0,11.32-5,4.54,4.54,0,0,1-.73-3.13c.87-6,3.84-10.6,8.44-14.5a5.09,5.09,0,0,1,6.88,0c.29-.29.59-.58.86-.9a70.68,70.68,0,0,1,5.9-6.09,36.93,36.93,0,0,0,9.57-2.06,33.24,33.24,0,0,0,20.35-1.85,34.45,34.45,0,0,0,4.28,1.87,6.09,6.09,0,0,1,2.7-3,5.7,5.7,0,0,1,5.54-3.73h.6A5.55,5.55,0,0,1,223.93,65a9,9,0,0,1,1.29,1.59,6.28,6.28,0,0,1,3.27.81l.41.21.14-.06.06.17c3.83,2,8,3.54,11.38,6.28a5.58,5.58,0,0,1,1.82,7c.62.23,1.24.44,1.87.61a63.61,63.61,0,0,1,1.41,7.85c.63,5.58,4.33,10.4,10.41,10.4,5.34,0,10.78-4.77,10.4-10.4-.06-1-.1-2-.12-3a10.37,10.37,0,0,0,1.86-5.85q0-5.17,0-10.37A20.76,20.76,0,0,0,269.7,55.29Z"/><path class="cls-3" d="M191.13,265.62c-2.62-.39-6.3,48.7-8.58,83.5h35.6q-1.32-7.94-2.43-15.93c-2.92-21.37-4.34-42.92-2.18-63.43a8.11,8.11,0,0,0-1.25-5.11q.93-5.43,1.9-10.86a22.53,22.53,0,0,0,2.75-7,10.94,10.94,0,0,0-3.12-10.48,20.82,20.82,0,0,0-1.66-3.63,10.46,10.46,0,0,0-2.72-3.13A10.45,10.45,0,0,0,189,227.09a101.13,101.13,0,0,1-6.43,14.71,10,10,0,0,0,.27,10.62C181.49,257.92,184.25,264.6,191.13,265.62Z"/><path d="M198.79,184.63l-1.74,0c-11.44-.46-22.23-5.32-31.21-14-8.27-8-14.48-18.82-18-31.28-8.13-1.81-13.93-11.07-13.49-22.11C134.73,107,140.37,98.5,148,96.5a2.75,2.75,0,1,1,1.39,5.33c-5.26,1.38-9.29,7.92-9.6,15.55-.35,8.78,4.3,16.26,10.36,16.68a2.75,2.75,0,0,1,2.47,2.06c6.62,25.28,24.13,42.15,44.61,43l1.52,0c20.43,0,39.25-16.51,47.15-41.6a2.74,2.74,0,0,1,3.5-1.78,7.83,7.83,0,0,0,2.18.4c6.21.26,11.53-6.84,11.89-15.8s-4.39-16.45-10.59-16.7a2.75,2.75,0,0,1,.22-5.5c9.23.37,16.35,10.43,15.87,22.42-.47,11.77-8.08,21.1-17.09,21.1h-.52c-.33,0-.67,0-1-.08C241.33,167.64,221,184.63,198.79,184.63Z"/><path d="M362.49,346.89a296.3,296.3,0,0,0-5-38,217.87,217.87,0,0,0-10.34-35.38c-4.34-11.14-9.45-22.09-16.23-32-6.22-9.08-14.06-17.53-23.88-22.75-10.27-5.46-21.89-6.41-33.11-8.58-1.56-.3-3.11-.63-4.64-1a2.82,2.82,0,1,0-1.5,5.43c11,2.71,22.38,3.2,33,7.39.71.28-.34-.15.09,0l.43.19,1,.44c.65.31,1.29.63,1.93,1,1.2.63,2.37,1.33,3.51,2.08s2.17,1.46,3.22,2.25l.36.28.05,0,.7.56c.55.45,1.09.91,1.63,1.38a67.71,67.71,0,0,1,5.6,5.51c.91,1,1.79,2,2.65,3.07.38.46.75.93,1.12,1.41s0,0,0,0l.34.45.61.81A114.7,114.7,0,0,1,333,255.93c1.38,2.57,2.67,5.18,3.9,7.82.63,1.36,1.25,2.73,1.84,4.1.27.61.53,1.22.79,1.83-.21-.5,0,0,.06.14l.19.46c.16.38.32.76.47,1.15A216.48,216.48,0,0,1,351.08,306q2,9,3.36,18.23c.11.74.21,1.48.32,2.23,0,.17.05.35.07.52s.1.72,0,.17l.18,1.32q.29,2.24.54,4.47.53,4.66.92,9.36.19,2.31.36,4.62a2.82,2.82,0,0,0,5.64,0Z"/><path d="M50,347.15c.33-6.35.81-12.69,1.52-19,.17-1.55.36-3.09.56-4.63,0-.17,0-.34.07-.51-.08.61,0,.15,0,0l.18-1.28c.11-.77.22-1.54.34-2.31.48-3.13,1-6.26,1.63-9.37a156,156,0,0,1,4.56-18.62c.47-1.44,1-2.87,1.42-4.31s.82-3,1.35-4.46c.26-.74.54-1.47.83-2.19.12-.32.25-.64.38-1,0,0,.33-.76.15-.36s.17-.39.21-.47c.62-1.44,1.27-2.86,1.92-4.28.73-1.61,1.46-3.22,2.14-4.86.11-.28.23-.55.34-.83l.18-.42c-.28.64-.06.15,0,0,.28-.66.56-1.31.85-2q1.62-3.69,3.43-7.29a121.84,121.84,0,0,1,8.24-14q1.14-1.66,2.34-3.27l.54-.72.34-.45c.26-.34-.31.4,0,.07.44-.56.88-1.12,1.33-1.67q2.58-3.19,5.43-6.15A77.44,77.44,0,0,1,96.43,227l.8-.65.36-.29c-.51.39-.17.14-.06,0,.61-.44,1.21-.88,1.84-1.3,1.1-.75,2.25-1.44,3.41-2.09s2.34-1.22,3.55-1.77c.29-.14.6-.27.9-.4.09,0,.53-.23.15-.07s.21-.09.25-.1c.61-.25,1.22-.49,1.84-.72,2.5-.94,5.06-1.72,7.64-2.42,5.14-1.39,10.36-2.43,15.55-3.62,1.28-.29,2.56-.59,3.83-.91a3,3,0,0,0-1.58-5.74c-10.63,2.66-21.54,4.27-31.59,8.84-10.55,4.8-18.72,13.55-25.58,22.69a133.25,133.25,0,0,0-16.06,29.17l-.39.94c.24-.56,0-.11,0,0s-.18.41-.28.62c-.34.77-.7,1.54-1,2.31-.66,1.46-1.33,2.92-2,4.39s-1.38,3.26-2,4.92c-.53,1.46-.89,3-1.36,4.46-.93,3-2,5.94-2.79,9-.84,3.21-1.63,6.43-2.33,9.67a259.31,259.31,0,0,0-5.17,38.45c-.1,1.58-.19,3.16-.27,4.75a3,3,0,0,0,3,3,3,3,0,0,0,3-3Z"/><path d="M159,165.43q1.06,15.42,2.14,30.84a3,3,0,0,0,3,3,3,3,0,0,0,3-3q-1.06-15.42-2.14-30.84a3,3,0,0,0-6,0Z"/><path d="M234.57,163.68v32.56a3,3,0,1,0,6,0V163.68a3,3,0,1,0-6,0Z"/><path d="M256.42,211.85a112.46,112.46,0,0,0-8.71-17.64,3,3,0,0,0-4.07-1.07,147.41,147.41,0,0,1-16.33,8.9l-2.11.94-.42.18c-.12.05-.84.37-.14.07-.39.17-.78.32-1.18.48-1.45.6-2.93,1.16-4.41,1.68a87.24,87.24,0,0,1-8.81,2.61c-1.71.41-3.44.76-5.17,1.05l-1.25.2-.57.08c-.78.11.66-.08-.12,0s-1.82.21-2.74.29a3,3,0,0,0-2.34,1.17,2.84,2.84,0,0,0-.53,2.6q5.79,14.57,11.87,29a3.11,3.11,0,0,0,1.72,1.93,3,3,0,0,0,2.65-.15q12.42-6.28,24.35-13.5c2.26-1.37,4.52-2.78,6.75-4.2a3,3,0,1,0-3-5.14q-11.75,7.47-24,14-3.51,1.86-7.07,3.66l4.38,1.78q-6.07-14.46-11.87-29-1.42,1.89-2.87,3.77c13.06-1.15,25.45-5.76,37-11.91,3.16-1.69,6.26-3.5,9.3-5.4l-4.07-1.07c1.62,2.66,3.14,5.39,4.52,8.17q1,2.07,2,4.17c.15.34.3.67.44,1l.24.56c.15.33-.19-.46,0,.07.31.75.62,1.5.91,2.25a3.2,3.2,0,0,0,1.37,1.78,3.06,3.06,0,0,0,2.29.3c1.4-.45,2.69-2.11,2.08-3.66Z"/><path d="M151.43,208.66a57.27,57.27,0,0,0,6.93-14.48l-5,1.31a49.75,49.75,0,0,0,6.22,4.38c3.31,2.13,6.69,4.15,10.12,6.09,3.79,2.14,7.64,4.19,11.59,6a54,54,0,0,0,10.75,4,13.21,13.21,0,0,0,5.27.29,5.22,5.22,0,0,0,4-3.4l-5.74-1.58q-5.79,14.58-11.86,29l4.37-1.78q-13.17-6.66-25.79-14.38-3.59-2.2-7.14-4.49a3,3,0,0,0-4.07,1.07,3,3,0,0,0,1.07,4.07q12.41,8,25.44,15,3.72,2,7.49,3.89a3,3,0,0,0,2.65.15,3.17,3.17,0,0,0,1.72-1.93q6.07-14.46,11.86-29a3,3,0,0,0-2.07-3.66,3.09,3.09,0,0,0-3.67,2.08c.48-1.15.31-.67.16-.42-.28.47.46-.51.29-.35a1.06,1.06,0,0,0-.15.15c-.34.39.78-.48.32-.24l-.25.13c-.38.23.88-.3.44-.19l-.64.16c-.42.1,1-.09.42-.06l-.37,0a7.3,7.3,0,0,1-.81,0l-.43,0c-.57-.06.9.14.33,0-.35,0-.7-.11-1.05-.19a32.87,32.87,0,0,1-4.44-1.34c-.82-.31-1.64-.64-2.46-1-.21-.08-.67-.3.27.12l-.34-.15-.62-.26-1.44-.65a180.82,180.82,0,0,1-21.29-11.76c-1.38-.88-2.76-1.77-4.11-2.7-.48-.33-.95-.66-1.41-1l-.3-.23c-.38-.28.75.59.34.26l-.42-.35a3,3,0,0,0-5,1.32c-.37,1.18-.78,2.35-1.23,3.5L151,197c-.14.33,0,.15,0-.07a3.3,3.3,0,0,1-.19.43c-.26.6-.54,1.2-.82,1.79a54.3,54.3,0,0,1-3.76,6.54,3,3,0,0,0,1.07,4.07,3,3,0,0,0,4.07-1.06Z"/><path d="M176.39,243.82A148.18,148.18,0,0,0,184,260.26a20.47,20.47,0,0,0,2.34,3.68,7.18,7.18,0,0,0,4.82,2.32,37.83,37.83,0,0,0,4.39,0l4.54-.06,10.49-.13a3.1,3.1,0,0,0,2.87-2.19l8-19.89a3,3,0,0,0-2.08-3.66,3.07,3.07,0,0,0-3.66,2.08l-8,19.89,2.87-2.19-17.49.22h-.92l-.45,0c-.11,0-.6-.05-.16,0s0,0-.15,0l-.43-.12c-.38-.1.4.26.12,0-.44-.35-.15.09,0,.07-.13,0-.54-.55-.63-.65-.27-.29.3.46.1.11-.07-.11-.16-.22-.23-.34-.33-.53-.63-1.08-.93-1.62-1.33-2.45-2.6-4.94-3.79-7.46-.64-1.37-1.27-2.76-1.87-4.15-.08-.19-.16-.38-.25-.57s-.29-.7-.13-.32l-.09-.21-.24-.57c-.31-.76-.61-1.52-.91-2.29a3.28,3.28,0,0,0-1.37-1.78,3.06,3.06,0,0,0-2.29-.3c-1.41.46-2.69,2.11-2.08,3.67Z"/><path d="M187.26,269.38c-1.14,10.12-2,20.27-2.78,30.43S183,320,182.26,330q-.66,8.56-1.46,17.11a3,3,0,0,0,3,3,3.06,3.06,0,0,0,3-3c1-10.1,1.7-20.21,2.43-30.33s1.44-20.18,2.32-30.26q.75-8.6,1.7-17.18a3,3,0,0,0-3-3,3.05,3.05,0,0,0-3,3Z"/><path d="M219.65,346.13l-.24-1.76c0-.17,0-.33-.07-.5,0,0,.07.51,0,.16s-.11-.75-.16-1.13c-.16-1.21-.31-2.43-.47-3.65-.31-2.48-.62-5-.91-7.45q-.89-7.47-1.69-14.95c-1.07-9.93-2.07-19.87-3.15-29.79q-.9-8.37-1.92-16.73a3.21,3.21,0,0,0-.87-2.1,3,3,0,0,0-2.11-.87c-1.45.06-3.18,1.32-3,3,1.22,9.95,2.28,19.92,3.32,29.89s2.08,20.06,3.25,30.07q1,8.71,2.22,17.42a2.94,2.94,0,0,0,1.37,1.78,3.06,3.06,0,0,0,2.29.3,3,3,0,0,0,1.78-1.37,3.48,3.48,0,0,0,.3-2.29Z"/><path d="M208.78,56.87c0,.15.06.31.1.46.12.55-.06-.81,0-.11,0,.3,0,.6,0,.91l0,.53c0,.26-.18.71,0-.19-.07.3-.11.6-.18.9s-.17.59-.27.87-.12.29-.17.43c.28-.83.16-.36.05-.15a12,12,0,0,1-1,1.65c-.18.25.49-.61.09-.12l-.31.35c-.22.24-.46.48-.7.7l-.35.3c-.4.35.58-.4.12-.08-.26.17-.5.34-.77.5s-.53.29-.81.42c-.5.26.65-.23.16-.06l-.43.15a9,9,0,0,1-.89.24c-.11,0-.8.12-.21,0s-.1,0-.21,0a3,3,0,1,0,0,6,12.78,12.78,0,0,0,11.48-15.28,3,3,0,0,0-3.66-2.08,3,3,0,0,0-2.08,3.66Z"/><path d="M193,59.83a21.77,21.77,0,0,1-1.3,2c-.34.48.39-.47,0,0l-.38.46q-.34.41-.72.81c-.51.55-1.06,1.08-1.62,1.58-.3.26-.64.49-.92.76.55-.53.14-.11,0,0l-.48.35c-.63.43-1.27.83-1.93,1.2-.32.17-.64.34-1,.5a4,4,0,0,1-1.07.5c.41-.17.46-.2.16-.08l-.18.08-.56.2c-.37.13-.74.26-1.12.37a22.77,22.77,0,0,1-2.31.54,3,3,0,0,0-2.08,3.66,3.06,3.06,0,0,0,3.66,2.08,25.28,25.28,0,0,0,17-12,3,3,0,1,0-5.14-3Z"/><path d="M139.51,105a74,74,0,0,1-2.12-8.82c-.12-.66-.23-1.33-.33-2,0-.15-.21-1.3-.07-.49-.07-.39-.1-.78-.14-1.17-.16-1.39-.28-2.78-.35-4.17a75.21,75.21,0,0,1,0-8.36c.08-1.4.2-2.8.35-4.19,0-.3.07-.6.1-.9l.06-.45s.09-.78,0-.28,0-.06,0-.17.05-.37.08-.56c0-.38.11-.75.17-1.12a108.48,108.48,0,0,1,4-16.29q1.32-4.05,2.84-8,.78-2,1.59-4l.83-2c.07-.15.13-.3.19-.45.31-.73-.17.4,0,0l.36-.82a60.31,60.31,0,0,1,6.46-11.1c.17-.23.34-.47.52-.7l.21-.28s-.44.58-.14.19.69-.87,1-1.3c.68-.83,1.39-1.64,2.12-2.43a59.58,59.58,0,0,1,4.46-4.39c.77-.69,1.57-1.36,2.38-2l.68-.53c.14-.12.44-.31-.2.14a2.92,2.92,0,0,0,.28-.21c.43-.33.87-.65,1.32-1a58.8,58.8,0,0,1,5.29-3.41,60.75,60.75,0,0,1,5.51-2.82l.78-.35c.21-.09.94-.35.08,0,.51-.18,1-.41,1.51-.61,1-.38,2-.73,3-1.06a59,59,0,0,1,6-1.63c1-.22,2.07-.42,3.11-.59l1.44-.22c-1,.17-.08,0,.15,0l.85-.09a56.81,56.81,0,0,1,12.57,0l.78.1-.27,0,.34,0,1.64.26q1.61.29,3.18.66a55.25,55.25,0,0,1,6.13,1.83l1.51.58.67.27.15.06c-.48-.19.13.06.23.1,1.06.47,2.11,1,3.15,1.48q3.27,1.61,6.44,3.4A104.57,104.57,0,0,1,242,22.68c.14.11.44.35-.16-.12l.29.22.64.51c.46.36.9.72,1.35,1.09.83.69,1.65,1.4,2.45,2.12Q249,28.66,251.25,31t4,4.64l.47.6c.23.29-.38-.51-.16-.21l.26.34c.3.4.6.8.89,1.21.6.83,1.18,1.67,1.74,2.53a58.67,58.67,0,0,1,3,5.15c.45.86.87,1.73,1.28,2.61.2.44.38.89.58,1.33l-.11-.27.12.3.3.74a53.64,53.64,0,0,1,3.07,11.26c0,.24.08.48.11.72l.06.4s-.1-.8-.05-.31.12,1,.17,1.44c.1,1,.17,2,.21,3a55.33,55.33,0,0,1-.07,6c-.07,1-.17,2-.29,3,0,.14-.13,1-.05.45s-.05.31-.07.46c-.08.51-.16,1-.25,1.53a63.17,63.17,0,0,1-1.48,6.4q-.93,3.22-2.15,6.34c-.21.54-.44,1.06-.65,1.6,0-.06.28-.65.08-.17a3.73,3.73,0,0,0-.16.35l-.39.9c-.5,1.12-1,2.22-1.58,3.32-1.1,2.2-2.3,4.34-3.58,6.44a3,3,0,1,0,5.14,3,77.54,77.54,0,0,0,10.57-26.95,58.52,58.52,0,0,0-1.08-25.39A62.86,62.86,0,0,0,259.5,31.46a86,86,0,0,0-20.21-18,113.11,113.11,0,0,0-12.74-7.19A62.15,62.15,0,0,0,213.4,1.51a60.75,60.75,0,0,0-26.7-.05A64.09,64.09,0,0,0,163,12.11a65,65,0,0,0-18.17,20,99.69,99.69,0,0,0-6.44,14.34,137.82,137.82,0,0,0-5.25,16.48A84.26,84.26,0,0,0,131.69,98a74.61,74.61,0,0,0,2.08,8.59,3,3,0,0,0,5.74-1.59Z"/><path d="M218.85,63.55a44.57,44.57,0,0,0,19.22,10.81,3,3,0,1,0,1.58-5.74A39.61,39.61,0,0,1,234.89,67l-.41-.16.31.13a2.48,2.48,0,0,0-.6-.26L233,66.19c-.75-.36-1.5-.75-2.23-1.16a41.53,41.53,0,0,1-4.22-2.72l-.43-.32c-.54-.4.39.31-.09-.07l-1-.83c-.67-.56-1.31-1.15-1.95-1.75a3,3,0,1,0-4.21,4.21Z"/><path d="M237.67,72a84.16,84.16,0,0,0,10.2,27,3,3,0,0,0,5.14-3q-1.78-3-3.3-6.18c-.5-1.05-1-2.11-1.45-3.19l0,.07-.18-.43-.3-.76c-.22-.54-.43-1.08-.64-1.63a82.55,82.55,0,0,1-3.76-13.47,3,3,0,0,0-3.66-2.08A3.05,3.05,0,0,0,237.67,72Z"/><path d="M169.27,69.22q-1.62,1.69-3.41,3.23c-.56.49-1.14,1-1.72,1.43s.27-.21,0,0l-.45.34-1,.72a50.13,50.13,0,0,1-8,4.62,3,3,0,0,0-1.07,4.08,3.06,3.06,0,0,0,4.07,1.06,52.31,52.31,0,0,0,15.84-11.28,3,3,0,0,0-4.21-4.21Z"/><path d="M154.2,82.3q-3.42,8.61-6.85,17.22a3,3,0,0,0,2.08,3.66,3.07,3.07,0,0,0,3.66-2.08L160,83.88a3,3,0,0,0-2.08-3.66,3.07,3.07,0,0,0-3.67,2.08Z"/><path d="M218.71,114c4.35,0,4.36-6.76,0-6.76s-4.35,6.76,0,6.76Z"/><path d="M182.19,114.06c4.35,0,4.36-6.76,0-6.76s-4.35,6.76,0,6.76Z"/><path d="M195.43,131.93a8.24,8.24,0,0,0,11.41,0A2,2,0,0,0,204,129.1c-.13.13-.3.24-.42.38,0,0,.37-.26.14-.11l-.23.16c-.16.11-.33.2-.49.29a1,1,0,0,0-.26.12s.43-.17.17-.08a6.9,6.9,0,0,1-1.1.31l-.22,0c.58-.11.29,0,.14,0l-.57,0-.52,0c-.08,0-.43-.05-.07,0s0,0-.07,0c-.36-.07-.69-.2-1-.3s.47.23.12.06l-.21-.1-.49-.28c-.08,0-.15-.12-.23-.16s.39.33.09.07c-.14-.13-.28-.25-.41-.39a2,2,0,0,0-2.87,2.87Z"/><path d="M187.37,148.8c6,6,16.8,7.71,24.07,3a14.54,14.54,0,0,0,5.08-5.59,2,2,0,0,0-1.68-2.93c-9-.37-18,.44-27,.76a1.95,1.95,0,0,0,0,3.89c9-.32,18-1.13,27-.75l-1.68-2.93a12.52,12.52,0,0,1-.7,1.23l-.44.63c-.06.07-.24.27,0,0l-.29.34a12.14,12.14,0,0,1-.93,1l-.5.44-.28.23c.25-.2.08-.07-.08.05a14.39,14.39,0,0,1-2.35,1.34c-.11.05-.43.17,0,0l-.28.1-.62.23c-.45.15-.9.27-1.36.38s-.88.18-1.32.26.3,0,0,0l-.37,0-.76.06a18.75,18.75,0,0,1-2.9-.05l-.5,0c.25,0-.39-.06-.5-.08-.5-.09-1-.19-1.5-.32a25.6,25.6,0,0,1-2.69-.88c-.29-.1.42.2,0,0l-.42-.19-.67-.33c-.47-.25-.92-.51-1.36-.8-.23-.15-.46-.3-.68-.46l-.24-.17c-.41-.29.31.26-.08-.06s-.82-.7-1.2-1.08a1.94,1.94,0,0,0-2.75,2.75Z"/><path class="cls-1" d="M95.58,211.71c-1-5-3.8-9.85-6.41-14.11s-5.26-8.58-7.9-12.87c-2.52-4.12-4.89-9.12-10.14-10-5.49-.95-10.32,3.89-10.34,9.29,0,3.69,1.85,6.94,3.85,10L49.22,177.4a5.45,5.45,0,0,0-3.9-1.66c-.48-.56-1-1.12-1.47-1.67-2.14-2.41-4.37-4.76-6.66-7s-4.89-4.94-8.32-5.84A8.16,8.16,0,0,0,20,164.57a12.41,12.41,0,0,0-6.65,1.12,5.19,5.19,0,0,0-2.69,3.84,5.56,5.56,0,0,0-5.33,6.33A4.81,4.81,0,0,0,4,179.59a52.7,52.7,0,0,0,8.62,24C14.35,212.47,21,218.88,28,224.38a200.22,200.22,0,0,1,24,21.62,4.73,4.73,0,0,0,.24.95l1.62,4.17a6.25,6.25,0,0,0,.16.93,41.12,41.12,0,0,1,1.13,13.76c-.24,3,2.85,6,5.8,5.8l13.28-.72c4-.22,8.26-.13,12-1.86,6.31-2.94,8.26-9.23,8.16-15.54A177.83,177.83,0,0,0,98.52,232C99.38,225.33,101,216.58,95.58,211.71ZM68.46,186h0c-.23-.13-.11.07.35.58l0,0C66.76,186.84,67.89,184.61,68.46,186Z"/><path d="M45.87,215.23a55.45,55.45,0,0,1,7,2.12l1.63.65c.18.07.41.26-.12-.05a3.34,3.34,0,0,0,.38.16l.94.43c1.09.5,2.17,1,3.23,1.61a53.67,53.67,0,0,1,6.19,3.9l.67.49.33.24c.41.31,0,0-.1-.08.52.38,1,.82,1.52,1.23.92.77,1.82,1.57,2.69,2.4s2,1.93,2.87,2.95c.43.48.86,1,1.28,1.48.22.26.44.52.65.79l.32.4c.37.47-.34-.45,0,.06a3.19,3.19,0,0,0,1.74,1.34,3,3,0,0,0,2.25-.29c1.19-.77,2-2.7,1-4a59,59,0,0,0-25-18.93,55.55,55.55,0,0,0-8.07-2.54,2.92,2.92,0,1,0-1.55,5.63Z"/><path d="M40.19,205.86c-2.2-1.3-4.4-2.6-6.56-4-1.06-.68-2.12-1.37-3.15-2.09L29,198.73l-.77-.57a1.91,1.91,0,0,1-.35-.27l.26.2-.26-.2a44.76,44.76,0,0,1-5.53-5.13q-.57-.63-1.11-1.29l-.33-.42c-.26-.31.3.42.06.09s-.43-.57-.63-.86c-.78-1.09-1.48-2.23-2.22-3.35a19.19,19.19,0,0,0-6-6.22A9.41,9.41,0,0,0,3.28,180a6,6,0,0,0-3,3.46,7.58,7.58,0,0,0,.51,4.89c.88,2.54,1.87,5,3,7.49a104.86,104.86,0,0,0,15.45,24.52,226.62,226.62,0,0,0,19.73,20.44q2.64,2.49,5.3,5c1.77,1.65,3.65,3.24,5.31,5,.2.21.39.43.58.65.46.56-.29-.41.13.18a15.24,15.24,0,0,1,1,1.54c.12.22.24.45.35.68s.34.53.32.7c0-.23-.2-.5-.07-.16.06.16.12.31.17.46s.22.61.32.92a27.59,27.59,0,0,1,.82,3.37c.11.56.19,1.12.28,1.69.06.4-.08-.58,0-.18,0,.17,0,.34.07.5l.09.9c.12,1.16.21,2.33.29,3.49a2.92,2.92,0,1,0,5.84,0c-.34-4.94-.84-9.93-3-14.46a19.2,19.2,0,0,0-4.41-5.76l-5.29-4.93C40.09,234,33.27,227.6,27,220.63q-2.26-2.52-4.4-5.14l-1.06-1.32-.49-.63c-.06-.08-.34-.43-.07-.1s-.15-.18-.2-.25c-.69-.9-1.36-1.81-2-2.72a100.09,100.09,0,0,1-7.33-11.84c-1.11-2.12-2.13-4.29-3.08-6.49l0,.11c-.06-.12-.11-.26-.16-.39s-.22-.52-.32-.79c-.24-.6-.48-1.2-.71-1.8-.43-1.15-.86-2.32-1.24-3.5l-.16-.55c0-.13,0-.57,0-.18l0,.16c0-.29,0-.3,0,0,0,0-.1.33,0,0s-.33.68,0,.17c.19-.35.06.17-.16.18a1.36,1.36,0,0,0,.24-.24c.34-.35-.4.24-.1.1a3,3,0,0,0,.3-.18c.32-.21-.7.21-.12.05a3.9,3.9,0,0,0,.69-.19c-.06,0-.74,0-.25,0H7.2c.67,0-.63-.15,0,0,.26.06.52.11.78.19l.39.13c.5.16-.08,0-.13-.07a3,3,0,0,0,.74.37c.3.17.59.37.88.56s-.05,0-.09-.09.25.2.32.27.42.36.62.56a8.85,8.85,0,0,1,1.32,1.48c-.32-.5-.12-.16,0,0s.23.31.34.46l.52.75c.39.58.76,1.16,1.13,1.73.74,1.14,1.51,2.24,2.33,3.31a40.64,40.64,0,0,0,5.19,5.54A84.64,84.64,0,0,0,34.09,209l3.15,1.87a2.92,2.92,0,1,0,2.95-5Z"/><path d="M9.61,181.81q-.84-3-1.42-6.14c-.1-.54-.2-1.08-.29-1.62,0-.1-.13-.8-.06-.4s0,0,0-.06l0-.44c0-.23,0-.45,0-.67,0-.54-.14.42,0-.09,0-.1.07-.21.1-.31.07-.33-.07.23-.11.25s.48-.7.09-.21,0,0,.11-.08.12-.09.16-.14-.53.34-.3.24.25-.15.37-.22c.51-.29-.5.14-.09,0,.15,0,.29-.08.44-.12l.22,0c.28-.08-.41,0-.39,0a8.53,8.53,0,0,0,1,0c.64,0-.55-.13-.06,0l.47.1.46.14.22.08c.32.09-.53-.28-.25-.1s.55.33.82.47-.24-.18-.24-.19a1.5,1.5,0,0,0,.23.2c.18.15.36.31.53.48l.41.45c.1.1.27.42.4.47s-.33-.45-.15-.19c.06.09.13.17.19.25l.41.6c.48.72.92,1.46,1.36,2.2a30.9,30.9,0,0,0,3.58,4.84A61.58,61.58,0,0,0,27,189.21q5.89,4.35,11.82,8.67a2.93,2.93,0,0,0,4-1,3,3,0,0,0-1.05-4q-5.59-4.09-11.19-8.21l-2.62-1.93-1.16-.87c-.44-.34.33.26-.12-.09l-.7-.56a35.14,35.14,0,0,1-4.37-4.08c-.17-.2-.34-.39-.5-.59s-.49-.6-.26-.31-.24-.35-.3-.42l-.41-.61c-.51-.78-1-1.59-1.47-2.39a17.23,17.23,0,0,0-3.82-4.71c-3.07-2.41-8-3.07-11-.11-2.13,2.12-2,5-1.53,7.77A73.61,73.61,0,0,0,4,183.36a3,3,0,0,0,3.59,2,3,3,0,0,0,2-3.59Z"/><path d="M13.67,168.47a4.13,4.13,0,0,1,.22-.42c0-.07.09-.13.12-.2.1-.23-.21.28-.23.29a1.85,1.85,0,0,0,.37-.37c.16-.2-.29.22-.3.23a1.38,1.38,0,0,0,.25-.17,2.15,2.15,0,0,0,.4-.21s-.61.21-.34.14l.22-.08c.15,0,.3-.09.46-.12l.23-.06c.28-.06.48.06-.21,0,.33,0,.67-.05,1-.05l.51,0c.13,0,.81.08.29,0s.08,0,.19.05l.58.13c.34.09.68.21,1,.33.15.06.3.13.46.18s-.34-.15-.32-.13l.23.1c.35.16.7.32,1,.5.6.31,1.19.66,1.76,1,.3.19.59.39.88.6l.4.29c.51.38-.37-.3,0,0,.56.45,1.11.92,1.64,1.4,4.32,3.89,7.7,8.72,12.09,12.55a25.45,25.45,0,0,0,9.16,5.33,2.92,2.92,0,0,0,1.55-5.63c-.35-.11-.69-.22-1-.35l-.47-.17.32.13-.37-.16a21,21,0,0,1-1.94-1c-.61-.37-1.2-.76-1.77-1.18-.09-.07-.63-.48-.22-.16l-.16-.13-.89-.74A70,70,0,0,1,34.53,174c-4.2-4.71-8.6-9.44-14.69-11.63-3.73-1.35-9.36-1-11.2,3.18a3,3,0,0,0,1,4c1.27.67,3.33.44,4-1.05Z"/><path d="M23.17,163.11l.06.46c0-.31,0-.2-.07.33.13-.53-.37.61-.06.15-.44.65-.29.34-.12.17.35-.33.11.09-.15.09a1.65,1.65,0,0,0,.44-.26c.51-.3-.5.15-.13.06.14,0,.28-.1.42-.13l.34-.07c-.49.06-.58.07-.27.05s.71,0,1.07,0l.21,0c.33,0,.29,0-.14,0,.1,0,.4.08.52.1.37.09.75.19,1.12.32a2.17,2.17,0,0,1,.6.22l-.31-.13.4.17a24.35,24.35,0,0,1,4.17,2.62c.13.1.55.42,0,0l.52.4.91.73,2.44,2,18,14.43,10.34,8.26a3.19,3.19,0,0,0,2.06.86,3,3,0,0,0,2.07-.86c1-1.06,1.27-3.11,0-4.12L47.8,173.05l-9.73-7.78c-3.14-2.51-6.24-5.2-10.11-6.51a10.25,10.25,0,0,0-6.45-.25,6.5,6.5,0,0,0-2.91,1.88,4.9,4.9,0,0,0-1.06,4.27,2.94,2.94,0,0,0,3.59,2,3,3,0,0,0,2-3.59Z"/><path d="M92.1,193.48,80.79,180c-1.7-2-3.31-4.19-5.18-6.06a13.44,13.44,0,0,0-5-3.28,7,7,0,0,0-4.54-.09,8,8,0,0,0-3.95,3,13.19,13.19,0,0,0-2,8.68,16,16,0,0,0,5.15,10.74,3,3,0,0,0,4.13,0,3,3,0,0,0,0-4.12,22.21,22.21,0,0,1-1.58-1.64s.46.62.21.25l-.12-.17c-.11-.15-.21-.3-.31-.46s-.38-.62-.55-.94c-.09-.16-.17-.33-.25-.49l-.08-.18c-.19-.4.13.32.13.32-.13-.36-.28-.71-.39-1.07a13.42,13.42,0,0,1-.48-2c-.11-.69.05.53,0,.14,0-.15,0-.3,0-.45,0-.36,0-.72-.05-1.08s0-.62,0-.93c0-.14,0-.28,0-.42a1.94,1.94,0,0,1,0-.24c0-.5-.11.65,0,.36a17.9,17.9,0,0,1,.42-1.79c.11-.32.55-1.15,0-.17.12-.24.23-.5.37-.74s.27-.42.41-.63-.56.66-.16.21l.29-.31c.31-.31.73-.49,0,0l.61-.37c.43-.25-.77.26-.29.12l.29-.1.35-.07c.4-.1-.89.06-.32.05a4.59,4.59,0,0,1,.76,0s-.92-.17-.32,0a3.9,3.9,0,0,1,.46.12l.42.14c.42.14-.7-.34-.21-.08.32.17.64.34.95.54l.4.27c.53.37-.51-.44,0,0,.33.28.66.57,1,.87,1.74,1.71,3.23,3.72,4.8,5.59L88,197.6a2.92,2.92,0,0,0,4.13,0,3,3,0,0,0,0-4.12Z"/><path d="M87.58,197.38a41,41,0,0,1,2.56,4.4,20,20,0,0,1,1,2.15c-.25-.7,0,0,0,.13s.12.28.17.42q.27.69.51,1.38a41.64,41.64,0,0,1,1.38,4.88q.24,1.11.42,2.22c0,.22.08.45.1.67,0-.7,0-.17,0,0,.06.48.11,1,.15,1.46a52.12,52.12,0,0,1-.33,10.52c0,.4-.1.81-.15,1.21-.1.82.09-.62,0,.19l-.09.61c-.13.93-.27,1.85-.41,2.78-.27,1.77-.55,3.54-.79,5.32a63,63,0,0,0-.75,12.65,2.92,2.92,0,1,0,5.84,0,56.88,56.88,0,0,1,.51-10.91c0-.11.11-.93,0-.19,0-.24.06-.48.1-.72,0-.41.11-.81.17-1.21.15-1,.3-1.94.44-2.91.3-1.94.59-3.9.84-5.85a55.2,55.2,0,0,0,.49-10.82,43.57,43.57,0,0,0-7.18-21.33,2.92,2.92,0,0,0-5,2.94Z"/><path class="cls-1" d="M39.11,345.6l.12.17a5.73,5.73,0,0,0,.88,3.08h73a10,10,0,0,0-.17-5.27,5.67,5.67,0,0,0,.25-3.7l-4.23-14.47a4.76,4.76,0,0,0,1.47-3.85l-7.73-66.42c-.35-2.93-2.39-6-5.8-5.79q-25.57,1.88-51,5.53c-3.1.44-4.8,4.39-4,7.13.07.24.15.47.23.69l-.42,2.43a7.14,7.14,0,0,0,.23,3.48c-.55,14.17-2.27,28.16-3.91,42.27a145.77,145.77,0,0,0-1.21,23.25C37,338,37,342.26,39.11,345.6Z"/><path d="M113.46,347a80.73,80.73,0,0,0-.92-9.93c-.44-3.24-.7-6.48-.9-9.74-.4-6.53-.67-13.07-.92-19.61s-.46-13-.76-19.51-.59-13.07-1.32-19.58c-.82-7.22-1.66-14.45-2.46-21.67a3,3,0,0,0-2.92-2.92c-2.64,0-5.29,0-7.93.11a79.61,79.61,0,0,0-8.44.85q-3.94.57-7.9,1.1l.16,0-.5.07-1,.13-2,.26-3.83.49q-7.68,1-15.38,1.83c-2.73.31-5.42.64-8.12,1.14a9.72,9.72,0,0,0-3.92,1.44,14.55,14.55,0,0,0-2.65,2.43,20.1,20.1,0,0,0-4.21,11.84c-.14,2.31-.24,4.62-.4,6.93q-.27,4-.51,8-.95,15.84-1.39,31.71c-.27,10.52-.36,21-.21,31.57,0,1.31,0,2.62.07,3.92a2.92,2.92,0,1,0,5.83,0q-.3-15.45,0-30.91t1.2-31.15q.43-7.86,1-15.71c.14-2,.15-4,.38-6,0-.38-.09.64,0,.25,0-.08,0-.17,0-.26l.12-.69c.1-.47.2-.93.33-1.39s.23-.79.37-1.19c.08-.22.19-.44.25-.66,0,0-.25.57-.12.28.07-.13.13-.27.19-.41a11.88,11.88,0,0,1,.6-1.11c.12-.2.25-.41.39-.61l.21-.3c.22-.31,0,.06-.12.16.33-.32.6-.72.93-1l.49-.45.29-.25c.4-.36-.34.23,0,0s.73-.38.24-.19a9.21,9.21,0,0,1,.93-.31,16.9,16.9,0,0,1,1.85-.39c.54-.1,1.09-.18,1.63-.29.07,0,.44-.11.46-.1s-.52.06-.16,0,.77-.09,1.15-.13c5.07-.57,10.15-1.15,15.21-1.77q7.83-1,15.63-2l3.78-.54,1.9-.27.39-.06c.58-.09.09,0,0,0a6.31,6.31,0,0,1,1.15-.11c2.59-.23,5.2-.31,7.8-.33h3.84l-2.92-2.92q1.08,9.65,2.19,19.29c.37,3.27.74,6.52,1,9.81s.39,6.57.54,9.86c.62,13,.91,26,1.64,39,.21,3.69.41,7.37.89,11A91.16,91.16,0,0,1,107.62,347a2.92,2.92,0,1,0,5.84,0Z"/><rect x="245.52" y="92.84" width="23.39" height="54.59" rx="6.24"/><rect x="131.3" y="93.52" width="23.39" height="54.59" rx="6.24"/><path d="M138.31,96.63a62.62,62.62,0,0,1,.42-6.56c0-.29.07-.58.1-.87.08-.6-.06.42,0-.18s.17-1.15.26-1.73c.18-1.1.39-2.2.61-3.3A117.79,117.79,0,0,1,143,71.86c.6-1.83,1.23-3.65,1.91-5.45.33-.86.66-1.73,1-2.59.18-.43.37-.85.53-1.29,0,0-.22.54-.09.23,0-.1.08-.2.13-.3.11-.26.22-.52.34-.78A96.5,96.5,0,0,1,152,51.55c1-1.66,2-3.29,3.11-4.88q.78-1.16,1.62-2.28l.84-1.12c.2-.26-.14.18-.14.19s.17-.23.26-.34.31-.4.47-.59a70.85,70.85,0,0,1,7.93-8.41c.67-.6,1.36-1.2,2.06-1.77l1.06-.86a2.35,2.35,0,0,0,.25-.19s-.46.35-.19.15l.67-.51q2.25-1.68,4.64-3.15t5-2.8c.82-.41,1.66-.8,2.5-1.18l.58-.26.4-.17-.23.1,1.38-.55a58.3,58.3,0,0,1,10.85-3.05l1.36-.22c.12,0,.92-.13.44-.07s-.06,0,0,0l.42-.05c1-.11,1.9-.2,2.86-.26a50.18,50.18,0,0,1,5.62,0c1,0,1.92.12,2.87.22l.64.08.32,0-.27,0,1.41.22a50.87,50.87,0,0,1,5.17,1.18q2.47.72,4.87,1.68c.17.07.35.16.53.22,0,0-.58-.25-.27-.11l.36.15,1.14.52c.79.36,1.57.75,2.34,1.16,1.51.79,3,1.66,4.42,2.59.72.48,1.44,1,2.15,1.47l1,.75.47.35h0c-.38-.29.07.06.15.12a63.79,63.79,0,0,1,7.51,7q1.77,1.94,3.38,4l.18.23c.21.26-.18-.23-.17-.23.11.16.23.31.35.47l.8,1.08c.51.71,1,1.42,1.49,2.14a71.59,71.59,0,0,1,5.07,8.88c.44.92.86,1.84,1.26,2.77.1.22.2.43.28.65-.26-.66.05.11.11.27.21.51.41,1,.61,1.53.76,2,1.44,3.91,2.07,5.9a119.26,119.26,0,0,1,3.1,12.21c.41,2,.78,4.1,1.1,6.16.17,1,.33,2.1.47,3.16,0,.23.07.46.1.7s0,.23,0,.35-.07-.56,0-.21l.21,1.64c.52,4.19.93,8.4,1.28,12.61q.26,3.06.48,6.12a3.08,3.08,0,0,0,3,3,3,3,0,0,0,3-3c-.66-8.76-1.43-17.52-2.82-26.21a116,116,0,0,0-6.53-24.79,79,79,0,0,0-11.46-20,66.35,66.35,0,0,0-16-14.52A53.43,53.43,0,0,0,212,13.9a55.47,55.47,0,0,0-24.1,1.47,64.83,64.83,0,0,0-21.14,10.5,75.28,75.28,0,0,0-16.77,17.67,99.06,99.06,0,0,0-10.86,21.28,105.83,105.83,0,0,0-6.37,25.25,65.45,65.45,0,0,0-.42,6.56,3,3,0,1,0,6,0Z"/><path d="M254.59,138.9a40.15,40.15,0,0,1-5.39,5.67c-.48.42-1,.83-1.46,1.22-.16.12-.56.39,0,0l-.32.25-1,.71c-1,.73-2.12,1.42-3.22,2.06S241,150,239.81,150.6L239,151l-.46.2c-.41.18.7-.28.07,0s-1.25.5-1.88.72a42.24,42.24,0,0,1-7.58,2,4,4,0,0,0-1,.15l.4-.06-.4.05-.6.07c-.73.08-1.46.14-2.2.17a40.73,40.73,0,0,1-4.42,0,3,3,0,0,0-3,3,3.08,3.08,0,0,0,3,3,46.23,46.23,0,0,0,31.61-10.61,41.4,41.4,0,0,0,6.31-6.45,3.27,3.27,0,0,0,.88-2.12,3.08,3.08,0,0,0-.88-2.13c-1.09-1-3.22-1.32-4.26,0Z"/><path d="M219.21,156.43c-3.94-7-12.92,6.54-3.62,5.57a8.54,8.54,0,0,0,4.55-1.44c1.25-1,1.82-3,.77-4.27"/><path d="M221.73,155a6.93,6.93,0,0,0-2.72-2.78,6.33,6.33,0,0,0-2.36-.67,6.09,6.09,0,0,0-1.7.15,6.75,6.75,0,0,0-1.62.61,6.65,6.65,0,0,0-1.19.79,9.64,9.64,0,0,0-2.2,2.39,6.78,6.78,0,0,0-.53,1,8.74,8.74,0,0,0-.61,1.64,6.41,6.41,0,0,0-.2,1.69,5.12,5.12,0,0,0,.27,1.6,5.21,5.21,0,0,0,1.18,1.95,4.6,4.6,0,0,0,1.34,1,7.72,7.72,0,0,0,1.19.46,10.39,10.39,0,0,0,1.36.21,7.4,7.4,0,0,0,1.56,0,19.55,19.55,0,0,0,3.23-.5,12.26,12.26,0,0,0,1.83-.69,7.89,7.89,0,0,0,1.6-1.08,6.48,6.48,0,0,0,1.9-2.89,6.13,6.13,0,0,0,.31-1.74,3,3,0,0,0,0-.52,6.22,6.22,0,0,0-.19-1.21,5.68,5.68,0,0,0-1.19-2.06,2.9,2.9,0,0,0-4.12,0,3,3,0,0,0-.86,2.06c0,.26.07.52.11.78a3,3,0,0,0,.75,1.29l.09.12-.45-.6a2.85,2.85,0,0,1,.25.45c-.09-.23-.19-.46-.29-.69a2.66,2.66,0,0,1,.17.63c0-.26-.07-.52-.1-.77a3.05,3.05,0,0,1,0,.74l.11-.77a3.82,3.82,0,0,1-.24.88l.29-.69a3.82,3.82,0,0,1-.51.87l.46-.59a4,4,0,0,1-.62.61l.59-.45a5.39,5.39,0,0,1-1.19.68l.7-.3a9.87,9.87,0,0,1-2.45.6l.78-.1a10.05,10.05,0,0,1-2.57.1l.78.1a4,4,0,0,1-1-.26l.69.29a2.5,2.5,0,0,1-.55-.31l.6.45A1.8,1.8,0,0,1,214,159l.46.59a1.79,1.79,0,0,1-.27-.44l.3.69a2.46,2.46,0,0,1-.16-.59l.1.77a3,3,0,0,1,0-.85c0,.26-.07.52-.11.78a4.71,4.71,0,0,1,.34-1.18l-.3.69a6.45,6.45,0,0,1,.86-1.45l-.46.59a6.59,6.59,0,0,1,1.18-1.18l-.59.46a4.94,4.94,0,0,1,1.1-.66l-.69.3a3.8,3.8,0,0,1,.89-.26l-.77.11a3.22,3.22,0,0,1,.76,0l-.77-.1a2.83,2.83,0,0,1,.69.19l-.7-.3a3.1,3.1,0,0,1,.66.39l-.59-.46a4.15,4.15,0,0,1,.72.73l-.46-.59a6.36,6.36,0,0,1,.46.69,2.9,2.9,0,0,0,4,1,3,3,0,0,0,1.34-1.74,3.09,3.09,0,0,0-.29-2.25Z"/></g></g></g></g></svg>