<svg xmlns="http://www.w3.org/2000/svg" viewBox="0 0 461.4 523.85"><defs><style>.cls-1{fill:#f35528;opacity:0.48;}.cls-2{fill:#fff;}.cls-3{fill:#269ac2;}.cls-4{opacity:0.39;}.cls-5{fill:#fcec74;}</style></defs><g id="Layer_2" data-name="Layer 2"><g id="レイヤー_1" data-name="レイヤー 1"><g id="contents02"><g id="_2" data-name="2"><path d="M365,166.73H292.15c-1,0-2-.06-3,0h-.13l1.66,1.66V71.59c0-1.3.07-2.62,0-3.92V67.5l-1.66,1.66H361.9c1,0,2,.06,3,0H365l-1.66-1.66v96.8c0,1.3,0,2.61,0,3.92v.17a1.66,1.66,0,0,0,3.32,0V71.59c0-1.31,0-2.62,0-3.92V67.5A1.69,1.69,0,0,0,365,65.83H298.38c-3.06,0-6.14-.09-9.2,0h-.13a1.69,1.69,0,0,0-1.66,1.67v96.8c0,1.3,0,2.61,0,3.92v.17a1.68,1.68,0,0,0,1.66,1.66h66.62c3.06,0,6.14.1,9.2,0H365A1.66,1.66,0,0,0,365,166.73Z"/><rect class="cls-1" x="284.06" y="73.04" width="75.95" height="100.89"/><path class="cls-2" d="M453.44,353.75a63.49,63.49,0,0,0-1.8-21.75c-2.86-11.24-8.48-21.66-14.44-31.53a11,11,0,0,0-2.81-3.09q-1.77-3.75-3.69-7.43a9.37,9.37,0,0,0-2.41-2.9q-8.39-17.88-16.34-36c-1.73-3.94-3.46-7.9-5.16-11.86l-2.55-5.95-1.26-3c-.15-.33-.24-.55-.3-.69l-.26-.63Q397.2,216.55,392.16,204c-1.53-3.81-4.67-7.11-8.56-8q-1.58-5.62-3.1-11.27a10.76,10.76,0,0,0-2.87-4.83l-1.44-4.49a58.21,58.21,0,0,0,.27-10.46c-.1-.2-.19-.4-.28-.6l-11.39-27.34a4.75,4.75,0,0,1-.25-.87,8.29,8.29,0,0,1-3.43-1.63c-7.27-5.8-14.75-11.35-21.78-17.45a10.42,10.42,0,0,0-4.49,4.21c-3.08,5.84-1,11.41,4,15.17-2.32-1.76.6.54,1,.91.84.74,1.65,1.51,2.44,2.3s1.54,1.62,2.28,2.47l1,1.14c1.1,1.57,2.17,3.14,3.13,4.8.56,1,1.09,2,1.59,3,.26.51,2,3.8.61,1.18a27,27,0,0,1,2,5.78,17.68,17.68,0,0,0-5.59,1,10.48,10.48,0,0,0-9.88.15l-.81-.11-.46,0a22.37,22.37,0,0,0-3.25.46,10.31,10.31,0,0,0-1.47.6l-1.47.62a5.18,5.18,0,0,0-1.26.94,8.53,8.53,0,0,0-2.85,3.11c-.37.89-.75,1.77-1.12,2.65a2.49,2.49,0,0,0-.09.37c-.13,1-.26,2-.4,2.95a2.43,2.43,0,0,0,0,.38,20,20,0,0,0,.41,3.33,13,13,0,0,0,3.14,6c-1.53,8.86-1.47,17.94,2.43,26a6.49,6.49,0,0,1,2.25.15,18.11,18.11,0,0,1,11.06,8c2.1,3.12,3.26,6.77,4.9,10.13,1.52,3.11.87,6.88-2.28,8.73a6.16,6.16,0,0,1-.94.43,349.51,349.51,0,0,0,20.75,45.93c-2.83,2.7-3.82,6.74-3.07,10.91,1.09,6.15,2.37,12.25,3.8,18.3q-14-2.65-27.9-5.74c-9.77-2.16-19.46-4.56-29.18-6.92-9.93-2.41-20.31-4.58-30.58-4-10.91.57-21,3.73-29.68,10.18q-1.86-10.33-3.47-20.73c-.45-2.87-.87-5.74-1.29-8.61-.21-1.44-.41-2.88-.61-4.31-.11-.84-.23-1.67-.34-2.51,0-.14,0-.31-.07-.48-.44-3.35-.85-6.71-1.26-10.06.29-.57.56-1.15.82-1.73,1.17-2.67,2.15-5.39,3.18-8.1l.36-.9c0-.13.12-.27.2-.46.56-1.16,1.1-2.34,1.7-3.49a104.61,104.61,0,0,1,7.15-11.59c1.31-1.86,2.66-3.7,4-5.53h0a9.19,9.19,0,0,0,1.18-.77,11.88,11.88,0,0,0,4.07-6.34,10.49,10.49,0,0,0,.68-9.7,11.45,11.45,0,0,0-5.59-5.82,20.29,20.29,0,0,0-.13-4.06,73.81,73.81,0,0,0,2.65-16.52c.23-9.05-3.21-17.58-6.88-25.68a101.66,101.66,0,0,0-5.25-10,167.23,167.23,0,0,0-28-15.92,2.64,2.64,0,0,1-.8-.52l-.56,0c-.55,0-1.1-.09-1.66-.13a5.54,5.54,0,0,0-.87,0c-.8-.15-1.65-.41-2.32-.56-3.12-.67-6.21-1.5-9.34-2.13-7-1.42-14.25-2.19-21.23-.23-6.21,1.74-11.09,5.7-14.83,10.84a21.81,21.81,0,0,0-1.5,2.36c-7.63,2-14.64,9-19,14.87-5.88,8-8.74,17.94-9.23,27.72a65.38,65.38,0,0,0,2.79,21.51,14.14,14.14,0,0,0-4.68,7.49c-2.34,9.87,3.84,18.23,12.93,21.38a28.65,28.65,0,0,0,2.88.82,38.83,38.83,0,0,0,2.63,17.25A42.29,42.29,0,0,0,165,262c.69.79,1.41,1.54,2.15,2.27a194.79,194.79,0,0,0,3.22,19.38l-.27,3.45a10.9,10.9,0,0,0-3.8-.13c-4.59.61-7.64,3.7-9.22,7.94a114.72,114.72,0,0,0-6,24.13c-8.26-.41-17,2.33-24.54,4.92C111.68,329,97.88,336.35,84.37,344.2a8.11,8.11,0,0,1-2.14,3.89,143.94,143.94,0,0,0-12.67,14.55,133.08,133.08,0,0,0-9.91,15.68q-2.1,3.89-3.93,7.91c-.28.64-.56,1.28-.85,1.91,0,.08-.18.42-.27.63-.48,1.18-1,2.36-1.41,3.55-1.76,4.65-3.27,9.4-4.56,14.2a6.24,6.24,0,0,1,.11,1.56c-1.48,27.85-4,56.23-3.91,84.33q.68,6.94,1.52,13.87a6.25,6.25,0,0,1-1.09,4.26q.32,6.68.91,13.31H349.33a18.9,18.9,0,0,0,2-2.19c3.46-4.49,4-9.26,3-14.74q-2.64-14.26-4.62-28.63a627.4,627.4,0,0,1-5.05-66.53c0-.29,0-.58,0-.88q.21-3.09.44-6.18l21.51,2.55c11,1.31,22,3.06,33.07,3.37,20.14.58,44.14-6.17,53.13-26.18C457.08,374.89,458,363.31,453.44,353.75Z"/><path class="cls-2" d="M232.75,127.53c-.82-.51-1.64-1-2.47-1.49h-.05l-.2.14C230.94,126.61,231.85,127.07,232.75,127.53Z"/><path class="cls-3" d="M271.83,176.49c.62-2.41,1-5,1.43-7.13,1.77-9,6.68-33.85-8.39-34.28A58.33,58.33,0,0,1,244,130.22c-2.45-.71-4.86-1.52-7.22-2.4a2.77,2.77,0,0,1-1.77-1.92l-1.8-1-1.2.62c-7.63-4.31-15.85-7.29-25.09-7.41a92.37,92.37,0,0,0-13.77,1.33,43.77,43.77,0,0,0-10,2.44,9.13,9.13,0,0,0-3.3.61c-9.08,3.49-17,9.6-21.21,18.61a15,15,0,0,0-1.19,9c-.87,1.07-1.67,2.17-2.42,3.3a77.11,77.11,0,0,0-14.48,35.21l0,.07h0c-.08.51-.16,1-.23,1.54-.37,2.83,2.5,5.42,5.05,5.72,3.09.37,5.26-1.4,6.38-4.16,4.4-10.78,19.13-35.35,33.56-33.12,10.3,1.6,19.56,6,29.49,8.79,9.63,2.71,20.55,4.57,28.27,11.43,4.84,4.29,6.88,11.42,11.79,15.82,4.13,3.71,5.43,3.59,8.08-.33,1.12-1.65.73-4.37,1.65-6.2,1.37-2.72,4.07-4.36,5.48-6.95A21.25,21.25,0,0,0,271.83,176.49Zm-2.4-18.79.9-.83C269.28,159.17,268,159,269.43,157.7Z"/><path d="M154.6,145.89a65.22,65.22,0,0,0-16.47,37.71,59.13,59.13,0,0,0,0,11.21,3.55,3.55,0,0,0,1,2.35,3.35,3.35,0,0,0,2.35,1c1.66-.07,3.51-1.47,3.33-3.32a58.78,58.78,0,0,1-.13-9.75c.05-.79.12-1.57.2-2.35,0-.37.09-.74.14-1.11.09-.79-.12.78,0,0l.09-.66c.25-1.63.57-3.25,1-4.85A61.68,61.68,0,0,1,149,166.9c0-.06.3-.75.09-.23s.07-.16.1-.22l.45-1c.36-.78.73-1.55,1.12-2.32.73-1.43,1.52-2.84,2.35-4.21q1.41-2.29,3-4.46l.4-.54c.43-.58-.39.48,0,0l.84-1c.62-.75,1.26-1.48,1.91-2.2a3.33,3.33,0,0,0-4.7-4.71Z"/><path d="M257.75,203.07c0-.4.22-.54-.05.23.05-.15.06-.32.1-.47a1.76,1.76,0,0,0,.1-.3c-.11.72-.27.59-.08.22l.24-.4c.24-.41-.22.28-.24.3a9.32,9.32,0,0,0,.77-.77s-.72.49-.3.23l.4-.25c.32-.19,1.07-.36.07-.09.29-.07.56-.19.84-.27l.4-.08c.56-.13-.95.07-.09,0,.27,0,.54,0,.81,0,.63,0-.87-.18-.25,0l.31.07.46.14c.59.17-.75-.39-.2-.09a6.19,6.19,0,0,0,.91.56l-.38-.29.28.24.27.26c.14.13.26.26.39.4l.12.15c.21.27.16.19-.18-.23a5.37,5.37,0,0,0,.52.79c.19.32.31.73.52,1-.46-.66-.16-.4-.05-.07.05.12.09.25.13.37a11.48,11.48,0,0,1,.31,1.15c.07.31.08.67.18,1-.27-.82-.05-.43,0-.09s0,.4,0,.59a17.75,17.75,0,0,1,0,2.19c0,.31-.24.78,0-.08a2.63,2.63,0,0,0-.06.39c-.08.43-.17.86-.27,1.28a17.72,17.72,0,0,1-.64,2c-.08.22-.4.81,0,0-.06.11-.11.24-.17.36-.19.42-.4.83-.63,1.24a19.56,19.56,0,0,1-1.06,1.67c-.11.16-.25.31-.35.48.45-.78.2-.26,0-.06s-.51.6-.79.88a18.51,18.51,0,0,1-1.72,1.59c-.55.45.64-.45.06-.05l-.56.39c-.34.23-.7.45-1.06.66s-.68.36-1,.53c-.08,0-.68.28-.12.07s-.21.07-.32.11a14.07,14.07,0,0,1-2.39.65,3.34,3.34,0,0,0-2.32,4.09,3.41,3.41,0,0,0,4.09,2.33c7.43-1.39,13.48-7.82,15.33-15a18.12,18.12,0,0,0-.89-11.93c-1.6-3.59-5.17-6.47-9.24-6.29-4.62.19-8.67,3.52-8.89,8.28a3.35,3.35,0,0,0,3.32,3.33,3.39,3.39,0,0,0,3.33-3.33Z"/><path d="M152.24,200.72c-2.32-2.85-6.31-3.65-9.76-2.87a11.4,11.4,0,0,0-7.66,6.43c-3,6.54-1.39,14.47,2.87,20.08a22.17,22.17,0,0,0,9.44,7.27,3.33,3.33,0,0,0,2.56-.34,3.33,3.33,0,0,0,1.2-4.55,4,4,0,0,0-2-1.53c1,.41-.07,0-.3-.15s-.6-.3-.89-.47c-.59-.33-1.14-.71-1.69-1.09-.23-.16-.24-.34.19.15a3,3,0,0,0-.4-.31l-.69-.6a19.57,19.57,0,0,1-1.42-1.46c-.18-.2-.44-.66-.66-.79.36.22.35.48.15.18-.1-.14-.21-.28-.3-.42a16.57,16.57,0,0,1-1.14-1.84c-.14-.24-.26-.49-.38-.74s-.52-1.29-.18-.34c-.23-.65-.49-1.29-.69-2s-.33-1.29-.45-1.94a2.25,2.25,0,0,0-.08-.52c0,.07.09.83,0,.25,0-.39-.06-.77-.07-1.16a13.6,13.6,0,0,1,.06-2,1.93,1.93,0,0,0,0-.42c.08.7-.07.51,0,.16s.15-.76.24-1.13.2-.66.32-1c0-.13.1-.26.14-.39-.22.75-.19.44-.09.23s.3-.6.48-.9l.21-.34c.06-.09.51-.82.22-.33s.05,0,.13-.13l.26-.28.33-.31c.23-.23.51-.23-.18.11.24-.12.45-.31.68-.45l.4-.22c.28-.14.73-.16-.14,0,.29-.07.57-.21.86-.29l.52-.12c.33-.07.74.05-.18,0,.29,0,.59-.05.89-.05l.44,0c.78,0-.71-.16-.11,0,.29.07.57.13.84.22.11,0,.66.24.09,0s0,0,.15.09.24.16.37.23c.53.3-.57-.53-.12-.1a7.92,7.92,0,0,1,.75.78,3.34,3.34,0,0,0,4.7,0,3.43,3.43,0,0,0,0-4.71Z"/><path d="M147.83,230.83A71.13,71.13,0,0,0,162.22,259a55.68,55.68,0,0,0,26.49,17.49c10.31,3.06,21.94,3.13,32-1A44.85,44.85,0,0,0,234,267.15a52,52,0,0,0,9.18-11.34c5.07-8.33,8.13-17.87,9.82-27.44.2-1.15.38-2.29.55-3.44a3.67,3.67,0,0,0-.34-2.56,3.36,3.36,0,0,0-2-1.53c-1.57-.36-3.83.48-4.09,2.32a97.23,97.23,0,0,1-2.92,13.63q-1,3.35-2.26,6.59l-.3.75-.22.54c.22-.55-.14.33-.19.43-.13.31-.27.61-.41.92-.49,1.06-1,2.11-1.54,3.14a56.34,56.34,0,0,1-3.53,5.87c-.31.46-.64.92-1,1.36-.15.22-.31.43-.47.64s-.4.38.16-.21c-.13.14-.25.31-.37.46-.69.87-1.42,1.72-2.17,2.53a45.25,45.25,0,0,1-5,4.61c-.36.29.68-.51.13-.1l-.32.24-.64.47c-.48.34-1,.68-1.48,1-1,.62-1.94,1.2-2.95,1.74-.52.28-1.05.55-1.59.8l-.89.41c-.13.06-.27.11-.4.18.29-.16.55-.23.09,0a37.2,37.2,0,0,1-3.59,1.26,36.74,36.74,0,0,1-3.58.9q-.92.19-1.83.33l-.43.07c-.32.05-.61-.08.13,0a5.34,5.34,0,0,0-1,.11,47.72,47.72,0,0,1-7.56.2l-1.87-.14-.87-.09-.55-.07c-.15,0-.75,0-.22,0s.06,0-.1,0l-.44-.07-1-.16q-1-.18-1.95-.39a50,50,0,0,1-7.29-2.17l-.82-.32-.51-.21c-.36-.14-.19.08.18.08a2.83,2.83,0,0,1-.8-.35l-1-.47c-1.12-.53-2.22-1.11-3.3-1.72s-2.18-1.32-3.23-2c-.51-.35-1-.71-1.51-1.07l-.69-.52c-.25-.19-.33-.07.15.12a2.72,2.72,0,0,1-.51-.4,56.17,56.17,0,0,1-5.41-4.94q-1.34-1.39-2.58-2.88c-.37-.44-.73-.88-1.09-1.33l-.26-.34c-.35-.44.08.11.12.17-.2-.3-.43-.58-.64-.86a64.71,64.71,0,0,1-4-6.21,67,67,0,0,1-3.31-6.62l-.17-.39c-.29-.67.23.55,0,.1l-.33-.79q-.36-.9-.69-1.8-.65-1.76-1.2-3.54t-1-3.48a3.32,3.32,0,1,0-6.41,1.77Z"/><path d="M186,199.34c4.28,0,4.28-6.66,0-6.66s-4.29,6.66,0,6.66Z"/><path d="M220.19,197.06c4.28,0,4.29-6.65,0-6.65s-4.29,6.65,0,6.65Z"/><path d="M197.53,205.62a7.33,7.33,0,0,0,2.62,2.39,8.11,8.11,0,0,0,3.44.87,7.87,7.87,0,0,0,3.41-.77,7,7,0,0,0,2.71-2.34,2.44,2.44,0,0,0,.25-1.92,2.48,2.48,0,0,0-3.06-1.74,2.88,2.88,0,0,0-1.49,1.15l-.07.08.39-.51a4.61,4.61,0,0,1-.76.77l.5-.39a4.85,4.85,0,0,1-1.08.63l.6-.25a5.3,5.3,0,0,1-1.3.34l.67-.09a5,5,0,0,1-1.34,0l.66.09a5.3,5.3,0,0,1-1.3-.34l.6.25a4.85,4.85,0,0,1-1.08-.63l.5.39a4.71,4.71,0,0,1-.83-.84l.39.51-.12-.17a2.66,2.66,0,0,0-1.49-1.14,2.5,2.5,0,0,0-2.82,3.66Z"/><path d="M186.52,222.71a26.77,26.77,0,0,0,15.14,6.69,25.68,25.68,0,0,0,15.53-3.47,25.37,25.37,0,0,0,6.79-5.76,2.54,2.54,0,0,0,0-3.52,2.5,2.5,0,0,0-3.52,0,25.09,25.09,0,0,1-2.41,2.53l-.67.57c-.08.07-.75.59-.35.29-.49.37-1,.73-1.52,1.07a24,24,0,0,1-3.07,1.67l-.2.09L212,223l-.82.31c-.58.21-1.17.39-1.77.55s-1.06.27-1.6.38c-.28.06-.57.11-.86.15l-.32.05c.58-.09-.14,0-.21,0a23.49,23.49,0,0,1-3.56.09l-.89-.07c-.16,0-1-.11-.45,0-.59-.08-1.18-.19-1.76-.31a24.07,24.07,0,0,1-3.54-1.07l-.31-.12c-.68-.27.44.21-.23-.1l-.91-.43c-.6-.3-1.19-.62-1.76-1s-1.13-.72-1.67-1.12c-.06,0-.43-.32-.2-.14s-.23-.19-.27-.23c-.29-.23-.57-.48-.85-.73a2.5,2.5,0,0,0-3.53,3.53Z"/><path d="M160.24,260.71a72.24,72.24,0,0,1,3.49,12.77c.09.5.17,1,.25,1.5l.12.76c0,.13,0,.25.05.38.07.48-.08-.61,0-.13.13,1.1.25,2.2.34,3.3q.27,3.3.23,6.62a69.59,69.59,0,0,1-.48,7.5,3.34,3.34,0,0,0,1,2.36,3.37,3.37,0,0,0,2.35,1,3.42,3.42,0,0,0,3.32-3.33A74.54,74.54,0,0,0,169,266.23a71.71,71.71,0,0,0-2.31-7.29,3.39,3.39,0,0,0-4.09-2.32c-1.59.51-3,2.34-2.32,4.09Z"/><path d="M221.12,309.72l27.34-20.93-4.55-1.19q6.87,13.14,14.78,25.7,2.26,3.58,4.61,7.12,1.43-2.51,2.87-5c-5.64-.72-11.48,1.14-16.19,4.18A42.47,42.47,0,0,0,238.07,332c-1.74,2.6-3.29,5.32-4.82,8l6.08.8a72,72,0,0,0-11.92-25.15,3.59,3.59,0,0,0-2-1.53,3.44,3.44,0,0,0-2.57.33c-1.38.89-2.3,3.06-1.19,4.55a70.29,70.29,0,0,1,6.94,11.5c.22.48.45,1,.66,1.43l.39.89c.06.14.43.89.05.1.48,1,.84,2.1,1.23,3.16q1.14,3.19,2,6.48a3.36,3.36,0,0,0,6.08.8c1.29-2.31,2.6-4.61,4-6.84.69-1.08,1.4-2.14,2.16-3.18l.57-.76c.36-.49,0,0-.09.1a1.94,1.94,0,0,0,.3-.38c.42-.53.85-1.05,1.3-1.56.87-1,1.78-1.93,2.74-2.83.45-.42.92-.82,1.4-1.21.1-.08.79-.6.38-.31l.13-.09.46-.34a27.75,27.75,0,0,1,3.26-2l.82-.4.42-.2c.11,0,.58-.24.13-.06s.33-.13.45-.17c.36-.14.72-.26,1.08-.38a19.25,19.25,0,0,1,2-.53c.33-.08.66-.14,1-.2l.11,0c.3,0,.3,0,0,0h0l.23,0a18.2,18.2,0,0,1,4.3.06,3.33,3.33,0,0,0,2.87-5q-8.19-12.36-15.38-25.35-2-3.72-4-7.47c-.76-1.45-3.17-2.25-4.55-1.19L217.77,304a3.66,3.66,0,0,0-1.53,2,3.42,3.42,0,0,0,.33,2.56c.88,1.36,3.08,2.32,4.55,1.19Z"/><path d="M159,289.62a24.7,24.7,0,0,0,3.95,6.5,28,28,0,0,0,5.35,4.73,41.47,41.47,0,0,0,13.73,5.8c2.79.7,5.62,1.24,8.45,1.77q-1.15-2.06-2.32-4.09a44.57,44.57,0,0,0-2.95,16.91,13.25,13.25,0,0,0,.6,4.43,10.46,10.46,0,0,0,2.83,3.95c2.16,2,4.35,3.93,6.53,5.89l7.5,6.77a3.33,3.33,0,0,0,4.71-4.7l-12.55-11.32-1.48-1.34-.59-.56-.32-.33c-.09-.1-.42-.61-.18-.19s-.17-.41-.23-.42c.21.06.19.62.07.15,0-.15-.09-.3-.12-.45s0-.23-.07-.34c-.1-.46,0,.65,0,.18s-.05-.72-.06-1.08a38.43,38.43,0,0,1,0-3.87q0-1,.15-1.92c0-.3.07-.6.1-.9.06-.5-.1,0,0,.12,0-.06.06-.44.07-.51a42.32,42.32,0,0,1,2.35-8.71,3.34,3.34,0,0,0-2.33-4.09,84.21,84.21,0,0,1-14-3.46l-.83-.31-.47-.19.21.09a16.49,16.49,0,0,1-1.6-.74c-.93-.46-1.84-1-2.72-1.51-.42-.27-.84-.55-1.25-.84l-.53-.38a2.25,2.25,0,0,1-.34-.25c0,.08.55.44.17.12a26.63,26.63,0,0,1-2.29-2.09c-.39-.41-.77-.83-1.12-1.27-.07-.08-.13-.17-.2-.24.56.56.21.28.06.08s-.33-.46-.48-.69c-.32-.47-.61-.95-.89-1.44l-.39-.75c-.11-.24-.52-1.18-.14-.28a3.64,3.64,0,0,0-1.53-2,3.37,3.37,0,0,0-2.56-.34c-1.54.5-3.05,2.37-2.33,4.09Z"/><path d="M216,307.42,208.6,326a70.66,70.66,0,0,0-4.25,16c-1.65,11.5-1.13,23.1,0,34.61,1.1,11.33,2.59,22.61,3.42,34q1.47,19.9,2.92,39.8c1,13.21-.07,2.41.9,15.61.12,1.68.25,3.35.37,5a3.33,3.33,0,0,0,6.65,0c-1-13.21.07-2.41-.9-15.62s-1.94-26.4-2.9-39.61c-.44-6-.84-11.92-1.46-17.87-.59-5.55-1.27-11.09-1.87-16.65-1.21-11.28-2.15-22.71-1.09-34,.06-.67.13-1.35.21-2,0-.36.08-.72.13-1.08,0,0,.07-.55,0-.18s0-.26,0-.32c.2-1.38.44-2.75.71-4.11a66,66,0,0,1,2.08-7.84c1-2.9,2.17-5.71,3.29-8.55q1.83-4.59,3.64-9.18l1.86-4.68a3.34,3.34,0,0,0-2.32-4.09,3.44,3.44,0,0,0-4.1,2.33Z"/><path d="M156.33,287.62c-7.67,11.64-10.88,25.47-12.86,39.09-.6,4.06-1.1,8.14-1.6,12.21a3.25,3.25,0,0,0,1.65,2.88,3.31,3.31,0,0,0,3.36,0,98.28,98.28,0,0,1,15.25-8.39L163,333c.58-.26,0,0-.11,0a2.76,2.76,0,0,1,.46-.19l2.08-.83c1.4-.54,2.8-1,4.22-1.52a14.88,14.88,0,0,0,4.12-1.7,11.26,11.26,0,0,0,3.15-4.25l5.1-9.61a3.33,3.33,0,0,0-5.75-3.36q-2.19,4.14-4.39,8.28l-1.1,2.06c-.15.3-.31.6-.47.89l-.21.38c-.29.47-.13.06.09-.06a3.85,3.85,0,0,1-.29.31c-.1-.11.63-.37.16-.14l-.18.11c-.26.12-.26.13,0,0l.2-.08-.31.11c-.63.23-1.27.42-1.9.63a102.73,102.73,0,0,0-16.2,7q-4.22,2.26-8.2,4.94l5,2.87c.21-1.69.41-3.38.63-5.06.1-.83.21-1.66.32-2.49.08-.6,0,.09,0,.18,0-.24.06-.47.1-.71.06-.47.13-.95.19-1.42.47-3.31,1-6.61,1.65-9.89s1.42-6.65,2.36-9.91q.67-2.37,1.49-4.71c.26-.74.53-1.47.81-2.2l.42-1.09.27-.65c.08-.2.3-.89,0-.07a34.62,34.62,0,0,1,2.42-5.07c.88-1.66,1.85-3.28,2.88-4.85a3.36,3.36,0,0,0-1.19-4.56,3.4,3.4,0,0,0-4.55,1.2Z"/><path d="M256.39,301a69.58,69.58,0,0,1,9-2.09l1.14-.18.63-.09c.51-.07-.05-.08-.12,0,.07-.11.88-.11,1-.13l1.27-.14c1.53-.15,3.06-.26,4.6-.33a113.11,113.11,0,0,1,18.67.78c.73.09,1.46.17,2.19.28-.89-.13.32,0,.52.07l1.28.19c1.54.23,3.07.48,4.6.74,3.14.55,6.26,1.17,9.39,1.83,6.32,1.32,12.62,2.79,18.95,4.13,7.26,1.54,14.57,2.88,21.95,3.7a3.32,3.32,0,0,0,3.32-3.32,3.41,3.41,0,0,0-3.32-3.33l-2.39-.28-.53-.07c-.63-.08,0,0,.09,0-.44-.05-.88-.12-1.32-.19-1.63-.23-3.26-.49-4.88-.77-3.21-.55-6.4-1.17-9.58-1.83-6.29-1.31-12.54-2.77-18.83-4.11-12.49-2.66-25.24-4.88-38.06-4.56a80.7,80.7,0,0,0-21.34,3.25,3.33,3.33,0,0,0,1.77,6.42Z"/><path d="M347.66,234a305.94,305.94,0,0,1,35-19.2q5.16-2.42,10.42-4.63L388.51,209c10.28,20.06,20.41,40.2,30.13,60.54q7.28,15.25,14.22,30.67c4.45,9.89,8.85,19.85,12.85,29.71a131,131,0,0,1,8,25.84c.19,1.05.36,2.09.51,3.14-.09-.63,0,.06,0,.21s.07.53.1.79c.07.62.13,1.25.18,1.88a57.44,57.44,0,0,1,.2,6.69c0,1.08-.1,2.16-.2,3.23,0,.51-.1,1-.17,1.53.1-.76,0,.24-.05.33l-.15.9a41,41,0,0,1-1.65,6.36c-.19.53-.4,1.06-.6,1.58,0,.1-.25.59,0,.07-.12.28-.25.56-.38.85-.48,1-1,2.06-1.59,3.05s-1.11,1.83-1.72,2.7c-.29.4-.58.8-.88,1.19.45-.58-.15.18-.2.25l-.56.66a38.08,38.08,0,0,1-4.48,4.41c-.18.15-.36.3-.55.44s-.64.49-.11.09c-.37.29-.75.56-1.13.84-.85.59-1.72,1.16-2.6,1.69a49.85,49.85,0,0,1-5.54,2.84c-.58.26-.11.05,0,0l-.79.33-1.34.51c-1,.36-2,.7-3,1a77.38,77.38,0,0,1-12.15,2.64c-1,.14.7-.08-.27,0l-.57.08-1.58.17q-1.65.18-3.3.3c-2,.15-4,.24-6,.3a151.52,151.52,0,0,1-15.8-.47c-11.16-.86-22.27-2.51-33.48-2.68q-4.12-.06-8.22.18a3.33,3.33,0,1,0,0,6.66c11.47-.69,22.9.71,34.3,1.83,10.08,1,20.18,1.6,30.3.74,8.84-.75,17.59-2.47,25.72-6.11a42.91,42.91,0,0,0,19.48-17c9.92-16.77,5.64-37.46-.62-54.7-3.58-9.87-7.91-19.5-12.13-29.12q-7-15.84-14.34-31.48c-9.73-20.69-19.93-41.17-30.32-61.54l-3.84-7.53c-.9-1.74-3-1.86-4.55-1.19A306.23,306.23,0,0,0,354,222.27q-4.92,2.88-9.73,5.95a3.33,3.33,0,0,0,3.36,5.75Z"/><path d="M341.94,232.13c5.14,15.48,10.27,30.95,15.58,46.37s10.78,30.77,16.59,46q4.9,12.87,10.16,25.61a3.61,3.61,0,0,0,1.53,2,3.37,3.37,0,0,0,2.56.33c1.54-.49,3-2.37,2.32-4.09-6.23-15.06-12-30.29-17.59-45.62s-10.83-30.75-16-46.21q-4.4-13-8.72-26.14a3.32,3.32,0,1,0-6.41,1.76Z"/><path d="M391,198.73q-2.24-4.69-4.28-9.48c-.06-.16-.13-.32-.2-.48.29.69.06.13,0,0l-.45-1.08c-.34-.84-.69-1.69-1-2.53q-.94-2.35-1.83-4.73-3.61-9.62-6.4-19.51-1.41-5-2.6-10.07a60.62,60.62,0,0,0-2.53-9.09A20,20,0,0,0,369,137a25.75,25.75,0,0,0-3.73-3.94c-2.61-2.27-5.36-4.38-8.06-6.55L338.07,111a3.49,3.49,0,0,0-4-.52c-4.17,2.13-5.5,7.14-4.69,11.45.75,4,3.35,7.49,5.83,10.57,4.14,5.16,9.27,9.43,13.39,14.61.13.17.54.74,0-.05l.36.48c.27.36.54.74.8,1.11.52.76,1,1.53,1.45,2.32s.77,1.67,1.22,2.45c-.46-.8-.13-.32,0-.07s.19.49.28.74q.22.66.42,1.32a3.33,3.33,0,1,0,6.42-1.76c-1.91-6.56-6.33-11.81-11-16.63-2.21-2.29-4.49-4.53-6.61-6.91-.5-.55-1-1.11-1.46-1.69l-.76-.94c-.34-.43.12.15.15.2-.14-.22-.32-.43-.48-.64a27.55,27.55,0,0,1-2.75-4.41l-.1-.22c-.15-.34-.14-.29,0,.14a3.84,3.84,0,0,0-.25-.67,11.57,11.57,0,0,1-.45-1.6l0-.24c-.06-.37-.06-.31,0,.19-.12-.14,0-.73,0-.91s0-.26,0-.39l0-.39c-.08.55-.09.65,0,.3,0-.2.08-.39.13-.58a3.11,3.11,0,0,0,.24-.75l-.18.43c0-.12.1-.23.16-.35s.19-.34.29-.51l.11-.16q.3-.42-.18.21a4,4,0,0,0,.52-.56l.14-.13c.27-.22.19-.16-.22.17.16,0,.51-.31.67-.39l-4-.52,17,13.74,8.34,6.74a42.71,42.71,0,0,1,3.64,3.2c.25.26.5.52.74.79l.39.46c.4.44,0,0-.07-.11a10.81,10.81,0,0,1,1.35,2.11,10.66,10.66,0,0,1,.47,1s.32.76.12.25.08.22.1.27c.28.74.53,1.5.76,2.26.44,1.54.8,3.1,1.15,4.67.76,3.28,1.58,6.56,2.47,9.81q2.68,9.84,6.2,19.44,4.06,11.08,9.15,21.76a3.35,3.35,0,0,0,4.56,1.19,3.42,3.42,0,0,0,1.19-4.55Z"/><path d="M364.66,156.77A26.14,26.14,0,0,0,345,150.83a25.09,25.09,0,0,0-5.35,1.19,46.1,46.1,0,0,0-5.74,2.57q-2.61,1.36-5.2,2.75a40.24,40.24,0,0,0-4.87,2.66,5.72,5.72,0,0,0-2.45,3.61,21.4,21.4,0,0,0-.16,4c0,2.28.06,4.56.14,6.84a3.33,3.33,0,0,0,6.66,0c-.07-1.91-.12-3.83-.14-5.74,0-.82,0-1.64,0-2.46,0-.43,0-.86,0-1.29,0-.73-.26.64,0,0l-.17.37c.19-.3.14-.23-.16.19.42-.5-.49.28-.12.08.15-.09.29-.19.44-.27.35-.2.71-.38,1.07-.57l2.39-1.27,5-2.64c.68-.36,1.37-.73,2.07-1.07.38-.2.77-.38,1.16-.57l.71-.32c.64-.29-.56.21.16-.06a24.81,24.81,0,0,1,4.37-1.27,2.2,2.2,0,0,0,.64-.1s-.84.09-.24,0l1.07-.1a23.18,23.18,0,0,1,2.36,0c.65,0,1.29.08,1.93.15s-.79-.13,0,0l.42.07c.43.08.85.16,1.27.26a21.88,21.88,0,0,1,2.27.66c.41.14.8.32,1.21.46-.8-.27-.32-.14-.1,0l.68.32c.7.35,1.39.73,2.06,1.15.36.23.72.47,1.07.72a3.44,3.44,0,0,1,.34.26l-.16-.13.33.28a3.63,3.63,0,0,0,2.36,1,3.39,3.39,0,0,0,2.35-1c1.12-1.23,1.43-3.52,0-4.71Z"/><path d="M348.52,163.45a145.51,145.51,0,0,0-15.3,4.88c-1.27.48-2.54,1-3.8,1.51a20.07,20.07,0,0,0-3.61,1.68,7.66,7.66,0,0,0-3.05,3.76,12,12,0,0,0-.45,4.3,40.75,40.75,0,0,0,1.3,9.77,3.33,3.33,0,0,0,6.42-1.77c-.31-1.2-.57-2.4-.76-3.62,0-.17-.06-.35-.07-.52,0,0,.07.62,0,.23s-.07-.61-.1-.92c-.06-.62-.1-1.23-.13-1.85s0-1.23,0-1.84c0-.31,0-.61,0-.91,0-.12,0-.24,0-.36s0-.81,0-.27,0,.09,0,0l0-.12c.08-.23,0-.15-.13.25a2.14,2.14,0,0,0,.3-.5c0,.09-.53.56-.14.23a2,2,0,0,0,.21-.2c.22-.24-.28.21-.29.22s.28-.2.41-.27a10.76,10.76,0,0,1,1.17-.6l.36-.16-.24.1,1-.4c1.14-.47,2.28-.92,3.43-1.35q3.51-1.33,7.08-2.48,4-1.31,8.09-2.35a3.33,3.33,0,0,0-1.76-6.42Z"/><path d="M346.88,177.59l-15.47,6.65c-2.46,1-4.94,2.25-6.21,4.77a12.63,12.63,0,0,0-.8,8c.45,2.79,1.32,5.53,2,8.26a3.33,3.33,0,0,0,6.42-1.77c-.6-2.33-1.27-4.66-1.79-7-.1-.49-.18-1-.27-1.46s.05.39,0,.37,0-.21,0-.32c0-.27-.05-.55-.06-.83s0-.47,0-.71.09-.93,0-.36,0-.18.07-.33.26-.56.23-.75c0,0-.31.64-.14.35.06-.11.11-.23.18-.34s.45-.65.13-.23.21-.19.31-.3c.26-.26.24,0-.15.1a1.6,1.6,0,0,0,.38-.26,20.9,20.9,0,0,1,3-1.44l7.22-3.1,8.24-3.54a3.29,3.29,0,0,0,1.53-2,3.41,3.41,0,0,0-.33-2.56,3.35,3.35,0,0,0-2-1.53,3.92,3.92,0,0,0-2.56.33Z"/><path d="M331.29,210a19.93,19.93,0,0,0,11,.4,3.36,3.36,0,0,0,2.32-4.09,3.41,3.41,0,0,0-4.09-2.33c-.54.13-1.08.24-1.63.32l.88-.12a17.23,17.23,0,0,1-4.48,0l.88.12a18,18,0,0,1-3.07-.72,3.34,3.34,0,0,0-4.09,2.32,3.4,3.4,0,0,0,2.32,4.09Z"/><path d="M339.28,201.16a16.43,16.43,0,0,1,2.86.64l.69.24.23.09-.12,0a5.59,5.59,0,0,1,1.32.65l-1.2-4.55a29.18,29.18,0,0,0,1.76,28.27,3.33,3.33,0,1,0,5.74-3.36,25,25,0,0,1-1.63-2.85c-.09-.2-.19-.39-.28-.59s-.12-.27-.17-.4c.19.45.22.52.08.18s-.36-1-.52-1.44a25.32,25.32,0,0,1-.79-3c-.1-.5-.16-1-.26-1.52.2,1,0,0,0-.2s-.05-.51-.07-.77a27.94,27.94,0,0,1,0-3.17q0-.78.12-1.53c0-.15,0-.29.05-.44l-.06.45c.1-.08.12-.72.15-.86a24.88,24.88,0,0,1,.72-3c.15-.49.32-1,.5-1.45.05-.14.11-.27.16-.41l-.08.19c0-.14.3-.67.37-.8a3.39,3.39,0,0,0-1.2-4.55,19.07,19.07,0,0,0-6.56-2.25,3.73,3.73,0,0,0-2.56.34,3.36,3.36,0,0,0-1.53,2c-.36,1.56.48,3.83,2.32,4.09Z"/><path d="M135.92,316.88c-14.63,8.23-29.41,16.2-43.88,24.73a173.11,173.11,0,0,0-17,10.86,64.31,64.31,0,0,0-15,15.58C51.43,381.1,47.92,396.88,46,412.19,43.82,429,43.45,446,43.19,462.91c-.19,11.94-.38.19.1,17.27q.09,3.18.19,6.34a3.33,3.33,0,1,0,6.66,0c-.58-16.93-.14-6.67-.43-16.8-.25-8.4.37-16.81.65-25.2s.66-16.64,1.44-24.93a159.93,159.93,0,0,1,3.6-22.79,103.46,103.46,0,0,1,3.24-10.91c.3-.83.62-1.66.94-2.47.44-1.1.55-1.37,1-2.28.73-1.64,1.52-3.26,2.37-4.84s1.81-3.21,2.82-4.75c.47-.71,1-1.41,1.45-2.09l.4-.54c0-.05.38-.5.08-.12.3-.39.62-.78.93-1.16a59.37,59.37,0,0,1,7.09-7.18c.6-.52,1.2-1,1.82-1.51l.49-.39c.06-.05.57-.45.28-.23s.22-.16.29-.21l.62-.47c1.34-1,2.71-1.95,4.1-2.88,2.73-1.82,5.53-3.52,8.35-5.19,13.89-8.25,28-16,42.15-23.88l5.5-3.08a3.35,3.35,0,0,0,1.19-4.55,3.4,3.4,0,0,0-4.55-1.19Z"/><path d="M342.52,408.73q-.79,20.92,0,41.86c.54,14-.4,2.88,1.18,16.75q1.37,12,3.24,23.86a3.3,3.3,0,0,0,1.53,2,3.37,3.37,0,0,0,2.56.34,3.41,3.41,0,0,0,2.32-4.09c-.53-3.42-1-6.83-1.51-10.26l-.18-1.35c-.09-.63,0,0,0,.07,0-.22-.06-.45-.09-.67l-.36-2.71c-.22-1.71-.43-3.43-.63-5.14-.82-6.91-.5-2.83-1.06-9.77-1.1-13.77-.68-13.59-.75-27.41q0-11.73.39-23.46a3.35,3.35,0,0,0-3.32-3.33,3.41,3.41,0,0,0-3.33,3.33Z"/><path d="M237.12,260.31a62.89,62.89,0,0,0,2.41,22.46A3.33,3.33,0,1,0,246,281c-.51-1.72-.95-3.46-1.3-5.22-.18-.86-.33-1.73-.47-2.59l-.09-.65c-.14-.89.08.73,0-.16l-.15-1.31a59.49,59.49,0,0,1-.13-10.76,3.34,3.34,0,0,0-3.33-3.32,3.41,3.41,0,0,0-3.33,3.32Z"/><path d="M166,140.51a28.33,28.33,0,0,1,2.49-4.34c.22-.32.45-.64.68-.95l.18-.23s-.45.56-.22.28l.42-.52c.52-.63,1.06-1.23,1.63-1.82s1.15-1.15,1.75-1.69c.29-.26.59-.51.89-.76l.53-.44.23-.18c.34-.28-.1.08-.21.16,1.35-.94,2.67-1.9,4.11-2.72q1.06-.61,2.19-1.17c.38-.19.77-.37,1.17-.55l.54-.25.28-.12c.39-.17-.65.27-.25.1a50.15,50.15,0,0,1,4.74-1.65,47,47,0,0,1,5-1.14l1.19-.19c.61-.09-.71.09-.09,0l.7-.08q1.25-.14,2.49-.21a50.89,50.89,0,0,1,5.66,0c1,.06,2.06.15,3.09.26l.74.09.37,0-.27,0a8.36,8.36,0,0,0,1.59.24,76,76,0,0,1,12.15,3.13q3,1,6,2.27l.42.17.41.17,1.5.66c1,.44,2,.9,3,1.37,3.74,1.77,7.36,3.77,11.06,5.62a53,53,0,0,0,11.71,4.57c4,.92,8.37,1.15,12.27-.34a18.56,18.56,0,0,0,3.09-1.46,3.33,3.33,0,0,0-3.35-5.75,12.6,12.6,0,0,1-1.19.65l-.31.14c-.32.17.29-.11.29-.11-.24.06-.48.19-.71.27-.45.15-.9.28-1.36.39l-.63.14c-.14,0-.95.15-.41.07s-.18,0-.31,0l-.65,0q-.7,0-1.41,0c-.48,0-1,0-1.44-.09a1.19,1.19,0,0,0-.33,0s.71.1.33,0l-.78-.12a34.49,34.49,0,0,1-5.7-1.6l-1.33-.52c-.11,0-.81-.33-.38-.15l-.48-.21q-1.43-.63-2.82-1.32c-3.74-1.84-7.37-3.87-11.13-5.67a129,129,0,0,0-12.24-5.18,69.2,69.2,0,0,0-25.09-4.49,49.07,49.07,0,0,0-21,5.31A37.17,37.17,0,0,0,161.41,135c-.4.72-.78,1.45-1.13,2.2a3.41,3.41,0,0,0,1.2,4.55c1.47.78,3.76.49,4.55-1.2Z"/><path d="M180.13,157.46a59.52,59.52,0,0,0,28.43,10.61,59.21,59.21,0,0,0,43.83-13.74,3.35,3.35,0,0,0,0-4.71,3.44,3.44,0,0,0-4.71,0q-.66.57-1.35,1.11a2.78,2.78,0,0,0-.27.21c.52-.5.27-.21.12-.09l-.75.55c-.94.69-1.9,1.35-2.88,2a56.63,56.63,0,0,1-6.1,3.38l-1.59.73-.32.13c-.54.24.08,0,.15-.06a6.45,6.45,0,0,1-.86.35c-1.08.43-2.18.83-3.28,1.19a56.21,56.21,0,0,1-6.75,1.75c-.57.11-1.15.21-1.72.3l-.8.13-.47.06c.19,0,.64-.08.2,0-1.16.14-2.32.26-3.48.33a55.74,55.74,0,0,1-7.08,0l-1.78-.16-.82-.09-.47-.06c-.44-.05,0,0,.18,0-1.14-.28-2.35-.37-3.51-.61a56.52,56.52,0,0,1-6.86-1.86c-.63-.22-1.27-.45-1.89-.69-.34-.12-.67-.25-1-.39l-.33-.13c-.4-.17-.33-.11,0,0a26.83,26.83,0,0,1-3.64-1.71,56.64,56.64,0,0,1-6.87-4.21,3.33,3.33,0,0,0-4.55,1.19,3.41,3.41,0,0,0,1.19,4.55Z"/><path d="M233.4,173.66c8,5.15,18.29,4.29,26.93,1.38a62.21,62.21,0,0,0,7.22-3,3.34,3.34,0,0,0,1.19-4.55,3.41,3.41,0,0,0-4.55-1.19c-.43.2-.86.41-1.3.6l-.66.3-.28.13c-.56.24.5-.21.11-.05-.92.37-1.84.74-2.78,1.07a47.57,47.57,0,0,1-6,1.69c-.5.1-1,.2-1.5.28-.25.05-.5.09-.76.12l-.32.05c.9-.17.35-.05.13,0-1,.12-2.07.2-3.12.23a29.46,29.46,0,0,1-3-.09l-.74-.07c-.84-.1.54.1-.06,0s-1-.17-1.54-.29a25.67,25.67,0,0,1-3.2-1l.32.13c-.16-.08-.33-.14-.48-.22s-.51-.24-.76-.37c-.54-.28-1.06-.59-1.56-.91a3.35,3.35,0,0,0-4.55,1.19,3.39,3.39,0,0,0,1.19,4.55Z"/><path d="M263.7,182.34l-1.89,8.36a3.53,3.53,0,0,0,.33,2.57,3.46,3.46,0,0,0,2,1.53,3.34,3.34,0,0,0,4.09-2.33l1.89-8.36a3.51,3.51,0,0,0-.33-2.56,3.42,3.42,0,0,0-2-1.53,3.34,3.34,0,0,0-4.09,2.32Z"/><path d="M384.22,43.08H356.84c-1.26,0-2.55-.09-3.8,0H353l1.07,1.08V5.6c0-.52,0-1.06,0-1.58V4L353,5h27.38c1.25,0,2.55.09,3.8,0h.05L383.14,4V39.2c0,1.63-.05,3.27,0,4.89v.07a1.08,1.08,0,0,0,2.16,0V8.91c0-1.63.05-3.27,0-4.89V4a1.1,1.1,0,0,0-1.08-1.08H356.84c-1.27,0-2.54,0-3.8,0H353A1.1,1.1,0,0,0,351.91,4V39.2c0,1.63-.06,3.27,0,4.89v.07A1.1,1.1,0,0,0,353,45.24h27.38c1.26,0,2.54,0,3.8,0h.05A1.08,1.08,0,0,0,384.22,43.08Z"/><path d="M177.22,85.25H141.54l1.34,1.34V50.91l-1.34,1.34h35.68l-1.34-1.34V86.59a1.34,1.34,0,0,0,2.68,0V50.91a1.37,1.37,0,0,0-1.34-1.34H141.54a1.36,1.36,0,0,0-1.34,1.34V86.59a1.36,1.36,0,0,0,1.34,1.34h35.68A1.34,1.34,0,0,0,177.22,85.25Z"/><path d="M92.07,232.26H7.27c-1.14,0-2.31-.06-3.46,0H3.67l1.22,1.22V123.66c0-1.49.05-3,0-4.46V119l-1.22,1.22H88.46c1.15,0,2.31.06,3.46,0h.15L90.84,119V228.83c0,1.49,0,3,0,4.45v.2a1.23,1.23,0,0,0,2.45,0V123.66c0-1.49,0-3,0-4.46V119a1.24,1.24,0,0,0-1.22-1.22H7.27c-1.15,0-2.3,0-3.46,0H3.67A1.25,1.25,0,0,0,2.44,119V228.83c0,1.49,0,3,0,4.45a1.34,1.34,0,0,1,0,.2,1.24,1.24,0,0,0,1.23,1.22H88.46c1.15,0,2.31,0,3.46,0h.15A1.22,1.22,0,0,0,92.07,232.26Z"/><path d="M115.53,415H44.29c-1,0-1.95-.06-2.92,0h-.12l1.66,1.41v-97c0-1.31.06-2.63,0-3.95v-.16l-1.66,1.41h71.24c1,0,2,.06,2.92,0h.12l-1.66-1.41v97c0,1.31,0,2.63,0,4v.16c0,1.83,3.33,1.83,3.33,0v-97c0-1.31,0-2.63,0-3.95v-.16a1.58,1.58,0,0,0-1.67-1.42H50.37c-3,0-6-.08-9,0h-.12a1.57,1.57,0,0,0-1.66,1.42v97c0,1.31,0,2.63,0,4v.16a1.57,1.57,0,0,0,1.66,1.42h65.16c3,0,6,.08,9,0h.12A1.43,1.43,0,1,0,115.53,415Z"/><path d="M123,49H92.19c-.42,0-.85,0-1.27,0h-.06l1,1V3c0-.63,0-1.27,0-1.9V1l-1,1h30.83c.42,0,.85,0,1.27,0H123l-1-.95V44c0,2,0,3.95,0,5.92,0,0,0,.05,0,.08A1,1,0,0,0,124,50V7c0-2,.06-4,0-5.92V1A1,1,0,0,0,123,0H94.83c-1.3,0-2.61,0-3.91,0h-.06a1,1,0,0,0-1,1V44c0,2,0,3.95,0,5.92V50a1,1,0,0,0,1,.95H119c1.3,0,2.62.05,3.92,0H123A1,1,0,0,0,123,49Z"/><path d="M433.58,468.74H406.42l1.66,1.18v-33.4l-1.66,1.18h27.16l-1.66-1.18v33.4c0,1.52,3.33,1.52,3.33,0v-33.4c0-.63-.77-1.17-1.67-1.17H406.42c-.9,0-1.66.54-1.66,1.17v33.4c0,.64.76,1.18,1.66,1.18h27.16C435.72,471.1,435.73,468.74,433.58,468.74Z"/><g class="cls-4"><rect class="cls-3" x="349.75" y="7.54" width="31.23" height="40.21"/><rect class="cls-5" x="137.52" y="55.37" width="35.68" height="35.68"/><rect class="cls-5" y="123.08" width="88.4" height="114.47"/><rect class="cls-3" x="36.26" y="320.03" width="74.28" height="101.15"/><rect class="cls-5" x="88" y="4.16" width="32.15" height="49.01"/><rect class="cls-5" x="401.43" y="440.45" width="27.16" height="33.4"/></g></g></g></g></g></svg>