<svg xmlns="http://www.w3.org/2000/svg" viewBox="0 0 1619.69 454.34"><defs><style>.cls-1{fill:#fff;}.cls-2{fill:#fcec74;}.cls-3{fill:#269ac2;}.cls-4{fill:#f35528;}.cls-5{fill:#e2deda;}.cls-6{fill:#fefaf9;}</style></defs><g id="Layer_2" data-name="Layer 2"><g id="レイヤー_1" data-name="レイヤー 1"><g id="mv"><path class="cls-1" d="M1491.84,304.3a6.21,6.21,0,0,1,.49-2.41c-.19-1.44-.37-2.88-.57-4.32-1.09-8.09-2.36-16.17-4-24.16q-1.24-6-2.84-11.85c-1.12-4.12-2-7.11-3.28-10.61A160.45,160.45,0,0,0,1471.38,228c-2.37-4.33-5.06-8.46-7.6-12.69a14.67,14.67,0,0,1-2.46-.78c-1.35-1.35-2.76-2.64-4.22-3.84a2.07,2.07,0,0,1-1.44-.19c-4.3-2.17-8.46-4.66-12.59-7.13a1.74,1.74,0,0,1-.91-1.82,64.58,64.58,0,0,0-25.25-5.25l-.13,0c-.48,0-1,0-1.43,0a15,15,0,0,1-4.92-1c-1.55-.16-3.11-.26-4.67-.28,0-.74.07-1.49.11-2.24a17.22,17.22,0,0,1-2.84-2.58,18.94,18.94,0,0,1-4.36-13,32.85,32.85,0,0,1,4.2-15.24c-.13-.17-.26-.35-.4-.52a19.74,19.74,0,0,0,3.79-10.65c.9-2.55,1.7-5.18,2.7-7.7a60.44,60.44,0,0,0,7.19-8.16c7.23-5.45,13.76-11.72,18.4-19.73a20.55,20.55,0,0,0,2.21-5.59,36.46,36.46,0,0,0,6-13.46c1.84-9.61-.69-18.23-7-25.65A40.41,40.41,0,0,0,1432,66.6,105.65,105.65,0,0,0,1425.11,50l7.66-5.69c6.88-5.11,11.11-11.7,9.9-20.67a19.66,19.66,0,0,0-4.08-9.81c-2.47-3.2-6.6-6.86-10.78-7.44-5.45-.75-9-1.11-14.5-.05a32.2,32.2,0,0,0-9.15,3.52,40,40,0,0,0-11.61,9.88c-2.51,3.13-4.76,6.38-7,9.66a45,45,0,0,0-6.48.65c-8.07,1.36-15.81,4.39-23.26,7.71a65.8,65.8,0,0,0-14.53,8.89,79.83,79.83,0,0,0-15.17,13.85A92.47,92.47,0,0,0,1312,84.35c-2.76,6.58.62,15.47,5.34,20.18a20.82,20.82,0,0,0,11.49,5.8c.82,5.27,1.9,10.56,3.24,15.78a31.46,31.46,0,0,0,2.07,11.45,21.14,21.14,0,0,0,4.3,9.81,19.31,19.31,0,0,0,5.16,4.69l.39,8.87a14.12,14.12,0,0,1,1,1.14,13.54,13.54,0,0,1,3.37,6.24,13.39,13.39,0,0,1,1,6.81v.75a17.91,17.91,0,0,1-3,8.69l-1.34,1.53.19,4.45a24.09,24.09,0,0,0-6.81,9.7c-16.11,1.77-27.23,15-35.8,29.2a153.93,153.93,0,0,0-26.4,37.82,12.49,12.49,0,0,0-.82,2.26q-2.91,4.69-5.56,9.52c-2.11,3.84-4.13,7.73-6.11,11.64a9.05,9.05,0,0,1,3.06,4.28,14,14,0,0,1,1.64,2.06c-1-1.55.66.89.71,1,.36.5.73,1,1.11,1.48,1,1.22,2,2.41,3,3.55s2.15,2.24,3.27,3.32l.43.41c.52.43,1,.86,1.56,1.28a57.24,57.24,0,0,0,7.25,4.9c.66.38,1.33.74,2,1.09l.22.11.47.19c1.39.55,2.77,1.13,4.19,1.61a9,9,0,0,1,4.39,3.22c3.05-2.32,7.45-2.09,10.62-.17,3.77,2.27,4.57,6.83,3.68,10.76-.73,3.18-1.12,8.08-2,11.85a6.88,6.88,0,0,1-1.11,2.49c-.38,4-.89,8-1.39,12,0,.32-.09.64-.16,1a5.62,5.62,0,0,1,1,4.08c-2.12,12.58-8.16,24.28-10,36.86h196.43C1489.56,367,1491.82,335.48,1491.84,304.3Z"/><path class="cls-2" d="M1437.18,291.93c.73-5,1.5-10.07,2.37-15.11a8.5,8.5,0,0,0-5.71-2.12l-122.43.9c-4.69,0-9.18,4.1-9,9a9.1,9.1,0,0,0,9,9l122.43-.89A8.93,8.93,0,0,0,1437.18,291.93Z"/><path class="cls-2" d="M1432.86,322.58c.83-5.41,1.58-10.84,2.33-16.29a8.32,8.32,0,0,0-4.63-1.3l-111.76,1.94c-4.69.08-9.19,4.06-9,9s3.94,9.06,9,9l111.76-1.93A9.42,9.42,0,0,0,1432.86,322.58Z"/><path class="cls-2" d="M1426.38,354.41c1.44-5.29,2.66-10.62,3.72-16a8.25,8.25,0,0,0-5.3-1.78q-53,1-106,5c-4.67.35-9.2,3.88-9,9,.2,4.56,4,9.34,9,9q52.89-3.93,106-5A9.33,9.33,0,0,0,1426.38,354.41Z"/><path class="cls-2" d="M1418.23,370.61l-110.09,2.23c-4.69.09-9.19,4.05-9,9,.21,4.77,3.94,9.07,9,9l110.09-2.22c4.69-.09,9.19-4.06,9-9S1423.26,370.51,1418.23,370.61Z"/><path class="cls-3" d="M1438.6,79a8.36,8.36,0,0,0,.12-9,65.37,65.37,0,0,0-12.11-13.85l-1.81-1.51-.94-1.63c-.62-1-1.25-2.1-1.85-3.17-.3-.54-.59-1.08-.88-1.62,0,0-.15-.32-.3-.62h.65a25.94,25.94,0,0,0,8.92-2c4.41-1.86,7-6.2,7.91-10.76,1.21-5.95.26-12.52-3.4-17.43a17.91,17.91,0,0,0-5.6-7.41,19.57,19.57,0,0,0-17.59-3.12,18.73,18.73,0,0,0-12.47,12.59,21.31,21.31,0,0,0-1.74,4.06,24,24,0,0,0-.89,5.39,17,17,0,0,0,0,1.75c0,.18,0,.33,0,.46l-.1.17a39.17,39.17,0,0,0-15.83-1.36l-.5.06a13.11,13.11,0,0,0-8.05-.79c-23.5,4.81-42.56,21.8-52,43.2a55.56,55.56,0,0,0-4.37,7.25,58.63,58.63,0,0,0-5.15,13.71c-1.43,6.7.12,15.48,7.18,18.49,7.47,3.19,14.3.7,17.28-7,.19-.51.31-.82.37-1s.11-.25.19-.41c.47-1,1-2,1.47-3.07.94-1.85,2-3.66,3-5.44s2.23-3.52,3.43-5.23q1-1.4,2-2.76l.39-.53.58-.7a252.89,252.89,0,0,1,17.63-19q1.85-1.84,3.72-3.66a12.55,12.55,0,0,0,2-.95A28,28,0,0,0,1376,75.43c4.34,5.27,11.76,8.86,18.72,8.38a69.57,69.57,0,0,0,17.72,9c.17.06.34.1.51.15a11.34,11.34,0,0,0,5.7,6c.4,1.39.77,2.8,1.12,4.22a7.45,7.45,0,0,1,1.48-.06,8.25,8.25,0,0,1,5.31,2.65l3.29,3.29a7.65,7.65,0,0,1,1.88,5.63v.07c6-.19,12-4.34,11.88-11.51A66.24,66.24,0,0,0,1438.6,79Z"/><path d="M1374.88,171.19a39.38,39.38,0,0,1-25.4-9.29c-7.88-6.66-13.92-16.21-17.49-27.6a2.34,2.34,0,0,1,4.47-1.4c3.3,10.55,8.85,19.34,16,25.43a34.66,34.66,0,0,0,30.54,7.2c11.08-2.72,18.85-11,23.42-17.43a62.06,62.06,0,0,0,6.92-13c0-.07,0-.4.08-.62a5.42,5.42,0,0,1,.94-2.9,4.58,4.58,0,0,1,3.95-1.55c.27,0,.52,0,.72,0a11.82,11.82,0,0,0,6-2.25c4.09-3.18,5.51-9.89,4.78-14.59a16.64,16.64,0,0,0-3.4-7.85c-1.53-1.84-3.91-2.51-6.43-3.09a2.34,2.34,0,0,1,1-4.56c3,.7,6.51,1.69,9,4.65a21.5,21.5,0,0,1,4.42,10.13c.94,6-.71,14.47-6.52,19a16.5,16.5,0,0,1-8.26,3.2,9.73,9.73,0,0,1-1.27.06h-.23l0,.27a6.72,6.72,0,0,1-.39,1.87,66.89,66.89,0,0,1-7.44,13.91c-5,7.1-13.64,16.21-26.12,19.27A39.07,39.07,0,0,1,1374.88,171.19Z"/><path d="M1345.3,160.82a68.59,68.59,0,0,1,1.61,7.23c.2,1.2.3,2,.41,3.35s.15,2.5.14,3.75-.07,2.3-.19,3.44c0,.18,0,.35,0,.53s0,0,0,0l-.12.78c-.1.61-.22,1.22-.36,1.82a27.45,27.45,0,0,1-1,3.43,18.28,18.28,0,0,1-1.23,2.77,27.26,27.26,0,0,1-2,3.22l-.23.31-.26.34c.15-.18-.11.14-.11.14l-.32.4c-.43.51-.88,1-1.34,1.5a2.53,2.53,0,1,0,3.57,3.58,31,31,0,0,0,7.49-13.19,40.39,40.39,0,0,0,.68-16,66.67,66.67,0,0,0-1.84-8.75,2.53,2.53,0,1,0-4.87,1.34Z"/><path d="M1345,159.88l.18.63a2,2,0,0,0,.45.86,2.27,2.27,0,0,0,1.65.95,1.93,1.93,0,0,0,1,0l.6-.25a2.64,2.64,0,0,0,.91-.91l.25-.6a2.58,2.58,0,0,0,0-1.35c-.06-.2-.11-.41-.17-.62a1.85,1.85,0,0,0-.46-.86,2.28,2.28,0,0,0-1.64-1,1.92,1.92,0,0,0-1,0l-.61.26a2.59,2.59,0,0,0-.9.9l-.26.61a2.54,2.54,0,0,0,0,1.34Z"/><path d="M1399.65,157.92c-1.7,7.11-3.45,14.46-2.8,21.82a27.6,27.6,0,0,0,6.72,16.31,19.55,19.55,0,0,0,8.09,5.33,2.54,2.54,0,0,0,3.11-1.76,2.58,2.58,0,0,0-1.76-3.11l-.5-.18c-.07,0-.49-.18-.18-.06s-.27-.13-.27-.13l-.38-.18a15.16,15.16,0,0,1-1.61-.92c-.26-.17-.5-.36-.76-.53s.31.25,0,0l-.4-.33a16.35,16.35,0,0,1-1.36-1.27c-.41-.42-.8-.87-1.18-1.33-.08-.1-.36-.48-.05-.06-.08-.12-.17-.23-.25-.34-.21-.29-.4-.58-.6-.87a25.94,25.94,0,0,1-1.81-3.37c0-.09-.18-.44,0,0-.06-.13-.11-.27-.16-.4-.12-.3-.23-.6-.34-.9-.22-.64-.42-1.29-.59-1.94s-.27-1.11-.38-1.66c-.06-.31-.12-.63-.16-.94,0-.11-.09-.57,0-.13,0-.24,0-.47-.08-.71a37.15,37.15,0,0,1-.16-5.06q0-1.2.15-2.4c0-.42.08-.84.13-1.26,0-.19,0-.38.07-.57s0-.28,0-.42c0,.16,0,.15,0,0,.54-3.81,1.43-7.55,2.32-11.29a2.53,2.53,0,0,0-4.87-1.35Z"/><path d="M1394.07,26.5c-8.94-3.54-19.18-2.8-28.12.34s-16.79,8.28-24.2,13.92a111.27,111.27,0,0,0-17.66,16.42c-5.3,6.26-9.87,13.3-12.33,21.18a36.71,36.71,0,0,0,.37,23.72c.42,1.12.89,2.22,1.39,3.3a2.54,2.54,0,0,0,3.46.91,2.61,2.61,0,0,0,.91-3.46l-.3-.65c-.06-.14-.13-.28-.19-.43,0,0,.13.33,0,.06-.19-.46-.37-.93-.55-1.4q-.51-1.44-.9-2.91c-.24-.92-.45-1.85-.61-2.79,0-.21-.07-.43-.1-.64s0-.21,0-.32c0,.09.06.52,0,0s-.1-.92-.14-1.38a33.54,33.54,0,0,1,0-5.58c0-.41.09-.83.14-1.24-.07.6,0-.12,0-.26l.12-.73c.16-.89.35-1.78.57-2.66a41.28,41.28,0,0,1,1.73-5.32l.24-.6,0,.12c.06-.14.12-.27.17-.4.19-.42.38-.85.58-1.27.42-.88.86-1.74,1.32-2.6.91-1.67,1.9-3.29,3-4.87.54-.8,1.09-1.59,1.66-2.36.28-.39.57-.78.86-1.16l.21-.27s-.23.3-.06.07l.56-.7a103.5,103.5,0,0,1,16.5-16.18l1.07-.84c.38-.3-.24.18.15-.11l.57-.44c.77-.59,1.55-1.16,2.34-1.73q2.73-2,5.55-3.86a79.84,79.84,0,0,1,11.93-6.54c.39-.17-.29.12.11,0l.36-.14.72-.29c.56-.22,1.13-.43,1.7-.63,1-.38,2.12-.72,3.19-1s2.17-.56,3.27-.78q.82-.16,1.65-.3c.25-.05.51-.08.77-.12s0,0,0,0l.64-.08a39.23,39.23,0,0,1,6.68-.19c.55,0,1.11.08,1.66.13l.76.09c-.4,0,.34.06.46.08a32.12,32.12,0,0,1,3.37.74,31.49,31.49,0,0,1,3.15,1.06,2.53,2.53,0,0,0,3.11-1.76,2.6,2.6,0,0,0-1.77-3.11Z"/><path d="M1414.17,43.13a64.44,64.44,0,0,1,7.13,6.69q1.65,1.8,3.16,3.71l.29.37.17.22.69.93c.48.65,1,1.32,1.41,2a74.17,74.17,0,0,1,4.89,8.29c.74,1.45,1.43,2.93,2.07,4.42,0,0,.29.67.15.34s.15.38.14.35l.44,1.08c.31.79.61,1.59.9,2.39a89.34,89.34,0,0,1,4.27,16.89c0,.33.1.66.14,1-.09-.68,0,.39.07.53.08.73.16,1.46.22,2.2.12,1.4.2,2.81.21,4.21s0,2.73-.12,4.09c-.05.65-.13,1.3-.2,2,0,.4.09-.63,0,0,0,.16,0,.32-.08.48,0,.35-.11.71-.18,1.06a31.48,31.48,0,0,1-1.15,4.39c-.12.33-.24.66-.37,1s-.14.36-.21.54c.23-.61,0,0,0,.1-.31.7-.65,1.39-1,2.06s-.75,1.27-1.17,1.88c-.2.3-.41.59-.62.87.37-.5,0,0-.09.11s-.25.31-.38.46a25,25,0,0,1-3.52,3.38,2.53,2.53,0,0,0,0,3.57,2.6,2.6,0,0,0,3.57,0,27.6,27.6,0,0,0,9.38-14.74,47,47,0,0,0,.87-17.32,86.22,86.22,0,0,0-12.45-36.1,69.53,69.53,0,0,0-15-17,2.58,2.58,0,0,0-3.57,0,2.54,2.54,0,0,0,0,3.57Z"/><path d="M1356.36,62.87a122.21,122.21,0,0,0-24.57,36.52,115.2,115.2,0,0,0-7,21.08,81.7,81.7,0,0,0-1.78,10.75,40,40,0,0,0,.41,10.13,30,30,0,0,0,11.12,19.34,2.54,2.54,0,0,0,3.46-.91,2.6,2.6,0,0,0-.91-3.45c.46.35-.1-.08-.16-.13l-.48-.41c-.27-.23-.53-.47-.79-.71-.55-.53-1.08-1.08-1.59-1.66l-.4-.48s-.43-.53-.19-.24l-.19-.24-.36-.51c-.44-.63-.85-1.28-1.24-1.94s-.74-1.36-1.06-2.06l-.18-.38c0-.08-.31-.73-.08-.17-.17-.39-.32-.79-.47-1.19a33.66,33.66,0,0,1-1.3-4.51c-.14-.7-.27-1.41-.38-2.12,0-.09-.1-.81,0-.18,0-.22-.05-.43-.07-.64,0-.43-.09-.86-.12-1.3a39.44,39.44,0,0,1,0-4.74,57.46,57.46,0,0,1,1.36-9.28,109.66,109.66,0,0,1,6.37-20.3l.13-.3c.06-.15.12-.3.19-.45l.55-1.24c.38-.86.78-1.71,1.18-2.57q1.17-2.44,2.43-4.84c1.67-3.14,3.47-6.22,5.4-9.21,1.08-1.68,2.19-3.32,3.35-4.94.57-.79,1.14-1.57,1.72-2.34l.44-.58.19-.25,1-1.23a108.88,108.88,0,0,1,7.75-8.75,2.55,2.55,0,0,0,0-3.57,2.59,2.59,0,0,0-3.58,0Z"/><path d="M1410.17,77.89a78.79,78.79,0,0,0,5.24,21c1.33,3.46,2.79,6.87,4.28,10.26l2.07,4.69,1,2.36.56,1.28.27.65c0,.09.3.72.11.25a98.91,98.91,0,0,1,6.54,20.39c.16.85.3,1.7.42,2.56.07.5,0,.13,0,0l.09.71c.06.51.11,1,.16,1.54a54.86,54.86,0,0,1,.23,5.74c0,.94-.05,1.88-.12,2.81q-.06.77-.15,1.53s-.11.85,0,.34c0,.25-.07.5-.11.75a31.32,31.32,0,0,1-1.44,5.64l-.27.71c-.06.16-.12.32-.19.47.08-.17.08-.18,0,0-.22.48-.44,1-.68,1.42a21.68,21.68,0,0,1-1.45,2.41l-.24.36c-.06.08-.61.8-.26.35-.29.37-.59.73-.91,1.08a21.63,21.63,0,0,1-1.92,1.91l-.49.42-.33.27c.22-.18.22-.18,0,0s-.69.5-1,.74a22.83,22.83,0,0,1-2.43,1.32c-.63.31.48-.17-.18.08l-.59.23c-.47.16-.94.31-1.42.43s-.83.19-1.25.27c-.1,0-.8.09-.17,0l-.85.07a2.53,2.53,0,1,0,0,5.06c7.43-.51,13.88-5.33,17.5-11.71,4.05-7.13,4.62-15.77,3.76-23.77a83.55,83.55,0,0,0-5.7-21.62c-1.39-3.53-2.91-7-4.44-10.48-.72-1.64-1.44-3.27-2.15-4.91-.35-.78-.68-1.57-1-2.35l-.27-.64-.11-.26-.58-1.39a115,115,0,0,1-4.08-11.43c-.56-1.92-1-3.86-1.45-5.82-.2-1-.38-2-.53-3,0-.24-.07-.47-.1-.7.08.57,0-.39-.06-.48-.06-.55-.12-1.09-.17-1.64a2.53,2.53,0,0,0-5,0Z"/><path d="M1369.63,56.53a19.67,19.67,0,0,0,1.51,15,27,27,0,0,0,10.64,10.73,45.85,45.85,0,0,0,8,3.62,2.55,2.55,0,0,0,3.11-1.76,2.59,2.59,0,0,0-1.76-3.11l-1.57-.58-.78-.31.06,0-.44-.19c-1.06-.46-2.1-1-3.11-1.52a30.37,30.37,0,0,1-2.84-1.74l-.68-.48-.38-.28,0,0c-.47-.36-.92-.74-1.36-1.14a25.85,25.85,0,0,1-2.31-2.37l-.3-.37s-.25-.32-.09-.11-.07-.1-.08-.11l-.27-.38c-.31-.45-.61-.91-.88-1.38s-.54-1-.78-1.44l-.19-.42-.06-.13c.1.25,0-.1-.06-.13s-.14-.36-.2-.54a17.91,17.91,0,0,1-.86-3.13c0-.15,0-.3-.07-.46-.07-.39,0,.39,0,0s-.06-.61-.08-.92a16,16,0,0,1,0-1.83l0-.45s.05-.53,0-.24,0-.08,0-.11c0-.19.06-.38.1-.57a14.89,14.89,0,0,1,.51-1.88,2.53,2.53,0,0,0-1.76-3.11,2.59,2.59,0,0,0-3.11,1.76Z"/><path d="M1392.42,69.81a20.77,20.77,0,0,0,11.65,13.94,2.81,2.81,0,0,0,2,.26,2.6,2.6,0,0,0,1.51-1.17c.58-1.08.39-2.89-.91-3.45a18.73,18.73,0,0,1-3.53-2c-.51-.37.42.34-.07-.05l-.36-.3c-.26-.22-.51-.44-.76-.68a17.77,17.77,0,0,1-1.41-1.47l-.29-.36c-.2-.24-.22-.22,0,0a6.47,6.47,0,0,1-.64-.91,17.06,17.06,0,0,1-1-1.75c-.15-.28-.28-.56-.41-.83-.27-.57.2.51,0-.08-.06-.15-.12-.29-.17-.43a18.41,18.41,0,0,1-.62-2,2.53,2.53,0,0,0-4.87,1.34Z"/><path d="M1402,22.05a10.94,10.94,0,0,1-.5-1.78c0-.1,0-.49,0,0,0-.15,0-.31,0-.46,0-.31,0-.61,0-.92s0-.62.06-.93c0,.47,0,.09,0,0s0-.3.08-.45a13.32,13.32,0,0,1,.52-1.8c.05-.15.11-.3.17-.44-.17.4,0,0,0-.05.14-.28.28-.56.43-.83a13.61,13.61,0,0,1,1-1.57c-.24.32,0,0,0,0l.3-.36c.21-.24.43-.47.65-.7a17.41,17.41,0,0,1,1.48-1.36c.09-.08.67-.53.33-.27l.77-.56c.56-.38,1.13-.74,1.71-1.09,1.09-.63,2.21-1.17,3.34-1.71.36-.16-.34.14,0,0l.32-.12c.28-.12.57-.22.85-.32.61-.22,1.23-.42,1.85-.59s1.11-.27,1.67-.38c.13,0,1-.16.44-.08.33-.05.67-.08,1-.1a14.54,14.54,0,0,1,2,0l.43,0c.26,0,.44.07.08,0,.32,0,.63.11,1,.18s.61.17.92.27l.4.14c.45.17-.17-.1.08,0a16.58,16.58,0,0,1,1.76,1.08,2.54,2.54,0,0,0,3.46-.91,2.6,2.6,0,0,0-.91-3.46c-4.7-3.52-11.26-2.8-16.41-.73-5.41,2.17-11,5.71-13.48,11.24a13.71,13.71,0,0,0-.66,10.42,2.58,2.58,0,0,0,3.11,1.76,2.54,2.54,0,0,0,1.76-3.1Z"/><path d="M1424.38,26.1c-.11.06-.65.39-.37.23s0,0-.14.05l-.27.07a1.35,1.35,0,0,1-.36.08s.6,0,.1,0a2.09,2.09,0,0,1-.75,0s.58.13.1,0l-.28-.07c-.22-.06-.43-.13-.64-.21.47.18,0,0-.18-.13s-.22-.15-.33-.2c-.27-.11.37.35,0,0-.16-.14-.31-.35-.48-.47s0,.09.09.14l-.24-.35c-.08-.13-.15-.26-.22-.39s-.18-.36-.06-.1,0-.14-.08-.21l-.12-.43c0-.17-.14-.8-.09-.31,0-.3,0-.6,0-.9,0-.12,0-.82,0-.57s0-.07,0-.11l.12-.55c.07-.26.15-.51.23-.76.15-.46,0-.13,0,0a2.92,2.92,0,0,1,.14-.31c.24-.48.56-.89.82-1.34.14-.24-.09.11-.11.13l.24-.29.45-.5c.33-.34.69-.64,1-.95-.47.41.14-.09.26-.17s.37-.24.56-.36c.42-.25.85-.44,1.28-.66-.56.29.14-.05.28-.11l.55-.18a14.74,14.74,0,0,1,1.49-.37,2.5,2.5,0,0,1,.38-.06s-.5,0-.2,0l.67-.06a12.82,12.82,0,0,1,1.52,0c.11,0,.79.11.42,0s.3.06.42.09a14.37,14.37,0,0,1,1.46.42c.42.14-.38-.2.19.08l.6.31c.23.13.46.26.68.41l.28.19c.59.39-.19-.18.13.08a13.73,13.73,0,0,1,1.25,1.16c.16.16.31.33.46.5l.3.35c.29.35-.06-.1.09.13a23.75,23.75,0,0,1,1.77,2.95c.12.26.24.51.35.77-.14-.33.14.36.17.45.22.6.42,1.2.58,1.81a16.62,16.62,0,0,1,.4,1.86c0,.12,0,.25.06.37,0-.11,0-.43,0,.08,0,.34.06.67.08,1a17.22,17.22,0,0,1,0,1.76c0,.1-.12,1-.05.57,0,.32-.11.65-.18,1a16.14,16.14,0,0,1-.58,1.91c-.17.45,0,.07,0,0-.07.16-.15.33-.23.48s-.27.51-.41.75-.35.54-.53.8c0,0-.24.32-.06.09s-.21.24-.21.24a11.42,11.42,0,0,1-1.2,1.21l-.33.28c.27-.23.1-.08-.08,0s-.46.32-.71.47-.48.28-.73.41-.26.11-.38.18c-.34.17.55-.19-.07,0a11.32,11.32,0,0,1-1.61.45c-.47.1,0,0,0,0l-.52,0c-.32,0-.63,0-.95,0a2.54,2.54,0,0,0-2.53,2.52,2.59,2.59,0,0,0,2.53,2.53c5.88.22,11-4.08,12.93-9.41,2.1-5.73.56-12.66-2.78-17.61a15.36,15.36,0,0,0-6.26-5.62,14.28,14.28,0,0,0-7.93-1c-5,.73-9.87,4.29-11.27,9.29-.91,3.25-.26,7.19,2.4,9.46s6.31,2.85,9.2,1a2.53,2.53,0,0,0-2.55-4.36Z"/><path d="M1356.55,107.53h-.34a1.59,1.59,0,0,0-.8.18,1.91,1.91,0,0,0-1.09,1.09,1.59,1.59,0,0,0-.18.8l.07.55a2,2,0,0,0,.54.92l.42.32a2,2,0,0,0,1,.29h.34a1.59,1.59,0,0,0,.8-.18,1.52,1.52,0,0,0,.66-.43,1.46,1.46,0,0,0,.43-.67,1.55,1.55,0,0,0,.18-.8l-.07-.55a2.07,2.07,0,0,0-.54-.91l-.42-.33a2,2,0,0,0-1-.28Z"/><path d="M1384.76,114.82a3.56,3.56,0,1,0-3.56-3.56,3.61,3.61,0,0,0,3.56,3.56Z"/><path d="M1366.14,116.27a1.87,1.87,0,0,0-.14.44q.2-.43.06-.15l-.07.16a7.42,7.42,0,0,1-.44.7.71.71,0,0,1-.1.14c-.12.17-.1.13.09-.11-.11.06-.23.28-.31.38l-.56.64a10.35,10.35,0,0,0-2.21,3.34,5.36,5.36,0,0,0,.61,4.52,5.9,5.9,0,0,0,4.7,2.79,2,2,0,1,0,0-3.93c-.44,0,.34.11-.06,0l-.48-.15c-.14-.05-.1,0,.13.06l-.19-.11c-.1,0-.58-.28-.15-.06a1.3,1.3,0,0,1-.32-.3l-.1-.1c-.14-.17-.13-.15,0,0,0,0-.21-.31-.24-.36s-.31-.5-.06-.06c-.1-.18-.08-.64-.21-.78,0,.32.05.38,0,.16v-.11c0-.08,0-.58,0-.2s0,0,0-.12a1.69,1.69,0,0,0,.12-.36c0,.18-.18.39,0,.06l.16-.29a4.12,4.12,0,0,0,.39-.57c-.17.42-.14.18,0,0a3.11,3.11,0,0,1,.23-.28c.34-.4.7-.78,1-1.19a8.35,8.35,0,0,0,1.84-3.2,2,2,0,1,0-3.79-1Z"/><path d="M1364.6,145.63a7.74,7.74,0,0,1,6-1.29,27.08,27.08,0,0,1,7.29,2.82,2,2,0,0,0,2.68-.7,2,2,0,0,0-.7-2.69c-2.75-1.4-5.6-2.85-8.69-3.29a11.55,11.55,0,0,0-8.57,1.75,2,2,0,0,0-.71,2.69,2,2,0,0,0,2.69.71Z"/><path d="M1382.18,101a16.61,16.61,0,0,0,7.08,2.88,1.11,1.11,0,0,0,1.34-.76,1.1,1.1,0,0,0-.76-1.34,14.89,14.89,0,0,1-6.56-2.66,1.1,1.1,0,0,0-1.49.39,1.11,1.11,0,0,0,.39,1.49Z"/><circle class="cls-4" cx="1419.22" cy="132.23" r="5.91"/><path d="M1419.22,140.22h-.36a7.95,7.95,0,1,1,.36,0Zm0-11.83a3.85,3.85,0,0,0-3.84,3.67,3.86,3.86,0,0,0,3.67,4,3.84,3.84,0,0,0,4-3.67h0a3.86,3.86,0,0,0-1-2.76,3.77,3.77,0,0,0-2.66-1.24Z"/><path d="M1340,202.5a138,138,0,0,0,30.14,5.76,102.71,102.71,0,0,0,31.52-2,66.17,66.17,0,0,0,16-6,2.54,2.54,0,0,0,.91-3.45,2.58,2.58,0,0,0-3.46-.91c-1.08.58-2.17,1.12-3.29,1.63l-.79.35-.4.17h0c-.58.24-1.15.47-1.73.69a66.94,66.94,0,0,1-7,2.2c-2.43.64-4.9,1.14-7.39,1.54-.6.1-1.21.19-1.81.27-.09,0-.5.06,0,0l-.45.06-1,.12c-1.26.15-2.52.26-3.78.36a114.09,114.09,0,0,1-15.47,0c-2.59-.17-5.18-.42-7.75-.74l-.92-.11c-.1,0-.5-.07,0,0l-.45-.06-1.93-.28c-1.24-.2-2.48-.4-3.71-.63a135.23,135.23,0,0,1-15.88-3.9,2.56,2.56,0,0,0-3.11,1.77,2.59,2.59,0,0,0,1.77,3.11Z"/><path d="M1329.36,201.09a85.34,85.34,0,0,0-18.3,12.14,109.85,109.85,0,0,0-14.57,15.38,194.35,194.35,0,0,0-12.51,18c-3.82,6.16-7.41,12.45-11,18.76s-7,12.47-10.77,18.58l-1.42,2.3a2.55,2.55,0,0,0,.91,3.45,2.58,2.58,0,0,0,3.46-.9c3.75-6,7.27-12.21,10.77-18.39s7.06-12.49,10.78-18.62A207.14,207.14,0,0,1,1298.66,234l.77-1c-.27.34,0,0,.11-.16l.46-.57c.54-.69,1.08-1.36,1.63-2q1.69-2.05,3.46-4c2.33-2.6,4.78-5.1,7.36-7.46q2-1.78,4-3.47l1-.78.49-.39-.1.08.33-.25c.7-.53,1.4-1,2.11-1.56a81.37,81.37,0,0,1,9.21-5.68c.8-.43,1.61-.83,2.42-1.23a2.54,2.54,0,0,0,.91-3.45,2.6,2.6,0,0,0-3.46-.91Z"/><path d="M1312.8,252.32c-6,5.57-9.44,13.26-10.64,21.29s-.59,16.3.76,24.36c.81,4.84,1.9,9.64,2.88,14.45.52,2.57,1,5.16,1.42,7.75s.68,4.84.86,7.57a67.17,67.17,0,0,1,0,7.9c-.06,1.32-.17,2.63-.3,3.94-.07.65-.15,1.3-.23,2-.06.45-.13,1-.24,1.7-.78,5.21-2,10.36-3.2,15.48-2.57,10.57-5.19,21.13-7.79,31.69-.32,1.31-.64,2.62-1,3.93a2.53,2.53,0,1,0,4.87,1.34q3.87-15.72,7.73-31.43c2.54-10.36,5.18-20.84,5.28-31.57s-2.59-21.12-4.64-31.53c-.4-2-.77-4-1.08-6-.08-.47-.15-.95-.21-1.42,0-.22-.08-.61,0-.15,0-.28-.08-.55-.11-.83-.12-1-.23-1.94-.32-2.91a70.34,70.34,0,0,1-.18-11.79q.11-1.45.3-2.91c-.07.53,0-.05,0-.25s.07-.48.11-.72c.08-.48.17-.95.26-1.43a40.91,40.91,0,0,1,1.52-5.54c.16-.45.33-.89.51-1.33.08-.19.24-.56.06-.15l.33-.75c.4-.86.84-1.71,1.32-2.54s1-1.64,1.55-2.42l.43-.59.19-.25c-.06.08-.31.39,0,0s.62-.75,1-1.12a28.25,28.25,0,0,1,2.1-2.14,2.54,2.54,0,0,0,0-3.57,2.57,2.57,0,0,0-3.57,0Z"/><path d="M1437.85,282.65c-1.22,10.15-2.67,20.18-4.42,30.47s-3.75,20.46-6,30.61q-1.9,8.61-4.06,17.18a2.56,2.56,0,0,0,1.76,3.11,2.59,2.59,0,0,0,3.11-1.77q3.84-15.25,6.91-30.7t5.35-30.87q1.34-9,2.41-18a2.52,2.52,0,0,0-2.53-2.52,2.59,2.59,0,0,0-2.52,2.52Z"/><path class="cls-1" d="M1353.19,200.63a16.47,16.47,0,0,0-.32-9.1,8,8,0,0,0-.79-1.73c0-.56-.11-1.13-.19-1.69a10.74,10.74,0,0,0-.09-3.1,6.6,6.6,0,0,0-1.87-3.61,38.17,38.17,0,0,0-2.13-4,82.89,82.89,0,0,0-3.9-9.39c-.16-1.08-.28-2.15-.43-3.23a22.93,22.93,0,0,0-.78-3.66c-.16-.49-.34-1-.52-1.41l.62-.42a5.14,5.14,0,0,0,5.68-.92c1-.95,2-1.95,2.86-3l.37-.11a5.41,5.41,0,0,0,4-5.91,5.31,5.31,0,0,0-.05-4.89,5.46,5.46,0,0,0-4.51-2.77,22.29,22.29,0,0,0-5.6.15,5.29,5.29,0,0,0-4.1-5.45c.06-.4.12-.8.17-1.21a5.26,5.26,0,0,0-7.76-4.74,51.65,51.65,0,0,0-10.13,7.89l-.67.52a35.31,35.31,0,0,0-4.38,1.95,86.48,86.48,0,0,0-10.15,6.71,3.74,3.74,0,0,0-1,1.34,12.74,12.74,0,0,0-4.45,6.54,10.82,10.82,0,0,0,.07,6,8.91,8.91,0,0,0,4.33,5.47l.53.23a23.65,23.65,0,0,0,1.89,2.87l7.55,10.1a8.92,8.92,0,0,0-.54.82,13.55,13.55,0,0,1,1.27,1.36,9.36,9.36,0,0,1,1.84,3.09,1.19,1.19,0,0,1,1.22,1,22.23,22.23,0,0,1-.13,4,1.2,1.2,0,0,1,.52,1.74c-.72,1.12-1.43,2.23-2.07,3.38l1.16,2.27a11.9,11.9,0,0,0-3.6,5.59c-.75.9-1.48,1.81-2.21,2.73a5.15,5.15,0,0,0-.17,5.29,4.92,4.92,0,0,0,1.83,1.92,5.29,5.29,0,0,0,3,2.48l6.89,2.16c2.48.78,5.07,1.87,7.69,2a8.5,8.5,0,0,0,6.69-2.83,14.66,14.66,0,0,0,1.6-2.3,19.22,19.22,0,0,0,2.7-3.13c.23-.24.45-.49.66-.74A16.18,16.18,0,0,0,1353.19,200.63Z"/><path d="M1326.15,158c0-.11.19-.44,0,0l.13-.28c.11-.21.22-.42.34-.62s.26-.39.4-.59-.07.09-.09.11l.26-.31a10.73,10.73,0,0,1,1-1l.31-.27s-.33.25-.1.08.46-.33.69-.48a37.85,37.85,0,0,1,5.59-2.88l14.87-6.64.9-.4s.44-.18.15-.07l.38-.14a7.76,7.76,0,0,1,.9-.28,2.74,2.74,0,0,1,.39-.09c.43-.07-.52,0,.25,0,0,0,.43,0,.19,0s.07,0,.09,0l.33.09s-.46-.25-.22-.09a3.33,3.33,0,0,1,.49.29s-.46-.44-.13-.09l.23.24c.3.27-.14-.13-.08-.13a1.1,1.1,0,0,1,.14.21c.1.17.2.34.29.51.22.4-.12-.41,0,0,.06.22.13.44.18.67a1.28,1.28,0,0,1,.07.35s0-.54,0-.23,0,.42,0,.63,0,.75,0,.38,0-.09,0,0-.06.29-.1.44-.1.52-.19.58.25-.48.07-.18l-.15.31c-.12.23-.26.45-.4.67,0,.06-.3.44-.13.2s-.12.14-.15.18a13,13,0,0,1-1.1,1.13c-.19.17-.39.35-.6.52l-.27.21c-.32.27.47-.33-.12.09a49.86,49.86,0,0,0-5.53,4,10.84,10.84,0,0,0-3.33,10.55c.67,3.59,2.65,6.91,4.37,10.09.89,1.66,1.76,3.33,2.53,5.06,0,.1.18.45,0-.05l.11.27c.09.22.17.43.25.65.18.46.34.93.48,1.4a20.69,20.69,0,0,1,.68,2.9c0,.15.11.85.06.35,0,.27.06.53.08.8.05.56.08,1.13.09,1.7a25.22,25.22,0,0,1-.14,3.13c0,.11,0,.22,0,.33,0,.4.07-.4,0,0s-.07.51-.12.77c-.09.51-.19,1-.31,1.53a30.6,30.6,0,0,1-.92,3.1c-.16.46-.34.91-.52,1.37,0,.08-.19.44,0,0l-.13.31c-.13.28-.25.55-.38.82-.46,1-1,1.91-1.49,2.83s-1.16,1.91-1.79,2.83l-.88,1.23c-.16.22-.32.44-.49.65l-.32.41a62.21,62.21,0,0,1-9.35,9.36c-.38.31-.76.62-1.15.92-.05,0-.42.33-.18.15s-.08,0-.1.07l-.71.53,2-.25a101,101,0,0,1-11-5.07A105.15,105.15,0,0,1,1312,207.5l.9,3.46,7.84-11.19c2.44-3.48,5.37-7,5.89-11.39a9.06,9.06,0,0,0-1.51-6.11,40.6,40.6,0,0,0-4.23-4.85l-9.28-9.92-2.57-2.74c-.32-.35-.64-.7-1-1.06,0,0-.5-.63-.19-.22-.19-.25-.37-.51-.54-.77a9.62,9.62,0,0,1-.7-1.2c0-.07-.29-.74-.11-.21-.08-.24-.16-.48-.22-.73s-.09-.61,0,0a7.3,7.3,0,0,1,0-.81c0,.63,0,0,.07-.12s.09-.26,0,0c.07-.13.14-.25.22-.37a2.55,2.55,0,0,0-.91-3.46,2.58,2.58,0,0,0-3.45.91c-2.48,3.89.24,8.31,2.92,11.25,3,3.25,6,6.44,9,9.65l4.54,4.86c.64.67,1.29,1.34,1.87,2.08-.3-.39.17.25.18.27.14.2.27.41.39.62,0,0,.36.74.16.27a4.1,4.1,0,0,1,.23.7c0,.05.15.83.09.29a5.7,5.7,0,0,1,0,.72,5.79,5.79,0,0,1,0,.72c0-.45,0,0,0,0-.13.48-.24,1-.41,1.43,0,0-.32.76-.12.33-.13.27-.26.54-.4.8a47,47,0,0,1-3.45,5.29l-8.67,12.38a2.57,2.57,0,0,0,.91,3.46,104.71,104.71,0,0,0,16,9.21q2.28,1.06,4.62,2c.64.27,1.3.58,2,.79a3.12,3.12,0,0,0,3.08-.82,75.71,75.71,0,0,0,6.41-5.46c7.78-7.49,14.54-17.61,14.23-28.82a26,26,0,0,0-1.36-7.71,50.23,50.23,0,0,0-3.11-6.8c-1.08-2-2.21-4-3.15-6.08-.07-.16-.35-.86-.11-.24-.09-.22-.18-.45-.26-.67a15.32,15.32,0,0,1-.5-1.49,12.61,12.61,0,0,1-.33-1.38c0-.11,0-.21,0-.32-.06-.34,0,.53,0,.19s-.05-.53-.05-.79,0-.42,0-.63,0-.21,0-.32c0-.36.18-.19,0,.13a2.44,2.44,0,0,0,.13-.62,7.32,7.32,0,0,1,.23-.76s.11-.3.11-.3-.28.57,0,.15c.11-.2.2-.41.32-.6s.25-.4.38-.59c.24-.37,0,0-.07.07.12-.15.24-.3.37-.44a13.08,13.08,0,0,1,1.25-1.22l.34-.28c.3-.26-.29.19,0,0s.66-.47,1-.69c1.24-.82,2.46-1.64,3.63-2.55,2.09-1.65,4-3.92,4.44-6.63a8.25,8.25,0,0,0-2.15-7.33,6.34,6.34,0,0,0-4.19-1.7,12.3,12.3,0,0,0-5.25,1.49l-9.09,4.06c-2.83,1.27-5.7,2.48-8.51,3.82a19,19,0,0,0-6.34,4.42,11.63,11.63,0,0,0-2.18,3.74,2.54,2.54,0,0,0,1.76,3.1,2.58,2.58,0,0,0,3.11-1.76Z"/><path d="M1317.61,153.37c.33-.54.68-1.07,1.05-1.58l.28-.38,0,.05.68-.82a28.81,28.81,0,0,1,2.64-2.66l.72-.61.41-.33c.5-.39,1-.75,1.53-1.1a34.69,34.69,0,0,1,3.25-2,46.35,46.35,0,0,1,7.47-3.24,72.72,72.72,0,0,1,7.64-2.26c.23-.05.87-.1.3-.07.22,0,1.15.06.46,0,.06,0,.39.07,0,0-.19-.08-.18-.07,0,0l-.21-.16c.19.39,0,0,0-.09s.29.53.12.19,0,.05,0,.14l.12.48c.11.45,0,0,0-.07,0,.17,0,.34,0,.51,0,.6,0,1.2,0,1.8a2.53,2.53,0,1,0,5,0c0-3-.34-6.63-3.73-7.64a8.1,8.1,0,0,0-4.36.26c-1.46.39-2.92.79-4.36,1.24a51.2,51.2,0,0,0-17,8.4,28.63,28.63,0,0,0-6.57,7.39,2.53,2.53,0,0,0,4.36,2.55Z"/><path d="M1313.09,148.46c-.18.42.12-.23.18-.34l.39-.71c.14-.23.29-.45.44-.67a2.83,2.83,0,0,1,.2-.28c.41-.6-.18.18.09-.13a22.3,22.3,0,0,1,2.33-2.43c.41-.36.83-.71,1.26-1.06.13-.09.25-.19.37-.29,0,0-.27.21,0,0l.75-.57c1-.73,2-1.45,3.07-2.16,2.22-1.54,4.47-3,6.74-4.49,1.07-.7,2.15-1.4,3.27-2l.8-.41.46-.21c-.05,0-.29.12,0,0s.55-.19.83-.27l.48-.11c.18-.05.34-.06.07,0,.33,0,.66,0,1,0s.38.13-.06,0l.4.1a3,3,0,0,1,.39.13c-.21-.07-.26-.14,0,0s.75.5.35.17l.3.27c.05.05.45.46.21.2s0,0,0,.06l.24.42c.14.25-.07-.13-.07-.15s.13.61.08.22,0,0,0,0c0,.61.14-.5,0,.11a2.53,2.53,0,1,0,4.87,1.34c.79-3.34-1.39-6.28-4.42-7.48s-6.25,0-8.87,1.51-5.2,3.28-7.72,5-5,3.41-7.39,5.34a19.56,19.56,0,0,0-5.82,7.54,2.52,2.52,0,0,0,1.76,3.11,2.6,2.6,0,0,0,3.11-1.76Z"/><path class="cls-1" d="M1343.73,221.46c-.57,6.12-3.16,11.27-5.11,16.94-2.29,6.68-3.5,13.89-5.38,20.74-5.4,19.68-10.85,44.62-26.09,59.33-6.49,6.26-15.34,10.3-24.36,10s-18-5.19-22.21-13.16c-8.36-15.8.83-40,10.44-53.44a168.68,168.68,0,0,0,15.58-26.57c4.1-8.88,5.09-20.81,10.06-28.94a4.64,4.64,0,0,1,4.12-2.44c6.09.52,14.19,5.14,20.08,7.15,7.12,2.43,14.24,4.88,21.44,7.07a2.33,2.33,0,0,1,1.26.71,2.22,2.22,0,0,1,.26,1.4Q1343.79,220.88,1343.73,221.46Z"/><path d="M1341.21,221.46c0,.08-.12,1.06-.07.65,0,.34-.1.69-.16,1-.14.76-.31,1.52-.5,2.27-.35,1.4-.79,2.77-1.27,4.14-1,2.74-2.08,5.42-3,8.18-2,5.9-3.17,12.05-4.69,18.09-1.22,4.85-2.57,9.67-3.89,14.5s-2.73,9.71-4.33,14.49c-.8,2.41-1.66,4.81-2.59,7.18l-.67,1.66-.17.41s-.27.66-.13.31l-.09.21c-.07.18-.14.35-.22.52-.5,1.15-1,2.29-1.56,3.43a74.15,74.15,0,0,1-7.56,12.64c-.28.38,0,.07,0,0l-.26.34-.54.66c-.4.5-.81,1-1.23,1.46-.78.91-1.6,1.78-2.45,2.62s-1.94,1.83-3,2.67l-.38.3c.32-.25,0,0-.06,0l-.77.57c-.59.42-1.19.82-1.8,1.21a35.4,35.4,0,0,1-3.56,2l-.87.41c-.08,0-.93.4-.49.22-.67.27-1.34.53-2,.76a32.69,32.69,0,0,1-3.91,1.06c-.62.13-1.24.23-1.87.33.46-.07.05,0,0,0l-.47,0-1.19.1a28.63,28.63,0,0,1-3.93,0l-.87-.08-.44-.06c.52.07.13,0,0,0-.64-.1-1.29-.22-1.93-.37a27.47,27.47,0,0,1-3.56-1.06l-.82-.32c.48.19-.25-.12-.4-.18-.59-.28-1.18-.57-1.75-.88a29,29,0,0,1-3.12-2h0l-.34-.27c-.22-.19-.45-.37-.66-.56-.49-.43-1-.88-1.42-1.34s-.79-.84-1.16-1.28c-.08-.1-.6-.75-.28-.34-.22-.28-.44-.57-.64-.87a23,23,0,0,1-1.8-3.12c-.12-.24-.23-.48-.34-.73-.19-.42,0,0,0,.06l-.15-.38c-.22-.55-.42-1.12-.61-1.69a32.5,32.5,0,0,1-.85-3.33q-.15-.81-.27-1.62c-.07-.48,0,0,0,.06,0-.14,0-.27-.05-.41,0-.34-.08-.69-.11-1-.1-1.19-.14-2.38-.13-3.58s.07-2.43.17-3.64q.08-.87.18-1.74l.06-.43c-.07.52,0,.13,0,0,.06-.36.11-.73.17-1.09a62.17,62.17,0,0,1,1.67-7.39q1.07-3.67,2.48-7.22l.34-.82c.06-.14.11-.28.17-.41-.18.43,0,.07,0,0,.26-.61.52-1.22.8-1.82.51-1.12,1-2.23,1.6-3.32,1.07-2.09,2.23-4.14,3.48-6.13s2.81-4.12,4.22-6.18a175,175,0,0,0,9.69-15.89,84.56,84.56,0,0,0,6.87-15.91c1.51-5.1,2.62-10.32,4.46-15.31.21-.57.43-1.12.66-1.68-.18.43,0,.07,0,0l.18-.4c.15-.34.3-.67.46-1,.26-.52.52-1,.8-1.54l.43-.75c.08-.12.16-.24.23-.36.34-.55-.3.27.15-.19l.31-.32c.07-.07.37-.3,0,0a7.09,7.09,0,0,1,.75-.45c-.41.21-.12.05,0,0s.28-.08.42-.1c-.53.08-.15,0,0,0l.6.05c.13,0,.48.09-.09,0l.4.06c.27,0,.54.1.8.15.63.14,1.25.29,1.87.47,1.24.36,2.46.79,3.66,1.25.59.22,1.18.46,1.76.7l.88.36c-.39-.16,0,0,.06,0l.66.28c2.49,1.08,5,2.21,7.51,3.18,2.81,1.08,5.7,2,8.55,2.95q4.6,1.56,9.22,3.06l4.37,1.37,1,.31c.52.17,0,0,0,0l-.18-.15c-.29-.64-.39-.81-.31-.49s0-.39,0-.06a2.06,2.06,0,0,0,0,.43c0,.36,0,.71-.08,1.06a2.53,2.53,0,0,0,2.52,2.53,2.6,2.6,0,0,0,2.53-2.53c.17-1.91.08-3.89-1.72-5a8.45,8.45,0,0,0-2.12-.84c-.86-.26-1.73-.53-2.59-.81q-4.77-1.5-9.51-3.11c-3.12-1-6.25-2.07-9.35-3.18l-1.55-.59-.9-.37-.41-.16-.12-.05-3.85-1.67a79.72,79.72,0,0,0-8-3.13c-2.71-.83-5.83-1.68-8.5-.37s-3.93,4.14-5,6.65a63.77,63.77,0,0,0-2.86,8.06c-1.53,5.26-2.68,10.67-4.7,15.78-.06.16-.36.89-.16.43l-.36.81c-.35.77-.71,1.53-1.08,2.29q-1,2.16-2.15,4.29-2.23,4.28-4.73,8.41t-5.13,8.05c-1.51,2.23-3.12,4.39-4.56,6.66a83.58,83.58,0,0,0-7,13.72c-3.91,9.63-6.33,20.49-4.4,30.86a27.62,27.62,0,0,0,6.72,13.74,29.05,29.05,0,0,0,13.68,8.12c11.46,3.08,23.61-1.16,32.2-8.93,7.79-7.05,13-16.58,16.88-26.2s6.6-19.65,9.28-29.66c.67-2.51,1.38-5,2-7.53.8-3.16,1.5-6.35,2.26-9.52s1.56-6.2,2.6-9.23c1-2.86,2.17-5.66,3.15-8.53a39.2,39.2,0,0,0,2-8.95,2.52,2.52,0,0,0-2.53-2.52A2.58,2.58,0,0,0,1341.21,221.46Z"/><polygon class="cls-5" points="1379.6 420.77 1300.09 439.67 1299.62 413.28 1379.6 420.77"/><polygon class="cls-5" points="1379.6 420.77 1380.57 431.43 1298.64 452.76 1300.09 439.67 1379.6 420.77"/><polygon class="cls-5" points="1300.09 439.67 1298.64 452.76 1097.44 418.34 1097.9 407.33 1097.93 408.2 1300.09 439.67"/><polygon class="cls-5" points="1300.09 439.67 1097.93 408.2 1097.9 407.33 1097.93 406.71 1300.09 439.67"/><path d="M1297.67,454.13l-.4,0-201.19-34.42a2.34,2.34,0,0,1-1.94-2.4l.48-11.63a2.34,2.34,0,0,1,.86-1.72,2.31,2.31,0,0,1,1.86-.5l202.16,33a2.34,2.34,0,1,1-.76,4.61l-199.55-32.54-.29,6.95,199.16,34.07a2.34,2.34,0,0,1-.39,4.64Z"/><path d="M1297.67,454.34a2.54,2.54,0,0,1-2.53-2.83l1.45-13.09a2.56,2.56,0,0,1,1.94-2.19L1378,417.32a2.55,2.55,0,0,1,3.12,2.25l1,10.66a2.54,2.54,0,0,1-1.89,2.69l-81.93,21.33A2.35,2.35,0,0,1,1297.67,454.34Zm3.78-13.58-.85,7.64,76.27-19.85-.51-5.6Z"/><path d="M1378.63,422.34h-.24l-80.24-7.52a2.54,2.54,0,0,1,.48-5.06l.26,0,80,7.49a2.54,2.54,0,0,1-.23,5.07Z"/><path class="cls-1" d="M1352.06,405.61a14,14,0,0,0-2.47-1.69,7.58,7.58,0,0,0,1.67-2.08c2.43-4.61.88-9.38-3.22-12.28a46.35,46.35,0,0,0-25.84-8.28,13.29,13.29,0,0,0-7.89.62,9.72,9.72,0,0,0-6.19,6.23,78.77,78.77,0,0,0-24.66,19,9.08,9.08,0,0,0,.71,13.07l.52,0a7.14,7.14,0,0,1,6.28,4.26c2.49,1.15,5,2.28,7.54,3.29a61.37,61.37,0,0,0,7.62,2.43,2.25,2.25,0,0,1,.38.09l.38.06c.79.13,1.59.25,2.39.33a41.29,41.29,0,0,0,4.17.22,7.31,7.31,0,0,1,6.53,4.82,46,46,0,0,0,14-4.54l8.92-1.8c5-1,10-2.24,12.9-6.89C1359.39,416.73,1356.8,409.71,1352.06,405.61Z"/><path d="M1326.68,381.47a24.84,24.84,0,0,0-17,.32c-5.72,2.26-10.23,6.3-14.36,10.76s-7.79,9.27-11.8,13.81c-1.75,2-3.43,4.19-3.79,6.88a5.94,5.94,0,0,0,2,5.4c4,3.37,10.35,1.93,14.48-.5a2.53,2.53,0,0,0-2.55-4.37q-.69.41-1.41.75l-.35.16s.42-.16.16-.07-.53.21-.8.3c-.47.15-.94.29-1.41.4l-.61.12-.35.06c-.32.06.56-.05.08,0s-.87.07-1.31.07l-.54,0-.31,0c-.52,0,.12-.05.16,0a7.19,7.19,0,0,0-1.1-.25c-.12,0-.61-.24-.2,0s-.17-.09-.27-.15a3.1,3.1,0,0,0-.41-.26s.48.44.23.18l-.18-.15a3.85,3.85,0,0,0-.27-.3c-.21-.18.26.5.19.24a1.05,1.05,0,0,0-.15-.24c-.3-.46.08.36,0,.09s-.08-.31-.12-.46c-.11-.34,0,.67,0,.13a2,2,0,0,0,0-.59c.11.27-.1.57,0,.26l.06-.28a5.94,5.94,0,0,1,.18-.6,1.57,1.57,0,0,0,.09-.23c.08-.32-.23.42,0,.13s.24-.5.38-.74a13.29,13.29,0,0,1,.94-1.41c-.25.34.21-.24.29-.33l.77-.87c3.68-4.19,7.1-8.61,10.84-12.75a71.41,71.41,0,0,1,5.91-5.89,21.33,21.33,0,0,1,2.76-2.1,27.85,27.85,0,0,1,3.28-1.85l.42-.19c.05,0,.62-.26.34-.15s.1,0,.12,0l.65-.25c.65-.23,1.3-.44,2-.61s1.33-.32,2-.44l.34-.05c.29-.05-.37,0,.12,0l1.14-.1c.66,0,1.31-.05,2,0q.52,0,1,.06l.47,0,.37,0,.26,0,.59.1,1.07.23c.77.18,1.52.41,2.27.66a2.53,2.53,0,1,0,1.34-4.87Z"/><path d="M1316.59,397.06c-7.94,4.94-16.8,8.75-23.32,15.67-2.72,2.88-6,7.27-3.73,11.34s7.91,3.6,11.7,2.35a32.55,32.55,0,0,0,7.06-3.58c1.1-.7,2.18-1.41,3.3-2.07.54-.32,1.09-.62,1.64-.91.28-.15.56-.28.85-.42l.32-.15c.7-.32-.45.18.26-.11a2.59,2.59,0,0,0,1.77-3.1c-.39-1.19-1.8-2.3-3.11-1.77-4.07,1.63-7.44,4.39-11.33,6.35l-.63.31c-.12,0-.79.34-.36.17-.52.2-1,.39-1.56.55-.72.21-1.45.36-2.18.5-.18,0-.37.15.11,0a2.66,2.66,0,0,1-.28,0l-.57,0c-.44,0-.88,0-1.32,0s.23,0,.22,0-.22,0-.27-.05l-.61-.16c-.44-.11.35.22,0,0l-.23-.12c-.41-.22-.1.05,0,.05-.1,0-.3-.31-.37-.37s.2.38.12.16a1.58,1.58,0,0,0-.15-.24c-.24-.34.12.42,0-.11,0,0-.06-.25-.06-.25s0,.6,0,.17a1.93,1.93,0,0,0,0-.34c0-.14-.07-.25,0,0s0,.17,0,0l.06-.26c0-.2.12-.4.19-.6s.14-.35,0-.05,0-.07.07-.13c.19-.37.4-.74.62-1.09l.33-.49c.12-.17.52-.69.18-.27.5-.61,1-1.21,1.55-1.78s1.36-1.38,2.08-2c.39-.36.79-.7,1.19-1,.18-.16.37-.31.56-.46l.44-.35c1.71-1.3,3.5-2.49,5.32-3.61,4.18-2.57,8.55-4.81,12.71-7.4a2.53,2.53,0,1,0-2.55-4.36Z"/><path d="M1326.84,408.24a99.52,99.52,0,0,0-23.95,13.85c-1.67,1.3-3.6,2.63-4.49,4.63a4.83,4.83,0,0,0-.23,4,4.37,4.37,0,0,0,3.23,2.55,12,12,0,0,0,3.49,0c1.27-.13,2.54-.3,3.81-.5a66.93,66.93,0,0,0,6.7-1.39,71.17,71.17,0,0,0,14.82-5.74,2.55,2.55,0,0,0,.9-3.46,2.58,2.58,0,0,0-3.45-.91c-.94.49-1.88,1-2.84,1.4q-.58.28-1.2.54c-.68.31-.63.29-1.33.57-1.92.77-3.86,1.46-5.84,2s-4,1.1-6,1.51c-.94.19-1.89.37-2.85.52l-.78.12s-.85.12-.37.06l-1.83.21-1.26.12-.65,0h-.22c-.3,0-.29,0,0,0l-.2-.05c.28.14.29.13.05,0a1.13,1.13,0,0,1,.46.59c-.08-.17,0-.39,0,.15-.07.36-.08.4,0,.11s.07-.25,0,.05a3.76,3.76,0,0,1,.3-.56c.05-.07.49-.59.13-.19a9.2,9.2,0,0,1,.76-.77c.82-.73,1.7-1.41,2.57-2.08.66-.51-.18.14.2-.16l.52-.39,1.24-.92c.84-.61,1.68-1.2,2.54-1.78q2.57-1.74,5.23-3.32c1.93-1.13,3.9-2.2,5.91-3.19q1.5-.75,3-1.44l1.65-.73.35-.15,1-.39A2.6,2.6,0,0,0,1330,410c-.38-1.18-1.8-2.3-3.11-1.76Z"/><path d="M1319.57,425.62a19.83,19.83,0,0,0-8.41,7.24c-1.17,1.93-1.51,4.54.23,6.26,1.56,1.56,4,1.36,6,1.32a58.13,58.13,0,0,0,22-4.9,54.65,54.65,0,0,0,10.7-6.21,2.59,2.59,0,0,0,.91-3.45,2.56,2.56,0,0,0-3.46-.91,54.39,54.39,0,0,1-8.45,5.16c-.66.33-1.34.64-2,.94l-.68.3c.1,0,.38-.16-.09,0l-1.26.5q-2.27.86-4.59,1.52t-4.83,1.14c-.77.14-1.54.25-2.32.38-.47.08.6-.07-.19,0l-.49.06c-.49.06-1,.11-1.48.15-1.6.15-3.21.22-4.83.22-.37,0-.74,0-1.11,0a4.86,4.86,0,0,1-.66,0c.21,0,.32.13,0,0a1.52,1.52,0,0,1,.38.24c.1.11.29.77.2.31,0,.11.18.52,0,.11,0,.35,0,.38,0,.09l.06-.2c.14-.59-.25.34.08-.17.12-.18.21-.36.33-.54l.25-.35c-.28.38.13-.16.2-.23a18.58,18.58,0,0,1,1.79-1.87l.53-.46c.08-.07.61-.49.23-.2.34-.26.7-.51,1.06-.74a19.6,19.6,0,0,1,2.37-1.32,2.53,2.53,0,0,0,.91-3.45,2.6,2.6,0,0,0-3.46-.91Z"/><path class="cls-5" d="M1298.65,412.31l.47,26.39-202.16-33,0,.62-3.38-111.67c-.25-8.38,8-15,17.32-13.92l171.47,19.61c8.24.94,14.44,7.12,14.57,14.5Z"/><path d="M1299.12,440.91a2.2,2.2,0,0,1-2.2-2.17l-2.2-123.82c-.11-6.23-5.54-11.54-12.62-12.35L1110.63,283a14.19,14.19,0,0,0-11.27,3.5,10.54,10.54,0,0,0-3.59,8.16l3.37,111.68a2.21,2.21,0,0,1-4.41.13l-3.37-111.67a15,15,0,0,1,5-11.55,18.59,18.59,0,0,1,14.76-4.63l171.47,19.61c9.27,1.06,16.38,8.22,16.53,16.65l2.2,123.83a2.21,2.21,0,0,1-2.17,2.24Z"/><ellipse class="cls-6" cx="1185.19" cy="359.92" rx="20.12" ry="21.33"/><path class="cls-1" d="M1476.17,373l-.17,0a21,21,0,0,0-1.19-3.47c-1-2.38-4.26-4.22-7-4.43a7.61,7.61,0,0,0-6.85-3.3q-23.48,2.55-46.75,6.76-22.87,3.41-45.51,8.13-7.62,1.26-15.2,2.63-11.77,2.11-23.49,4.52a13.39,13.39,0,0,0-1.35-.81,5.33,5.33,0,0,1,.42.4,6,6,0,0,1,.71.88,44.3,44.3,0,0,1,14.64,8.88,8,8,0,0,0-.91,6.83q1.5,4.6,3,9.21c.25.78.51,1.55.79,2.3a6.92,6.92,0,0,1-3.62,1.18,8.68,8.68,0,0,1-1.18,1.38,3.79,3.79,0,0,1-.38.32q2.65.4,5.38.63A11,11,0,0,0,1357,426.9a10.59,10.59,0,0,0,8.28-2.4,8.54,8.54,0,0,0,3.09-1.09c.78-.47,1.58-.92,2.38-1.35a12.33,12.33,0,0,0,4,.4c4.1-.26,8.29-1.35,12.32-2.12q5.57-1.06,11.1-2.23c7.57-1.58,15.12-3.3,22.64-5.1q16.85-3.75,33.43-8.52l17.16-4.62a9,9,0,0,0,4.48-3l.81-.45A25.22,25.22,0,0,0,1487.41,384C1490.13,377.55,1482.26,371.19,1476.17,373Z"/><path d="M1443.69,359.54c-15.72,1-31.22,4-46.57,7.41-15.2,3.42-30.31,7.3-45.63,10.15a237,237,0,0,1-25.87,3.47,2.55,2.55,0,0,0-2.48,2.19,2.5,2.5,0,0,0,1.81,2.77c6.07,1.35,12.26,3.65,16.45,8.46,2.28,2.61,3.5,5.93,4.5,9.2,1.11,3.68,2.15,7.41,3,11.17a51.78,51.78,0,0,1,1.2,12.78,2.55,2.55,0,0,0,2.52,2.52c12.48.19,24.21-4.23,36.16-7.14,11.74-2.87,23.91-3.56,35.58-6.74,5.9-1.61,11.55-4,17.44-5.71s11.91-3,17.92-4.31,12-2.45,18-3.85c5.29-1.23,10.39-3.29,12.54-8.67a42.25,42.25,0,0,0,2-9c.49-3.12.88-6.26,1.18-9.4.59-6.29.79-12.61.79-18.93,0-12.65-.63-25.32-1.23-37.95s-1.49-25.4-3.21-38a186.39,186.39,0,0,0-7.32-33.69c-3.13-9.39-7.47-18.38-13.78-26.06a57.75,57.75,0,0,0-10.94-10.18c-4.81-3.45-10.19-6-15.48-8.57l-8.54-4.23a2.58,2.58,0,0,0-3.45.91,2.53,2.53,0,0,0,.9,3.45c5.56,2.76,11.19,5.41,16.67,8.32a56,56,0,0,1,12.43,8.7,64.32,64.32,0,0,1,15.08,22.91c4,9.82,6.35,20.25,8.15,30.65a329.16,329.16,0,0,1,4,36.53c.74,12.33,1.23,24.7,1.57,37s.3,24.59-1.58,36.71a52.19,52.19,0,0,1-1.77,8.68,7.37,7.37,0,0,1-4.35,4.39,36.33,36.33,0,0,1-6.94,1.95q-4.42,1-8.85,1.9c-11.76,2.45-23.6,4.79-34.88,9a100.58,100.58,0,0,1-17,4.61c-5.8,1.07-11.65,1.83-17.46,2.85s-11.63,2.52-17.38,4.12a140,140,0,0,1-17.49,4.09,55.6,55.6,0,0,1-8.65.54c.84.84,1.69,1.68,2.53,2.53.29-8.4-1.77-16.53-4.12-24.52a32.9,32.9,0,0,0-5-10.9,26,26,0,0,0-8.28-7,43.76,43.76,0,0,0-11.45-4.11c-.22,1.66-.45,3.31-.67,5,15.62-1.15,31-4.17,46.27-7.64s30.35-7.32,45.71-10.08a229.08,229.08,0,0,1,26.09-3.3,2.59,2.59,0,0,0,2.53-2.53,2.56,2.56,0,0,0-2.53-2.53Z"/><path d="M1268.79,46.35c-3.41-3-8-3.22-12.24-2.15a43.84,43.84,0,0,0-11.71,5.35,60.73,60.73,0,0,0-10.53,8.15c-3.27,3.17-6.39,6.74-7.94,11.09A11.75,11.75,0,0,0,1228.82,81c2.77,2.86,6.7,4.19,10.56,4.67,7.72.95,15.64-2.16,21.58-6.93a30.88,30.88,0,0,0,7.44-8.69c1.9-3.33,3.66-7.41,3-11.31a5.35,5.35,0,0,0-3.95-4.41c-2.88-.59-5.23,1.25-7.36,2.92a34.81,34.81,0,0,0-8.59,10,19,19,0,0,0-2.63,12.31c.77,4.63,4.49,7.74,8.84,9,8,2.29,17.66-.49,23-7,1.7-2.07,2.94-4.94,1.34-7.46a6.12,6.12,0,0,0-6.42-2.5c-2.31.44-4.19,2.21-5.64,4a27,27,0,0,0-3.73,5.88c-1,2.17-2,4.68-1.9,7.11a6.5,6.5,0,0,0,3.82,5.68,13.9,13.9,0,0,0,6.51.93,27.06,27.06,0,0,0,7-1.33,27.54,27.54,0,0,0,6.3-3,2.53,2.53,0,1,0-2.55-4.36,26.55,26.55,0,0,1-2.64,1.52c-.38.19-.77.37-1.16.53l-.33.13-1,.35a25.7,25.7,0,0,1-2.7.74c-.41.09-.83.17-1.25.24,0,0-.85.11-.33,0l-1,.1a23.22,23.22,0,0,1-2.64,0l-.61,0c-.67-.06.52.13-.14,0-.4-.09-.79-.19-1.18-.31-.6-.17.4.27-.13,0l-.5-.29c-.49-.29.27.35-.08-.09-.08-.1-.18-.18-.26-.28.4.46,0,0,0-.14.22.43,0-.24-.07-.3.13.49,0-.19,0-.29s0-.33,0-.49,0-.33,0-.16c-.06.35.09-.45.08-.4.06-.25.12-.49.19-.73.14-.48.29-1,.46-1.42l.18-.46s.32-.77.12-.32c.23-.53.48-1,.75-1.57a24.26,24.26,0,0,1,1.4-2.35c.14-.2.28-.41.43-.61,0,0,.45-.6.25-.34s.31-.38.27-.33c.2-.25.41-.5.63-.74a13.35,13.35,0,0,1,1-1l.36-.31c-.4.32.21-.12.25-.15a5.76,5.76,0,0,1,.6-.33c-.49.23.2,0,.26-.07.61-.25-.45,0,.11,0a1.61,1.61,0,0,1,.58,0l-.3,0,.37.09c.55.1-.36-.27.1,0,.16.11.49.44.09,0,0,0,.37.47.17.14s.17.59-.1-.22l.06.17c.07.3.07.3,0,0V77c0-.3,0-.3,0,0s-.1.3,0,.05a3.48,3.48,0,0,1-.22.43l-.25.41c-.39.62.29-.3-.19.25-.3.34-.6.67-.91,1s-.53.51-.8.76l-.5.43-.35.28c.22-.17.22-.16,0,0a21,21,0,0,1-2,1.33c-.38.22-.77.42-1.17.62l-.4.19-.4.18c.26-.11.26-.11,0,0a24.05,24.05,0,0,1-2.31.77q-.64.16-1.29.3c-.22,0-.44.09-.66.12s-.8.11-.2,0a23.41,23.41,0,0,1-2.65.16l-1.1,0-.66-.06-.44,0c.31,0,.31,0,0,0a17.34,17.34,0,0,1-2.47-.57,11.25,11.25,0,0,1-1.11-.39c.48.2-.23-.12-.26-.14-.28-.14-.56-.29-.83-.45l-.58-.39c.36.25,0,0-.13-.12a9.45,9.45,0,0,1-.89-.9c.38.42-.05-.08-.11-.16s-.22-.35-.32-.53-.12-.24-.19-.36-.12-.24,0,0c0-.13-.1-.26-.14-.38a8.29,8.29,0,0,1-.33-1.18c0-.11-.12-.79,0-.14,0-.14,0-.28,0-.42a12,12,0,0,1,.06-2.54c-.08.63,0-.09,0-.18s.09-.43.13-.64c.1-.43.21-.86.34-1.28s.22-.7.35-1,.15-.41.23-.62.12-.27,0,0l.18-.4a27.45,27.45,0,0,1,2.77-4.59c.45-.61.74-1,1.43-1.76s1.31-1.43,2-2.11,1.32-1.2,2-1.76c0,0,.64-.51.25-.21l.58-.43c.44-.32.88-.63,1.34-.9a4.44,4.44,0,0,1,.57-.3c-.44.18.31-.07.33-.07-.54.1.39.13-.13,0,.17,0,.63.28,0,0,.44.21-.22-.32-.07-.08a2.28,2.28,0,0,0,.27.27c-.16,0-.33-.44-.05,0q.17.36-.06-.15a3,3,0,0,1,.1.32s.15.47.11.5,0-.66,0-.14a10.09,10.09,0,0,1,0,1.1c0,.18.06.72,0,.06a2.36,2.36,0,0,1-.1.53c-.08.38-.19.75-.3,1.12-.23.73-.49,1.45-.77,2.17s.22-.47-.07.16l-.26.57c-.18.37-.37.75-.56,1.12-.38.7-.79,1.39-1.22,2.06-.21.32-.42.64-.64,1l-.37.51-.25.33c.18-.24.18-.24,0,0a34,34,0,0,1-3.3,3.49l-.8.68-.48.4c-.07,0-.62.47-.15.12-.67.5-1.36,1-2.06,1.43s-1.32.8-2,1.15c-.37.2-.75.39-1.12.57l-.57.26-.17.07a27.24,27.24,0,0,1-4.77,1.5l-1,.2-.62.1c-.69.11.55,0-.15,0s-1.66.16-2.5.17a17.81,17.81,0,0,1-2.19-.07l-.6-.06c.67.07,0,0-.12,0-.4-.07-.79-.14-1.19-.23a17.59,17.59,0,0,1-2.11-.63l-.55-.21c.59.24,0,0-.12-.06-.38-.18-.76-.38-1.12-.59s-.59-.38-.89-.57c-.53-.35.39.34-.09-.07l-.43-.37q-.34-.31-.66-.66c-.12-.13-.24-.28-.36-.42.43.51-.08-.12-.15-.24a8.13,8.13,0,0,1-.47-.81c-.06-.11-.28-.69-.06-.09l-.19-.54c-.07-.22-.13-.43-.18-.65,0,0-.15-.74-.08-.37s0-.39,0-.37c0-.31,0-.62,0-.93s0-.47,0-.7c-.06.57,0-.2,0-.26a11.43,11.43,0,0,1,.3-1.15c.07-.23.14-.46.23-.68,0,0,.31-.76.11-.3.19-.45.42-.89.65-1.32a20.72,20.72,0,0,1,1.48-2.32s.49-.66.21-.29c.15-.2.31-.39.46-.58.37-.45.75-.88,1.13-1.3q1.89-2.08,4-4c1.42-1.28,2.78-2.39,4-3.31a57.84,57.84,0,0,1,9.86-5.83l1.11-.51c.07,0,.82-.33.24-.1l.61-.24a23.13,23.13,0,0,1,2.52-.82c.39-.1.79-.2,1.19-.28l.54-.1c.09,0,.81-.09.19,0a13.67,13.67,0,0,1,2.56-.06c.12,0,.78.14.15,0l.6.12c.33.08.65.19,1,.3.62.2-.42-.26.15.06l.53.29.52.34c-.48-.33.07.08.14.14a2.52,2.52,0,1,0,3.57-3.57Z"/><path d="M1617.15,399.35H1487.22a2.54,2.54,0,1,1,0-5.08h129.93a2.54,2.54,0,0,1,0,5.08Z"/><path d="M1093.08,400h0L2.53,398.71a2.55,2.55,0,0,1,0-5.09h0l1090.54,1.29a2.55,2.55,0,0,1,0,5.09Z"/></g></g></g></svg>