<svg xmlns="http://www.w3.org/2000/svg" width="245" height="215" viewBox="0 0 243.66 213.98"><defs><style>.cls-1{fill:#fff;}.cls-2{fill:#269ac2;}.cls-3{fill:#a1b1c9;}.cls-4{fill:#fcec74;}.cls-5{fill:#f35528;}.cls-6{fill:#e5b7ad;}.cls-7{fill:#e1d5cf;}.cls-8{fill:#264c5b;}.cls-9{fill:#e2deda;}</style></defs><g id="Layer_2" data-name="Layer 2"><g id="レイヤー_1" data-name="レイヤー 1"><g id="contents02"><g id="_1" data-name="1"><path class="cls-1" d="M151.47,92.65a14,14,0,0,0-3.49-.2h0a2.63,2.63,0,0,0-1-.8,37.58,37.58,0,0,1-7-4.17,12,12,0,0,1-3.63-1.63c-1.66-1.09-3.4-2-5-3.16a29.91,29.91,0,0,1-4.17-3.54,10.39,10.39,0,0,1-2.42-3.78l-.52-.34a3.78,3.78,0,0,0-.88-.38c0-.62.09-1.24.13-1.87.2-3.11.67-6.35-.59-9.15a11,11,0,0,0-.12-1.17,26.11,26.11,0,0,0,2.33-3.17,25.78,25.78,0,0,0,2.61-5.67,20.76,20.76,0,0,0,.86-3.35c.51-.34,1-.71,1.47-1.09a51.46,51.46,0,0,0,4.43-3.44,7.42,7.42,0,0,0,2.34-6.84,6,6,0,0,0-3-3.92,30.71,30.71,0,0,0-.33-5.45c-.51-3.45-2.28-7.09-5.54-8.58a25.48,25.48,0,0,0-9-5.75c-3.41-1.1-7.09-.57-10.53.3A31.6,31.6,0,0,0,99,17.43c-3.28,1.19-6.41,3.21-7.28,6.82a5.07,5.07,0,0,0-.09.54,14.3,14.3,0,0,0-2.57,10.05,4.52,4.52,0,0,0-2.36.87c-2.9,2.13-2.45,6.67-.84,9.44a9.52,9.52,0,0,0,5.52,4.46l0,0a3.31,3.31,0,0,0,0,.55c.07,5,2.45,8.86,5.77,11.95-.43,5-1.42,10-1.84,15-2.59,1.11-4.9,3.1-7.1,4.72L77.11,90.07a5.13,5.13,0,0,0-1.19,1.23c-2.75,1-5.46,2-8.15,3.12l-.1,0h0l-.87.37c-1.66.7-2.16,3.1-1.51,4.58s2.62,2.83,4.33,2.13l.66-.26q7.92-.37,15.86-.66a3.65,3.65,0,0,0,3,1.58A10.17,10.17,0,0,1,94,103.5a32.11,32.11,0,0,1,5,3.4c1,.79,2,1.57,3,2.33,0,2.43,2.58,4.84,5.37,3.37l.17.08a4.44,4.44,0,0,0,.32.71c.91,1.54,3.44,2.52,5,1.31l8.87-6.78c1.13-.87,2.3-1.74,3.37-2.71.65-.52,1.3-1.06,1.93-1.6l1.12-.41A3.8,3.8,0,0,0,130.7,100l.16-.26,6.66.27,7.06.29,3.53.15c1.48.06,3.3.42,4.63-.38C155.9,98.16,154.87,93.56,151.47,92.65Z"/><path class="cls-2" d="M141.54,47c.19-1.1.35-2.2.47-3.3a22.87,22.87,0,0,0-.24-6.66,14.46,14.46,0,0,0-.7-2.46,2.36,2.36,0,0,0-.06-1.48,28.56,28.56,0,0,0-3.15-6.33c.07-.42.11-.84.15-1.26a4.75,4.75,0,0,1-.72-1.42c-1.08-3.47-2.84-6.72-3.8-10.26a6.34,6.34,0,0,0-1.42-1.94,12.31,12.31,0,0,1-1.42-1.7c-3.12-2.38-6.86-3.84-11-5.58a30.13,30.13,0,0,0-12.52-2.53,22.58,22.58,0,0,0-8,1.51,3.81,3.81,0,0,0-2.53.4,22.29,22.29,0,0,0-7.25,6.36,12.75,12.75,0,0,0-3.87,4.42A24.22,24.22,0,0,0,83.34,21a3.91,3.91,0,0,0-.42,1.37c-.26,2.25-1.48,4.34-2.41,6.36a20.37,20.37,0,0,0-2.11,7.39,3,3,0,0,0,0,.52,24.33,24.33,0,0,0-1.29,2.61,1.49,1.49,0,0,0,0,.21,58.8,58.8,0,0,0,2.48,13.47,4.26,4.26,0,0,1,.15,1.54,16.91,16.91,0,0,0,4,3.82c.56.61,1.17,1.23,1.82,1.82.3.1.59.21.89.3.57.19,1.16.36,1.74.52a36.34,36.34,0,0,0,3.59.76c-.08,0,.94.09,1.18.1.47,0,.94,0,1.42,0a3.58,3.58,0,0,1,.93.07,2.68,2.68,0,0,0,.4-.48,11.89,11.89,0,0,1-2.54-5.56l-.63-.52a3.08,3.08,0,0,0-.24-1.86l-.47-1A2.4,2.4,0,0,0,89,51.07a25.08,25.08,0,0,1-2.82-1.47,3.85,3.85,0,0,0-.26-.34c-1.16-1.3-.65-4.26-.62-5.82a36,36,0,0,1,.78-7.69,17.4,17.4,0,0,1,2-1.77l.23.24a8.33,8.33,0,0,1,1.65,2.87,1.48,1.48,0,0,0,.21-.13c3.22-2.16,5.55-8.5,8.38-11-.43.38,10.91,8.54,16,9.35,6.34,1,14.43,1.86,19.08-1.53a13.54,13.54,0,0,0,1.48,1.35,13.4,13.4,0,0,1,1.32,7.27c-.12,2-1.31,5.68-.64,8.13,0,.06,0,.12-.07.19a4.73,4.73,0,0,0-.2.5l-.25.84c-1.06,3.51,4.39,5,5.47,1.51.14-.45.3-.9.46-1.34a2.57,2.57,0,0,0,.89-2l-.07.1A2.85,2.85,0,0,0,141.54,47Z"/><path class="cls-3" d="M38.49,178H35.88a15.76,15.76,0,0,0,2.51.71A5.77,5.77,0,0,1,38.49,178Z"/><path class="cls-4" d="M174.49,143.91a5.35,5.35,0,0,0-.33-1.56c.06-.2.13-.4.2-.6-.2-1.22-.49-2.45-.7-3.62q-.66-3.67-1.33-7.35,0-3.33,0-6.66l-.09-.55a1.31,1.31,0,0,1-2-.74c-1.37-4.92-2.07-10.12-4.1-14.83-.5-1-1-1.93-1.48-2.89a22.18,22.18,0,0,0-5.76-6.31,68.93,68.93,0,0,1-6.83-5.43,1.41,1.41,0,0,1-.33-.49c-1.22-.28-2.46-.51-3.65-.85a1.25,1.25,0,0,1-.86-.77,22.74,22.74,0,0,0-2.31-.69c-1.14-1.12-3.15-1.67-4.49-.64L138,91.82a3.56,3.56,0,0,0-2,.53,132.49,132.49,0,0,0-22.11,16.21,3.26,3.26,0,0,0-.82,1.2,4.73,4.73,0,0,0-2.06-.71,20.68,20.68,0,0,1-2.9-.69l-.46-.16c-.76-.34-1.52-.71-2.27-1.08a31.79,31.79,0,0,1-4.5-3.42c-3.73-3.16-7.6-6.16-11.57-9a3.11,3.11,0,0,0-2.52-.44L85,92.51c-.74-.75-1.43-1.57-2.22-2.27A5.3,5.3,0,0,0,77.86,89a33.71,33.71,0,0,0-7,2.87,43,43,0,0,0-5.47,3.34,4.46,4.46,0,0,0-.77.51A31.15,31.15,0,0,0,61,99.37a3,3,0,0,0-1.17,1.24c-.1.21-.2.43-.29.64a8.73,8.73,0,0,0-1.88,5.19c-3,3.9-5.48,8.25-8,12.3l-7.07,11.15a1.33,1.33,0,0,1,.15,1.43c-1.15,2.37-2.41,4.69-3.64,7a1.31,1.31,0,0,1-.21.45l-.12.17a79.08,79.08,0,0,0-4.07,8.64,1.4,1.4,0,0,1-1.53.89,40,40,0,0,0-3.72,12.94,1.19,1.19,0,0,1-.11.44c0,.21,0,.41,0,.61s0,.16-.05.23a14.23,14.23,0,0,0-.71,3.56,3,3,0,0,0,.11,1,4.93,4.93,0,0,0,.14,2.07,10.43,10.43,0,0,0,0,2.95c2.23,1.27,4.38,2.67,6.68,3.93a11.8,11.8,0,0,0,4.86,1.57,45.13,45.13,0,0,0,7.26.16c2.21-.08,4.43-.22,6.65-.39,2.9-.7,5.82-1.34,8.69-2.18.94-.27,1.88-.57,2.8-.9.51-.18,1-.36,1.52-.57l.21-.08.38-.2c.82-.43,1.64-.84,2.42-1.34l.57-.38.76-.66a6.46,6.46,0,0,1,3.7-1.69,44.2,44.2,0,0,0,4.07-3.67h68.83c1.76,1.83,4.15,2.11,6.68,2.25l.1,0c2.33.93,5,.38,7.48-.6h.07a6.59,6.59,0,0,0,5.72-3.32,19.21,19.21,0,0,0,2.4-2.73,20.14,20.14,0,0,0,3.22-7.25,3.41,3.41,0,0,0,.52-1.34c.07-.41.12-.83.16-1.24h0v-.09a19.71,19.71,0,0,0,.06-2.87A43.12,43.12,0,0,0,174.49,143.91Z"/><path class="cls-1" d="M137,55.73a3.65,3.65,0,0,0-.18-.34v0a4.64,4.64,0,0,0-.65-2.12l-.61-1c-.74-1.25-.55-2.68-1.92-2.88l-.67-1c-2.56-4.08-9.65-1.52-10.76,3.18a11.1,11.1,0,0,0,.14,5.25,14.17,14.17,0,0,0,.85,2.17,13.56,13.56,0,0,0,.68,1.24,6.19,6.19,0,0,1,.33,1.76c-.38.06-.77.12-1.16.2a14.18,14.18,0,0,0-6.53,1.08c-3.87,1.55-7,5-5.76,9.43a9.67,9.67,0,0,0,3.84,5c.58.42,1.18.78,1.77,1.17l.1.06,0,0,.1.09a2.19,2.19,0,0,0,.11.2,4.74,4.74,0,0,0,6.39,1.68,4.68,4.68,0,0,0,2.27-4.39,4.21,4.21,0,0,0,3.87-1.34,79.92,79.92,0,0,0,6-6.47,5,5,0,0,0,2.4-4.07c0-.1,0-.21,0-.32A11.23,11.23,0,0,0,137,55.73Z"/><path d="M94.09,14.92a19.4,19.4,0,0,0,3.79,10.37,22.6,22.6,0,0,0,8.63,7,26.92,26.92,0,0,0,6.06,2,1,1,0,0,0,.54-1.93c-.87-.17-1.73-.39-2.57-.64l-1.28-.43-.61-.24-.28-.11-.13-.06c.09.05,0,0,0,0a23.53,23.53,0,0,1-4.62-2.65l-.24-.18c-.09-.06,0,0,0,0l-.15-.12-.54-.45q-.5-.42-1-.87a18.8,18.8,0,0,1-1.76-1.92l-.12-.15-.18-.24c-.14-.18-.27-.37-.4-.56-.25-.37-.49-.74-.72-1.12s-.42-.74-.61-1.12c-.1-.19-.19-.38-.28-.58l-.12-.27a1.42,1.42,0,0,1-.08-.18s-.06-.13,0,0a18.81,18.81,0,0,1-.9-2.75c-.11-.47-.21-1-.28-1.44l0-.15c0-.18,0,0,0-.07l0-.34c0-.26-.05-.52-.07-.79a1,1,0,0,0-2,0Z"/><path d="M113.9,24.71a17,17,0,0,0,9,7.71,15.42,15.42,0,0,0,3.14.81,1,1,0,0,0,1.23-.7,1,1,0,0,0-.7-1.23,16.09,16.09,0,0,1-2.72-.66l-.59-.22-.34-.13c.18.07-.12-.06-.17-.08q-.64-.29-1.26-.63c-.4-.23-.8-.47-1.19-.73l-.55-.4-.12-.09-.32-.25a16.33,16.33,0,0,1-2-1.93l-.26-.31-.09-.11-.09-.11c.07.09,0-.06-.05-.08l-.14-.18-.21-.3a15,15,0,0,1-.85-1.38,1,1,0,0,0-1.72,1Z"/><path d="M95.8,5.22,96,5.08c.07-.06.17-.13,0,0l.39-.29c.26-.18.53-.35.8-.51s.59-.33.89-.47l.42-.2.22-.1c-.19.08,0,0,.09,0a19,19,0,0,1,4-1.1l.5-.08.25,0s.16,0,0,0h.08c.36-.05.71-.08,1.07-.11.71-.06,1.43-.1,2.15-.11a34.41,34.41,0,0,1,4.3.22l.49.06.16,0c-.13,0,0,0,0,0l.2,0,1,.16c.64.12,1.28.25,1.91.4A25.26,25.26,0,0,1,118.58,4l.22.09c.1,0,0,0-.06,0l.11.05.46.2.87.42c.59.3,1.16.61,1.72,1s1.1.69,1.63,1.06l.79.57.18.15c.12.08-.13-.11,0,0l.1.07.39.32a35.46,35.46,0,0,1,5.56,5.73l0,.05.15.2.34.45c.2.28.4.55.59.83.4.56.78,1.12,1.14,1.7q1.13,1.76,2.1,3.6c.65,1.23,1.25,2.49,1.81,3.77.07.15.13.31.2.46l.06.15L137,25l.39,1c.25.65.5,1.31.73,2a61.82,61.82,0,0,1,2.22,7.76c.28,1.25.51,2.52.7,3.79,0,.14,0,.29.07.44l0,.22v.11c0,.14,0-.19,0,0,0,.34.09.69.12,1a19.3,19.3,0,0,1,.09,2.52c0,.42,0,.84-.08,1.26,0,.2,0,.4-.07.6a.59.59,0,0,1,0,.14c0,.12,0,.23,0,.35a19.44,19.44,0,0,1-.58,2.51c-.11.41-.24.81-.39,1.21q-.09.28-.21.57c0,.09-.07.19-.11.28l-.06.14c0,.05-.06.14,0,0a20.77,20.77,0,0,1-1.16,2.31,20.42,20.42,0,0,1-1.35,2.07,1,1,0,0,0,.36,1.37,1,1,0,0,0,1.37-.36,22.52,22.52,0,0,0,4.07-9.66,20.85,20.85,0,0,0,.2-5.35c-.14-1.37-.35-2.73-.6-4.08a63.41,63.41,0,0,0-2-7.9,62.65,62.65,0,0,0-3.21-8,49.14,49.14,0,0,0-4.3-7.31,39.29,39.29,0,0,0-5.54-6.33,29.09,29.09,0,0,0-6.73-4.63A27.76,27.76,0,0,0,113.27.51a34.37,34.37,0,0,0-8.89-.37A19.78,19.78,0,0,0,96.06,2.6a14.2,14.2,0,0,0-1.67,1.21,1,1,0,0,0,0,1.41,1,1,0,0,0,1.41,0Z"/><path d="M92.19,60.54a53.94,53.94,0,0,1-5-2.81c-.41-.26-.81-.53-1.21-.81l-.56-.4-.27-.21s-.17-.13-.09-.06-.13-.11-.13-.11a19.8,19.8,0,0,1-2.1-1.89c-.33-.34-.64-.68-.93-1a2.75,2.75,0,0,1-.22-.26l-.07-.09,0,0-.45-.62a17.37,17.37,0,0,1-1.41-2.53s-.13-.32-.07-.17l-.13-.31c-.09-.23-.17-.46-.25-.69q-.24-.7-.42-1.41c-.12-.48-.22-1-.31-1.44,0-.23-.08-.46-.11-.69a.59.59,0,0,1,0-.14c0-.17,0,.14,0,0s0-.26,0-.4a28.38,28.38,0,0,1,0-5.9c0-.25.05-.5.08-.75s0-.23,0-.35,0,0,0,0,0-.17,0-.25c.07-.48.15-1,.23-1.44.18-1,.4-2,.64-3A54.16,54.16,0,0,1,81.11,27c.18-.48.36-.95.55-1.42l.27-.66.08-.18c.06-.13.11-.25.16-.38.41-.91.83-1.82,1.29-2.71a52.47,52.47,0,0,1,3-5.18c.56-.85,1.15-1.68,1.75-2.49l.43-.57h0a1.83,1.83,0,0,0,.13-.16L89,13c.32-.4.64-.79,1-1.18s.64-.75,1-1.11a1,1,0,0,0-1.41-1.41A54.06,54.06,0,0,0,82.39,19.4a55,55,0,0,0-4.64,11.54,38.5,38.5,0,0,0-1.54,12.21,21.65,21.65,0,0,0,1.13,6,17.85,17.85,0,0,0,3,5.39c2.53,3.08,6,5.22,9.5,7.05l1.3.67a1,1,0,0,0,1-1.73Z"/><path d="M110.44,111.42a1,1,0,0,1-.61-.21c-5-3.84-10.2-7.62-15.19-11.27S84.77,92.72,79.9,89a1,1,0,1,1,1.22-1.59c4.85,3.7,9.86,7.36,14.7,10.9,5,3.66,10.18,7.44,15.23,11.3a1,1,0,0,1,.19,1.4A1,1,0,0,1,110.44,111.42Z"/><path d="M110.68,111.39a1,1,0,0,1-.59-1.82c4.38-3.17,8.79-6.51,13.06-9.74,5.55-4.19,11.28-8.52,17-12.56a1,1,0,0,1,1.15,1.64c-5.7,4-11.42,8.34-17,12.52-4.28,3.23-8.7,6.58-13.1,9.76A1,1,0,0,1,110.68,111.39Z"/><path d="M90.54,49.14c-4.33,0-7-4.07-7-7v-4c0-3.61,1.77-5.36,5.4-5.36a1,1,0,0,1,0,2c-2.85,0-3.39,1.18-3.39,3.36v4c0,2,2,5,5,5a1,1,0,0,1,0,2Z"/><path d="M130.49,48.47a1,1,0,0,1,0-2c3.08,0,4.19-2.72,4.19-4.54V38c0-2.1-.54-3.24-3.39-3.24a1,1,0,0,1,0-2c3.63,0,5.4,1.72,5.4,5.24v3.94C136.69,45.1,134.52,48.47,130.49,48.47Z"/><path d="M109.87,69.75A17.48,17.48,0,0,1,102.35,68a21.16,21.16,0,0,1-9.6-9.14A27.4,27.4,0,0,1,89.28,46a1,1,0,0,1,1-1h0a1,1,0,0,1,1,1c.1,8.82,5,17.16,11.91,20.28a15.41,15.41,0,0,0,7.22,1.51,1,1,0,0,1,.07,2Z"/><path d="M122.57,62.29a.92.92,0,0,1-.83-.52.93.93,0,0,1,.42-1.25,6.1,6.1,0,0,0,2.93-3.05.94.94,0,0,1,1.65.88A8,8,0,0,1,123,62.19,1,1,0,0,1,122.57,62.29Z"/><path d="M101.48,38.72h-.15a.73.73,0,0,0-.38.08.69.69,0,0,0-.32.21.75.75,0,0,0-.21.32.86.86,0,0,0-.09.39l0,.27a1,1,0,0,0,.26.44l.2.15a1,1,0,0,0,.5.14h.15a.63.63,0,0,0,.38-.09.7.7,0,0,0,.33-.2.83.83,0,0,0,.2-.32.66.66,0,0,0,.09-.39l0-.27a1,1,0,0,0-.25-.44l-.21-.16a1,1,0,0,0-.5-.13Z"/><path d="M116.49,41.58a1,1,0,0,0,0-2,1,1,0,0,0,0,2Z"/><path d="M108,38.77l.19.12.1.07c-.08-.06.09.07.08.07l.14.13a2.29,2.29,0,0,1,.21.23c-.1-.12,0,0,0,0s.07.11.11.17.14.31.07.12L109,40s.06.32,0,.22,0,0,0,.07v.19a1.58,1.58,0,0,1,0,.31.49.49,0,0,1,0,.12c0-.2,0,0,0,0,0,.22-.1.43-.16.65s-.07.19-.1.29l-.07.18s-.08.2,0,.09,0,.1,0,.1a1.42,1.42,0,0,1-.08.18l-.18.36c-.44.87-1,1.68-1.48,2.51a9.35,9.35,0,0,0-1.11,2.21,3.32,3.32,0,0,0,1.7,3.78.78.78,0,0,0,1-.27.77.77,0,0,0-.27-1,1.79,1.79,0,0,1-.95-2.26s.13-.32,0-.11c0-.07.07-.15.1-.23s.19-.36.29-.54c.23-.4.47-.79.71-1.18a22.92,22.92,0,0,0,1.45-2.55,6,6,0,0,0,.68-2.78,3.54,3.54,0,0,0-1.8-2.83c-.82-.51-1.58.78-.76,1.3Z"/><path d="M108.17,57.73s.12,0,.16-.08-.13.05-.06,0,0,0,.08,0l.35-.09c.12,0-.2,0,0,0H109l.28.07.13,0c.08,0-.16-.09-.09,0s0,0,.08,0l.24.14,0,0c.09,0-.06-.05-.07-.06a.76.76,0,0,0,.14.11l.19.2s.06.09.09.11l-.05-.07.05.08a5.05,5.05,0,0,1,.28.51c-.11-.21,0-.08,0,0l0,.14a2.82,2.82,0,0,1,.07.31.61.61,0,0,0,0,.13s0-.21,0-.09,0,0,0,.07a1.4,1.4,0,0,1,0,.29.57.57,0,0,1,0,.13c0,.16,0-.19,0,0a2.68,2.68,0,0,1-.07.27.65.65,0,0,0,0,.13c0-.18,0-.12,0,0a1.65,1.65,0,0,0-.15.25s.12-.15,0-.07l0,0-.09.1s-.1.06-.11.09l.07,0-.08,0-.27.14c-.08.05.16,0,.07,0l-.08,0-.18.06-.18,0c-.2,0,.1,0,0,0h-.18c-.06,0-.17,0-.22,0h0l-.17,0s-.14,0-.16-.05.18.08.06,0l-.1-.05c-.1,0-.19-.12-.29-.18s.12.11,0,0l-.06-.06a.86.86,0,0,1-.14-.13l-.12-.13c-.13-.15,0,.09,0,0a2.66,2.66,0,0,1-.21-.33l-.09-.17c0-.09.06.15,0,.06a1,1,0,0,0,0-.1,2.62,2.62,0,0,1-.11-.4s0-.05,0-.08,0,.18,0,.05,0-.14,0-.21V58.7a.22.22,0,0,0,0-.08c0-.09,0,.18,0,.05s.07-.25.11-.37-.08.14,0,.06l0-.09c0-.07.08-.12.11-.18s.07,0,0,0,0-.05.07-.08l.15-.14.07-.06s-.13.09,0,0l.21-.12a.76.76,0,0,0,.27-1,.77.77,0,0,0-1-.27,2.83,2.83,0,0,0-1.26,3.5,3.21,3.21,0,0,0,3,2.26,2.75,2.75,0,0,0,2.66-2.06,3.59,3.59,0,0,0-.84-3.07,2.83,2.83,0,0,0-3.6-.63.76.76,0,0,0-.27,1A.78.78,0,0,0,108.17,57.73Z"/><circle class="cls-5" cx="131.82" cy="47.39" r="3.04" transform="translate(-8.12 53.61) rotate(-22.32)"/><path d="M131.82,51.27a3.88,3.88,0,1,1,3.87-3.88A3.88,3.88,0,0,1,131.82,51.27Zm0-6.08a2.21,2.21,0,1,0,2.2,2.2A2.21,2.21,0,0,0,131.82,45.19Z"/><circle class="cls-5" cx="87.91" cy="47.39" r="3.04"/><path d="M87.91,51.27a3.88,3.88,0,1,1,3.87-3.88A3.88,3.88,0,0,1,87.91,51.27Zm0-6.08a2.21,2.21,0,1,0,2.2,2.2A2.2,2.2,0,0,0,87.91,45.19Z"/><path class="cls-4" d="M154.46,119.28c-.14-.78-.3-1.56-.46-2.34a4.28,4.28,0,0,0-.51-3.36c-.12-.19-.23-.38-.34-.57q-1.18-5.13-2.71-10.18a51.74,51.74,0,0,0-3.21-10.59,101.63,101.63,0,0,1-4.26-11c-.67-2.31-.83-5-3.15-6.34a5,5,0,0,0-3.7-.6c-2.16-.26-4.65.48-6.74.83l-9.06,1.55A4.62,4.62,0,0,0,117,80.6a4.41,4.41,0,0,0,.94,3.4,164.07,164.07,0,0,0,9.56,37c.91,2.35,3.14,4,5.75,3.26a4.62,4.62,0,0,0,2-1.22,4.67,4.67,0,0,0,2.2,0,4.76,4.76,0,0,0,1.17-.51,4.81,4.81,0,0,0,3.23.3,4.49,4.49,0,0,0,2.84-2.31,4.8,4.8,0,0,0,.52,0c.08.43.17.85.25,1.28.47,2.48,3.46,3.9,5.75,3.27A4.77,4.77,0,0,0,154.46,119.28Z"/><path d="M146.78,92.27c.26.14.53.27.79.42s.3.24,0,0l1.21-1.57s.29.27.32.33l-.16,1.21h0l-.7.29s-.31-.09-.19,0a.58.58,0,0,0,.17.06l.74.31c.63.28,1.24.57,1.85.89a30,30,0,0,1,3.42,2.12,31.46,31.46,0,0,1,5.62,5.32,49.54,49.54,0,0,1,7.84,13.85,110.39,110.39,0,0,1,4.73,16.13c1.53,6.9,2.68,14.3,1.06,21.29-1.25,5.38-4.34,10.71-9.33,13.39a13.18,13.18,0,0,1-8.93,1.26,22.72,22.72,0,0,1-8.6-4,23.22,23.22,0,0,1-3.49-3,22.25,22.25,0,0,1-2.73-3.74,69.22,69.22,0,0,1-4.31-8.72c-1.43-3.4-2.6-6.91-3.72-10.42s-2.25-7.11-3.31-10.69q-3.23-10.8-5.93-21.74t-4.91-22.08c-.35-1.8-.7-3.6-1-5.4l-.7,1.23c2.55-.69,5.13-1.3,7.69-1.94,3-.75,6-1.57,9-2.23a17.87,17.87,0,0,1,4.65-.65,1.68,1.68,0,0,1,1.19.56,5.14,5.14,0,0,1,.85,1.42c1.42,3.19,2.79,6.61,4.18,9.89,2.94,7,5.53,14.14,7.9,21.35s4.53,14.49,6.63,21.79c.25.9.51,1.8.77,2.71a1,1,0,0,0,1.93-.54c-2.13-7.44-4.29-14.88-6.67-22.25s-5-14.67-7.91-21.83c-1.47-3.59-3-7.15-4.52-10.73a8.73,8.73,0,0,0-1.95-3.41c-1.35-1.19-3.09-1-4.75-.77a103.37,103.37,0,0,0-10.14,2.33c-3.08.77-6.17,1.5-9.23,2.33L116,77a1,1,0,0,0-.7,1.23q2.13,11.45,4.81,22.76t5.9,22.51q1.62,5.58,3.36,11.14c1.14,3.6,2.26,7.22,3.59,10.77a90.64,90.64,0,0,0,4.34,9.78,26.37,26.37,0,0,0,5.7,7.93c4.92,4.33,11.62,7.83,18.33,6.33,6.23-1.39,10.68-6.66,13-12.36,2.66-6.67,2.26-14.15,1.08-21.09a114.75,114.75,0,0,0-4.58-18,59.26,59.26,0,0,0-7.48-15.23,33,33,0,0,0-12.39-10.83c-.64-.3-1.29-.58-1.95-.85-.44-.18-1-.35-1.4.11a1.06,1.06,0,0,0-.16,1.21,1,1,0,0,0,.4.38c1,.52,2.06-.76,1.21-1.56a5.06,5.06,0,0,0-1.19-.69c-1.14-.59-2.15,1.14-1,1.73Z"/><rect class="cls-5" x="121.46" y="103.9" width="4.63" height="42.21" transform="translate(-45.92 78.63) rotate(-30)"/><path d="M132.32,145.45a1,1,0,0,1-.86-.51l-21.11-36.55a1,1,0,0,1,.37-1.37l4-2.32a1.06,1.06,0,0,1,.76-.1,1,1,0,0,1,.61.47l21.11,36.56a1,1,0,0,1,.1.76,1,1,0,0,1-.47.61l-4,2.31A1,1,0,0,1,132.32,145.45Zm-19.74-37.2,20.11,34.82,2.27-1.31-20.1-34.82Z"/><path class="cls-1" d="M131.9,130.75a14.29,14.29,0,0,0-6.3-9.59,18.06,18.06,0,0,0-9.42-4.59,25.8,25.8,0,0,0-9.27.26c-3.16.63-6.21,1.93-9.44,2.19a4,4,0,0,0-3.19,1.89,4.48,4.48,0,0,0-1.31,2,6.82,6.82,0,0,1,2.83,3.06c2.17,2.19,4.36,4.49,5.56,7.26l.49.47a5.46,5.46,0,0,1,.8.94c2.13.5,4-.61,6-1.44l1.89-.8c.76.15,1.52.33,2.27.54a31.49,31.49,0,0,1,9.72,4.66,3.41,3.41,0,0,0,4.56-.64,3.93,3.93,0,0,0,4.32-3.15A4.48,4.48,0,0,0,131.9,130.75Z"/><path d="M92.31,122.51l.93-.44.48-.21.09,0,.33-.13q1.08-.45,2.19-.84c1.52-.54,3.07-1,4.62-1.46,3-.86,6-1.58,9-2.27.44-.1.88-.2,1.32-.28s.93-.17,1.34-.22.86-.07,1.28-.07a7.63,7.63,0,0,1,1.34.09,13.88,13.88,0,0,1,2.69.8c.83.33,1.56.64,2.27,1a32.61,32.61,0,0,1,4.67,2.39,17.28,17.28,0,0,1,2,1.44,20.77,20.77,0,0,1,1.65,1.6c.32.35.62.7.91,1.07-.12-.15.08.11.08.11l.24.33c.14.19.27.39.4.59q.38.58.69,1.2c.1.2.2.41.29.62-.08-.2,0,.09,0,.11a2,2,0,0,1,.1.26,8,8,0,0,1,.34,1.25c0,.09,0,.18,0,.27,0-.25,0,.11,0,.16s0,.37,0,.55a4.86,4.86,0,0,1,0,.54v.21c0-.16,0-.19,0-.07l0,.12c0,.2.12-.2,0,0s0,.06.08-.08q-.12.12.09-.06c-.16.1.25-.05,0,0,.41-.08-.19-.05.16,0a1.07,1.07,0,0,0-1.27.72,1,1,0,0,0,.72,1.27,1.9,1.9,0,0,0,1.38-.2,1.77,1.77,0,0,0,.76-1.07,5.55,5.55,0,0,0,0-2.15,11.15,11.15,0,0,0-1.94-4.91,21.08,21.08,0,0,0-8.29-7,54.53,54.53,0,0,0-5.33-2.3,12.39,12.39,0,0,0-3-.76,11.93,11.93,0,0,0-3.1.08c-1.74.23-3.45.68-5.15,1.08s-3.31.81-5,1.25a65.55,65.55,0,0,0-9.67,3.29l-1,.47a1,1,0,1,0,1,1.78Z"/><path d="M116.44,130.6c1.1.7,2.23,1.35,3.35,2,.49.29,1,.58,1.47.89l.71.47.34.25.14.1.13.1a15,15,0,0,1,2.66,2.62c-.12-.17,0,0,0,.06s.06,0,0,0,0,.13,0,.17,0-.24,0,0a1,1,0,0,0,0,.17c0,.12.07-.23,0,0l0,.13c.06-.14.07-.16,0-.06a.41.41,0,0,1,0,.09c-.09.19,0,0,0,0s-.1.11-.11.12,0,0,0,0l-.11.06c-.18.12.2,0,0,0l-.13,0s.24,0,0,0,.19.06,0,0a11.74,11.74,0,0,1-1.93-.76c-.69-.36-1.35-.76-2-1.17q-2.07-1.28-4.15-2.54l-.4-.26c-.21-.14.11.09,0,0l-.17-.14-.72-.63a6.08,6.08,0,0,0-1.79-1.19c-1.43-.54-2.76.26-3.92,1-.63.41-1.3.75-2,1.1-.33.18-.66.35-1,.51l-.4.2-.25.1c-.2.1.15-.05-.07,0a9.74,9.74,0,0,1-1.91.56l-.18,0h0l-.14,0-.51,0a10.1,10.1,0,0,1-1.23,0,1,1,0,0,0-1,1,1.06,1.06,0,0,0,1,1,9.89,9.89,0,0,0,4.11-.54,29.14,29.14,0,0,0,3.73-1.81c.61-.33,1.17-.74,1.78-1.09l.42-.21c-.19.09,0,0,0,0l.21-.06s.32,0,.08,0h.17s.32,0,.09,0l.24.06c.24.05-.17-.11,0,0l.15.08.36.23.08.06.18.14.42.37a12.82,12.82,0,0,0,1.73,1.3l4.3,2.64a23,23,0,0,0,2.17,1.2,7.12,7.12,0,0,0,2.41.79,2.44,2.44,0,0,0,2.52-2.61,3.62,3.62,0,0,0-1.13-2.05,14.13,14.13,0,0,0-1.39-1.4c-2.21-2-4.9-3.24-7.37-4.82a1,1,0,0,0-1.41.37,1.06,1.06,0,0,0,.37,1.41Z"/><path d="M117.79,126.1a66.81,66.81,0,0,1,7.88,4.62l.33.24s.24.19,0,0l.19.15c.27.22.54.44.8.67a18.62,18.62,0,0,1,1.41,1.4c.2.22.39.45.58.68l.15.19,0,0,.34.48c.2.28.37.57.56.85s0-.19,0,0l0,.07c0,.12,0,.1,0-.06a1.7,1.7,0,0,1,0,.22c0-.16,0-.18,0-.07a.74.74,0,0,1,0,.14c-.05.21.12-.17,0,0a.56.56,0,0,1,0,.08l0-.07a.71.71,0,0,1-.15.15c.11-.09.12-.1,0,0s-.08.05.05,0l-.22.07c-.11,0-.1,0,0,0h-.17a4.56,4.56,0,0,1-.64,0s-.33,0-.09,0l-.37-.07c-.21-.05-.42-.12-.63-.19s.17.09-.09,0l-.33-.16-.23-.14s-.34-.24-.15-.1a1.07,1.07,0,0,0-1.46,0,1,1,0,0,0,0,1.46,5.8,5.8,0,0,0,2.53,1.19,4.14,4.14,0,0,0,2.82-.22,2.44,2.44,0,0,0,1.16-2.41,4.87,4.87,0,0,0-1.17-2.16,23.24,23.24,0,0,0-7-5.94c-1.7-1-3.45-1.93-5.19-2.86a1,1,0,1,0-1,1.77Z"/><path d="M118.93,123.06a32,32,0,0,1,3.63,1.48,26.72,26.72,0,0,1,3.22,1.8l.71.5.34.25c.16.12,0,0,0,0l.22.18a16.36,16.36,0,0,1,1.24,1.11l.5.54.23.26.14.18c.13.16-.11-.16,0,0a9.78,9.78,0,0,1,.79,1.22l.19.38a.38.38,0,0,1,.06.13l.06.13q-.08-.19,0-.09c.09.26.19.51.26.76a6.8,6.8,0,0,1,.18.75,1.55,1.55,0,0,0,0,.21c0,.21,0-.23,0,0l0,.42a1,1,0,0,0,1,1,1,1,0,0,0,1-1c-.3-5-4.69-8.29-8.79-10.33a39.29,39.29,0,0,0-4.55-1.89,1,1,0,0,0-1.27.71,1.06,1.06,0,0,0,.72,1.27Z"/><path d="M95.66,63.12q.16,3.38.2,6.75c0,1.11,0,2.21,0,3.32l0,1.6A3,3,0,0,1,95.71,76a4.35,4.35,0,0,1-1.43,1.33c-.78.57-1.52,1.19-2.28,1.77-1.62,1.22-3.27,2.38-5,3.48-3.33,2.17-6.8,4.11-10.32,6-3.37,1.76-6.94,3.23-10.11,5.35-5.6,3.75-9.52,9.2-12.8,15-4.27,7.52-8.5,15.07-12.56,22.7s-8.06,15.33-11.45,23.27c-2.58,6-4.72,13.89,0,19.49a13.28,13.28,0,0,0,7,4.07,37.55,37.55,0,0,0,11,.75A56.47,56.47,0,0,0,69.93,173a77.34,77.34,0,0,0,18.22-13.14,111.82,111.82,0,0,0,13.68-16.24q1.62-2.28,3.18-4.59a1,1,0,0,0-.15-1.21c-2.66-3-4.39-6.71-6.61-10a24.21,24.21,0,0,0-3.76-4.56c-1.56-1.43-3.46-2.84-5.7-2.49a7.05,7.05,0,0,0-2.89,1.42l-3.16,2.26-6.12,4.4L64.19,137.7l-13.92,10a1,1,0,0,0-.36,1.36,1,1,0,0,0,1.36.36l24-17.25c4-2.85,7.91-5.75,11.91-8.55a3.73,3.73,0,0,1,2.68-1,5.3,5.3,0,0,1,2.4,1.26,20.82,20.82,0,0,1,3.82,4.24c2.52,3.62,4.38,7.7,7.32,11l-.15-1.21a139,139,0,0,1-13,16.8,80.93,80.93,0,0,1-16.5,13.71,58.65,58.65,0,0,1-20.94,8.12,45.25,45.25,0,0,1-11.15.52c-3-.23-6-.7-8.49-2.37A9.44,9.44,0,0,1,29.3,169c-.81-3.4,0-7,1.09-10.24a112.39,112.39,0,0,1,5.09-11.45q2.79-5.78,5.78-11.46c4-7.59,8.14-15.07,12.34-22.53,3.31-5.87,6.61-11.81,11.92-16.13a47.09,47.09,0,0,1,9-5.26c3.53-1.77,7-3.62,10.41-5.65a88.12,88.12,0,0,0,9.84-6.78c1.15-.92,2.72-1.76,3-3.36a20.82,20.82,0,0,0,.1-3.16c0-1.15,0-2.29,0-3.43,0-2.14-.1-4.27-.2-6.41-.07-1.27-2.07-1.28-2,0Z"/><polygon class="cls-1" points="136.96 142.54 137.06 148.73 132.2 145.06 136.96 142.54"/><path d="M137.05,149.4a.66.66,0,0,1-.4-.13l-4.85-3.67a.66.66,0,0,1-.27-.59.67.67,0,0,1,.36-.54l4.76-2.52a.66.66,0,0,1,.65,0,.69.69,0,0,1,.34.57l.09,6.19a.69.69,0,0,1-.37.61A.67.67,0,0,1,137.05,149.4Zm-3.6-4.24,2.91,2.2-.06-3.71Z"/><ellipse class="cls-1" cx="130.59" cy="51.91" rx="5.34" ry="4.92"/><path d="M116.43,77.18a29,29,0,0,1-2.17-2.26l-.48-.59-.12-.16c-.09-.12-.18-.24-.26-.37a13.33,13.33,0,0,1-.8-1.3c-.12-.22-.23-.45-.34-.68,0-.06-.13-.32-.06-.14,0-.12-.1-.24-.14-.37a10.26,10.26,0,0,1-.35-1.2c0-.1,0-.19,0-.28s-.09-.38,0-.11a2.43,2.43,0,0,1,0-.6,4.34,4.34,0,0,1,0-.51,2.83,2.83,0,0,1,0-.29.34.34,0,0,1,0-.1c0-.23,0,0,0,0s.08-.44.1-.51a5.08,5.08,0,0,1,.15-.52L112,67c.06-.17-.09.18,0,0a4.31,4.31,0,0,1,.26-.47,4,4,0,0,1,.28-.43.44.44,0,0,1,.08-.11l-.06.07.2-.24a7.74,7.74,0,0,1,.78-.73s.16-.1,0,0l.12-.09.21-.15.49-.3.53-.27.25-.12c.18-.08,0,0,0,0l.2-.08a14.83,14.83,0,0,1,3-.75s.2,0,.06,0l.17,0,.45,0,.85-.08c.58,0,1.17-.07,1.76-.09a9.67,9.67,0,0,0,3.55-.5,3.82,3.82,0,0,0,2-2.31,5.87,5.87,0,0,0,.11-3.14c-.23-1.11-.69-2.15-1-3.24-.16-.56-.3-1.13-.42-1.7,0-.26-.1-.53-.14-.79s-.06-.38-.09-.74a16,16,0,0,1-.09-1.7v-.43c0-.05,0-.1,0-.15s0,.15,0,0,0-.12,0-.18,0,0,0,0l0-.08-.08.1s.17-.2,0,0-.06.06,0,0c-.18.11-.19.08-.11.06-.25.06-.21,0-.12,0s-.28,0-.12,0l.07,0c.12,0-.18-.11-.09,0a.92.92,0,0,0,.21.13c.11.05-.15-.14-.06,0l.1.09.16.16.16.18.09.1c.08.1-.13-.17,0,0a5.76,5.76,0,0,1,.44.72c.06.12.12.25.17.38a.61.61,0,0,0,.07.14c.06.17,0-.11,0,0s.21.53.31.8c.37,1,.66,2.09,1,3.13s.65,1.94.9,2.93.34,1.71.48,2.57l.24,1.52a1,1,0,0,0,1.27.72,1.07,1.07,0,0,0,.72-1.27,38.1,38.1,0,0,0-1.23-5.8c-.36-1.09-.68-2.19-1-3.28a17.31,17.31,0,0,0-1.22-3.11,5,5,0,0,0-1.56-1.78,1.79,1.79,0,0,0-2.64.68,4,4,0,0,0-.28,1.92c0,.6,0,1.21.12,1.81a20.4,20.4,0,0,0,.78,3.71c.18.57.38,1.13.57,1.69.08.26.16.53.23.79s.08.29.11.43l0,.17,0,.16a3.35,3.35,0,0,1,0,.71c0,.1,0,.2,0,.3s0,.11,0,.17c0-.26,0,0,0,.06,0,.21-.11.41-.17.62s0,0,0-.06l-.07.16-.19.32s-.13.16,0,.06,0,0,0,.05l-.24.23c-.08.08,0,0,.05,0l-.14.09-.14.08c-.27.15.07,0-.09,0a2.64,2.64,0,0,1-.4.12s-.35.06-.18,0c-.3,0-.6.05-.9.06-1.21.05-2.42.09-3.63.2A14,14,0,0,0,112.92,63a7.23,7.23,0,0,0-3.1,3.87,8,8,0,0,0,.28,5.12,16.31,16.31,0,0,0,3.71,5.54c.37.39.76.78,1.16,1.15a1,1,0,1,0,1.46-1.45Z"/><path d="M127.59,48.44c0,.27,0,0,0-.1s0,.06,0,0l.07-.12.07-.11s-.15.16,0,.05l.09-.09c.15-.15-.18.1,0,0A2.12,2.12,0,0,0,128,48c.11-.07-.19,0-.06,0a.5.5,0,0,0,.13,0l.14,0c.13,0-.21,0-.07,0h.32c.2,0-.05,0-.06,0a.4.4,0,0,1,.15,0l.29.08h0l.14.07a2.41,2.41,0,0,1,.36.23c-.17-.13.08.08.12.12a2.77,2.77,0,0,1,.24.25,1.34,1.34,0,0,1,.11.14h0c.07.1.13.2.19.3a4.77,4.77,0,0,1,.34.63c0,.06.05.11.07.17-.07-.18,0,0,0,0s.11.28.16.43c.19.53.34,1.08.49,1.63a31.48,31.48,0,0,1,.77,3.72c0,.08,0,.15,0,.23s0,.26,0,.13c0,.19,0,.38.07.57s.08.69.1,1c.06.73.1,1.46.11,2.19a1,1,0,0,0,2.06,0,35,35,0,0,0-1.28-8.81c-.62-2.23-1.82-5.2-4.59-5.18a3,3,0,0,0-1.88.68,2.69,2.69,0,0,0-.92,1.86,1,1,0,0,0,1,1,1.06,1.06,0,0,0,1-1Z"/><path d="M132.4,48.35a.67.67,0,0,1-.44,0l-.14,0,.08.05s-.11-.12,0,0l.1.1.43.48.09.12s.11.13,0,0,0,0,0,.06l.09.12c.13.19.26.38.38.58a11.46,11.46,0,0,1,.59,1.09l.12.28.05.12c.08.2.15.4.22.61a14.91,14.91,0,0,1,.61,2.54c.05.27.05.3.08.53s0,.5.07.76c0,.48.06,1,.08,1.45,0,1.13,0,2.26,0,3.38a1,1,0,1,0,2.06,0c.09-4.14.08-8.65-2.35-12.22A10.24,10.24,0,0,0,133.46,47a1.64,1.64,0,0,0-2.1-.47,1,1,0,0,0,1,1.78Z"/><path d="M134,50.62a6.88,6.88,0,0,1,.89.9l.11.13s-.09-.12,0,0l.18.25q.19.29.36.57c.21.36.39.74.57,1.12,0,.1,0,0,0,0a1.22,1.22,0,0,0,.07.17l.09.25c.08.22.16.43.23.65a20.5,20.5,0,0,1,.63,2.57c.08.43.15.86.22,1.29l.09.64a2.51,2.51,0,0,0,0,.27c0,.18,0,.08,0,0l0,.23c.07.53.13,1.06.15,1.6,0,.26,0,.53,0,.79a2.69,2.69,0,0,1,0,.4s0,.11,0,.17c0-.14,0,.07,0,.11-.05.23-.1.45-.17.67s-.06.21-.1.31,0,.09,0,.13c-.1.28,0-.09,0,.06a10.77,10.77,0,0,1-.65,1.14l-.19.27-.11.15s-.1.13,0,0,0,0,0,0l-.12.14-.25.3c-.29.34-.6.67-.92,1-.61.63-1.25,1.24-1.82,1.91a5.27,5.27,0,0,0-1.22,2.25,8.09,8.09,0,0,0,.06,2.86,1,1,0,0,0,1.27.72,1.07,1.07,0,0,0,.72-1.27l0-.19s0,.16,0,0,0-.2,0-.3,0-.4,0-.6,0-.31,0-.47a.57.57,0,0,1,0-.13c0-.12,0-.06,0,.07,0-.06,0-.18.05-.25a2.91,2.91,0,0,1,.12-.39c.08-.24-.08.14,0,0l.12-.23c.08-.14.17-.28.26-.41l.07-.09c.08-.12-.12.14,0,0l.21-.25a46.08,46.08,0,0,0,3.72-4.18,7.43,7.43,0,0,0,1.17-2.69,10.42,10.42,0,0,0,0-3.39,32.89,32.89,0,0,0-1-5.57,10.85,10.85,0,0,0-3.1-5.24A1,1,0,0,0,134,50.62Z"/><path d="M28,166.22H1a1,1,0,0,1,0-2H28a1,1,0,0,1,0,2Z"/><path d="M223.93,166.22H168.5a1,1,0,0,1,0-2h55.43a1,1,0,0,1,0,2Z"/><path d="M79.66,166.67a1,1,0,1,1,0-2l67-.45h0a1,1,0,1,1,0,2l-67,.45Z"/><path class="cls-6" d="M178.54,206.53c-.26-1.2-.51-2.41-.75-3.62s-.49-2.22-.7-3.33-.7-2.18-1-3.29c-.93-3.3-1.3-6.76-2.23-10-1-3.69-4.18-4.11-7.47-4.24-3.72-.14-7.43-.22-11.15-.27-14.72-.2-29.45.09-44.15-.85a3.54,3.54,0,0,0-2,.43q-23.79.66-47.59.28a7.13,7.13,0,0,1-2.52.66,20.86,20.86,0,0,1-4.1-.23l-.52-.08a3.2,3.2,0,0,0-1.57,2.19c-1.66,7.84-2.83,16-5.15,23.69-.65,2.16,1.21,5.11,3.69,4.83,9.22-1.05,18.48-1.78,27.75-2.29a3.69,3.69,0,0,0,2,.53l51.79-.35a4,4,0,0,0,.88.12q21,.61,42.12.47a4.23,4.23,0,0,0,3.21-1.76C178.87,208.43,178.69,207.48,178.54,206.53Zm-36.06-4.33a3.42,3.42,0,0,0-2.35.65l-3.58,0a3.72,3.72,0,0,0-4.44-2.36c-6.14,1.44-12.77.94-19,1.06q-10,.18-20,.51c-9.84-.38-19.71-.17-29.56.06a3.54,3.54,0,0,0-3.21,1.93l-3.9.38.12-.48a4.33,4.33,0,0,0,2-2.4,56.15,56.15,0,0,0,3-11.12l48-1.52a3.87,3.87,0,0,0,1.66-.41c9.59.6,19.2.7,28.81.74,4.76,0,9.52,0,14.28.09q3.57,0,7.13.13l3.57.11,1.78.06h.05c.2,1,.28,2.2.43,2.9.38,1.79.81,3.58,1.3,5.35s1.08,3.64,1.7,5.43Q156.38,203.08,142.48,202.2Z"/><path d="M178.76,212.16H48.19a.9.9,0,0,1,0-1.8H178.76a.9.9,0,0,1,0,1.8Z"/><path d="M172.8,183.68H53.25a.71.71,0,1,1,0-1.42H172.8a.71.71,0,1,1,0,1.42Z"/><path class="cls-1" d="M173,203.31a3.87,3.87,0,0,0-3.75-3.32q-14.92-1.31-29.92-1.46c-4.69,0-9.41-.12-14.09.15a20,20,0,0,0-9.89,2.82c-4.25,0-8.51-.16-12.77-.35a3.7,3.7,0,0,0-3-1.77,363.86,363.86,0,0,0-40.71,1.08c-4.82.4-5,7.74,0,7.64l13.25-.26a3.79,3.79,0,0,0,1.88.57,120.63,120.63,0,0,0,14.73-.15,4,4,0,0,1,1-.28c10.35-1.56,20.74-.57,31.15-.39,8.91.15,17.81.22,26.71.38l3.11,0c6.49,0,13.2.82,19.62-.43A3.78,3.78,0,0,0,173,203.31Z"/><path class="cls-1" d="M113.59,207.6a5.82,5.82,0,0,1,.45-.9,6.14,6.14,0,0,1,.94-1.21,6.29,6.29,0,0,1,4.45-1.85h44.95c2.24,0,9,3.64,9,3.6l-3.6-23.79V183h0a6.26,6.26,0,0,0-6.25-5.84H119.88a6.29,6.29,0,0,0-6.29,6.29h0a1.69,1.69,0,0,0,0-.23,5.62,5.62,0,0,0-5.62-5.61H62.58A5.6,5.6,0,0,0,57,183.19a1.69,1.69,0,0,0,0,.23h0l-3.15,25.17s7.71-5,9.44-5h43.6c3,0,5.67,1.22,6.29,4.05"/><path d="M53.81,209.49a1,1,0,0,1-.48-.14.92.92,0,0,1-.41-.87l3.14-25.13v-.16a6.5,6.5,0,0,1,6.52-6.51H108a6.51,6.51,0,0,1,5.63,3.24,7.2,7.2,0,0,1,6.28-3.69h43.63a7.16,7.16,0,0,1,7.13,6.52.78.78,0,0,1,0,.22v.42l3.59,23.72a.93.93,0,0,1-.42.9c-.44.26-.73.12-1.3-.18-5.63-2.86-7.53-3.29-8.16-3.29H119.43a5.36,5.36,0,0,0-3.81,1.58,5.54,5.54,0,0,0-1.2,1.82.89.89,0,0,1-.89.56l-.2.07a.91.91,0,0,1-1.07-.69c-.66-3-4-3.34-5.41-3.34H63.25c-.91,0-5.35,2.5-9,4.8A.88.88,0,0,1,53.81,209.49Zm4-25.87-2.9,23.2c2.6-1.61,6.84-4.08,8.31-4.08h43.6c3.12,0,5.47,1.18,6.59,3.22a7.81,7.81,0,0,1,.9-1.11,7.19,7.19,0,0,1,5.09-2.11h44.95c1.32,0,3.83.93,7.84,2.92l-3.34-22.07c0-.05,0-.09,0-.14v-.33s0-.06,0-.09a5.36,5.36,0,0,0-5.35-5H119.88a5.39,5.39,0,0,0-5.39,5.39.9.9,0,0,1-.9.9.91.91,0,0,1-.9-1v-.12a4.73,4.73,0,0,0-4.72-4.72H62.58a4.73,4.73,0,0,0-4.72,4.72v.12A1.08,1.08,0,0,1,57.84,183.62Z"/><path d="M48,212.18H47.8a.89.89,0,0,1-.71-1l5.39-28.32a.88.88,0,0,1,1.05-.71.9.9,0,0,1,.72,1l-5.4,28.31A.9.9,0,0,1,48,212.18Z"/><path d="M178.76,212.16a.9.9,0,0,1-.88-.72l-5.83-28.26a.9.9,0,1,1,1.76-.37l5.83,28.27a.9.9,0,0,1-.7,1.06Z"/><rect class="cls-6" x="108.65" y="210.39" width="9.89" height="2.7"/><path d="M118.53,214h-9.88a.9.9,0,0,1-.9-.9v-2.69a.9.9,0,0,1,.9-.9h9.88a.9.9,0,0,1,.9.9v2.69A.9.9,0,0,1,118.53,214Zm-9-1.8h8.09v-.9h-8.09Z"/><path d="M172.92,209H53.36a.9.9,0,1,1,0-1.8H172.92a.9.9,0,0,1,0,1.8Z"/><path class="cls-6" d="M100.86,194.67c-4.56-.41-9.14-.56-13.71-.55s-9.21.18-13.8.42c-2.57.13-5.14.29-7.71.45a.69.69,0,0,0-.67.68.68.68,0,0,0,.67.67c4.57-.29,9.14-.56,13.71-.72s9.2-.21,13.8-.06c2.57.08,5.15.23,7.71.45a.67.67,0,0,0,.67-.67.68.68,0,0,0-.67-.67Z"/><path class="cls-6" d="M100.15,188.18q-6.29-.59-12.61-.69t-12.61.28q-3.57.22-7.13.6a.68.68,0,0,0-.67.67.67.67,0,0,0,.67.67q6.28-.65,12.6-.83T93,189q3.57.18,7.13.51a.68.68,0,0,0,.67-.67.69.69,0,0,0-.67-.68Z"/><path class="cls-6" d="M67.57,183q6.14.22,12.26.32t12.33,0c2.3,0,4.61,0,6.91-.09a.68.68,0,0,0,0-1.35q-6.13.12-12.26.11t-12.33-.17c-2.3,0-4.61-.13-6.91-.21-.87,0-.87,1.31,0,1.35Z"/><path class="cls-6" d="M127.05,197a24,24,0,0,1,5.48-.53c1.95,0,3.9,0,5.85,0l11.67,0,6.62,0a.67.67,0,0,0,0-1.34q-11.85,0-23.68.08a26.65,26.65,0,0,0-6.3.58.67.67,0,0,0,.36,1.3Z"/><path class="cls-6" d="M125.82,191.08l21.69.23,6.14.06a.67.67,0,0,0,0-1.34L132,189.79l-6.15-.06a.68.68,0,0,0,0,1.35Z"/><path class="cls-6" d="M166.77,197.19a12,12,0,0,0-.72-1.13,3.84,3.84,0,0,0-.81-.94,1.16,1.16,0,0,0-1.3,0,5.41,5.41,0,0,0-1,.92L159,199.87c-.62.61.34,1.56,1,.95l3.35-3.29.8-.79c.14-.14.29-.27.42-.41s.1-.07.09-.09-.11,0-.12,0,.47.63.51.68c.21.31.41.63.6,1a.67.67,0,0,0,1.16-.68Z"/><path class="cls-6" d="M110.88,197.46l-1.66-1.32c-.55-.43-1.15-1-1.91-.74a2.54,2.54,0,0,0-.83.58l-.79.71-1.66,1.5a.68.68,0,0,0,0,.95.69.69,0,0,0,1,0l1.39-1.26.62-.55.35-.31c.09-.09.26-.19.32-.3s.15,0,0-.06a.59.59,0,0,1,.2.12c.22.15.42.33.63.49l1.43,1.14a.7.7,0,0,0,1,0,.69.69,0,0,0,0-.95Z"/><polygon class="cls-3" points="39.88 211.94 16 211.95 20.05 182.28 40.78 182.27 39.88 211.94"/><path d="M16,212.85a.93.93,0,0,1-.68-.31.89.89,0,0,1-.21-.71l4-29.67a.92.92,0,0,1,.9-.78H40.78a.88.88,0,0,1,.64.28.92.92,0,0,1,.26.65L40.78,212a.91.91,0,0,1-.9.88Zm23.88-.91ZM20.83,183.18,17,211.05H39l.84-27.87Z"/><polygon class="cls-1" points="36.47 209.44 19.88 209.47 20.78 205.42 36.51 205.42 36.47 209.44"/><path d="M19.88,209.91a.45.45,0,0,1-.35-.16.44.44,0,0,1-.09-.38l.9-4.05a.45.45,0,0,1,.44-.35H36.51a.44.44,0,0,1,.45.45l0,4a.45.45,0,0,1-.45.45l-16.59,0Zm16.59-.47Zm-15.33-3.57-.7,3.14L36,209l0-3.12Z"/><path class="cls-1" d="M36.43,201.52a1.17,1.17,0,0,1-2.34,0,1.17,1.17,0,1,1,2.34,0Z"/><path d="M35.26,203.14a1.62,1.62,0,1,1,1.61-1.62A1.62,1.62,0,0,1,35.26,203.14Zm0-2.34a.72.72,0,1,0,.72.72A.72.72,0,0,0,35.26,200.8Z"/><path class="cls-1" d="M32,201.52a1.19,1.19,0,1,1-1.19-1.19A1.19,1.19,0,0,1,32,201.52Z"/><path d="M30.77,203.16a1.64,1.64,0,1,1,1.64-1.64A1.64,1.64,0,0,1,30.77,203.16Zm0-2.38a.74.74,0,1,0,.74.74A.74.74,0,0,0,30.77,200.78Z"/><path class="cls-1" d="M27.4,201.52a1.19,1.19,0,1,1-1.19-1.19A1.19,1.19,0,0,1,27.4,201.52Z"/><path d="M26.21,203.16a1.64,1.64,0,1,1,1.64-1.64A1.64,1.64,0,0,1,26.21,203.16Zm0-2.38a.74.74,0,1,0,.74.74A.74.74,0,0,0,26.21,200.78Z"/><circle class="cls-1" cx="21.71" cy="201.52" r="1.15"/><path d="M21.71,203.12a1.6,1.6,0,1,1,1.6-1.6A1.6,1.6,0,0,1,21.71,203.12Zm0-2.3a.7.7,0,1,0,.7.7A.7.7,0,0,0,21.71,200.82Z"/><path class="cls-1" d="M36.87,196.92a1.17,1.17,0,1,1-1.16-1.17A1.17,1.17,0,0,1,36.87,196.92Z"/><path d="M35.71,198.54a1.62,1.62,0,1,1,1.61-1.62A1.62,1.62,0,0,1,35.71,198.54Zm0-2.34a.72.72,0,1,0,0,1.44.72.72,0,1,0,0-1.44Z"/><path class="cls-1" d="M32.41,196.92a1.19,1.19,0,0,1-2.38,0,1.19,1.19,0,0,1,2.38,0Z"/><path d="M31.22,198.56a1.64,1.64,0,1,1,1.64-1.64A1.64,1.64,0,0,1,31.22,198.56Zm0-2.38a.74.74,0,1,0,.74.74A.74.74,0,0,0,31.22,196.18Z"/><path class="cls-1" d="M27.85,196.92a1.19,1.19,0,0,1-2.38,0,1.19,1.19,0,0,1,2.38,0Z"/><path d="M26.66,198.56a1.64,1.64,0,1,1,1.64-1.64A1.64,1.64,0,0,1,26.66,198.56Zm0-2.38a.74.74,0,1,0,.74.74A.74.74,0,0,0,26.66,196.18Z"/><circle class="cls-1" cx="22.16" cy="196.92" r="1.15"/><path d="M22.16,198.52a1.6,1.6,0,1,1,1.6-1.6A1.6,1.6,0,0,1,22.16,198.52Zm0-2.3a.7.7,0,1,0,.7.7A.7.7,0,0,0,22.16,196.22Z"/><path class="cls-1" d="M37.32,192.32a1.17,1.17,0,1,1-1.17-1.17A1.17,1.17,0,0,1,37.32,192.32Z"/><path d="M36.15,193.94a1.62,1.62,0,1,1,1.62-1.62A1.62,1.62,0,0,1,36.15,193.94Zm0-2.34a.72.72,0,1,0,.72.72A.72.72,0,0,0,36.15,191.6Z"/><circle class="cls-1" cx="31.67" cy="192.32" r="1.19"/><path d="M31.67,194a1.64,1.64,0,1,1,1.64-1.64A1.64,1.64,0,0,1,31.67,194Zm0-2.38a.74.74,0,1,0,.74.74A.74.74,0,0,0,31.67,191.58Z"/><path class="cls-1" d="M28.3,192.32a1.19,1.19,0,0,1-2.38,0,1.19,1.19,0,0,1,2.38,0Z"/><path d="M27.11,194a1.64,1.64,0,1,1,1.64-1.64A1.64,1.64,0,0,1,27.11,194Zm0-2.38a.74.74,0,1,0,.74.74A.74.74,0,0,0,27.11,191.58Z"/><circle class="cls-1" cx="22.61" cy="192.32" r="1.15"/><path d="M22.61,193.92a1.6,1.6,0,1,1,1.6-1.6A1.6,1.6,0,0,1,22.61,193.92Zm0-2.3a.7.7,0,1,0,.7.7A.7.7,0,0,0,22.61,191.62Z"/><path class="cls-1" d="M37.77,187.72a1.17,1.17,0,1,1-1.17-1.17A1.17,1.17,0,0,1,37.77,187.72Z"/><path d="M36.6,189.34a1.62,1.62,0,1,1,1.62-1.62A1.62,1.62,0,0,1,36.6,189.34Zm0-2.34a.72.72,0,1,0,.72.72A.72.72,0,0,0,36.6,187Z"/><path class="cls-1" d="M33.31,187.72a1.19,1.19,0,0,1-2.38,0,1.19,1.19,0,0,1,2.38,0Z"/><path d="M32.12,189.36a1.64,1.64,0,1,1,1.63-1.64A1.64,1.64,0,0,1,32.12,189.36Zm0-2.38a.74.74,0,0,0,0,1.48.74.74,0,0,0,0-1.48Z"/><path class="cls-1" d="M28.75,187.72a1.19,1.19,0,0,1-2.38,0,1.19,1.19,0,0,1,2.38,0Z"/><path d="M27.56,189.36a1.64,1.64,0,1,1,1.64-1.64A1.64,1.64,0,0,1,27.56,189.36Zm0-2.38a.74.74,0,0,0,0,1.48.74.74,0,0,0,0-1.48Z"/><path class="cls-1" d="M24.21,187.72a1.15,1.15,0,1,1-1.15-1.15A1.15,1.15,0,0,1,24.21,187.72Z"/><path d="M23.06,189.32a1.6,1.6,0,1,1,1.6-1.6A1.6,1.6,0,0,1,23.06,189.32Zm0-2.3a.7.7,0,1,0,.7.7A.7.7,0,0,0,23.06,187Z"/><rect class="cls-7" x="192.25" y="177.91" width="36.86" height="17.98" transform="translate(34.06 -32.47) rotate(9.58)"/><path d="M227.36,199.73h-.16l-36.34-6.14a.92.92,0,0,1-.58-.36.9.9,0,0,1-.15-.67l3-17.73a.91.91,0,0,1,1-.74l36.34,6.14a.9.9,0,0,1,.58.37.88.88,0,0,1,.15.67l-3,17.72A.89.89,0,0,1,227.36,199.73ZM192.05,192l34.57,5.84,2.69-16L194.74,176Z"/><circle class="cls-1" cx="210.68" cy="186.9" r="7.61" transform="translate(-6.5 7.59) rotate(-2.03)"/><path class="cls-8" d="M209.69,185.64,208,182.35a.62.62,0,0,1-.05-.36.59.59,0,0,1,.32-.44.61.61,0,0,1,.39-.07.5.5,0,0,1,.38.32l1.89,3.87,3.05-3a.53.53,0,0,1,.47-.17.61.61,0,0,1,.34.2.55.55,0,0,1,.16.51.53.53,0,0,1-.17.32L212,186l2,.33a.46.46,0,0,1,.27.15.52.52,0,0,1,.1.41.48.48,0,0,1-.3.39.45.45,0,0,1-.23,0l-2.58-.44-.22,1.3,2.58.43a.44.44,0,0,1,.25.14.53.53,0,0,1,.11.44.47.47,0,0,1-.3.39.35.35,0,0,1-.23,0l-2.58-.43-.37,2.21a.49.49,0,0,1-.22.34.59.59,0,0,1-.43.09.57.57,0,0,1-.44-.31.47.47,0,0,1,0-.31l.37-2.21-2.57-.44a.39.39,0,0,1-.26-.14.52.52,0,0,1-.11-.42.47.47,0,0,1,.53-.43l2.58.44.22-1.3-2.58-.44a.4.4,0,0,1-.28-.17.52.52,0,0,1-.08-.39.48.48,0,0,1,.27-.38.38.38,0,0,1,.26,0Z"/><rect class="cls-7" x="205.29" y="180.16" width="36.86" height="17.98" transform="translate(-13.46 17.18) rotate(-4.27)"/><path d="M206,200.38a.89.89,0,0,1-.59-.21.93.93,0,0,1-.31-.62l-1.34-17.93a.91.91,0,0,1,.83-1l36.75-2.74a.89.89,0,0,1,1,.83l1.34,17.93a.91.91,0,0,1-.83,1l-36.76,2.74Zm-.38-18,1.21,16.13,35-2.61-1.21-16.13Z"/><circle class="cls-1" cx="223.71" cy="189.15" r="7.61" transform="translate(-47.35 300.29) rotate(-62.51)"/><path class="cls-8" d="M222.45,188.16,220,185.38a.59.59,0,0,1-.13-.34.56.56,0,0,1,.2-.5.64.64,0,0,1,.37-.16.53.53,0,0,1,.44.21l2.76,3.31,2.24-3.68a.53.53,0,0,1,.41-.28.62.62,0,0,1,.38.11.57.57,0,0,1,.28.47.5.5,0,0,1-.09.34l-2,3.13,2-.15a.46.46,0,0,1,.3.08.5.5,0,0,1,.19.37.51.51,0,0,1-.19.46.41.41,0,0,1-.22.07l-2.61.2.1,1.31,2.6-.19a.44.44,0,0,1,.28.07.52.52,0,0,1,.21.4.48.48,0,0,1-.19.45.39.39,0,0,1-.22.08l-2.61.19.17,2.24a.45.45,0,0,1-.14.38.52.52,0,0,1-.39.19.56.56,0,0,1-.5-.2.4.4,0,0,1-.11-.29l-.17-2.23-2.61.19a.38.38,0,0,1-.28-.07.53.53,0,0,1-.2-.39.48.48,0,0,1,.18-.46.57.57,0,0,1,.23-.08l2.6-.19-.09-1.32-2.61.2a.46.46,0,0,1-.32-.1.51.51,0,0,1-.17-.36.47.47,0,0,1,.18-.43.38.38,0,0,1,.24-.1Z"/><rect class="cls-7" x="197.69" y="186.06" width="36.86" height="17.98"/><path d="M234.55,204.94H197.69a.9.9,0,0,1-.9-.9v-18a.9.9,0,0,1,.9-.9h36.86a.9.9,0,0,1,.9.9v18A.9.9,0,0,1,234.55,204.94Zm-36-1.8h35.06V187H198.59Z"/><circle class="cls-1" cx="216.12" cy="195.05" r="7.61"/><path class="cls-8" d="M214.93,194l-2.25-3a.58.58,0,0,1-.11-.34.55.55,0,0,1,.24-.48.63.63,0,0,1,.37-.14.53.53,0,0,1,.44.25l2.5,3.5,2.5-3.5a.52.52,0,0,1,.43-.25.64.64,0,0,1,.38.14.55.55,0,0,1,.24.48.55.55,0,0,1-.11.34l-2.25,3h2a.4.4,0,0,1,.28.1.48.48,0,0,1,.17.39.46.46,0,0,1-.23.43.41.41,0,0,1-.22.07h-2.62v1.31h2.62a.39.39,0,0,1,.27.1.51.51,0,0,1,.18.41.49.49,0,0,1-.23.43.34.34,0,0,1-.22.07h-2.62v2.23a.49.49,0,0,1-.16.38.56.56,0,0,1-.41.16.55.55,0,0,1-.48-.24.49.49,0,0,1-.09-.3v-2.23h-2.62a.41.41,0,0,1-.27-.1.55.55,0,0,1,0-.85.46.46,0,0,1,.23-.06h2.62V195h-2.62a.42.42,0,0,1-.3-.13.5.5,0,0,1-.15-.37.47.47,0,0,1,.21-.42.4.4,0,0,1,.24-.07Z"/><circle class="cls-9" cx="187.3" cy="199.35" r="3.82"/><path d="M187.3,204.07a4.72,4.72,0,1,1,4.72-4.72A4.73,4.73,0,0,1,187.3,204.07Zm0-7.64a2.92,2.92,0,1,0,2.92,2.92A2.92,2.92,0,0,0,187.3,196.43Z"/><circle class="cls-9" cx="191.34" cy="193.96" r="3.82"/><path d="M191.34,198.68a4.72,4.72,0,1,1,4.72-4.72A4.72,4.72,0,0,1,191.34,198.68Zm0-7.64a2.92,2.92,0,1,0,2.93,2.92A2.92,2.92,0,0,0,191.34,191Z"/></g></g></g></g></svg>