<svg xmlns="http://www.w3.org/2000/svg" viewBox="0 0 507.86 611.49"><defs><style>.cls-1{fill:#fefaf9;}.cls-2{fill:#fff;}.cls-3{fill:#e5b7ad;}.cls-4{fill:#f35528;}.cls-5{fill:#fef3ee;}.cls-6{fill:#c58a7b;}.cls-7{fill:#e1d5cf;}.cls-8{fill:#269ac2;}.cls-9{fill:#fcec74;}.cls-10{fill:#efded4;}.cls-11{fill:#94a8ae;}.cls-12{opacity:0.65;}</style></defs><g id="Layer_2" data-name="Layer 2"><g id="レイヤー_1" data-name="レイヤー 1"><g id="contents02"><g id="_3" data-name="3"><rect class="cls-1" x="2.05" y="2.05" width="202.88" height="202.88"/><path class="cls-2" d="M207,207H0V0H207ZM4.1,202.88H202.88V4.1H4.1Z"/><line class="cls-3" x1="27.79" y1="31.68" x2="27.79" y2="175.3"/><path class="cls-3" d="M27.79,177.93a2.62,2.62,0,0,1-2.62-2.63V31.68a2.63,2.63,0,0,1,5.25,0V175.3A2.63,2.63,0,0,1,27.79,177.93Z"/><line class="cls-3" x1="26.77" y1="175.04" x2="170.38" y2="175.04"/><path class="cls-3" d="M170.38,177.67H26.77a2.63,2.63,0,1,1,0-5.25H170.38a2.63,2.63,0,1,1,0,5.25Z"/><line class="cls-3" x1="26.92" y1="141.65" x2="53.54" y2="119.06"/><path class="cls-3" d="M26.92,144.28a2.63,2.63,0,0,1-1.7-4.63l26.62-22.59a2.62,2.62,0,0,1,3.4,4L28.62,143.65A2.64,2.64,0,0,1,26.92,144.28Z"/><line class="cls-3" x1="53.54" y1="119.87" x2="99.53" y2="129.55"/><path class="cls-3" d="M99.53,132.18a2.48,2.48,0,0,1-.54-.06l-46-9.68a2.63,2.63,0,1,1,1.08-5.14l46,9.68a2.63,2.63,0,0,1-.54,5.2Z"/><line class="cls-3" x1="115.67" y1="97.27" x2="98.72" y2="130.35"/><path class="cls-3" d="M98.72,133a2.55,2.55,0,0,1-1.19-.29,2.61,2.61,0,0,1-1.14-3.53l16.94-33.08A2.62,2.62,0,0,1,118,98.47l-16.94,33.08A2.61,2.61,0,0,1,98.72,133Z"/><line class="cls-3" x1="115.67" y1="95.66" x2="144.71" y2="114.22"/><path class="cls-3" d="M144.71,116.85a2.63,2.63,0,0,1-1.41-.42L114.25,97.88a2.63,2.63,0,0,1,2.83-4.43L146.13,112a2.63,2.63,0,0,1-1.42,4.85Z"/><line class="cls-3" x1="174.56" y1="52.9" x2="144.71" y2="114.22"/><path class="cls-3" d="M144.71,116.85a2.63,2.63,0,0,1-2.36-3.78L172.2,51.75a2.63,2.63,0,0,1,4.73,2.3l-29.86,61.32A2.63,2.63,0,0,1,144.71,116.85Z"/><ellipse class="cls-4" cx="53.14" cy="119.87" rx="6.86" ry="7.26"/><path class="cls-4" d="M53.14,127.42a7.57,7.57,0,1,1,7.15-7.55A7.37,7.37,0,0,1,53.14,127.42Zm0-14.52a7,7,0,1,0,6.56,7A6.78,6.78,0,0,0,53.14,112.9Z"/><ellipse class="cls-4" cx="98.32" cy="127.13" rx="6.86" ry="7.26"/><path class="cls-4" d="M98.32,134.68a7.57,7.57,0,1,1,7.15-7.55A7.37,7.37,0,0,1,98.32,134.68Zm0-14.52a7,7,0,1,0,6.57,7A6.78,6.78,0,0,0,98.32,120.16Z"/><ellipse class="cls-4" cx="117.68" cy="98.08" rx="6.86" ry="7.26"/><path class="cls-4" d="M117.68,105.63a7.56,7.56,0,1,1,7.15-7.55A7.36,7.36,0,0,1,117.68,105.63Zm0-14.52a7,7,0,1,0,6.57,7A6.78,6.78,0,0,0,117.68,91.11Z"/><ellipse class="cls-4" cx="146.73" cy="114.22" rx="6.86" ry="7.26"/><path class="cls-4" d="M146.73,121.77a7.57,7.57,0,1,1,7.15-7.55A7.37,7.37,0,0,1,146.73,121.77Zm0-14.52a7,7,0,1,0,6.57,7A6.79,6.79,0,0,0,146.73,107.25Z"/><ellipse class="cls-4" cx="173.35" cy="53.71" rx="6.86" ry="7.26"/><path class="cls-4" d="M173.35,61.26a7.57,7.57,0,1,1,7.15-7.55A7.37,7.37,0,0,1,173.35,61.26Zm0-14.52a7,7,0,1,0,6.57,7A6.78,6.78,0,0,0,173.35,46.74Z"/><circle class="cls-5" cx="170.07" cy="292.51" r="98.48"/><path class="cls-2" d="M170.07,393.14a100.62,100.62,0,1,1,71.15-29.47A100,100,0,0,1,170.07,393.14Zm0-197a96.34,96.34,0,1,0,96.33,96.33A96.45,96.45,0,0,0,170.07,196.18Z"/><path class="cls-3" d="M173.55,236.61V298l.43-.21H111.33V298a60.72,60.72,0,1,0,60.72-60.72"/><path class="cls-3" d="M172.05,360.4A62.49,62.49,0,0,1,109.62,298V296h62.22V236.61h.21v-1.07a62.43,62.43,0,0,1,0,124.86Zm-59-60.93a59,59,0,1,0,62.2-60.41v57h6l-9.41,4.71v-1.28Z"/><path class="cls-4" d="M103.47,291.5c21.38-.4,43.26.46,64.72-.4-.43-20.59-.86-41.19,0-61.79,0-.85-.43-2.57-1.29-2.57a35.28,35.28,0,0,0-15,1.72c-2.14.85-4.29,1.28-6.43,2.14a57.15,57.15,0,0,0-17.6,10.73c-.43.43-1.28.43-1.71.86a67,67,0,0,0-22.74,50Z"/><path class="cls-6" d="M103.61,292.2l-.43,0A67,67,0,0,1,126,242a2.42,2.42,0,0,1,.93-.48,2,2,0,0,0,.77-.37,56.9,56.9,0,0,1,17.67-10.78c1.08-.43,2.17-.76,3.23-1.08s2.14-.64,3.2-1.06a35.34,35.34,0,0,1,15.12-1.73h0c1,0,1.48,1.84,1.48,2.78-.85,20.6-.42,41.54,0,61.79v.21h-.21c-12.4.49-25.13.42-37.43.34-8.92-.05-18.14-.11-27.11,0Zm13.51-1c4.58,0,9.15,0,13.65.05,12.23.08,24.88.16,37.2-.33-.42-20.19-.85-41.06,0-61.59,0-.81-.41-2.36-1.07-2.36A35.05,35.05,0,0,0,152,228.66c-1.08.43-2.17.76-3.23,1.07s-2.14.65-3.2,1.07A56.3,56.3,0,0,0,128,241.49a2.32,2.32,0,0,1-.94.47,2,2,0,0,0-.77.38,66.58,66.58,0,0,0-22.67,49C108.08,291.2,112.6,291.18,117.12,291.18Z"/><path class="cls-2" d="M354,451.48a11.41,11.41,0,0,0-7.47-9.65,5.69,5.69,0,0,1-5.34-2.94c-1.06-1.71-2.09-3.46-3.17-5.17a4.91,4.91,0,0,1-4.81-2.81,33.35,33.35,0,0,0-5.66-7.89,3.9,3.9,0,0,1-.95-.95c-.24-.22-.48-.46-.73-.68a53,53,0,0,0-22.5-7.28c-7.5-.51-15.12.48-21.74,4.22-7,4-11.54,12.88-8,20.68a10.58,10.58,0,0,0,3.45,4.16c-2.27,5.63.68,11.71,6.06,14.39a31.86,31.86,0,0,0,3,1.29,8.93,8.93,0,0,0,9.57,8.7l.95,0c.38,3.91,3.52,7.78,7.37,8.19,5.76.61,11.48,1.48,17.16,2.66q4,.83,8,1.86c1.4.36,2.8.74,4.19,1.14.77.22,1.54.44,2.31.68.18,0,2,.62,1,.3,3.53,1.13,6.87,1.11,9.78-1.58a9,9,0,0,0,2.33-9.6s-.21-.66-.36-1.09-.19-1.08-.2-1.22,0-.67-.06-1.08.09-1.16.11-1.3.13-.65.21-1.07.44-1.27.45-1.3.35-.68.53-1.06.71-1,.72-1C352.68,458.84,354.34,455.57,354,451.48Zm-63.19-17c0-.08,0-.17-.05-.25.33,0,.66-.05,1-.05-.07,0,.29.1.77.18Q291.71,434.39,290.85,434.48Z"/><path class="cls-3" d="M304.17,434.65a25.84,25.84,0,0,1-5.45-9.65c0-.1-.06-.2-.09-.3a75.32,75.32,0,0,1-9.41-9.73,6.19,6.19,0,0,1-1.53-4.56c-1.71-1.49-3.48-2.92-5.29-4.27-3.73-2.77-9.5-2.83-12.53,1.13-2.79,3.66-2.85,9.56,1.13,12.53a71.54,71.54,0,0,1,16.1,15.9A109.47,109.47,0,0,1,304.17,434.65Z"/><path d="M279.51,406.43q7.51,9.82,14.11,20.32c1.25,2,2.46,4,3.66,6a2.52,2.52,0,1,0,4.35-2.54q-6.3-10.65-13.57-20.69c-1.38-1.9-2.77-3.77-4.2-5.63a2.59,2.59,0,0,0-3.45-.91c-1,.67-1.76,2.33-.9,3.46Z"/><path d="M304.69,432.47l-11.1-.67a55,55,0,0,0-8.79-.25c-2.68.27-5.47.95-7.46,2.88a7.25,7.25,0,0,0-1.16,8.68c1.56,2.87,4.57,4.57,7.58,5.56,1.47.48,3,.85,4.46,1.38l.5.18c.66.24-.45-.23.19.08.32.15.64.3.95.48a10.5,10.5,0,0,1,.9.57c.4.28.05.05,0,0l.59.53a9.2,9.2,0,0,1,.68.72l.26.31c.43.5-.28-.43.09.12s.82,1.23,1.19,1.87c.71,1.24,1.34,2.52,2.05,3.76a24,24,0,0,0,5.6,6.67,25.39,25.39,0,0,0,18.57,5.83,2.52,2.52,0,1,0,0-5,21.06,21.06,0,0,1-3.89.07l-1-.09c-.63-.07.4.07,0,0l-.48-.07c-.64-.11-1.27-.25-1.9-.41s-1.25-.36-1.86-.57l-.91-.34c-.11-.05-.46-.17.06,0-.18-.07-.36-.16-.53-.24a23.63,23.63,0,0,1-3.47-2l-.72-.51c-.53-.38.4.33-.1-.08l-.31-.25c-.52-.43-1-.89-1.51-1.37s-.86-.88-1.26-1.35c-.08-.1-.72-.91-.33-.4-.22-.28-.43-.57-.63-.86-1.52-2.23-2.53-4.77-4.07-7a15.09,15.09,0,0,0-3.33-3.53,15.25,15.25,0,0,0-4.2-2.08c-1.41-.49-2.85-.84-4.26-1.31-.31-.1-.62-.2-.92-.32s-.57-.08-.06,0a1.53,1.53,0,0,1-.35-.16,11.2,11.2,0,0,1-1.85-1.11c.46.34-.19-.18-.32-.3s-.4-.42-.6-.63c-.44-.44.26.44-.07-.08l-.21-.31-.23-.4c-.3-.57.06.33-.07-.15l-.1-.34c0-.05-.2-.6-.06-.19s0-.11,0-.21,0-.24,0-.36c0-.59-.14.45,0,0,0-.1.05-.2.07-.3s.09-.23.12-.35,0-.1-.11.26c0-.08.08-.17.13-.25s.44-.7.2-.33.17-.17.27-.27a3,3,0,0,0,.33-.28c0,.05-.51.35-.17.14a8.57,8.57,0,0,1,.77-.45l.27-.13c.47-.24-.44.13-.1,0s.44-.16.67-.23a11.67,11.67,0,0,1,1.75-.4,2.57,2.57,0,0,0,.33-.05l-.17,0h.17c.33,0,.67-.06,1-.08.6,0,1.21,0,1.82,0,1.82.05,3.63.21,5.45.32l11.61.7a2.54,2.54,0,0,0,2.52-2.53,2.58,2.58,0,0,0-2.52-2.52Z"/><path d="M268.3,414.53a112,112,0,0,0,13.14,19.11,2.55,2.55,0,0,0,3.57,0,2.58,2.58,0,0,0,0-3.57c-.61-.73-1.22-1.46-1.82-2.2l-.89-1.11-.36-.47,0,0-.22-.28q-1.69-2.24-3.27-4.53a109.37,109.37,0,0,1-5.83-9.53,2.54,2.54,0,0,0-3.45-.91,2.57,2.57,0,0,0-.9,3.45Z"/><path d="M273.92,422.21a16.84,16.84,0,0,0-4.35,12.29,16.39,16.39,0,0,0,5.58,11.29,17,17,0,0,0,6.4,3.53,2.53,2.53,0,0,0,1.34-4.87c-.39-.11-.79-.24-1.17-.39a1.57,1.57,0,0,1-.26-.1s.43.2.17.06l-.69-.33a11.27,11.27,0,0,1-1.06-.62l-.48-.31-.3-.22c-.3-.21-.05,0,0,0-.22,0-.77-.66-.93-.81-.32-.31-.62-.63-.92-1l-.36-.43c-.19-.21.09.12.1.14l-.23-.31a13.14,13.14,0,0,1-.72-1.11c-.19-.33-.37-.66-.53-1a2.48,2.48,0,0,1-.16-.35s.17.45.07.17-.17-.41-.24-.62a10.42,10.42,0,0,1-.35-1.21c-.06-.23-.11-.46-.15-.68s0-.2-.05-.3-.06-.5,0-.16,0-.38,0-.46,0-.4,0-.6c0-.47,0-.94,0-1.4,0-.12,0-.51.06-.6-.13.15-.07.4,0,.08,0-.1,0-.2.05-.3.08-.46.19-.92.31-1.37s.3-.95.48-1.42c0-.05.16-.35,0-.07s0-.1.08-.16c.11-.24.23-.48.36-.71.24-.44.5-.87.78-1.28.09-.13.58-.71.21-.29.18-.2.34-.41.52-.61a2.52,2.52,0,1,0-3.57-3.56Z"/><path d="M272.29,446.73a17.79,17.79,0,0,0,14.11,15.44,16.55,16.55,0,0,0,6.65,0,2.54,2.54,0,0,0,1.77-3.1,2.58,2.58,0,0,0-3.11-1.76l-.52.1-.26,0c-.29,0,.23,0,.23,0a10.13,10.13,0,0,0-1.22.08c-.35,0-.7,0-1.05,0l-.53,0-.26,0c-.35,0,.5.09.15,0a16.91,16.91,0,0,1-2.21-.53c-.34-.11-.66-.23-1-.36s.19.08.19.09a2.37,2.37,0,0,0-.32-.15,5.6,5.6,0,0,1-.55-.27,15.85,15.85,0,0,1-1.9-1.13l-.5-.37c-.23-.16.16.12.16.13s-.16-.14-.21-.17c-.29-.25-.58-.5-.86-.76s-.5-.5-.74-.76l-.41-.46-.17-.21c-.2-.24,0,0,.07.1-.36-.63-.84-1.19-1.2-1.84a12.72,12.72,0,0,0-.58-1.17s.18.46.09.2l-.13-.33c-.07-.19-.13-.39-.19-.58a9.48,9.48,0,0,1-.33-1.27,3.88,3.88,0,0,0-.11-.61s.05.52,0,.23,0-.29-.05-.44a2.53,2.53,0,0,0-5,0Z"/><path d="M283.65,463c2.48,5.82,9.53,8.59,15.48,7.4a11.5,11.5,0,0,0,4.6-2,2.58,2.58,0,0,0,.9-3.45c-.67-1-2.32-1.75-3.45-.91a9.33,9.33,0,0,1-1.06.71l-.42.22-.28.13c-.25.11-.19.09.17-.06-.26,0-.76.27-1,.35a7.07,7.07,0,0,0-1.23.26c.39,0,.48-.06.29,0l-.24,0c-.21,0-.42,0-.63,0a10.28,10.28,0,0,1-1.11,0l-.63-.05c-.46,0,.61.1-.12,0a10.64,10.64,0,0,1-1.09-.24,10,10,0,0,1-1.06-.33l-.3-.12.17.07c-.05-.09-.48-.22-.58-.27-.33-.17-.65-.35-1-.55s-.35-.23-.52-.35l-.13-.09.14.1c0-.16-.79-.7-.93-.84l-.33-.34-.2-.24c-.17-.21-.13-.16.1.14,0-.25-.48-.69-.61-.91a10.1,10.1,0,0,1-.57-1.14,2.53,2.53,0,0,0-3.45-.91,2.62,2.62,0,0,0-.91,3.46Z"/><path d="M348.7,448.39c-.45-.14.53.35,0,0a2.65,2.65,0,0,0-.42-.26c.24.07.41.34.07,0l-.32-.32c-.23-.25-.44-.52-.66-.78l.15.19c-.07-.08-.13-.17-.2-.26l-.3-.4a10.32,10.32,0,0,0-3.78-3.53l.92.93a79.78,79.78,0,0,0-17.09-20.83c-6.77-5.76-14.75-10.38-23.54-12.18a42.18,42.18,0,0,0-15.48-.25,2.57,2.57,0,0,0-1.79,3.16,2.64,2.64,0,0,0,3.16,1.8l1-.16c.34-.05.07-.11-.09,0a1.62,1.62,0,0,1,.4-.05c.65-.08,1.31-.14,2-.18a35.1,35.1,0,0,1,3.7-.05l1.73.09c.62.05,1.28.21,1.9.2-.54,0-.29,0-.11,0l.47.07.85.14c.62.12,1.24.24,1.86.39a45.06,45.06,0,0,1,6.9,2.21c.33.13,0-.08-.09,0a2.53,2.53,0,0,1,.36.15l.87.4c.56.25,1.1.52,1.65.8,1.09.55,2.17,1.15,3.22,1.78s2.1,1.31,3.11,2c.49.33,1,.67,1.44,1l.71.53c.37.28,0,0-.05,0,.16.11.31.24.46.36a69.11,69.11,0,0,1,5.65,5,75.91,75.91,0,0,1,5.12,5.64c.38.46.76.93,1.13,1.4l.25.32c-.35-.45-.06-.08,0,0,.23.29.45.59.67.88.75,1,1.48,2,2.18,3.09s1.52,2.32,2.24,3.5a5.76,5.76,0,0,0,1.79,2.31l.76.43s-.49-.42-.14-.11l.35.33c.22.21.42.44.62.67s.17.21.26.32c.32.39-.32-.43,0,0s.85,1.14,1.3,1.69a7.17,7.17,0,0,0,3.41,2.46,2.59,2.59,0,0,0,3.16-1.79,2.63,2.63,0,0,0-1.79-3.17Z"/><path d="M294.62,472.36c3.74,4.63,9.49,7,15.18,8.19,6,1.25,12.18,1.46,18.28,2.11l1.26.14.58.07.25,0c.34,0-.52-.08-.18,0,.78.11,1.56.23,2.33.37a36.16,36.16,0,0,1,4.35,1,2.52,2.52,0,0,0,1.34-4.86c-5.48-1.71-11.36-1.95-17-2.45-1.47-.13-2.94-.27-4.4-.43l-1.14-.14-.27,0c.39,0-.25,0-.36-.06-.71-.1-1.43-.21-2.14-.34a42.09,42.09,0,0,1-4.15-.92c-.69-.19-1.37-.4-2.05-.64-.31-.1-.62-.22-.92-.33l-.45-.18c-.54-.22.32.14-.07,0a23.06,23.06,0,0,1-3.87-2.19l-.19-.14c-.38-.27,0-.07.07.06,0-.1-.34-.28-.43-.35-.28-.24-.56-.48-.83-.74a18.4,18.4,0,0,1-1.58-1.72,2.53,2.53,0,0,0-3.57,0,2.61,2.61,0,0,0,0,3.57Z"/><circle class="cls-3" cx="251.85" cy="378.13" r="36.09"/><path d="M251.82,417.36a39.24,39.24,0,1,1,3.56-.16C254.18,417.3,253,417.36,251.82,417.36Zm.06-72.19c-1,0-2,.05-3,.14a32.88,32.88,0,1,0,3-.14Z"/><circle class="cls-1" cx="252.09" cy="377.84" r="26.68" transform="translate(-183.21 507.56) rotate(-72.88)"/><path d="M252.07,407.14a29.29,29.29,0,1,1,29.19-31.93h0A29.29,29.29,0,0,1,254.72,407C253.83,407.1,252.94,407.14,252.07,407.14Zm0-53.36c-.72,0-1.45,0-2.18.1a24,24,0,1,0,2.18-.1Z"/><path class="cls-7" d="M256,356.15a77.54,77.54,0,0,1-8.37,23.92q-1.68,3.15-3.56,6.19c-.54.86.82,1.65,1.35.79a90.38,90.38,0,0,0,10.54-23.39,63.21,63.21,0,0,0,1.55-7.1c.16-1-1.35-1.41-1.51-.41Z"/><path class="cls-7" d="M262.86,361.87q-6.36,15.19-12.71,30.4a.78.78,0,0,0,.54,1,.81.81,0,0,0,1-.55l12.71-30.39a.78.78,0,1,0-1.51-.42Z"/><path class="cls-2" d="M408.25,370.62a.5.5,0,0,0-.13,0,10.83,10.83,0,0,0-1.51.62c-.42-.39-.84-.78-1.25-1.19a8.86,8.86,0,0,0-3.15-2c-.15-.23-.32-.46-.47-.7a89.13,89.13,0,0,1-5.44-9.61c-.43-.9-.84-1.8-1.25-2.7-.07-.16-.11-.27-.14-.33l-.44-1.08c-.49-1.25-.94-2.53-1.37-3.81a9.14,9.14,0,0,0,3.81-4.5c3.9-6,4.38-14.43.36-20.46-1.6-2.38-4.56-4.81-7.68-4.4-.46.06-.91.13-1.36.22a8.58,8.58,0,0,0-.87-.1,14.18,14.18,0,0,0-15.35.07c-.35-.29-.71-.58-1.05-.88q-2.43-2.1-4.7-4.38a11.4,11.4,0,0,0-.88-2.6q-4.31-8.89-8.6-17.79c.06-.87.1-1.75.14-2.62.17-4.42-3.52-8.17-7.71-8.74-4-.54-9,2-9.76,6.37a38.48,38.48,0,0,0-.56,6c0,.25-.06.49-.08.74-3.76.09-7.54,2.56-8.4,6.43l-1,4.48a9.33,9.33,0,0,0-4.33-.52,8.91,8.91,0,0,0-7.52,6.93,11.88,11.88,0,0,0-1,2.42c-1.1,4-1,8.79-1.41,12.93Q314,341.21,312.83,353c-.32,3.11,1.69,5.93,4.31,7.5l13.76,14.7a7.84,7.84,0,0,0,2.15,1.63,13.79,13.79,0,0,0,2.09,5.87,16.87,16.87,0,0,0,11.52,7.45,27.15,27.15,0,0,0,18.82-3.86c-.7,10,1.61,20.08,7.66,28.39,2.15,3,5,4.76,8.86,4.25a8.9,8.9,0,0,0,7.31-6.06l.42-.16.29-.14a9.68,9.68,0,0,0,5.45-1.72,8.43,8.43,0,0,0,7.28,2.46c3.66-.5,6.16-3,7.39-6.37a40.11,40.11,0,0,0,2.07-8.82,9.4,9.4,0,0,0,5.94-6c0-.11.07-.21.1-.32a10.08,10.08,0,0,0,2.81-4.81A89.35,89.35,0,0,1,408.25,370.62Z"/><path class="cls-8" d="M457.55,326.81a14.52,14.52,0,0,0-2.47-1.13,29.25,29.25,0,0,0-12.59-5c0-.41.07-.82.1-1.23a49,49,0,0,0-3.85-22.29c-.38-.9-.78-1.8-1.21-2.69-1.24-8.78-4.19-16.77-11.11-22.52a32.5,32.5,0,0,0-4.32-6.88c-2.84-3.41-6.71-5.73-10.39-8.1-3.47-2.24-6.8-4.69-10.29-6.89-5.86-3.72-12.56-6.82-19.56-7.36a26.5,26.5,0,0,0-14.38-.15,46.35,46.35,0,0,0-9.91,3.89,42.18,42.18,0,0,0-7.48,2.14,34.21,34.21,0,0,0-7.55,4c-.3.17-.59.35-.88.53a15.78,15.78,0,0,0-6.12,5.51c-.18.32-.34.63-.49,1a18.61,18.61,0,0,0-10.9,1.75,8.45,8.45,0,0,0-7.37,2.45,69.06,69.06,0,0,0-14.52,22.52,58.44,58.44,0,0,0-5,18.88,23.45,23.45,0,0,0,.17,6.27c0,.88,0,1.77.06,2.65a8.93,8.93,0,0,0,7.71,8.73,9.49,9.49,0,0,0,5.47-1,15.37,15.37,0,0,0,6.47-2.4,28.27,28.27,0,0,0,5.78-5.06c8.31-2.65,13.58-11.68,16.21-19.62a76.74,76.74,0,0,0,39.14,28.45c4.88,1.54,9.94-2,11.08-6.63a15.94,15.94,0,0,0,3.49-.6c.57.93,1.13,1.87,1.63,2.85.33.66.66,1.34,1,2,0,0,.57,1.5.61,1.61,1.14,3.11,2.05,6.3,3,9.48a9.3,9.3,0,0,0,3.58,4.92c-.15.59-.33,1.17-.49,1.75l-.19.54c-.09.22-.2.48-.22.51-1,1.93-2.07,3.77-3.19,5.61-2.79,4.56-6.32,9.84-4.33,15.38,2.05,5.73,8.23,9.14,14.18,9.11a20.14,20.14,0,0,0,7.14-1.36,17.63,17.63,0,0,0,19.61,8.11,20.1,20.1,0,0,0,10.09-6.52,22,22,0,0,0,3.29-5.15c.19-.45.39-.91.58-1.37,7.46-2.41,14.26-7.82,16.66-15.48A18.69,18.69,0,0,0,457.55,326.81Zm-46.31,32,.12-.23C411,359.87,410.34,360.5,411.24,358.8Z"/><path class="cls-9" d="M498.56,598.3a307.43,307.43,0,0,0-2-117.61,290.76,290.76,0,0,0-9.25-33.43,12.87,12.87,0,0,0-.72-1.71c-2.27-8.21-5.15-16.43-9.4-23.62-5.2-8.83-13.11-15.54-22.42-18.15a42.61,42.61,0,0,0-18.56-12c-13.77-4.37-28.81-1.62-42.16,3.8-8.73,2.28-18,5.88-24.62,12a22.86,22.86,0,0,0-2,2.17,13.44,13.44,0,0,0-1.33.63q-2.11,1.19-4.14,2.48a134.55,134.55,0,0,1-17.82,23.37c-5.58,10.07-11.06,20.2-14.95,31.06a5.29,5.29,0,0,1-.89,1.61,76.69,76.69,0,0,1-2.74,10.49c-.31,2.32-.66,4.63-1,6.94a12.36,12.36,0,0,0,1.51,1.37,115.89,115.89,0,0,0-4.15,22.77q-2.79,13.8-4.46,27.84a268.89,268.89,0,0,0-2.11,30c0,2.63.06,5.28.27,7.92a8.26,8.26,0,0,0-1,2.86l-1.09,7.22V604a12.74,12.74,0,0,0,3.82,3.89c.07.58.13,1.15.21,1.72H499.88a8.22,8.22,0,0,0-.06-1C499.41,605.19,499,601.74,498.56,598.3ZM331.3,467a5.22,5.22,0,0,1-.34.46l0,0-.14,0a1.29,1.29,0,0,1,.72-.92Z"/><path class="cls-10" d="M500.14,609.88H317.28l0-.23c-.07-.53-.13-1.06-.19-1.6a12.89,12.89,0,0,1-3.81-3.91l0-.06V586.4l1.09-7.25a8.63,8.63,0,0,1,1-2.89c-.19-2.49-.28-5.13-.26-7.87a269.71,269.71,0,0,1,2.11-30c1.13-9.46,2.64-18.83,4.47-27.85a115.21,115.21,0,0,1,4.1-22.62,10.73,10.73,0,0,1-1.4-1.3l-.09-.09,0-.12c.4-2.5.74-4.77,1-6.93a79.74,79.74,0,0,0,2.75-10.5v-.07l0-.05a5.22,5.22,0,0,0,.85-1.54c3.82-10.67,9-20.4,15-31.1l0-.05a133.65,133.65,0,0,0,17.79-23.33l.08-.08c1.39-.89,2.79-1.73,4.15-2.49a12.32,12.32,0,0,1,1.3-.62,24.07,24.07,0,0,1,2-2.14c5.62-5.26,13.71-9.22,24.73-12.11,15.56-6.31,30.2-7.63,42.31-3.79a43.19,43.19,0,0,1,18.63,12c9.09,2.57,17.08,9.05,22.5,18.25,3.69,6.25,6.68,13.77,9.41,23.66a13.31,13.31,0,0,1,.73,1.71,292.94,292.94,0,0,1,9.26,33.46,306.1,306.1,0,0,1,2,117.67l.47,3.79c.26,2.17.53,4.34.79,6.51a8.12,8.12,0,0,1,.06,1Zm-182.4-.52H499.61a5.12,5.12,0,0,0-.05-.7c-.26-2.17-.53-4.34-.79-6.51l-.48-3.86v0a305.67,305.67,0,0,0-2-117.51,291.93,291.93,0,0,0-9.25-33.4,12.67,12.67,0,0,0-.71-1.67l0-.05c-2.71-9.85-5.69-17.34-9.36-23.56-5.37-9.1-13.28-15.5-22.27-18l-.07,0-.05-.05a42.67,42.67,0,0,0-18.45-11.89c-12-3.8-26.51-2.49-42,3.79-11,2.87-19,6.79-24.53,12a20.46,20.46,0,0,0-2,2.14l0,.05-.06,0a10.67,10.67,0,0,0-1.3.62c-1.34.75-2.71,1.57-4.08,2.44a134.53,134.53,0,0,1-17.8,23.34c-5.91,10.67-11.11,20.37-14.91,31a5.82,5.82,0,0,1-.89,1.63,77.41,77.41,0,0,1-2.75,10.47c-.27,2.08-.6,4.31-1,6.76a11.54,11.54,0,0,0,1.38,1.25l.15.11-.05.17a114.88,114.88,0,0,0-4.14,22.73c-1.83,9-3.33,18.39-4.46,27.84a268.55,268.55,0,0,0-2.11,30c0,2.75.07,5.4.27,7.9v.08l0,.07a7.91,7.91,0,0,0-1,2.77l-1.09,7.22v17.49a12.5,12.5,0,0,0,3.71,3.75l.1.07v.13Zm12.7-141.5.1-.4a1.5,1.5,0,0,1,.92-1.11l.56-.12-.33.6-.16.3a3.21,3.21,0,0,1-.24.34l-.22.25-.22.06Z"/><path d="M312.11,323.79c0,.24.07.48.1.72.08.51,0,.16,0,.05,0,.12,0,.24,0,.36.07.57.13,1.13.18,1.7.1,1.06.16,2.12.18,3.19s0,2.2-.1,3.3l-.06.73c0,.13-.09.71,0,.29-.08.56-.18,1.12-.29,1.68-.89,4.33-2.48,8.49-2.93,12.91a14.76,14.76,0,0,0,3.38,11.35l.46.59.23.29c.26.34-.19-.25.06.09l1,1.29c.66.89,1.32,1.8,2,2.72,1,1.39,1.87,2.81,2.79,4.23,3.39,5.27,6.83,10.72,11.51,15a26.38,26.38,0,0,0,8.31,5.21,21.3,21.3,0,0,0,10.56,1c7.67-1.13,14.18-6.16,19.78-11.2l1.95-1.79a2.54,2.54,0,0,0,0-3.57,2.58,2.58,0,0,0-3.57,0c-1.28,1.19-2.58,2.37-3.91,3.51-.69.59-1.4,1.18-2.12,1.74l-.25.2s.32-.25.1-.07l-.6.44c-.36.28-.74.55-1.11.81a37.57,37.57,0,0,1-4.58,2.79c-.4.21-.81.4-1.22.59-.09,0-.63.28-.36.17s0,0-.08,0l-.39.15a20.51,20.51,0,0,1-2.55.83c-.4.11-.8.2-1.2.29l-.61.11-.31.05c-.06,0-.51.07-.18,0h-.08l-.41,0-.63.05c-.45,0-.91,0-1.37,0s-.73,0-1.1-.05l-.61-.05-.27,0c-.35,0,.5.08.16,0-.74-.14-1.46-.27-2.18-.47-.33-.09-.65-.19-1-.3s-.93-.22-1-.38l.21.09-.22-.1-.53-.25c-.33-.16-.65-.33-1-.5-.64-.35-1.25-.74-1.85-1.15l-.82-.59c-.38-.28.35.28,0,0l-.46-.37a33.69,33.69,0,0,1-3.23-3.09q-.75-.81-1.44-1.65c-.25-.29-.49-.58-.73-.88l-.33-.42c0-.06-.1-.14-.16-.2.11.11.26.34.07.09-1.81-2.4-3.47-4.9-5.1-7.42-1.92-3-3.84-5.93-6-8.76l-1.15-1.5-.46-.59-.23-.3c-.06-.07-.39-.53-.11-.13a14.27,14.27,0,0,1-1.35-2.25l-.12-.27s.15.41.06.14-.16-.43-.22-.65a10.75,10.75,0,0,1-.32-1.24c0-.19-.07-.38-.11-.58l0,.18s0-.26,0-.29a13.29,13.29,0,0,1-.05-1.41c0-.42,0-.84.06-1.25,0-.22,0-.43.06-.64s0,.09,0,.13c0-.16.05-.31.07-.46.17-1.05.4-2.08.66-3.11.51-2.06,1.12-4.08,1.63-6.14a37.55,37.55,0,0,0,.8-12.81c-.13-1.19-.29-2.38-.47-3.56a2.52,2.52,0,0,0-3.1-1.76,2.59,2.59,0,0,0-1.76,3.1Z"/><path d="M336.64,281.74c-.86,3.93-1.83,7.83-3.07,11.66q-.93,2.85-2.07,5.63c-.1.26,0,0,0-.06l-.18.41-.27.62c-.22.48-.44.95-.67,1.42-.42.87-.86,1.74-1.33,2.58a43.12,43.12,0,0,1-3.16,5c-.14.2-.3.4-.45.6l-.14.18c-.3.38-.62.76-.94,1.13-.6.68-1.23,1.35-1.88,2s-1.37,1.29-2.09,1.89l-.48.39-.25.19.08-.06c-.39.29-.77.58-1.17.85a29.16,29.16,0,0,1-4.69,2.63s-.34.15-.08,0l-.26.11-.65.24c-.46.17-.93.32-1.41.46a25,25,0,0,1-2.85.65c-.05,0-.38.05-.06,0l-.16,0-.68.06c-.48,0-1,.06-1.45.06s-1,0-1.45-.05l-.77-.07H304c.37,0-.24,0-.25-.05a2.48,2.48,0,0,0-3,1.69,2.44,2.44,0,0,0,1.68,3c8.09,1.33,15.86-1.94,21.91-7.19,6.34-5.51,10.37-13.17,13.14-21a113.75,113.75,0,0,0,3.76-13.7,2.47,2.47,0,0,0-1.69-3,2.44,2.44,0,0,0-3,1.69Z"/><path d="M384.13,322.5c0-.08.48-1.05.57-1s-.43.48-.1.13l.17-.18c.15-.16.33-.29.47-.45s-.17.19-.19.15l.28-.19c.16-.1.32-.2.49-.29l.23-.11c.43-.23-.15.07-.15,0s.57-.2.64-.22l.57-.14.25-.05c.4-.08-.16.06-.16,0a6.61,6.61,0,0,1,1.28,0l.25,0c.41,0-.17,0-.16,0a3.68,3.68,0,0,1,.5.1c.22.05.44.11.65.18a1.13,1.13,0,0,0,.24.08c.28.06-.5-.24,0,0a12.07,12.07,0,0,1,1.11.62c.18.12.59.43.2.12.21.16.4.33.6.51a12.85,12.85,0,0,1,1,1l.25.3s.23.31,0,.06l.1.14.22.33a17.47,17.47,0,0,1,1.39,2.55c.05.11.16.44,0-.06l.1.27q.12.28.21.57c.15.41.28.83.39,1.24a20.68,20.68,0,0,1,.52,2.46c.08.46-.05-.55,0,.1l.06.6c0,.43.06.86.07,1.29,0,.84,0,1.68-.09,2.51l-.06.52a2,2,0,0,1,0,.34s.08-.53,0-.24-.14.86-.23,1.28a24.93,24.93,0,0,1-.63,2.44c-.13.39-.26.78-.4,1.16-.07.19-.15.37-.22.56s-.12.44.05-.12a1.83,1.83,0,0,1-.14.32,23.68,23.68,0,0,1-2.51,4.37l-.16.21c-.2.28-.1.21,0,0a3.84,3.84,0,0,1-.44.54c-.29.36-.6.7-.92,1a22.46,22.46,0,0,1-2,1.89l-.27.22c-.26.2,0,0,.1-.08a2.88,2.88,0,0,1-.56.41c-.4.28-.81.55-1.23.8a21.83,21.83,0,0,1-2.55,1.3,2.52,2.52,0,0,0-.91,3.45,2.61,2.61,0,0,0,3.45.91c7.2-3.05,12.4-10.09,14.1-17.62a24.79,24.79,0,0,0-.13-11.8c-1.14-4.25-3.68-8.71-7.75-10.74a10.41,10.41,0,0,0-7.35-.8,8.43,8.43,0,0,0-5.58,4.49,2.58,2.58,0,0,0,.9,3.45c1.09.58,2.89.39,3.45-.9Z"/><path d="M332.12,254.45a47.5,47.5,0,0,0-38.2,44.25,47.14,47.14,0,0,0,2.61,18.24,2.53,2.53,0,0,0,4.87-1.34,44.23,44.23,0,0,1-2-7.58c-.05-.29-.09-.58-.14-.86l0-.32c0,.34,0-.12,0-.2-.09-.69-.15-1.37-.2-2.06-.1-1.3-.14-2.61-.13-3.92s.08-2.54.2-3.81c0-.32.07-.65.1-1,0-.15.13-1,.05-.41.1-.69.21-1.37.33-2.05a45.5,45.5,0,0,1,2-7.44c.12-.31.23-.62.35-.92l.21-.51c0-.09.18-.44,0,0,.26-.6.53-1.19.81-1.78.55-1.16,1.16-2.29,1.82-3.39s1.26-2,1.95-3l.47-.64.3-.4c0-.06.31-.4.1-.14s.17-.2.17-.21.17-.21.25-.31l.64-.77a45.12,45.12,0,0,1,5-5c.42-.37.86-.73,1.3-1.08l.31-.25c.5-.4-.29.21,0,0l.79-.6c1-.7,2-1.36,3-2s2.28-1.35,3.47-1.94c.59-.3,1.19-.59,1.79-.86l.36-.16c.07,0,.67-.28.34-.15s.08,0,.16-.06l.55-.22a45.18,45.18,0,0,1,7.72-2.25,2.54,2.54,0,0,0,1.77-3.1,2.6,2.6,0,0,0-3.11-1.77Z"/><path d="M354.75,250.72l.63-.52.32-.25c-.4.32-.12.08,0,0,.48-.36,1-.71,1.47-1a29.93,29.93,0,0,1,2.84-1.69c.45-.24.9-.46,1.37-.67a4.28,4.28,0,0,1,.69-.31c-.53.17-.21.08-.08,0l.52-.21c1-.38,2-.71,3-1s2-.5,3.07-.68c.24,0,.49-.08.73-.12s.26,0,.37,0c-.07,0-.59.07-.12,0s1.1-.12,1.65-.16a39.52,39.52,0,0,1,6.25,0c.53,0,1.06.09,1.59.16.18,0,1,.08.27,0,.29,0,.57.08.85.12,1.07.17,2.14.38,3.2.61a59.18,59.18,0,0,1,6.25,1.76c1.05.35,2.1.73,3.13,1.14l1.55.62c.34.14-.4-.17-.06,0l.36.15.81.36q3,1.35,6,2.93a103,103,0,0,1,10.86,6.76l1.23.89.64.47.32.24.22.17.22.17.31.25.62.49,1.3,1.08c1.71,1.44,3.35,3,4.92,4.56s3,3.18,4.35,4.87l.49.6.3.38c.22.29-.26-.34,0-.05s.66.87,1,1.32c.64.88,1.26,1.78,1.85,2.69a58.92,58.92,0,0,1,3.22,5.63c.48,1,.93,1.93,1.36,2.92.05.12.21.43,0-.08,0,.11.1.24.14.35l.28.7c.21.53.41,1.07.6,1.6a50.89,50.89,0,0,1,1.78,6.19q.33,1.53.57,3.09c0,.14.18,1.09.06.37,0,.25.06.51.09.76.06.54.12,1.08.16,1.63a48.76,48.76,0,0,1,.09,6.62c-.06,1.1-.16,2.19-.29,3.28,0,0-.08.68,0,.27s0,.08,0,.17c0,.26-.07.53-.12.8q-.13.85-.3,1.71c-.23,1.16-.49,2.32-.79,3.46a2.52,2.52,0,0,0,4.86,1.34,52.82,52.82,0,0,0-.22-28.06,61.64,61.64,0,0,0-13.55-23.78,86.43,86.43,0,0,0-21.33-16.8c-7.91-4.56-16.62-8.3-25.71-9.58a42.53,42.53,0,0,0-13.88.14,32.85,32.85,0,0,0-12.59,5.18c-1.07.74-2.09,1.53-3.08,2.36a2.53,2.53,0,0,0,0,3.57,2.59,2.59,0,0,0,3.57,0Z"/><path d="M444.29,325.6l.54-.11.39-.06.3,0c.24,0,.49,0,.73-.06a18.36,18.36,0,0,1,2.46,0l.55.05a2.2,2.2,0,0,0,.36,0s-.51-.08-.22,0,.84.14,1.26.23a22.15,22.15,0,0,1,2.38.67l.51.19c.1,0,.73.28.38.14s.21.09.29.13l.66.32a21.71,21.71,0,0,1,2.15,1.23q.47.3.9.63a3.15,3.15,0,0,1,.29.22s-.36-.3-.15-.11l.5.41a19,19,0,0,1,1.77,1.71c.27.29.52.6.77.9l0,0c-.21-.28,0,0,.07.11s.25.34.37.52a17.46,17.46,0,0,1,1.25,2.13l.27.58c.2.44-.14-.38,0,.07s.3.79.43,1.2a19,19,0,0,1,.57,2.37c0,.18.06.36.09.54.06.35-.05-.49,0-.13l0,.27c0,.42.07.84.09,1.27a20.11,20.11,0,0,1-.07,2.45c0,.18,0,.36-.05.54-.07.61.06-.32,0,.14s-.14.84-.23,1.25a22.11,22.11,0,0,1-.63,2.29c-.08.23-.16.45-.25.68a2.77,2.77,0,0,1-.1.26c-.09.23-.27.32,0,0a8.28,8.28,0,0,0-.58,1.24,20.54,20.54,0,0,1-1.4,2.33c-.06.08-.39.43-.37.51s.37-.47.06-.08l-.23.28c-.29.35-.59.69-.91,1s-.64.65-1,.95c-.18.16-.36.32-.55.47l-.21.17c-.27.23.49-.36,0,0a2.58,2.58,0,0,0-.9,3.45c.67,1,2.32,1.75,3.45.9a22.58,22.58,0,0,0,8.92-20.09,21.11,21.11,0,0,0-4.43-11.05,22.42,22.42,0,0,0-9-6.7A21.88,21.88,0,0,0,443,320.73a2.54,2.54,0,0,0-1.76,3.1,2.58,2.58,0,0,0,3.1,1.77Z"/><path d="M444.63,343.64c.27.28.52.56.77.85a5.28,5.28,0,0,1,.36.44c-.32-.53,0,0,.07.1a20.39,20.39,0,0,1,1.33,2.08c.18.33.36.67.53,1l.24.52c.28.58-.19-.51,0,.09a22.43,22.43,0,0,1,.8,2.35c.19.74.34,1.48.47,2.23s-.05-.56,0,.08l.06.57c0,.44.06.88.06,1.32a17.08,17.08,0,0,1-.09,2.26c0,.16,0,.73,0,.07a2.62,2.62,0,0,1-.09.56c-.07.43-.17.86-.28,1.28a11.33,11.33,0,0,1-.71,2.13c.29-.59,0,0-.05.09s-.16.34-.25.51q-.3.57-.63,1.11c-.18.29-.38.57-.58.85-.34.49.36-.42,0,0l-.33.4a16.72,16.72,0,0,1-1.58,1.57l-.4.33c-.46.38.45-.32,0,0-.28.2-.56.4-.85.59a18.7,18.7,0,0,1-2,1.08,3.23,3.23,0,0,1-.47.21c.63-.15.12-.06,0,0l-1,.34a16.17,16.17,0,0,1-2.16.52l-.17,0c-.28,0-.23,0,.16,0-.06.08-.57.07-.67.07-.4,0-.8.06-1.19.06s-.79,0-1.19,0l-.5-.05c-.28,0-.22,0,.17,0l-.34-.05a15,15,0,0,1-2.28-.6,1.5,1.5,0,0,1-.47-.19l.14.06-.31-.15a10.74,10.74,0,0,1-1.05-.58,2.53,2.53,0,0,0-2.55,4.36c5.92,3.59,13.86,2.68,19.33-1.37a18.2,18.2,0,0,0,6.44-8.67,21,21,0,0,0,.58-11.09,22.64,22.64,0,0,0-5.74-11,2.55,2.55,0,0,0-3.57,0,2.58,2.58,0,0,0,0,3.57Z"/><path d="M359.1,386.19a12.5,12.5,0,0,1,1.36.81l.48.34c-.52-.38.16.15.25.23.34.3.67.62,1,.95l.52.59c.15.18.36.45.1.11a17.92,17.92,0,0,1,1.59,2.53c.22.41.42.84.6,1.27-.26-.6.08.21.13.32s.16.44.23.66a25.49,25.49,0,0,1,.83,3.2c.06.32.12.65.17,1,0,.1.12.8,0,.3.08.61.14,1.22.19,1.84.2,2.42.19,4.85.19,7.28a2.53,2.53,0,0,0,5.05,0c0-5.11,0-10.44-1.75-15.31-1.54-4.29-4.3-8.3-8.43-10.45a2.53,2.53,0,1,0-2.55,4.36Z"/><path d="M406.43,369a35.41,35.41,0,0,0,11.05,17.75,2.52,2.52,0,0,0,3.57-3.57,31.13,31.13,0,0,1-3.46-3.43c-.28-.32-.54-.65-.81-1s.11.17-.07-.07l-.38-.51c-.47-.66-.93-1.33-1.36-2a36.1,36.1,0,0,1-2.27-4.31c-.19-.44.08.2,0-.08s-.16-.39-.23-.59c-.14-.36-.28-.73-.41-1.09-.27-.81-.52-1.62-.73-2.44a2.53,2.53,0,0,0-4.87,1.34Z"/><path d="M500.53,609.65c4.06-22.79,6.89-45.86,7.29-69a308.24,308.24,0,0,0-1.35-34.91,210.29,210.29,0,0,0-3.23-22.35,193.08,193.08,0,0,0-13.07-40.28c-5.88-13-13.4-25.58-23.28-36-9.2-9.69-20.83-17.47-34.09-20.14a56.23,56.23,0,0,0-10.35-1.12,65.85,65.85,0,0,0-13.06,1.34A96.22,96.22,0,0,0,394,391.29,77.34,77.34,0,0,0,380,398.43a115.4,115.4,0,0,0-38.19,39.41c-8.7,14.7-14.27,31.07-17.95,47.7-3.8,17.19-5.69,34.75-7.13,52.27-.72,8.76-1.32,17.53-2,26.29-.69,9.4-1.48,18.78-2,28.18-.32,5.53-.65,11.05-1,16.58a2.53,2.53,0,0,0,5.05,0c.7-10.64,1.15-21.3,2-31.92.72-8.5,1.3-17,1.92-25.53,1.25-17.17,2.61-34.38,5.45-51.3,2.74-16.38,6.87-32.82,13.78-47.86a116.64,116.64,0,0,1,30.15-40.37A102.06,102.06,0,0,1,382.17,403a71.85,71.85,0,0,1,13.17-6.83,95.41,95.41,0,0,1,15.19-4.08,60,60,0,0,1,12.17-1.19,45.7,45.7,0,0,1,9.36,1.06,55,55,0,0,1,9,2.79c.1,0,.58.25.17.07l.43.19,1.09.49c.76.35,1.51.72,2.25,1.1q2.13,1.1,4.17,2.36t4,2.7c1.36,1,2.13,1.59,3.53,2.78,10.59,8.92,18.29,20,24.73,32.25a188.28,188.28,0,0,1,18.66,57.83c.05.33.09.66.14,1s.05.36.08.54c-.07-.51,0-.12,0,0,.12.93.24,1.86.35,2.79q.51,4.2.9,8.42.78,8.58,1.07,17.18a374.75,374.75,0,0,1-4.28,67.42q-1.22,8.26-2.7,16.48a2.6,2.6,0,0,0,1.77,3.1,2.53,2.53,0,0,0,3.1-1.76Z"/><path d="M356.15,304.73a31.82,31.82,0,0,0,14.51,14.71,31.16,31.16,0,0,0,5.83,2.23,2.52,2.52,0,1,0,1.34-4.86,29.06,29.06,0,0,1-3-1c-.11,0-.91-.39-.3-.12l-.72-.32c-.47-.22-.94-.45-1.4-.7-.87-.46-1.71-1-2.53-1.51-.44-.29-.86-.6-1.28-.91-.23-.17-.21-.16,0,0l-.31-.25-.61-.5a30.59,30.59,0,0,1-4.22-4.37c.4.51-.13-.18-.2-.27s-.31-.43-.46-.64c-.29-.43-.58-.87-.85-1.32a27.23,27.23,0,0,1-1.49-2.76,2.55,2.55,0,0,0-3.46-.91,2.58,2.58,0,0,0-.9,3.45Z"/><path d="M377.83,319.08c-1.84,4.55-2.52,9.64-.84,14.34,1.43,4,4.07,7.35,6.63,10.71a66.55,66.55,0,0,1,3.82,5.45c.61,1,1.18,2,1.69,3.1.13.26.25.53.37.8s.13.27.18.41c-.2-.58-.07-.16,0,0,.23.58.45,1.17.63,1.77s.33,1.13.46,1.71a9,9,0,0,1,.35,1.91c0-.05-.07-.6,0-.14,0,.17,0,.35.05.52s.05.53.06.8c0,.61.05,1.23,0,1.85s0,1.17-.1,1.76a3.7,3.7,0,0,1-.09.88c.19-.54,0-.28,0-.06s-.06.4-.1.61a25.17,25.17,0,0,1-.86,3.42c-.11.34-.23.67-.36,1-.06.17-.12.33-.19.5s-.36.54,0,.05a17.77,17.77,0,0,0-.84,1.76c-.34.62-.7,1.24-1.09,1.83-.19.3-.39.59-.6.88a3.06,3.06,0,0,1-.21.29l-.21.29c.2-.25.24-.31.12-.16a24.94,24.94,0,0,1-2.82,3l-.76.65c-.1.08-.54.5-.06,0-.13.12-.3.22-.44.33-.6.43-1.22.82-1.85,1.2a2.52,2.52,0,1,0,2.55,4.35c9.46-5.56,14.32-16.78,12.59-27.51-.81-5-3.31-9.49-6.21-13.52-2.43-3.37-5.29-6.53-7.17-10.27-.13-.25-.25-.5-.36-.76,0-.08-.07-.18-.12-.26.38.69.06.14,0,0-.2-.5-.37-1-.52-1.54s-.26-1.07-.35-1.61c0-.21,0-.64,0,.09,0-.15,0-.3,0-.44,0-.3-.05-.61-.06-.91,0-.6,0-1.21,0-1.81,0-.14,0-.27,0-.41.07-.64,0,0,0,0a7.06,7.06,0,0,1,.17-1,26,26,0,0,1,1.38-4.47,2.51,2.51,0,0,0-1.76-3.1,2.58,2.58,0,0,0-3.1,1.76Z"/><path d="M394.22,370.35a33,33,0,0,0,27.26-3.91,31.62,31.62,0,0,0,6.15-5.21,2.52,2.52,0,0,0-3.57-3.57,29.88,29.88,0,0,1-2.33,2.31c-.39.34-.79.66-1.19,1,.43-.35-.12.08-.26.19l-.71.5a27.81,27.81,0,0,1-2.72,1.66c-.45.25-.91.48-1.38.7l-.7.33a3.68,3.68,0,0,1-.35.15c.6-.2,0,0-.11.05a32,32,0,0,1-6.13,1.76l-.77.12-.38.06s.64-.08.09,0-1.09.12-1.63.16a28.3,28.3,0,0,1-3.19,0q-.92,0-1.83-.12l-.38-.05c-.57-.06,0,0,0,0s-.87-.14-1-.15a29,29,0,0,1-3.57-.87,2.54,2.54,0,0,0-3.1,1.76,2.58,2.58,0,0,0,1.76,3.11Z"/><path d="M327,336.74c3.25,0,3.26-5.05,0-5.05s-3.25,5.05,0,5.05Z"/><path d="M381.83,510.5q-1.81,19.28-3.35,38.57t-3,38.63c-.26,3.51-.59,7-.83,10.52-.12,1.75-.21,3.5-.35,5.24-.07.85-.15,1.7-.24,2.54l-.06.48c0,.13-.09.73,0,.28-.06.47-.14.93-.22,1.4a2.58,2.58,0,0,0,1.77,3.1,2.55,2.55,0,0,0,3.1-1.76,93.05,93.05,0,0,0,1-9.58c.2-3.12.49-6.24.72-9.37q.74-9.75,1.47-19.52,1.47-19.42,3.12-38.84.92-10.85,1.94-21.69a2.54,2.54,0,0,0-2.52-2.53,2.6,2.6,0,0,0-2.52,2.53Z"/><path d="M323.44,369.56a17.85,17.85,0,0,0,11.61-8.06,1.69,1.69,0,1,0-2.91-1.7c-.14.23-.29.45-.44.67l-.23.33s-.25.33-.08.11a15.44,15.44,0,0,1-1.06,1.22c-.36.37-.73.72-1.12,1.05l-.31.26-.1.08-.66.47c-.42.29-.86.56-1.31.81-.23.13-.47.25-.71.37l-.37.17c-.05,0-.38.17-.11.06a15.24,15.24,0,0,1-3.09.92,1.7,1.7,0,0,0-1.18,2.07,1.73,1.73,0,0,0,2.07,1.17Z"/><path class="cls-11" d="M241.33,333.38a3.37,3.37,0,0,1-1.9-1.72l-9.2-19.38a3.35,3.35,0,1,1,6.06-2.88l9.2,19.38a3.35,3.35,0,0,1-1.6,4.47A3.31,3.31,0,0,1,241.33,333.38Z"/><path class="cls-11" d="M256.26,331.2a3.35,3.35,0,0,1-2.22-3.3l.94-21.32a3.35,3.35,0,1,1,6.69.29l-.93,21.32a3.36,3.36,0,0,1-3.5,3.21A3.56,3.56,0,0,1,256.26,331.2Z"/><path class="cls-11" d="M270.1,334.47a3.56,3.56,0,0,1-.88-.47,3.36,3.36,0,0,1-.69-4.69l11.74-15.81a3.35,3.35,0,0,1,5.38,4l-11.74,15.81A3.35,3.35,0,0,1,270.1,334.47Z"/><g class="cls-12"><polygon class="cls-6" points="238.87 178.22 238.87 230.96 278.6 230.96 278.6 178.22 290.38 178.22 258.73 139.88 227.09 178.22 238.87 178.22"/><path class="cls-6" d="M278.6,232.7H238.87a1.74,1.74,0,0,1-1.75-1.74V180h-10a1.74,1.74,0,0,1-1.34-2.85l31.65-38.34a1.73,1.73,0,0,1,1.34-.63,1.75,1.75,0,0,1,1.35.63l31.65,38.34a1.74,1.74,0,0,1-1.34,2.85H280.34v51A1.74,1.74,0,0,1,278.6,232.7Zm-38-3.48h36.25v-51a1.74,1.74,0,0,1,1.74-1.74h8.09l-28-33.86-28,33.86h8.09a1.74,1.74,0,0,1,1.74,1.74Z"/><polygon class="cls-8" points="79.23 366.87 79.23 313.89 39.31 313.89 39.31 366.87 27.48 366.87 59.27 405.39 91.07 366.87 79.23 366.87"/><path class="cls-8" d="M59.27,407.14a1.78,1.78,0,0,1-1.35-.64L26.13,368a1.73,1.73,0,0,1-.24-1.86,1.76,1.76,0,0,1,1.59-1H37.56V313.89a1.75,1.75,0,0,1,1.75-1.75H79.23A1.75,1.75,0,0,1,81,313.89v51.23H91.07A1.75,1.75,0,0,1,92.42,368L60.62,406.5A1.75,1.75,0,0,1,59.27,407.14ZM31.19,368.62l28.08,34,28.08-34H79.23a1.75,1.75,0,0,1-1.75-1.75V315.64H41.06v51.23a1.75,1.75,0,0,1-1.75,1.75Z"/></g></g></g></g></g></svg>