<svg xmlns="http://www.w3.org/2000/svg" viewBox="0 0 557.26 591.72"><defs><style>.cls-1{fill:#fcec74;}.cls-2,.cls-7{fill:#fff;}.cls-3{fill:#269ac2;}.cls-4{fill:#f35528;}.cls-5{fill:#94a8ae;}.cls-6,.cls-8{fill:#afa5a3;}.cls-7,.cls-8{stroke:#afa5a3;stroke-miterlimit:10;}.cls-7{stroke-width:5.35px;}.cls-8{stroke-width:0.53px;}</style></defs><g id="Layer_2" data-name="Layer 2"><g id="レイヤー_1" data-name="レイヤー 1"><g id="contents01"><ellipse class="cls-1" cx="278.63" cy="243.65" rx="278.63" ry="243.65"/><path class="cls-2" d="M362,361.93a26.69,26.69,0,0,0-9-13.06,21.53,21.53,0,0,0-2.26-3.34,19.59,19.59,0,0,0,1.89-7.35c5.31-6.92,8.34-15.68,7-24.33a50.08,50.08,0,0,0-3-23.71q-.81-2-1.68-3.87a60.8,60.8,0,0,0-2.42-8.77c-3.6-9.93-8.58-18.37-15.59-25.44-6.34-17.23-26-25.75-44.6-25.7a40.31,40.31,0,0,0-13.59.9c-7.23,1.7-14.38,5-21.1,8-11.78,5.28-22.44,12.84-32.11,21.34-13,11.41-22.69,25.52-24.35,43.08-.91,9.57,1.41,18.31,5.35,26.42a39.6,39.6,0,0,0,.76,5.66c2,9.8,9,17.09,17.55,21.2.14.39.28.78.44,1.17a49,49,0,0,0,3.19,17.8c4.16,10.57,11,21,20.16,28-.49,2.92-1,5.84-1.68,8.74a192.11,192.11,0,0,1-5.44,19.56c-1,2.89-2,5.75-3.1,8.59a95.7,95.7,0,0,0-18.18,13.29,16.71,16.71,0,0,0-4.3,6.46,16,16,0,0,0-2,8.58c.34,7.69,5.62,17.29,14.08,18.49a58.14,58.14,0,0,0,8.55.72c12.6,6.25,27.43,8.34,41.25,7.39,9.56-.65,19-2,27.76-6a32.53,32.53,0,0,0,6.23-3.73,25.59,25.59,0,0,0,15-2.79c10.38-5.31,11.8-18.88,5.84-27.64a22.84,22.84,0,0,0-6.59-13,59.68,59.68,0,0,0-8.45-6.42c-.79-.54-1.59-1.06-2.38-1.59l-1.7-1.16-1.11-1.11-.09-.08-.14-.3c-.15-.29-.59-1.38-.94-2,0-.07,0-.14-.07-.21-.33-1.09-.62-2.18-.86-3.29,0-.06,0-.29-.11-.59-.05-.63-.26-2.31-.28-2.69-.08-1.37-.12-2.73-.15-4.1-.09-4.17-.06-8.33-.24-12.49.82.17,1.65.32,2.5.43a32.63,32.63,0,0,0,10.37-.34,28.23,28.23,0,0,0,14.82-5.39,28.79,28.79,0,0,0,12.3-3.52C360.59,387.69,365.68,373.91,362,361.93Z"/><path class="cls-3" d="M410.36,539.42c0-.17,0-.32,0-.48a116,116,0,0,0-3.48-21.35A55.86,55.86,0,0,0,400.44,492a42,42,0,0,0-3.9-6.26q-.87-2.16-1.9-4.33a18.75,18.75,0,0,0-2.87-4.26c-4.25-13.28-12.06-25.3-26.26-29.08a30.45,30.45,0,0,0-19.14,1.15c-1.2.06-2.4.15-3.61.3a121.17,121.17,0,0,0-22.35,4.61c-9.54,3.05-18.85,6.88-28.68,8.87-1.26.09-2.51.13-3.78.13a29.28,29.28,0,0,0-15.58,4.73l-1.1-.09a108.45,108.45,0,0,1-18.56-5c-13.44-6.51-25.26-16.51-40.2-19.58-13.67-2.8-26.57,2.54-33.18,14.12a42.84,42.84,0,0,0-3.49,3.51c-12.2,13.84-20.68,31.23-26.08,48.76a222,222,0,0,0-5.72,23,88.71,88.71,0,0,0-1.67,11.74l-.53.42c-.91,13.15-1,26.34-1.56,39.51a6.27,6.27,0,0,1-.08.77c0,.35,0,.69,0,1H409.72C408.88,570.57,410.3,555,410.36,539.42Z"/><path d="M328.45,367.72a3,3,0,0,1-2.73-4.05c.79-2,1.51-4,2.16-6a2.95,2.95,0,0,1,3.75-1.91,8.85,8.85,0,0,0,7.91-1.31c6.23-4.86,8.78-13.94,6.35-22.62-1.23-4.24-3.29-7.28-6.13-9.05a3.21,3.21,0,0,1-1.36-.55,5.62,5.62,0,0,0-3-.8,2.95,2.95,0,1,1,.1-5.89,11.48,11.48,0,0,1,5.63,1.46,3.39,3.39,0,0,1,1.3.52c4.33,2.52,7.39,6.79,9.11,12.69,3.08,11-.32,22.64-8.46,28.94l-.11.08A15,15,0,0,1,332.65,362c-.45,1.32-.94,2.63-1.46,3.91A3,3,0,0,1,328.45,367.72ZM338.74,322Zm0,0h0Z"/><path d="M325.06,375.24a3.07,3.07,0,0,1-1.34-.32,2.94,2.94,0,0,1-1.28-4c.73-1.44,1.43-2.93,2.07-4.43a2.95,2.95,0,1,1,5.42,2.32c-.69,1.62-1.45,3.23-2.24,4.79A3,3,0,0,1,325.06,375.24Z"/><path d="M277.24,408.16a44.16,44.16,0,0,1-13.91-2.38,33.31,33.31,0,0,1-12.12-5.8,6,6,0,0,1-1.36-.66c-13-8.83-21.82-21.86-27-39.82-6.45-1.52-10.91-7.18-12.67-12.68a3.38,3.38,0,0,1-.55-1.13,28.36,28.36,0,0,1,3.95-25.29l.08-.1a21.17,21.17,0,0,1,8.09-6.21,2.81,2.81,0,0,1,.9-.25,4.05,4.05,0,0,1,1.39-.19,2.95,2.95,0,0,1,.15,5.88l-.33.09a15,15,0,0,0-5.49,4.23,22.51,22.51,0,0,0-3.22,19.73,3.19,3.19,0,0,1,.58,1.22c1.28,4.26,4.76,8.71,9.72,9.17a2.93,2.93,0,0,1,2.58,2.17c4.72,17.45,12.91,30,25.06,38.25l.15.05a4.9,4.9,0,0,1,1.65.93A27.21,27.21,0,0,0,265,400.11l.15.05a35.42,35.42,0,0,0,18.9,1.39,3.08,3.08,0,0,1,.61-.06h.63c20.54-4.14,31.81-20.34,36.71-29.65a3,3,0,1,1,5.22,2.75c-9.35,17.76-23.94,29.39-41.08,32.74a5.25,5.25,0,0,1-.57.05h-.61A38.37,38.37,0,0,1,277.24,408.16ZM223,313.82Z"/><path d="M279,363.84c-.25.33,0,0,.17-.14s.41-.39.22-.22.23-.15.33-.21.35-.17.51-.28-.33.1,0,0l.24-.09.48-.14.38-.08c-.28,0,0,0,.05,0l.34,0h.59c.15,0,.67.13.19,0,.38.09.76.2,1.14.3-.34-.09-.07,0,.11.06l.51.29c.07.05.46.35.24.17s0,0,0,0l.28.25c.12.12.65.53.64.69s-.24-.37-.12-.15a1.77,1.77,0,0,0,.12.17c.1.15.19.3.28.46s.14.28.22.42-.09-.19-.09-.2.06.14.07.18a8.89,8.89,0,0,1,.26.88,1.29,1.29,0,0,0,0,.19c.08.35,0-.13,0-.18a2.72,2.72,0,0,0,0,.39,6.76,6.76,0,0,1,0,.9c0,.08-.07.61,0,.23s0,.16,0,.23a6.74,6.74,0,0,1-.24.88l-.13.36c-.13.35.22-.43,0,0-.14.27-.28.54-.44.8l-.22.33c-.28.42.22-.24,0,0s-.4.46-.62.67l-.34.31s-.14.08-.16.12.36-.24.17-.13-.51.34-.78.49c-.07,0-.4.14-.42.2s.42-.15.2-.08l-.18.07a7.36,7.36,0,0,1-.92.25l-.28.05.22,0c-.16,0-.33,0-.5,0s-.93.09-1,0,.44.08.2,0l-.2,0a3.9,3.9,0,0,1-.46-.12l-.17,0c.31.09-.14-.08-.25-.15s-.21-.15-.32-.21.31.3.14.11a1.49,1.49,0,0,0-.14-.12,3.31,3.31,0,0,1-.26-.27l-.17-.18c-.22-.24.1.13.1.13s-.38-.6-.43-.69-.12-.35-.2-.41.16.42.09.21l-.09-.25a7.56,7.56,0,0,1-.27-1c0-.17-.07-.35-.1-.53s-.08-.29,0,0,0,0,0-.12a11.81,11.81,0,0,1,0-2.06c0-.07,0-.31,0,0s0,0,0-.12l.09-.46a8.78,8.78,0,0,1,.29-1,1.27,1.27,0,0,0,.06-.18c.09-.28-.06.09-.07.16a1.63,1.63,0,0,1,.21-.44,7.12,7.12,0,0,1,.49-.8,2.12,2.12,0,0,0-.76-2.9,2.18,2.18,0,0,0-2.9.76A11.33,11.33,0,0,0,274,371a8.09,8.09,0,0,0,2.91,4.34,7.27,7.27,0,0,0,4.88,1.25,9.44,9.44,0,0,0,8-6.07,9,9,0,0,0-1.67-9.4,8.48,8.48,0,0,0-6.27-2.72,8.13,8.13,0,0,0-6.5,3.28,2.12,2.12,0,0,0,.76,2.9A2.17,2.17,0,0,0,279,363.84Z"/><path d="M301.1,327.27a3.54,3.54,0,1,0-3.54-3.54,3.59,3.59,0,0,0,3.54,3.54Z"/><path d="M262.87,326.49a3.54,3.54,0,1,0-3.54-3.53,3.58,3.58,0,0,0,3.54,3.53Z"/><path d="M276.27,343.27a8.63,8.63,0,0,0,12,.23,2.15,2.15,0,0,0,0-3,2.17,2.17,0,0,0-3,0l-.21.2c-.25.23,0,0,.11-.07-.17.09-.33.23-.49.33l-.46.25c-.31.16,0,0,.13,0a1.36,1.36,0,0,0-.28.11,7.75,7.75,0,0,1-1.08.27c-.41.08.4,0,.15,0a2.85,2.85,0,0,0-.29,0h-.59c-.18,0-.36,0-.54,0s.52.09.16,0l-.29-.05c-.37-.08-.71-.25-1.07-.33.47.1.31.14.13,0l-.27-.13a5.09,5.09,0,0,1-.5-.3,1.33,1.33,0,0,0-.19-.14c.4.18.27.22.11.08s-.32-.3-.47-.46a2.15,2.15,0,0,0-3,0,2.18,2.18,0,0,0,0,3Z"/><path d="M301.21,224.78c-11.38-4.53-24.45-3.51-35.81.55-11,3.92-20.88,10.37-30.12,17.4a141,141,0,0,0-22.22,20.63c-6.7,7.9-12.48,16.79-15.61,26.74a46.26,46.26,0,0,0,.43,29.9c.53,1.43,1.13,2.84,1.78,4.23a3.2,3.2,0,0,0,4.36,1.14,3.28,3.28,0,0,0,1.14-4.36c-.15-.32-.3-.64-.44-1-.06-.13-.11-.26-.17-.38.35.69.15.35.08.18-.26-.64-.51-1.28-.75-1.93-.43-1.19-.81-2.41-1.13-3.64s-.56-2.34-.77-3.53c0-.28-.09-.57-.13-.85,0-.12,0-.26-.06-.38.19.87.06.42,0,.18-.08-.59-.14-1.19-.18-1.79a41.17,41.17,0,0,1,.05-7.11c.05-.56.14-1.11.18-1.67,0,0-.11.83,0,.29,0-.12,0-.24,0-.36l.15-.92c.2-1.16.45-2.32.73-3.47A55.12,55.12,0,0,1,205,288c.11-.26.21-.52.32-.79.2-.49-.08.19-.1.24.07-.14.13-.29.19-.44q.36-.83.75-1.65c.52-1.1,1.07-2.19,1.64-3.26,1.16-2.15,2.43-4.23,3.79-6.25.67-1,1.37-2,2.09-3,.35-.48.71-1,1.07-1.43,0-.06.46-.57.11-.15l.12-.15.61-.78a130.66,130.66,0,0,1,21-20.55l1.32-1,.29-.23c-.67.53-.36.28-.21.16l.8-.61c.94-.71,1.89-1.41,2.84-2.11,2.36-1.71,4.75-3.38,7.19-5a100.52,100.52,0,0,1,15.07-8.24c.2-.09.5-.1-.13,0a3.83,3.83,0,0,0,.43-.17l1.06-.43c.67-.26,1.35-.52,2-.76,1.33-.47,2.68-.9,4-1.29s2.83-.73,4.26-1c.68-.14,1.36-.26,2-.37l.92-.14c.76-.12-.54.07-.05,0l.69-.09a49.32,49.32,0,0,1,8.59-.26c.69,0,1.37.1,2.05.17l.46.05.25,0c-.55-.06.2,0,.26,0l.67.1a41.47,41.47,0,0,1,4.12.91,40,40,0,0,1,4,1.35,3.18,3.18,0,0,0,3.92-2.22,3.28,3.28,0,0,0-2.22-3.92Z"/><path d="M326.54,245.74a81.74,81.74,0,0,1,9,8.45q2.06,2.24,3.95,4.64l.45.56c.26.34-.38-.49-.12-.15l.19.25,1,1.32c.61.83,1.2,1.68,1.78,2.53a95.39,95.39,0,0,1,6.19,10.5c.91,1.82,1.78,3.67,2.58,5.54l.17.38c.14.33-.13-.29-.12-.28.1.25.21.51.32.76l.58,1.44c.38,1,.74,1.94,1.09,2.92A112,112,0,0,1,359,306l.18,1.23c-.15-1,0-.29,0-.05s.07.53.1.8c.1.86.18,1.72.26,2.58.15,1.78.24,3.56.26,5.35s0,3.47-.17,5.21c-.07.87-.18,1.74-.28,2.61,0,.05.11-.77.06-.42,0,.12,0,.23-.05.35s-.06.4-.1.6c-.07.43-.14.85-.22,1.28a39.16,39.16,0,0,1-1.27,4.9c-.26.81-.56,1.61-.88,2.4-.19.49.31-.69,0-.06l-.24.55c-.19.41-.39.82-.6,1.22a28.77,28.77,0,0,1-2.66,4.3,2.83,2.83,0,0,1-.2.28l.23-.3-.44.55c-.28.34-.56.67-.86,1-.57.64-1.18,1.26-1.81,1.85s-1.37,1.23-2.1,1.8a3.2,3.2,0,0,0-.93,2.25,3.19,3.19,0,0,0,3.18,3.19,3.71,3.71,0,0,0,2.26-.94A34.82,34.82,0,0,0,364.52,330a59.45,59.45,0,0,0,1.12-21.84,114.39,114.39,0,0,0-4.87-22.24A103,103,0,0,0,350,262.72a88.14,88.14,0,0,0-16.54-19.48c-.79-.68-1.59-1.35-2.4-2a3.43,3.43,0,0,0-2.25-.93,3.22,3.22,0,0,0-2.25.93c-1.07,1.16-1.39,3.39,0,4.5Z"/><path d="M229.9,289.82c0,.24.07.48.11.72a2.31,2.31,0,0,0,.07.48s-.08-.62,0-.25c.06.53.13,1,.18,1.57.11,1.08.2,2.16.26,3.24q.17,3.18.06,6.36t-.47,6.35c0,.47-.11.95-.17,1.43,0,.11-.08.63,0,.17s0,0,0,.06l-.12.83c-.17,1.08-.35,2.15-.54,3.22A147.23,147.23,0,0,1,222,338.75c-3,8-6.64,15.81-9.56,23.87-2.71,7.48-4.69,15.6-3.69,23.6.89,7.17,3.71,14.42,9.35,19.2a29,29,0,0,0,2.44,1.85,3.21,3.21,0,0,0,4.36-1.14,3.27,3.27,0,0,0-1.14-4.36l-.47-.32c-.1-.07-.71-.53-.28-.19s-.1-.09-.19-.16l-.5-.43a21,21,0,0,1-1.71-1.69c-.27-.3-.53-.6-.78-.92l-.17-.21s.41.55.21.27-.26-.34-.38-.52a22.24,22.24,0,0,1-1.34-2.12c-.4-.71-.77-1.44-1.1-2.18,0-.08-.07-.17-.11-.26s.27.65.14.33-.15-.35-.21-.53c-.16-.41-.32-.82-.46-1.24a31.91,31.91,0,0,1-1.2-4.81c0-.22-.07-.44-.1-.66-.09-.59.08.68,0,.09,0-.41-.1-.82-.13-1.24-.08-.85-.12-1.71-.13-2.57s0-1.65.05-2.47c.06-1,.29-2,.29-3,0,0-.09.63,0,.26,0-.12,0-.24.05-.35s.08-.47.11-.71c.1-.54.2-1.09.31-1.63q.3-1.51.69-3c.52-2,1.13-4,1.81-5.93,2.79-8,6.42-15.69,9.44-23.61a156,156,0,0,0,7.4-24.47,83.18,83.18,0,0,0,1.54-25.61c-.14-1.25-.31-2.5-.5-3.73a3.19,3.19,0,0,0-1.46-1.91,3.19,3.19,0,0,0-4.36,1.14,3.72,3.72,0,0,0-.32,2.46Z"/><path d="M349,352.43c.36.24.72.5,1.07.76.6.45-.54-.43,0,0l.61.5c.68.58,1.34,1.18,2,1.82s1.22,1.29,1.78,2l.43.54c.14.16.3.47-.18-.24.06.09.14.18.21.27q.41.54.78,1.11a31.8,31.8,0,0,1,2.53,4.57c.21.46-.12-.27-.13-.3s.09.21.13.31l.24.62c.16.42.3.83.44,1.25.26.82.49,1.64.67,2.47.09.4.16.8.23,1.21a3.55,3.55,0,0,1,.1.64s-.1-.87-.05-.36c0,.14,0,.27.05.41a23.31,23.31,0,0,1,.13,2.51,22.36,22.36,0,0,1-.14,2.59l0,.24c0,.4.12-.76,0-.37l-.09.56c-.08.46-.17.91-.28,1.36a22.53,22.53,0,0,1-.74,2.42l-.24.62c-.2.5.31-.69,0-.08-.2.43-.4.86-.63,1.28a22.74,22.74,0,0,1-1.38,2.26l-.36.49c-.3.42.15-.19.18-.22l-.22.27c-.3.38-.62.74-.94,1.09a23.64,23.64,0,0,1-2.46,2.34c-.08.07-.17.13-.25.21-.3.25.51-.38,0,0-.26.2-.53.39-.8.58q-.82.56-1.68,1.05c-.54.31-1.09.6-1.66.86l-.4.19c-.09,0-.67.32-.22.11s0,0-.13.05l-.51.19a26.68,26.68,0,0,1-3.8,1.12,3.21,3.21,0,0,0-2.22,3.92,3.24,3.24,0,0,0,3.91,2.22c9.3-2,17.41-8.71,20.26-17.91,2.37-7.62.71-16.09-3.38-22.81a33.55,33.55,0,0,0-9.73-10.19,3.2,3.2,0,0,0-4.36,1.14,3.28,3.28,0,0,0,1.14,4.36Z"/><path d="M337.44,376.58a20,20,0,0,1,1.08,1.68l.47.88c.09.18.18.36.26.54l.08.19c.14.31.11.24-.08-.22a4.29,4.29,0,0,0,.35.94c.11.31.21.63.31,1a17.77,17.77,0,0,1,.48,2l.09.49c.12.68-.07-.61,0-.15s.07.66.1,1c.05.7.06,1.4,0,2.1,0,.33,0,.67-.05,1l-.06.6c0,.25-.17.43,0-.26-.21.69-.25,1.46-.43,2.16s-.37,1.28-.6,1.9l-.15.37c-.26.67.32-.67,0,0-.16.32-.31.66-.49,1a16.85,16.85,0,0,1-.94,1.58l-.55.78c-.41.56.47-.56,0,0l-.37.45c-.42.48-.86.94-1.33,1.39-.23.22-.47.43-.72.64l-.29.25-.3.24q.58-.45.18-.15a20.77,20.77,0,0,1-3.29,2l-.52.25c-.63.29.7-.27.05,0-.36.14-.72.28-1.09.4a20.56,20.56,0,0,1-2,.57c-.37.08-.75.15-1.13.21-.7.12.79-.08.08,0l-.57.06a19.79,19.79,0,0,1-2.31.05,3.21,3.21,0,0,0-3.19,3.18,3.26,3.26,0,0,0,3.19,3.19,23,23,0,0,0,17.14-7,22.16,22.16,0,0,0,5.93-17.9,22.5,22.5,0,0,0-3.88-10.45,3.44,3.44,0,0,0-1.91-1.46,3.23,3.23,0,0,0-2.45.32c-1.34.86-2.18,2.91-1.14,4.35Z"/><path d="M259.55,267.91a23.8,23.8,0,0,0,.54,9.72,25.08,25.08,0,0,0,4.16,8.41,33.59,33.59,0,0,0,15.67,11.08,41.3,41.3,0,0,0,10.88,2.23,3.21,3.21,0,0,0,3.19-3.19A3.26,3.26,0,0,0,290.8,293l-1.09-.1a5,5,0,0,1-1.09-.12c.56.21.48.07.2,0l-.65-.1-1.07-.19a37.66,37.66,0,0,1-4.18-1.07c-.67-.21-1.34-.45-2-.7a4.92,4.92,0,0,1-1-.4c.47.35.43.19.18.08l-.67-.3a33.48,33.48,0,0,1-3.63-2c-.54-.34-1.07-.69-1.59-1.06-.17-.12-1.07-.85-.32-.22l-.84-.69a25.89,25.89,0,0,1-2.93-2.9c-.17-.19-.55-.5-.62-.74l.24.31-.25-.34-.25-.34c-.42-.6-.82-1.21-1.18-1.85s-.63-1.14-.91-1.72c-.07-.16-.13-.31-.21-.47-.19-.41.3.76.05.11-.15-.38-.29-.75-.42-1.14A21.21,21.21,0,0,1,266,275c-.08-.35-.15-.71-.22-1.07a2.63,2.63,0,0,0-.07-.49c.24.77.05.37,0,.06-.07-.71-.1-1.44-.1-2.16,0-.39,0-.79.05-1.18s.17-1.58,0-.53a3.54,3.54,0,0,0-.32-2.45,3.26,3.26,0,0,0-1.9-1.46A3.2,3.2,0,0,0,261,266a3,3,0,0,0-1.46,1.9Z"/><path d="M315.16,287.89c-.66,8.08,5.42,15.34,12.34,18.69a26.88,26.88,0,0,0,7,2.31,3.5,3.5,0,0,0,2.46-.32,3.25,3.25,0,0,0,1.46-1.91c.35-1.55-.47-3.61-2.22-3.91a25.56,25.56,0,0,1-2.75-.65c-.44-.13-.88-.27-1.32-.43l-.64-.25c-.67-.26.43.2-.05,0a23.1,23.1,0,0,1-2.47-1.28c-.36-.21-.7-.43-1-.66l-.54-.37c-.13-.1-.76-.57-.35-.25s-.14-.13-.25-.22l-.42-.36c-.34-.3-.67-.61-1-.93s-.58-.6-.86-.92l-.4-.47-.16-.2c-.25-.31.4.55.18.22a20.11,20.11,0,0,1-1.35-2.09c-.17-.32-.33-.65-.49-1-.28-.61.22.57,0,.07-.07-.21-.16-.41-.23-.62-.14-.42-.26-.84-.37-1.26-.05-.21-.09-.43-.13-.64s-.13-.82,0-.22,0-.15,0-.3,0-.43,0-.65c0-.46,0-.92,0-1.38a3.19,3.19,0,0,0-3.18-3.18,3.25,3.25,0,0,0-3.18,3.18Z"/><path d="M289.7,285.9a27.26,27.26,0,0,0,14.5,13.26,23.44,23.44,0,0,0,6.42,1.32,3.19,3.19,0,0,0,3.18-3.18,3.27,3.27,0,0,0-3.18-3.19l-.84-.08c-.35,0-.28,0,.23,0l-.4-.07c-.53-.08-1.06-.19-1.58-.32s-1-.27-1.5-.44-.84-.37-1.26-.46l.24.1-.35-.16c-.22-.1-.45-.21-.67-.33-.44-.22-.87-.46-1.29-.71s-.73-.46-1.08-.7l-.59-.42c-.45-.33.61.49-.07-.06a25.78,25.78,0,0,1-2-1.79c-.66-.67-1.22-1.42-1.85-2.11.67.73.11.15,0-.05s-.2-.27-.3-.42c-.27-.37-.52-.74-.77-1.13-.48-.75-.92-1.52-1.33-2.31a3.21,3.21,0,0,0-4.36-1.15,3.27,3.27,0,0,0-1.14,4.36Z"/><path d="M240.72,392c.68,2.32,1.27,4.67,1.75,7,.22,1.13.42,2.27.59,3.42,0,.16.15,1,.07.42s0,.26.05.41q.1.87.18,1.74a49.85,49.85,0,0,1,.21,6.35c0,1-.09,2.05-.2,3.08,0,.22-.05.45-.07.68s0,.25-.05.37c-.06.5.06-.4.06-.4a10,10,0,0,1-.25,1.55,34.76,34.76,0,0,1-1.48,5.58c-.16.45-.33.89-.51,1.34s.34-.78,0-.1c-.11.26-.23.52-.35.78-.41.86-.85,1.7-1.34,2.53s-1,1.58-1.53,2.34l-.39.52c-.34.47.51-.64.15-.18l-.18.23c-.31.38-.62.75-.94,1.12a37.35,37.35,0,0,1-4.41,4.12c.85-.7,0,0-.17.12l-.71.51c-.49.34-1,.67-1.49,1-1,.65-2.11,1.26-3.21,1.82-.57.3-1.14.58-1.73.85l-1,.43-.33.15.09,0c-1.34.55-2.71,1-4.09,1.48a3.18,3.18,0,0,0,1.69,6.14c9.09-2.93,17.54-8,22.9-16.05,4.76-7.2,6.3-16.09,5.78-24.59a75.92,75.92,0,0,0-3-16.44,3.19,3.19,0,0,0-6.15,1.69Z"/><path d="M309.89,390c-1.68,6.83-3.33,13.72-3.76,20.76-.36,5.79.13,11.89,2.37,17.3a27.9,27.9,0,0,0,8.08,11.11,39.79,39.79,0,0,0,12.26,6.61,80,80,0,0,0,15,3.36,3.52,3.52,0,0,0,2.45-.32,3.31,3.31,0,0,0,1.47-1.91c.34-1.5-.46-3.67-2.23-3.92a86.28,86.28,0,0,1-13-2.72c-1-.32-2.06-.66-3.07-1-.48-.18-.94-.37-1.41-.56s.79.35.25.11l-.29-.13-.86-.38a33.12,33.12,0,0,1-5.2-3c-.21-.14-.41-.29-.62-.45-.64-.48.57.46-.07,0-.39-.32-.77-.65-1.15-1a25.41,25.41,0,0,1-2.12-2.16l-.44-.52c-.16-.2-.65-.89,0,0-.32-.44-.64-.87-.94-1.32a24.47,24.47,0,0,1-1.54-2.68c-.12-.24-.23-.48-.34-.73l-.14-.3c-.26-.58.3.74.07.15s-.41-1.05-.59-1.58a29.47,29.47,0,0,1-.93-3.43c-.11-.55-.21-1.1-.3-1.66,0-.16-.05-.32-.07-.47-.07-.48.11,1,0,.11,0-.41-.1-.82-.13-1.23a45.67,45.67,0,0,1-.17-5c0-1.82.17-3.64.37-5.45,0-.21.05-.41.08-.62s0-.25.05-.37c-.06.43-.07.47,0,.1s.12-.82.19-1.23c.14-.91.29-1.82.46-2.72.7-3.7,1.59-7.35,2.49-11a3.18,3.18,0,0,0-6.14-1.69Z"/><path d="M145.76,585.18c.17-20.11-.16-40.3,2.4-60.29a141.59,141.59,0,0,1,9.24-34.72,119.58,119.58,0,0,1,8.45-16.91,74.07,74.07,0,0,1,11.3-14.62q1.6-1.61,3.33-3.09l1.73-1.43.37-.28c.34-.25.68-.51,1-.75a46.82,46.82,0,0,1,7.75-4.52l.86-.38c.48-.21-.39.15.11,0l.43-.18c.74-.29,1.48-.55,2.23-.8a36.78,36.78,0,0,1,4.3-1.15,30.53,30.53,0,0,1,10.16.36c7.86,1.41,15.17,4.33,22.32,7.81,7.76,3.77,15.41,7.91,23.7,10.43a81.64,81.64,0,0,0,27.2,3,91.42,91.42,0,0,0,27.18-5.35c7.42-2.7,14.56-6.14,21.93-9a94.37,94.37,0,0,1,10.48-3.44,41.71,41.71,0,0,1,9.59-1.48A31.1,31.1,0,0,1,371,454.26c6.49,4.52,11.77,11,16.09,17.52,8.94,13.53,14.49,29.17,17.63,45,3.74,19,4.07,38.4,4.13,57.67,0,4.72,0,9.45,0,14.18,0,4.09,6.39,4.1,6.37,0-.11-19.78.27-39.61-2.16-59.27-2.17-17.57-6.55-34.81-14.6-50.65a97,97,0,0,0-14.08-20.82c-5.63-6.27-12.41-11.69-20.54-14.27-14.75-4.69-29.8,1.72-43.26,7.41-8,3.37-15.86,6.71-24.36,8.5a86.75,86.75,0,0,1-27.42,1.27c-8.72-1-16.76-3.8-24.64-7.59s-15.47-8-23.76-10.65c-7.35-2.37-15.81-4.3-23.49-2.57a46.56,46.56,0,0,0-16.83,7.76c-10.7,7.76-18.54,18.89-24.37,30.61a146,146,0,0,0-12.38,36.52c-3.59,18.12-3.78,36.86-3.9,55.27,0,5,0,10-.09,15,0,4.1,6.33,4.1,6.37,0Z"/><path class="cls-2" d="M299.55,417.32c-.5-.47-1-.94-1.53-1.4a7.39,7.39,0,0,0-2.86-3.62A97.56,97.56,0,0,0,283,405.08l-.78-.39a41.26,41.26,0,0,0-4.93-2.36,29.22,29.22,0,0,0-4-1.41l-.39-.27a5.42,5.42,0,0,0-3.7-.91c-.46-.14-.92-.29-1.39-.41a12,12,0,0,0-7.16-.18,11.64,11.64,0,0,0-4.54,3,26.39,26.39,0,0,0-2.71,3.59l-.12.1a2.22,2.22,0,0,0-.62.53l-.05.06c-.57.51-1.16,1-1.73,1.54a3.23,3.23,0,0,0-2.45.89q-3.73,3.6-7.23,7.43l-.38.26a7.43,7.43,0,0,0-2.68,3.19c-1.64,1.92-3.25,3.87-4.81,5.86s-2.87,3.74-4.25,5.66a3.27,3.27,0,0,0-.39,2.19,28.39,28.39,0,0,0-4.05,6.53,44.07,44.07,0,0,0-6.19,10.09,155.57,155.57,0,0,0-7.73,15.84,39.5,39.5,0,0,0-2.57,3.71,6,6,0,0,0-2.8,3.73q-.8,3.07-1.6,6.15c-1.15,4.42,1.92,7.45,5.38,8a16.66,16.66,0,0,0,13.37,5.17c6.46-.49,12-4,17.16-7.67a61.56,61.56,0,0,0,11.06-10,49.9,49.9,0,0,0,8.49-.32,11.94,11.94,0,0,0,7.23-3.57c2.32-2.5,2.77-5.74,2.75-9a1,1,0,0,1,0-.15,15.6,15.6,0,0,0,2-2.33,17.91,17.91,0,0,0,3.31-6.63c.13-.53.23-1.06.32-1.6a10.73,10.73,0,0,0,1.24-7.38,10.34,10.34,0,0,0,.39-3c-.11-6.22-5.44-9.47-10.66-11.3a5.1,5.1,0,0,0-1.94-.27A87.71,87.71,0,0,0,253,424.36a.5.5,0,0,0,0-.13l5.76-3.87,6-4c1-.65,1.91-1.31,2.88-1.94.48-.3.82-.54,1.1-.7a103.46,103.46,0,0,0,21.33,10.66,6.23,6.23,0,0,0,6.36-1.73,3.17,3.17,0,0,0,3.1-5.29ZM252.3,442.8l.33.37a3,3,0,0,0-.32.06l-.23-.2Z"/><path d="M261.39,425.25l4-4.74,1.82-2.18c.23-.27.46-.55.69-.81l.42-.45.3-.28q.39-.33-.18.12s.47-.29.51-.31c.59-.37-.68.28,0,0s-.21.13-.17,0h.23c.36,0,.3,0-.17,0,.25-.11,1.09.3,1.34.39.45.17.9.36,1.34.55l5.57,2.34,11,4.63a23,23,0,0,0,5.29,1.87,7.58,7.58,0,0,0,6.66-1.87,5.94,5.94,0,0,0,1.11-6.88,24.13,24.13,0,0,0-3-4.43c-1.25-1.67-2.54-3.32-3.85-4.94a34.77,34.77,0,0,0-3.63-4,17.63,17.63,0,0,0-5.35-3.23c-1.53-.61-3.13-1-4.7-1.51-2.95-.92-5.86-2-8.83-2.85-6.14-1.82-12.71-2.87-18.75-.15-3.1,1.39-5.43,3.86-7.66,6.35-2.46,2.74-4.76,5.62-7,8.57-8.16,10.89-14.58,22.93-21.92,34.36-1.87,2.92-3.8,5.79-5.82,8.59-.48.66-1,1.32-1.45,2l-.67.89c-.14.18-.27.36-.41.53.57-.69-.08.1-.19.24-1.21,1.55-2.47,3-3.65,4.63a25,25,0,0,0-4.3,9.72c-.68,3.1-1,6.28-1.94,9.32-.12.39-.25.78-.39,1.16-.06.2-.14.38-.21.57-.14.4-.11-.07.09-.19-.09.05-.2.45-.25.55l-.27.55c-.19.36-.4.71-.62,1.06a3.21,3.21,0,0,0,1.15,4.36,3.25,3.25,0,0,0,4.35-1.14,27.27,27.27,0,0,0,3.27-9.44,52,52,0,0,1,2.1-9.06c0-.08.25-.5.22-.57.07.16-.27.6-.07.2s.37-.78.58-1.15a22.92,22.92,0,0,1,1.51-2.35c.14-.19.83-1.16.35-.48.23-.32.49-.61.73-.92.58-.71,1.15-1.42,1.72-2.14q3.32-4.2,6.33-8.62c7.48-11,13.71-22.72,21.18-33.7.9-1.33,1.83-2.65,2.77-4l1.45-1.95.73-1c.12-.16.43-.6,0,0,.18-.24.37-.47.55-.7,2.08-2.64,4.26-5.19,6.57-7.62a22.9,22.9,0,0,1,1.67-1.6c.18-.14.72-.45,0,0a3.55,3.55,0,0,0,.31-.23c.36-.25.74-.49,1.12-.72l.81-.43c.16-.08.36-.14.5-.23-.65.44-.4.16-.1,0a15.48,15.48,0,0,1,1.87-.57l1.05-.21c.63-.12-.67.08-.24,0l.45,0a19.23,19.23,0,0,1,2.15-.08c.67,0,1.34.06,2,.13.18,0,.37.06.55.06l-.29,0,1.3.22a65.43,65.43,0,0,1,8.49,2.34c2.88.94,5.78,1.81,8.65,2.75.42.14.85.29,1.27.45.13.05.27.12.41.16-.79-.23-.13,0,.05.05a11.21,11.21,0,0,1,1.08.58,4.66,4.66,0,0,1,.47.3l.36.25q-.52-.42-.12-.09a28.45,28.45,0,0,1,3.34,3.51c.58.7,1.15,1.4,1.71,2.11l.92,1.17.31.39c-.5-.65.16.22.25.34a36.64,36.64,0,0,1,3.21,4.45s.2.37.19.38l-.17-.37a2.85,2.85,0,0,1,.11.39l-.06-.43c0,.37,0,.28.08-.3l0,.17c-.09.32-.05.22.15-.28a2.38,2.38,0,0,0-.17.29l.3-.37a2.85,2.85,0,0,1-.23.26c-.4.47.63-.38.09-.06-.14.08-.33.16-.47.26.59-.42.45-.17.09-.07-.7.19.07-.13.15,0,0,0-.52,0-.59,0h-.11c-.37,0-.32,0,.14,0a3.83,3.83,0,0,1-1.38-.34c-.45-.15-.9-.33-1.34-.51-3.55-1.46-7.08-3-10.62-4.47L276,412.59a35.47,35.47,0,0,0-5.19-2.06,7.17,7.17,0,0,0-6.72,1.76,36.68,36.68,0,0,0-3.56,4.11l-3.63,4.35A3.38,3.38,0,0,0,256,423a3.2,3.2,0,0,0,.93,2.25c1.18,1.09,3.36,1.37,4.5,0Z"/><path d="M251.51,426.57l13.76,4.94,7,2.51a11.05,11.05,0,0,0,1.55.56s-.59-.28-.3-.12c.09.06.19.09.27.14l.35.21c-.06.06-.52-.49-.19-.1-.55-.66-.12-.12,0,.09s-.19-.61-.09-.21c0,.1.07.19.1.29.16.53.26,1.07.38,1.61.6,2.72,1.21,5.44,1.81,8.15a3.21,3.21,0,0,0,3.92,2.23A3.26,3.26,0,0,0,282.3,443q-.82-3.76-1.67-7.52a15.59,15.59,0,0,0-1.17-3.85,6.46,6.46,0,0,0-3.38-2.9c-2.38-1-4.87-1.79-7.3-2.66l-7.37-2.65-8.21-2.94a3.19,3.19,0,0,0-3.91,2.22,3.26,3.26,0,0,0,2.22,3.92Z"/><path d="M250.79,440.9a117.16,117.16,0,0,1,15.73,5q.89.34,1.77.72s.76.31.29.11.07,0,.17.08l1,.42c1.28.56,2.55,1.15,3.81,1.75.61.3,1.22.59,1.82.9a3.08,3.08,0,0,0,.7.4c-.07,0-.57-.5-.2-.12a1.69,1.69,0,0,1-.51-1.1c0,.52,0-.24.06-.19a2.72,2.72,0,0,1-.09.43q-.09.4-.21.81c-.17.61-.37,1.21-.59,1.8,0,.12-.12.26-.16.39.23-.79.09-.2,0,0s-.27.57-.41.85c-.31.59-.64,1.17-1,1.72-.19.3-.39.59-.59.87a2.46,2.46,0,0,1-.25.34c.26-.34.32-.42.17-.23l-.2.24a18.89,18.89,0,0,1-1.42,1.55,3.19,3.19,0,1,0,4.51,4.5,22.68,22.68,0,0,0,4.86-7,22.09,22.09,0,0,0,1.46-4.26,6.79,6.79,0,0,0,0-3.2,5.07,5.07,0,0,0-2.26-2.9,31.16,31.16,0,0,0-3.92-2c-1.56-.73-3.12-1.41-4.7-2.07-2.76-1.16-5.56-2.22-8.39-3.16q-4.83-1.6-9.78-2.79a3.18,3.18,0,0,0-1.69,6.14Z"/><path d="M251.27,465.43A34.34,34.34,0,0,1,250,470c-.12.33-.24.66-.37,1,0,.12-.29.69-.07.18s-.06.13-.11.26c-.3.66-.63,1.32-1,2s-.68,1.19-1,1.77l-.55.81-.32.45c-.09.12-.49.64-.14.19s0,0-.1.12l-.3.37c-.22.27-.45.53-.68.78-.45.51-.93,1-1.42,1.48s-1,.9-1.47,1.32l-.74.6c-.46.38.31-.23.15-.11l-.45.33a35.19,35.19,0,0,1-3.42,2.23c-1.21.7-2.45,1.33-3.72,1.91l-.91.41-.46.2.29-.12-.31.13c-.65.27-1.31.52-2,.77-3.15,1.18-6.38,2.12-9.63,3a3.18,3.18,0,1,0,1.69,6.14,76.39,76.39,0,0,0,17.46-6.48,33.93,33.93,0,0,0,13.07-12.2,33.43,33.43,0,0,0,3.92-10.34,3.19,3.19,0,1,0-6.14-1.7Z"/><path d="M258.08,457.12a39.25,39.25,0,0,1,4.29,1.14q1,.33,2,.72l.44.17-.12,0a9.5,9.5,0,0,1,1.17.53c.6.28,1.2.58,1.78.9.32.17.65.35,1,.54l.34.22h0c-.21-.17-.22-.17,0,0l.14.15-.26-.32c.38.54-.14-.52,0-.13s0-.83,0-.17a2.71,2.71,0,0,0,0,.4c-.1-.47.11-.59,0-.25,0,.14-.06.27-.1.41s-.12.33-.17.5-.05.14.11-.26c0,.09-.09.19-.13.29a45.91,45.91,0,0,1-4,6.83c-.11.15-.38.4.12-.15a4.19,4.19,0,0,0-.26.33c-.22.27-.45.53-.69.79a15.08,15.08,0,0,1-1.34,1.31l-.4.34c-.34.3.64-.44.09-.07-.22.14-.43.3-.65.43s-.56.34-.85.49l-.36.17c-.62.31.69-.25,0,0a13.92,13.92,0,0,1-1.88.55c-.1,0-.73.08-.15,0s-.14,0-.25,0a7.36,7.36,0,0,1-1.05,0l-.38,0c-.68,0,.76.15.09,0-.3-.07-.61-.13-.91-.22l-.36-.12c-.6-.19.59.31.07,0a9.7,9.7,0,0,1-1-.58,3.2,3.2,0,0,0-4.36,1.14,3.27,3.27,0,0,0,1.14,4.36,11.63,11.63,0,0,0,9.69,1.26,16.12,16.12,0,0,0,8-5.43,42.85,42.85,0,0,0,5-8c.92-1.84,1.66-3.95,1.1-6s-2.24-3.38-4.09-4.37a40.42,40.42,0,0,0-11.05-4,3.19,3.19,0,1,0-1.7,6.14Z"/><path d="M172.94,557.9c3.83-14.24,8.9-28.11,13-42.27a197.34,197.34,0,0,0,5.06-21.3c.36-2.08.59-4.18.94-6.26a15,15,0,0,1,.45-1.87c.14-.45-.48.91-.15.37l.15-.26c.24-.44-.67.76-.25.35s-.78.52-.36.27-.81.25-.48.18a1.07,1.07,0,0,0,.33-.08c-.11.11-1.1.07-.47.07l.42,0c.59,0-1-.19-.29,0l.45.1c.4.09.8.21,1.19.34,2.55.83,5,2,7.51,2.91a139.4,139.4,0,0,0,20.88,6.29c1.73.37,3.48.72,5.23,1a37.79,37.79,0,0,1,4.63.87c.63.2-.63-.38-.09,0l.15.08c.28.18.21.12-.21-.19a2.73,2.73,0,0,0,.26.24l-.27-.37a3.35,3.35,0,0,1,.21.36l-.16-.38a2.64,2.64,0,0,1,.12.4s.08.41.08.41l-.06-.42,0,.42c0,.29,0,.57,0,.86.08,1.62.18,3.24.29,4.86.48,6.81,1.23,13.6,1.92,20.4,1.38,13.68,2.73,27.58,1.23,41.31,0,.37-.08.73-.13,1.1s-.05.44-.08.66c-.09.77.11-.75,0,0s-.24,1.59-.37,2.38a3.47,3.47,0,0,0,.32,2.45,3.31,3.31,0,0,0,1.91,1.47c1.53.35,3.62-.47,3.91-2.23,2.38-14.13,1.39-28.53,0-42.72-.69-7.05-1.48-14.08-2.07-21.14-.14-1.72-.27-3.43-.39-5.15s-.11-3.28-.29-4.9c-.26-2.38-1.29-4.54-3.57-5.58a20.92,20.92,0,0,0-5.25-1.24,137.25,137.25,0,0,1-21.58-5.55c-3.3-1.14-6.51-2.46-9.75-3.73a20,20,0,0,0-5.9-1.66,5.05,5.05,0,0,0-4.75,2.59,14.1,14.1,0,0,0-1.21,4.75,165.21,165.21,0,0,1-4,19.43c-3.84,14.65-9.08,28.89-13.3,43.43-.5,1.75-1,3.51-1.47,5.27a3.18,3.18,0,1,0,6.14,1.69Z"/><circle class="cls-4" cx="334.6" cy="356.26" r="7.46" transform="translate(-152.81 320.08) rotate(-42.55)"/><path d="M334.61,366h-.44a9.71,9.71,0,1,1,.44,0Zm0-14.91a5.18,5.18,0,1,0,5.18,5.42h0a5.12,5.12,0,0,0-1.35-3.74,5.18,5.18,0,0,0-3.59-1.68Z"/><path class="cls-4" d="M127.74,241.4a12.59,12.59,0,0,1-.4,3.12c-3.29-8.72-15.88-15.22-30.91-15.22-15.83,0-29,7.21-31.36,16.64a12.82,12.82,0,0,1-.84-4.54c0-10.9,14.22-19.75,31.75-19.75S127.74,230.5,127.74,241.4Z"/><path class="cls-4" d="M127.34,244.52a12.72,12.72,0,0,1,.84,4.53c0,10.91-14.21,19.75-31.75,19.75S64.68,260,64.68,249.05a12.93,12.93,0,0,1,.39-3.11C68.37,254.66,81,261.16,96,261.16,111.82,261.16,124.94,254,127.34,244.52Z"/><path class="cls-4" d="M96,262.65c-15.42,0-28.7-6.66-32.3-16.19h0a14.26,14.26,0,0,1-.94-5.06c0-11.71,14.92-21.24,33.24-21.24s33.25,9.53,33.25,21.24a14.21,14.21,0,0,1-.44,3.49C126.17,255.18,112.37,262.65,96,262.65Zm0-39.51c-16.68,0-30.26,8.2-30.26,18.26a11.13,11.13,0,0,0,.75,4h0C69.59,253.67,82,259.66,96,259.66c14.81,0,27.67-6.66,29.92-15.51a11.14,11.14,0,0,0,.34-2.75C126.24,231.34,112.67,223.14,96,223.14Z"/><path class="cls-4" d="M96.43,270.29c-18.33,0-33.24-9.53-33.24-21.24a14.13,14.13,0,0,1,.44-3.48c2.62-10.29,16.42-17.76,32.8-17.76,15.43,0,28.71,6.65,32.31,16.18h0a14.25,14.25,0,0,1,.93,5.06C129.67,260.76,114.76,270.29,96.43,270.29Zm0-39.5c-14.8,0-27.66,6.67-29.91,15.51a11.21,11.21,0,0,0-.35,2.75c0,10.07,13.58,18.26,30.26,18.26s30.26-8.19,30.26-18.26a11.33,11.33,0,0,0-.74-4h0C122.83,236.79,110.42,230.79,96.43,230.79Z"/><path class="cls-4" d="M165.78,253.73a8.94,8.94,0,0,1-1.08,2.35c-1.21-7.79-11.85-16.38-26.31-20.49-15.22-4.33-29.47-2.23-33.9,4.56a8.88,8.88,0,0,1,.21-3.81c2.45-8.62,18.12-11.72,35-6.92S168.23,245.1,165.78,253.73Z"/><path class="cls-5" d="M164.7,257.57a1.73,1.73,0,0,1-.32,0,1.5,1.5,0,0,1-1.16-1.23C162.09,249,151.48,240.86,138,237c-14.27-4.06-28.13-2.36-32.24,3.95a1.49,1.49,0,0,1-2.72-.59,10.24,10.24,0,0,1,.25-4.45c2.72-9.55,18.89-13,36.82-7.94,8.38,2.38,15.8,6.31,20.9,11.06,5.36,5,7.57,10.35,6.22,15.08a10.2,10.2,0,0,1-1.27,2.77A1.49,1.49,0,0,1,164.7,257.57ZM123,231.84a58.24,58.24,0,0,1,15.77,2.32c12.22,3.47,22,10.17,25.81,17.22,0-3.16-1.94-6.69-5.65-10.15-4.76-4.43-11.75-8.11-19.69-10.37-15.35-4.37-30.14-1.93-32.93,5.29C110.2,233.33,116.13,231.84,123,231.84Z"/><path class="cls-4" d="M164.7,256.08a8.88,8.88,0,0,1-.21,3.81c-2.46,8.63-18.12,11.72-35,6.92s-28.54-15.68-26.09-24.3a8.55,8.55,0,0,1,1.08-2.36c1.2,7.8,11.85,16.38,26.3,20.5C146,265,160.27,262.88,164.7,256.08Z"/><path class="cls-4" d="M146.16,264.39a58.21,58.21,0,0,1-15.77-2.31c-14.8-4.21-26-13.13-27.37-21.7h0a10.24,10.24,0,0,1,.25-4.45c2.72-9.55,18.89-13,36.82-7.94,8.38,2.38,15.8,6.31,20.9,11.06,5.36,5,7.57,10.35,6.22,15.08a10.2,10.2,0,0,1-1.27,2.77C162.77,261.77,155.32,264.39,146.16,264.39Zm-21.82-35.71c-9.42,0-16.74,2.91-18.21,8.07a7.47,7.47,0,0,0-.17,3.17h0c1.13,7.33,11.75,15.44,25.24,19.28,14.27,4.06,28.13,2.37,32.25-3.94a7,7,0,0,0,.89-2c1-3.61-.88-7.9-5.38-12.09-4.76-4.43-11.75-8.12-19.69-10.37A55,55,0,0,0,124.34,228.68Z"/><path class="cls-4" d="M144.89,270.57a58.61,58.61,0,0,1-15.79-2.32c-17.93-5.11-29.84-16.59-27.12-26.15a10,10,0,0,1,1.26-2.76c4.88-7.48,19.83-9.66,35.56-5.18,14.79,4.21,26,13.13,27.37,21.69h0a10.38,10.38,0,0,1-.25,4.45c-1.35,4.74-6,8.13-13.23,9.55A40.38,40.38,0,0,1,144.89,270.57Zm-21.95-35.75c-8.07,0-14.59,2.15-17.2,6.15a7.33,7.33,0,0,0-.9,1.95c-2.18,7.68,9.3,18,25.07,22.46,7.94,2.26,15.82,2.81,22.2,1.54,6-1.19,9.92-3.83,10.94-7.43a7.22,7.22,0,0,0,.17-3.18h0C162.09,249,151.48,240.86,138,237A55.91,55.91,0,0,0,122.94,234.82Z"/><circle class="cls-2" cx="129.98" cy="264.35" r="9.4" transform="translate(-113.16 98.04) rotate(-29.44)"/><path class="cls-4" d="M130,274.78a10.43,10.43,0,1,1,10-7.57h0A10.46,10.46,0,0,1,130,274.78ZM130,256a8.36,8.36,0,1,0,8,10.65h0a8.36,8.36,0,0,0-5.76-10.33A8.2,8.2,0,0,0,130,256Zm9,10.93h0Z"/><polygon class="cls-2" points="133.37 267.89 128.61 269.06 125.21 265.53 126.58 260.81 131.34 259.64 134.74 263.18 133.37 267.89"/><path class="cls-4" d="M128.61,269.83a.74.74,0,0,1-.55-.24l-3.4-3.53a.76.76,0,0,1-.18-.75l1.36-4.71a.77.77,0,0,1,.55-.53l4.77-1.18a.77.77,0,0,1,.73.22l3.4,3.53a.77.77,0,0,1,.18.75l-1.36,4.71a.77.77,0,0,1-.55.53l-4.77,1.18Zm-2.54-4.52,2.79,2.9,3.9-1,1.12-3.86-2.79-2.9-3.9,1Zm7.3,2.58h0Z"/><polygon class="cls-2" points="131.41 259.41 128.03 255.61 126.43 260.44 131.41 259.41"/><path class="cls-4" d="M126.43,261.21a.8.8,0,0,1-.58-.26.76.76,0,0,1-.15-.75l1.6-4.83a.77.77,0,0,1,.57-.51.74.74,0,0,1,.73.24l3.39,3.8a.77.77,0,0,1-.42,1.26l-5,1Zm1.91-4.1-.77,2.31,2.39-.49Z"/><polygon class="cls-2" points="134.99 263.56 136.75 258.79 131.73 259.65 134.99 263.56"/><path class="cls-4" d="M135,264.33a.77.77,0,0,1-.59-.27l-3.26-3.92a.78.78,0,0,1-.13-.75.76.76,0,0,1,.59-.49l5-.87a.79.79,0,0,1,.72.27.78.78,0,0,1,.13.75l-1.76,4.78a.78.78,0,0,1-.59.49Zm-1.82-4.15,1.56,1.87.84-2.28Z"/><polygon class="cls-2" points="133.39 268.46 138.33 267.22 134.78 263.57 133.39 268.46"/><path class="cls-4" d="M133.39,269.23a.76.76,0,0,1-.74-1l1.4-4.9a.74.74,0,0,1,.55-.53.76.76,0,0,1,.74.21l3.54,3.65a.77.77,0,0,1-.36,1.28l-4.94,1.24Zm1.77-4.17-.67,2.34,2.36-.6Z"/><polygon class="cls-2" points="128.7 269.47 132.24 273.13 133.63 268.23 128.7 269.47"/><path class="cls-4" d="M132.24,273.89a.78.78,0,0,1-.55-.23L128.15,270a.77.77,0,0,1,.36-1.28l4.94-1.24a.77.77,0,0,1,.74.21.75.75,0,0,1,.18.74l-1.39,4.9a.79.79,0,0,1-.55.53A.62.62,0,0,1,132.24,273.89Zm-2.07-4,1.7,1.75.66-2.34Z"/><polygon class="cls-2" points="123.39 270.95 128.33 269.71 124.79 266.06 123.39 270.95"/><path class="cls-4" d="M123.39,271.72a.77.77,0,0,1-.73-1l1.39-4.89a.77.77,0,0,1,1.29-.33l3.54,3.66a.76.76,0,0,1-.36,1.27l-4.94,1.24A.63.63,0,0,1,123.39,271.72Zm1.77-4.18-.67,2.34,2.36-.59Z"/><polygon class="cls-2" points="121.02 261.9 124.56 265.56 125.96 260.66 121.02 261.9"/><path class="cls-4" d="M124.56,266.32a.78.78,0,0,1-.55-.23l-3.54-3.66a.76.76,0,0,1,.36-1.27l4.94-1.24a.76.76,0,0,1,.74.21.75.75,0,0,1,.18.74l-1.39,4.89a.75.75,0,0,1-.55.54Zm-2.06-4,1.69,1.75.67-2.34Z"/><rect class="cls-4" x="384.36" y="205.56" width="79.23" height="79.23" rx="15.82"/><path class="cls-4" d="M447.77,286.61H400.19A17.67,17.67,0,0,1,382.54,269V221.38a17.67,17.67,0,0,1,17.65-17.65h47.58a17.67,17.67,0,0,1,17.65,17.65V269A17.67,17.67,0,0,1,447.77,286.61Zm-47.58-79.23a14,14,0,0,0-14,14V269a14,14,0,0,0,14,14h47.58a14,14,0,0,0,14-14V221.38a14,14,0,0,0-14-14Z"/><path class="cls-4" d="M417.1,172.34l-49.27,45.85a8.12,8.12,0,0,0,5.53,14.06H473.85a8.41,8.41,0,0,0,5.73-14.57l-48.72-45.34A10.12,10.12,0,0,0,417.1,172.34Z"/><path class="cls-4" d="M473.85,234.08H373.36a9.95,9.95,0,0,1-6.77-17.23L415.86,171a12,12,0,0,1,16.24,0l48.73,45.34a10.24,10.24,0,0,1-7,17.73Zm-55.51-60.4-49.27,45.85a6.29,6.29,0,0,0,4.29,10.9H473.85A6.59,6.59,0,0,0,478.34,219l-48.72-45.34a8.32,8.32,0,0,0-11.28,0Z"/><rect class="cls-2" x="407.29" y="230.53" width="34.45" height="34.45"/><line class="cls-4" x1="424.52" y1="222.78" x2="424.52" y2="274.45"/><path class="cls-4" d="M424.52,276.28a1.83,1.83,0,0,1-1.83-1.83V222.78a1.83,1.83,0,0,1,3.65,0v51.67A1.82,1.82,0,0,1,424.52,276.28Z"/><line class="cls-4" x1="396.1" y1="246.89" x2="454.66" y2="246.89"/><path class="cls-4" d="M454.66,248.72H396.1a1.83,1.83,0,1,1,0-3.65h58.56a1.83,1.83,0,0,1,0,3.65Z"/><rect class="cls-2" x="127.72" y="102.17" width="115.83" height="54.2"/><path class="cls-6" d="M246.22,159.05H125V99.5H246.22ZM130.39,153.7H240.87V104.85H130.39Z"/><path class="cls-7" d="M174.58,116.46h4.86l6.19,10.2,6-10.2h4.86L189.76,128h5.1v4h-6.92v1.34h6.92v3.76h-6.92v4.62H183.2V137.1h-6.92v-3.76h6.92v-1.46h-6.92V128h5Z"/><rect class="cls-2" x="137.6" y="114.15" width="115.83" height="54.2"/><path class="cls-6" d="M256.1,171H134.92V111.47H256.1Zm-115.83-5.35H250.75V116.82H140.27Z"/><path class="cls-8" d="M184.46,128.44h4.86l6.19,10.2,6-10.2h4.85L199.64,140h5.1v4h-6.92v1.33h6.92v3.77h-6.92v4.61h-4.74v-4.61h-6.92v-3.77h6.92v-1.45h-6.92V140h5Z"/><circle class="cls-2" cx="132.78" cy="141.55" r="26.71"/><path class="cls-6" d="M132.78,170.94a29.39,29.39,0,1,1,29.39-29.39A29.42,29.42,0,0,1,132.78,170.94Zm0-53.43a24,24,0,1,0,24.05,24A24.07,24.07,0,0,0,132.78,117.51Z"/><path class="cls-7" d="M121.74,129.81h4.85l6.2,10.2,5.94-10.2h4.86l-6.68,11.54H142v4h-6.92v1.34H142v3.76h-6.92v4.62h-4.73v-4.62h-6.92v-3.76h6.92v-1.46h-6.92v-3.88h5Z"/><circle class="cls-2" cx="141" cy="149.55" r="26.71" transform="translate(-47.61 67.86) rotate(-23.27)"/><path class="cls-6" d="M141,178.94a29.39,29.39,0,1,1,29.38-29.39A29.42,29.42,0,0,1,141,178.94Zm0-53.43a24,24,0,1,0,24,24A24.07,24.07,0,0,0,141,125.51Z"/><path class="cls-7" d="M130,137.81h4.85L141,148l5.94-10.2h4.86l-6.68,11.54h5.1v4H143.3v1.34h6.92v3.76H143.3v4.62h-4.73v-4.62h-6.92v-3.76h6.92v-1.46h-6.92v-3.88h5Z"/><circle class="cls-2" cx="150.65" cy="156.97" r="26.71"/><path class="cls-6" d="M150.65,186.36A29.39,29.39,0,1,1,180,157,29.42,29.42,0,0,1,150.65,186.36Zm0-53.43a24,24,0,1,0,24,24A24.07,24.07,0,0,0,150.65,132.93Z"/><path class="cls-8" d="M139.6,145.24h4.86l6.19,10.2,5.95-10.2h4.85l-6.67,11.53h5.09v4H153v1.33h6.92v3.77H153v4.61h-4.73v-4.61H141.3v-3.77h6.92v-1.45H141.3v-3.89h5Z"/><path class="cls-2" d="M312.83,98.48l-.69,0a11.42,11.42,0,0,0,0,22.83,10.37,10.37,0,0,0,3.66-.66c5.81,12.88,18.35,21.79,32.9,21.79,14.74,0,27.43-9.15,33.13-22.31a10.42,10.42,0,0,0,4.83,1.18,11.42,11.42,0,0,0,0-22.83,10.82,10.82,0,0,0-2.06.2c-2.71-18.13-17.75-32-35.9-32S315.61,80.43,312.83,98.48Z"/><path class="cls-3" d="M348.7,145.1a39,39,0,0,1-34.35-21.32,13.64,13.64,0,0,1-2.21.19,14.13,14.13,0,0,1-1.55-28.1A40.9,40.9,0,0,1,323.24,73.8a37.89,37.89,0,0,1,51,.06A41,41,0,0,1,386.8,95.78a14.11,14.11,0,0,1-.14,28.19,13.38,13.38,0,0,1-3.47-.46A38.93,38.93,0,0,1,348.7,145.1ZM315.8,118a2.66,2.66,0,0,1,2.44,1.58c5.54,12.28,17.49,20.21,30.46,20.21a33.68,33.68,0,0,0,30.67-20.69,2.67,2.67,0,0,1,3.69-1.31,7.78,7.78,0,0,0,3.6.87,8.75,8.75,0,0,0,0-17.47,7.71,7.71,0,0,0-1.53.15A2.67,2.67,0,0,1,382,99.06c-2.57-17.23-16.55-29.74-33.25-29.74s-30.59,12.44-33.22,29.57a2.68,2.68,0,0,1-2.81,2.27,4.78,4.78,0,0,0-.53,0,8.75,8.75,0,0,0,0,17.47,7.75,7.75,0,0,0,2.73-.49A2.73,2.73,0,0,1,315.8,118Z"/><path class="cls-3" d="M365.21,86.63l.12.61c0,.26,0,.28,0,.05l0,.31c0,.42.05.84,0,1.25a12.4,12.4,0,0,1-.08,1.36c0-.38,0,.16-.05.25l-.12.61c-.1.41-.21.81-.34,1.21l-.21.58c-.24.62.17-.34-.11.25-.18.38-.37.75-.58,1.1-.1.18-.21.35-.33.53l-.23.33c-.14.19-.16.23-.08.12s-.24.28-.29.34l-.41.45c-.31.32-.64.61-1,.9s.19-.11-.21.16l-.5.34c-.34.21-.69.42-1.05.6l-.55.26c.38-.17-.21.08-.23.09-.38.13-.77.25-1.16.35l-.58.13c-.12,0-.61.11-.22,0a9.49,9.49,0,0,1-1.4.09,2.14,2.14,0,1,0,0,4.28,14,14,0,0,0,10.94-5.45,15.08,15.08,0,0,0,2.7-12.29,2.15,2.15,0,0,0-2.63-1.5,2.2,2.2,0,0,0-1.5,2.64Z"/><path class="cls-3" d="M351.37,90.3c-.09.31-.21.62-.32.93s.17-.34-.05.1c-.06.12-.11.25-.17.37a14.73,14.73,0,0,1-.95,1.63l-.24.33-.14.2c.15-.2.18-.23.08-.11s-.38.46-.58.68a13.72,13.72,0,0,1-1.35,1.29l-.32.25c.42-.33,0,0-.08.06-.24.17-.49.33-.74.49s-1.5,1-1.63.86l.21-.09-.29.12-.38.13a7.46,7.46,0,0,1-.84.26c-.3.08-.62.15-.93.21-.13,0-.62.14-.06,0a2.52,2.52,0,0,1-.48,0,2.19,2.19,0,0,0-2.14,2.14,2.16,2.16,0,0,0,2.14,2.14A15.68,15.68,0,0,0,355.5,91.44,2.16,2.16,0,0,0,354,88.8a2.2,2.2,0,0,0-2.64,1.5Z"/><path class="cls-3" d="M335.21,91.32c-.07.27-.16.54-.25.81,0,.1-.08.34-.16.4.12-.1.17-.39,0-.06a10.88,10.88,0,0,1-.8,1.41c-.07.1-.13.2-.2.29l-.13.17.12-.15c-.16.19-.32.39-.5.58a10.24,10.24,0,0,1-1.17,1.11c-.25.2-.13.05.05,0a2.7,2.7,0,0,0-.34.25c-.21.14-.42.28-.64.41s-.44.25-.67.36l-.38.18c-.43.2.46-.17,0,0a12.12,12.12,0,0,1-1.45.44l-.4.08-.2,0,.23,0a2.89,2.89,0,0,0-.82.06,2.14,2.14,0,1,0,0,4.28,13,13,0,0,0,11.81-9.43,2.14,2.14,0,1,0-4.13-1.14Z"/><path class="cls-3" d="M338.52,118.08c2.76,0,2.76-4.28,0-4.28s-2.75,4.28,0,4.28Z"/><path class="cls-3" d="M360.66,117c2.75,0,2.76-4.28,0-4.28s-2.76,4.28,0,4.28Z"/><path class="cls-3" d="M343.4,124a10.91,10.91,0,0,0,14.19-.52c1.34-1.26-.68-3.28-2-2a8,8,0,0,1-10.16.52,1.46,1.46,0,0,0-2,0,1.43,1.43,0,0,0,0,2Z"/></g></g></g></svg>