<svg xmlns="http://www.w3.org/2000/svg" xmlns:xlink="http://www.w3.org/1999/xlink" viewBox="0 0 224.23 287.93"><defs><style>.cls-1{fill:#fcec74;}.cls-2{clip-path:url(#clip-path);}.cls-3{fill:#269ac2;}.cls-4{fill:#fff;}.cls-5{fill:#f35528;}.cls-6{fill:#1b1464;}</style><clipPath id="clip-path" transform="translate(0 0.59)"><circle class="cls-1" cx="108.71" cy="125.56" r="108.71"/></clipPath></defs><g id="Layer_2" data-name="Layer 2"><g id="レイヤー_1" data-name="レイヤー 1"><g id="button"><circle class="cls-1" cx="108.71" cy="126.15" r="108.71"/><g class="cls-2"><path class="cls-3" d="M221.31,138.6a20.88,20.88,0,0,0-11.6-10.84l-.24-.44q-2.78-4.92-6-9.59c-3.46-3.06-7.07-6-10.42-9.14-.66-.45-1.33-.89-2-1.3a2.16,2.16,0,0,1-1.1-1.84l-.16-.17a2.24,2.24,0,0,1-1.9-.1c-9.1-4.54-18.39-8.7-27.75-12.66-.17.14-.32.28-.48.43-2.93-.72-6.35.25-7.8,3.13a406.44,406.44,0,0,1-25,42.63c-4.7,7-9.72,13.79-14.47,20.77a193.87,193.87,0,0,0-12.5,20.92,203.19,203.19,0,0,0-11.18,26.23,5.72,5.72,0,0,0-.3,1.87l-1.9,3.44-1.9,3.49.07-1.82A6.62,6.62,0,0,0,83,209.06c-.1-1.19-.19-2.37-.27-3.55a5.38,5.38,0,0,0,.42-2.66,202.67,202.67,0,0,1,.8-45,203,203,0,0,1,6.72-30.45,6.42,6.42,0,0,0,0-3.71,6.51,6.51,0,0,0,1.09-3.6,7.06,7.06,0,0,0-2-4.91,8.8,8.8,0,0,0-1.9-1.34l-.32.41a2.15,2.15,0,0,1-.6,2.15C74.65,126.55,69,132.58,59.52,145.18c-.16.2-3.73,7.52-3.92,7.68q-1.31,8.64-2.6,17.28-7.56,15.41-13.85,31.39c-2.44,6.19-5,12.58-7,19.1a42.23,42.23,0,0,0-7.62,22.91,47.61,47.61,0,0,0,8.12,27.69,59.12,59.12,0,0,0,10.83,12.31,7.46,7.46,0,0,0,4.92,2,7.32,7.32,0,0,0,3.17-.77c3.72-.29,7.45-.56,11.17-.8.56.07,1.12.13,1.67.21,5,.69,10.07,1.31,15.13,1.78q13.78,1.29,27.65,1.35a321.29,321.29,0,0,0,54.6-4.55c1-.08,2-.17,3-.29,3.36-.38,7.42-.55,10.47-2.21a8.82,8.82,0,0,0,1.46-1,10.22,10.22,0,0,0,4-3.64c1.62-2.51,1.83-5.5,2-8.41.07-1.9.24-3.8.47-5.7,2.88-19.4,12.48-37,16-56.25a79.39,79.39,0,0,0,1.45-16.2,15.86,15.86,0,0,0,3.5-2.16c.62-.41,1.22-.84,1.82-1.29a35.22,35.22,0,0,0,13-19.13,38.17,38.17,0,0,0,4.15-10.34A27.13,27.13,0,0,0,221.31,138.6Zm-62.67,98.31,0,0,.12,0-.12,0,.09-.15C159.17,236.47,159.19,236.73,158.64,236.91Z" transform="translate(0 0.59)"/><path class="cls-4" d="M192,162.21c-.65-10.12-1.3-20.25-2.34-30.34a1.69,1.69,0,0,1-.51-.64,117.22,117.22,0,0,1-7.39-22.51l-.25-.06.06-.87c-.35-1.72-.65-3.44-.89-5.18a2.76,2.76,0,0,1-1.25-1.45c-3-7.66-1-15.7-.65-23.61A16.68,16.68,0,0,0,177.23,75a10.61,10.61,0,0,0-2-2.12c-6,2.41-9.42,8.58-12.8,13.88a2.73,2.73,0,0,1-.36.45l-.21.69a1.8,1.8,0,0,1,0,.52c-.53,6.31-1,12.63-1,19a2.86,2.86,0,0,1-.14.82c0,.21,0,.42,0,.63a8.72,8.72,0,0,1,0,1.54,2.41,2.41,0,0,1,2.46,1.11,2.34,2.34,0,0,1-.6,3,7.27,7.27,0,0,0-2-.18,2.72,2.72,0,0,1-1.64,1.71,111.36,111.36,0,0,0-10.65,4.6c-2.86,1.56-5.74,3.43-7.34,6.35a12.54,12.54,0,0,0-1.27,6.84l.07.12a9.69,9.69,0,0,0,1.45,1.92A180.88,180.88,0,0,0,144,154.1a2.41,2.41,0,0,1,2.44,1.69A9.13,9.13,0,0,0,148,159a2.35,2.35,0,0,1,.22,3,2.33,2.33,0,0,1,2.25,1.14c.17.3.35.59.55.88.1.13.2.26.29.4l.06.07c.6.77,1.2,1.53,1.74,2.33a2.05,2.05,0,0,1,.24,1.73,2.54,2.54,0,0,1,.5,1.93,21.92,21.92,0,0,0,8.09,4.52l.18-.21a2.33,2.33,0,0,1,1.28-.64h0l.28-.13a4.09,4.09,0,0,1,1.65-.44,2,2,0,0,1,1.57.64,2.43,2.43,0,0,1,2.76-.32,23,23,0,0,1,5.42,3.75l.55.28c3,1.46,6.08,1,9-.47a13.72,13.72,0,0,0,6.42-7.36,4.41,4.41,0,0,0,.61-1.56l0-.19a33.23,33.23,0,0,0,1.09-4.48A2.6,2.6,0,0,1,192,162.21Z" transform="translate(0 0.59)"/><path class="cls-4" d="M151.83,95.42a4.24,4.24,0,0,0-1-1.45,11.39,11.39,0,0,1-4.16,0,20.13,20.13,0,0,1-2.33,0,2.38,2.38,0,0,1-2.3-2c-4.4-3.15-7.26-9.14-8-14.78a11.9,11.9,0,0,1,.47-9.65A17.66,17.66,0,0,1,140.79,61c1.19-1.78,2.37-3.59,3.62-5.33l0,0c.06-.33.11-.66.16-1a2.94,2.94,0,0,1,.05-.59q.09-.49.15-1,.1-.94.15-1.92a18.24,18.24,0,0,0-.3-3.76,2.73,2.73,0,0,1,0-1.14l-.09-.44a35.19,35.19,0,0,0-1.72-3.55,2.08,2.08,0,0,1-2-.63c-1-1.23-2.28-2.17-3.08-3.53a4.65,4.65,0,0,1-.41-.88,2.22,2.22,0,0,1-1.05-2.59,38,38,0,0,0,1.78-6.72,51.7,51.7,0,0,0-1.52-7.24,2.24,2.24,0,0,1-.82-.85c-1.07-1.85-2.12-3.73-3.25-5.57l-.18-.23c-.1-.16-.21-.31-.32-.47a2.65,2.65,0,0,1-1.95-.64,24.59,24.59,0,0,0-6.36-4.35c-3-1.17-6.17-1-9-2.67a2.23,2.23,0,0,1-.83-.81c-1.92-1.26-3.81-2.56-5.74-3.82a2,2,0,0,1-2.43.84A41.06,41.06,0,0,0,99.54.6a66.23,66.23,0,0,0-7.2,1.88A72.11,72.11,0,0,0,59.25,25.3a2,2,0,0,1-1.9.65A25.32,25.32,0,0,0,62.1,46.81a10,10,0,0,0,3.14,2.61A37.35,37.35,0,0,0,68,54.36a2.26,2.26,0,0,1,2.82.34c1.56,2,2.27,4.26,3.23,6.56a2,2,0,0,1-.42,2,39.91,39.91,0,0,0,4,8.45,111.77,111.77,0,0,0,5.95,15.19,5.35,5.35,0,0,0,1.15,1.48c.3.59.61,1.16.93,1.73a2,2,0,0,1,1.47.67c2.1,2.5,5.44,3.41,7.65,5.8a2.23,2.23,0,0,1,.61,1.84,8.7,8.7,0,0,1,2.11,5.26,2,2,0,0,1-1,1.91l-.06.12c-.9,1.45-1.78,2.3-2.64,3.69a2.33,2.33,0,0,1-2.34,1.1c-.47,1.15-.91,2.31-1.3,3.5a2.44,2.44,0,0,1,.91,2.42c-1.62,6.49-3.12,13-4.74,19.5a2.1,2.1,0,0,1-1,1.4,1.1,1.1,0,0,1,0,.18c-1,7.37-1.78,14.76-2.49,22.16q-.3,11.56-.26,23.13,0,8.5.25,17a7.35,7.35,0,0,0,3.7,6.18,119,119,0,0,1,6.22-12.16,180.75,180.75,0,0,1,12.68-18.59c.92-2.46,1.9-4.9,2.84-7.33a2.45,2.45,0,0,1,2.28-1.71A102,102,0,0,1,118,153.66a2.24,2.24,0,0,1,2-1c.2-.35.4-.71.61-1.06a2.15,2.15,0,0,1,1.08-1c.54-.73,1.1-1.45,1.68-2.17,1.27-2.28,2.54-4.57,3.91-6.8,1.91-3.09,3.93-6.12,6-9.13a2.11,2.11,0,0,1,.3-1.68c3.21-5.14,5.25-11,9-15.81a2.77,2.77,0,0,1,1.7-1.11q2-5,4-10a3.6,3.6,0,0,0,1.23-2,5.44,5.44,0,0,1,.15-.54c.15-.41.11-.35-.11.18,0-.21.36-.67.47-.85l.07-.11.08-.06c.28-.25.53-.51.83-.75A4,4,0,0,0,151.83,95.42Z" transform="translate(0 0.59)"/><path class="cls-5" d="M111,113.09a7,7,0,0,0-3.79,1.18,6.89,6.89,0,0,0-7.11,5,89.12,89.12,0,0,0-2.47,18.39,6.11,6.11,0,0,0,.23,1.87c0,.11,0,.23-.05.34L97.7,141a5.42,5.42,0,0,0,.55.59,2.28,2.28,0,0,1,.6,2.25,23.05,23.05,0,0,1-1.64,4.25,2,2,0,0,1-.79.82,136.11,136.11,0,0,1-4.07,16.77q-1,3.3-2.3,6.53c-.2.5-.4,1-.61,1.52v0l-.81,1.8a6.13,6.13,0,0,0-2.83,3.9q-.44,1.94-1,3.84a42.62,42.62,0,0,0-3,7.66A6.85,6.85,0,0,0,83,197q-.36,3.43-.57,6.87a7,7,0,0,0,4.36,6.46c1.13-4.23,3.43-8.06,5.52-11.89,2.44-4.49,4.6-9.13,7.24-13.51.39-.78.78-1.57,1.14-2.37a111.08,111.08,0,0,0,5.63-14.83,151.53,151.53,0,0,0,4.41-20.2,2.07,2.07,0,0,1-.93-1.83,57.69,57.69,0,0,1,2-11.16,2.21,2.21,0,0,1,.85-1.21c.24-1.19.49-2.39.74-3.58.37-4.92,1.59-9.72,2.57-14.56A6.73,6.73,0,0,0,111,113.09Z" transform="translate(0 0.59)"/><path class="cls-3" d="M138,30.78c-.26-2.34-.38-4.7-.71-7a2.76,2.76,0,0,1-1-1.31c-.62-1.59-1.23-3.18-1.81-4.78l-3.55-5.92A29.38,29.38,0,0,0,126,9.36c-2.74-1-5.66-1.38-8.4-2.34a31,31,0,0,1-6.56-3.67c-1.39-.42-2.78-.82-4.18-1.17a2.16,2.16,0,0,1-1.22-.07c-.66-.22-1.33-.42-2-.6-.86-.14-1.72-.24-2.59-.3A2.31,2.31,0,0,1,99.65.62Q98,.34,96.23.2a24.56,24.56,0,0,0-5.81,1c-.5,0-1,.09-1.5.16-5.79,3.22-11.58,6.46-17.25,9.89a1.93,1.93,0,0,1-.2.41C67.17,18.8,59.62,25.1,51.12,26.11c-.81,5.9.82,11.68,3.2,17.15a19.32,19.32,0,0,0,4.83,7.27,17.12,17.12,0,0,0,4.91,2.92,2.68,2.68,0,0,1-.75,1c.5.38,1,.75,1.53,1.1a12.34,12.34,0,0,0,5.87-1.1c.18-.08.36-.18.53-.27A7.59,7.59,0,0,0,73,53.57,30.14,30.14,0,0,1,79.1,42.78c.34-.39.7-.76,1.06-1.12a59.35,59.35,0,0,1,4.48-5.16A50,50,0,0,1,102,24.55a31.6,31.6,0,0,1,4.35-1.42,29.81,29.81,0,0,0,18.61,13,6.69,6.69,0,0,0,1.61.13q3.33,4.47,6.67,9L135.05,43c2.51-3.14-.57-8.85,2.17-11.38A8,8,0,0,0,138,30.78Z" transform="translate(0 0.59)"/><path class="cls-6" d="M108.19,22.6a7.77,7.77,0,0,0-6.43-3.36c-2.79-.11-5.4,1.06-7.84,2.28-.63.31-1.26.64-1.9.95-.3.14-.59.29-.89.42l-.46.21-.26.11c-.28.12.23-.09-.08,0a36.07,36.07,0,0,1-4,1.37c-.69.18-1.38.34-2.08.48l-1,.19-.49.08-.22,0h-.11a18.16,18.16,0,0,1-2.08.14c-.35,0-.7,0-1,0l-.43,0c-.37,0,.31.06-.06,0l-.32-.06a8.44,8.44,0,0,1-1.1-.28L77.07,25,77,25,77,25a2.22,2.22,0,0,0-.41-.19,6.48,6.48,0,0,1-.84-.51l-.15-.11c.17.14.19.15.07.06l-.07-.06a8.43,8.43,0,0,1-.7-.68l-.12-.14c-.21-.25,0,0,0,0a4.13,4.13,0,0,0-.29-.44c-.08-.13-.15-.25-.22-.39l-.07-.15c-.13-.26.11.3,0,0,0-.15-.1-.3-.14-.46s0-.28-.09-.42c.09.35,0,.19,0,.07s0-.21,0-.31a1.42,1.42,0,1,0-2.83,0,7.22,7.22,0,0,0,4.44,6.19c2.87,1.26,6,1,9,.43a34.2,34.2,0,0,0,8.46-2.81c1.26-.6,2.49-1.27,3.77-1.85.16-.07.33-.15.5-.21-.05,0-.28.11,0,0l.25-.1c.33-.13.67-.25,1-.36s.66-.2,1-.28.63-.1.93-.18c0,0-.37,0-.12,0l.25,0,.51,0c.31,0,.61,0,.91,0,.11,0,.64.09.18,0l.42.07a7.49,7.49,0,0,1,.9.24l.43.15c.18.07-.33-.15-.07,0l.22.1a7.68,7.68,0,0,1,.78.47c.09.06.11.15-.09-.07l.18.15a3.89,3.89,0,0,1,.36.34l.27.31c-.25-.27-.11-.14,0,0s.11.16.16.24a1.41,1.41,0,0,0,2.44-1.42Z" transform="translate(0 0.59)"/><path d="M83.23,35.53a22.49,22.49,0,0,1-4.52,1.39l-.54.09h-.06l-.27,0c-.4,0-.79.07-1.19.09s-.76,0-1.14,0a4.89,4.89,0,0,1-.54,0l-.27,0c-.09,0-.5,0-.11,0a5.46,5.46,0,0,1-1.07-.2c-.34-.08-.67-.17-1-.28l-.46-.17c-.18-.08-.07-.13.06,0a1.12,1.12,0,0,0-.25-.11c-.29-.14-.58-.29-.86-.45a8.6,8.6,0,0,1-.74-.49l-.22-.15c-.15-.11,0,0,.08.06,0-.11-.32-.26-.41-.34s-.45-.42-.66-.64l-.3-.33-.14-.17-.1-.13.08.11a9.9,9.9,0,0,1-.56-.87c-.09-.15-.17-.3-.25-.45l-.09-.2c0-.05,0-.1-.07-.16.08.2.1.24.06.14a8,8,0,0,1-.31-1c0-.17-.07-.34-.1-.51s0-.23,0,.08a2.09,2.09,0,0,0,0-.35,1.41,1.41,0,1,0-2.82,0A10,10,0,0,0,69,38a13.46,13.46,0,0,0,9.38,1.85A22.1,22.1,0,0,0,84,38.25a1.51,1.51,0,0,0,.84-.65A1.41,1.41,0,0,0,85,36.52a1.43,1.43,0,0,0-1.74-1Z" transform="translate(0 0.59)"/><path d="M70.88,52.66a6.94,6.94,0,0,1-.71.38l-.17.08c-.18.09.25-.09.07,0l-.4.15a7.59,7.59,0,0,1-.78.22l-.38.08s-.22.05-.23,0,.35,0,0,0a8.77,8.77,0,0,1-1.62,0l-.19,0h.09l-.43-.08a6.36,6.36,0,0,1-.83-.22c-.12,0-.24-.08-.36-.12a1.22,1.22,0,0,0-.17-.07l.07,0c-.26-.13-.51-.25-.76-.4s-.4-.29-.61-.41c.32.18,0,0-.07-.06l-.34-.31a6.26,6.26,0,0,1-.5-.53s-.25-.24-.24-.28.18.24.06.07L62.26,51a12.45,12.45,0,0,1-.76-1.36s.12.29,0,.08a2.6,2.6,0,0,1-.1-.25c0-.15-.1-.29-.14-.44a7.19,7.19,0,0,1-.2-.8c0-.07,0-.15,0-.22,0-.23,0-.07,0,.06,0-.15,0-.31,0-.46a6.91,6.91,0,0,1,0-.91,1.44,1.44,0,0,0-1.42-1.42,1.46,1.46,0,0,0-1.41,1.42,9.46,9.46,0,0,0,2.64,7A9.15,9.15,0,0,0,68,56.42a9.46,9.46,0,0,0,4.32-1.33,1.41,1.41,0,0,0-1.43-2.43Z" transform="translate(0 0.59)"/><path d="M95.59,101.26c.28.48.55,1,.8,1.47l.36.76.15.34c0,.06,0,.12.08.19s-.11-.27,0,0a26.39,26.39,0,0,1,1.07,3.18c.14.54.27,1.08.38,1.63,0,.26.09.52.14.78l.06.41a.88.88,0,0,1,0,.16c.06.36,0-.34,0,0a26.66,26.66,0,0,1,.2,3.35c0,.61,0,1.22-.08,1.83l-.09.94,0,.21c0,.19,0-.31,0,0s0,.35-.07.52a1.58,1.58,0,0,0,.14,1.13,1.52,1.52,0,0,0,.88.67,1.48,1.48,0,0,0,1.8-1,27.09,27.09,0,0,0-1.47-14.23,27.56,27.56,0,0,0-1.83-3.79,1.46,1.46,0,1,0-2.52,1.48Z" transform="translate(0 0.59)"/><path d="M103.36,117.58l.25-.21c.27-.22-.18.13,0,0l.53-.39c.37-.24.74-.47,1.13-.68s.79-.38,1.19-.58l-.1,0,.13,0,.31-.12.63-.21c.43-.14.86-.25,1.29-.35l.66-.13.28,0,.19,0c.21,0-.06,0-.12,0a3.05,3.05,0,0,0,.67-.07l.67,0c.44,0,.89,0,1.34,0l.76.07h.14c.24,0,.06,0-.07,0,.12,0,.25,0,.38.06a15.09,15.09,0,0,1,1.48.34l-1.1-1.45c0,.4,0-.33,0,.06,0,.12,0,.24,0,.35s0,.39-.08.58c-.06.46-.13.93-.2,1.39-.14.88-.28,1.77-.43,2.65-.3,1.73-.63,3.46-1,5.17q-1.1,5.22-2.59,10.34c-.56,1.91-1.16,3.82-1.79,5.71l1.45-1.11-7.12.87c-.59.07-1.17.16-1.76.22-.26,0-.51,0-.77,0s.28.08.09,0l-.16,0c-.27-.06.06,0,.09.05a.39.39,0,0,0-.14-.08c-.19-.09.1.07.12.1a1.09,1.09,0,0,0-.11-.1.6.6,0,0,0-.08-.08c-.13-.11.17.28.1.13a1.71,1.71,0,0,0-.13-.23c-.06-.11,0-.19.06.15,0,0,0-.1,0-.14a5.36,5.36,0,0,1-.14-.54c0-.24,0,.14,0,.16a1,1,0,0,0,0-.17c0-.1,0-.21,0-.32a31.79,31.79,0,0,1,.11-3.24c.07-1.13.17-2.26.29-3.39,0-.27.07-.54.1-.81s0-.26.05-.4,0,0,0,.06,0-.19,0-.29c.08-.55.17-1.1.26-1.65.19-1.14.41-2.28.66-3.4a66.77,66.77,0,0,1,2.1-7.47,1.52,1.52,0,0,0-1-1.85,1.55,1.55,0,0,0-1.86,1.05,69.38,69.38,0,0,0-3.24,14.3c-.14,1.18-.25,2.37-.33,3.56s-.16,2.28-.14,3.41a4.91,4.91,0,0,0,1,3.18,3.11,3.11,0,0,0,1.57.94,5.88,5.88,0,0,0,2,0l8.37-1a1.59,1.59,0,0,0,1.45-1.1,143,143,0,0,0,5.3-20.76c.36-2.09.68-4.18,1-6.29a1.37,1.37,0,0,0-.32-.91,1.47,1.47,0,0,0-.79-.54,16.34,16.34,0,0,0-11.86,1.24,15.08,15.08,0,0,0-2.84,1.92,1.52,1.52,0,0,0,0,2.13,1.55,1.55,0,0,0,2.13,0Z" transform="translate(0 0.59)"/><path d="M107.6,142.69c-.31,3.71-.72,7.41-1.2,11.1,0,.12,0,.24-.05.36s-.06.47,0,.08c0,.24-.06.48-.1.71-.06.48-.13,1-.2,1.44-.13.91-.26,1.83-.4,2.74-.28,1.84-.58,3.67-.88,5.5q-.54,3.18-1.13,6.34a1.51,1.51,0,0,0,2.91.8c1.38-7.54,2.6-15.12,3.45-22.74.24-2.11.44-4.22.62-6.33a1.52,1.52,0,0,0-1.51-1.51,1.54,1.54,0,0,0-1.5,1.51Z" transform="translate(0 0.59)"/><path d="M98.89,140.69c-2.57,6.22-5.1,12.46-7.42,18.78s-4.66,12.95-6.9,19.45q-1.91,5.47-3.76,11a1.51,1.51,0,0,0,1,1.85,1.54,1.54,0,0,0,1.85-1.05q3.33-9.8,6.75-19.55c2.28-6.45,4.62-12.88,7.13-19.24q2.05-5.22,4.21-10.41a1.52,1.52,0,0,0-.15-1.16,1.58,1.58,0,0,0-.9-.69,1.51,1.51,0,0,0-1.16.15,1.78,1.78,0,0,0-.7.9Z" transform="translate(0 0.59)"/><path d="M100.26,106.51,97,105.29a4.33,4.33,0,0,0-1.86-.43,2.37,2.37,0,0,0-2,1.32,15.39,15.39,0,0,0-.64,1.76c-.19.56-.38,1.11-.56,1.67L90.84,113,86.32,126.4Q85,130.21,83.76,134a1.51,1.51,0,0,0,2.75,1.16c.23-.36.48-.72.73-1.07l.35-.48.09-.12-.08.11.22-.27q.8-1,1.68-1.92c.6-.62,1.22-1.21,1.87-1.76.32-.28.64-.55,1-.81s-.24.19.06,0l.24-.18.54-.39a29.1,29.1,0,0,1,2.49-1.58,1.51,1.51,0,1,0-1.52-2.6,29.23,29.23,0,0,0-8.3,7,30.83,30.83,0,0,0-1.94,2.64l2.75,1.16L91,121.9,95.35,109l.3-.87c0-.14.09-.29.14-.44l0-.12c.09-.27-.13.21,0,.09a1.09,1.09,0,0,1,.06-.11c-.15.17-.18.22-.11.14s0,0-.05,0a1.22,1.22,0,0,1-.28.14l-.2,0c.13,0,.13,0,0,0s.13.05.2.07.28.1.42.15l3.61,1.34a1.5,1.5,0,0,0,1.85-1,1.54,1.54,0,0,0-1-1.85Z" transform="translate(0 0.59)"/><path d="M93.47,120.43a56.23,56.23,0,0,0,2.85,10.5,1.57,1.57,0,0,0,.67.87,1.49,1.49,0,0,0,1.13.15,1.47,1.47,0,0,0,1-1.8,55.44,55.44,0,0,1-2.84-10.5,1.46,1.46,0,0,0-1.8-1,1.51,1.51,0,0,0-1,1.8Z" transform="translate(0 0.59)"/><path d="M168.55,111.23l-14.24,5.63-7.12,2.81c-1.22.48-2.45.94-3.65,1.46a7.24,7.24,0,0,0-2.82,1.92c-1.59,1.93-1.77,4.57-1.79,7a25.75,25.75,0,0,0,1,7.46,6,6,0,0,0,1.78,3,5.55,5.55,0,0,0,3.24,1.24,13.58,13.58,0,0,0,6.16-1.58l14-6.14,1.73-.76a1.49,1.49,0,0,0,.69-.9,1.5,1.5,0,0,0-1.05-1.85,1.79,1.79,0,0,0-1.16.15l-13.46,5.9-1.67.73-.78.35-.39.16s-.19.09,0,0l-.07,0a15.23,15.23,0,0,1-2.64.82l-.36.06h0c-.23,0-.46,0-.7,0H145c-.07,0-.4,0-.13,0s-.07,0-.13,0l-.36-.09a.86.86,0,0,0-.27-.09s.35.16.14.05l-.15-.07a2,2,0,0,1-.25-.14l-.1-.07c-.25-.16.19.17.07.06l-.23-.21c-.1-.1-.28-.4-.09-.07-.12-.2-.26-.39-.37-.61l-.09-.17.06.13c0-.12-.1-.24-.14-.36s-.16-.49-.22-.74c-.15-.56-.27-1.12-.38-1.68-.05-.27-.09-.54-.14-.81a3.65,3.65,0,0,1-.07-.46s0,.28,0,.11l0-.29c-.07-.59-.12-1.17-.14-1.75a24.18,24.18,0,0,1,.08-3.51c0-.13,0-.26,0-.39s0-.09,0-.14c0-.2,0,.31,0,.11s.08-.51.14-.77.11-.43.18-.65l.12-.32c.09-.26,0,.1,0,.1a2.35,2.35,0,0,0,.1-.22c.1-.2.23-.38.35-.57s-.19.22-.06.07L143,125a3.57,3.57,0,0,1,.28-.27l.15-.13c.12-.11-.1.08-.11.08a3.29,3.29,0,0,0,.33-.23,7,7,0,0,1,.66-.37c.22-.12.47-.2.69-.32l-.08,0,.15-.06.42-.17,1.7-.67L154,120.2l13.67-5.4,1.7-.67a1.71,1.71,0,0,0,.9-.69,1.51,1.51,0,0,0-1.7-2.21Z" transform="translate(0 0.59)"/><path d="M141.29,141.65a38.44,38.44,0,0,0,.33,7.73c.31,2.15.82,4.47,2.64,5.87,2,1.53,4.54,1.29,6.82.73s4.84-1.3,7.25-2l8.3-2.26a1.5,1.5,0,1,0-.8-2.9l-14.15,3.85-1.54.41-.74.16-.34.06-.2,0c-.2,0,0,0,.11,0-.49,0-1,.08-1.46,0h-.07a1.65,1.65,0,0,0-.32-.06l-.32-.08-.17-.06c-.26-.08.22.11.05,0a6.38,6.38,0,0,1-.57-.32c-.05,0-.21-.16,0,0s0,0,0,0a3.83,3.83,0,0,1-.29-.28c-.07-.07-.13-.16-.2-.23.3.3,0,.06,0,0a4.59,4.59,0,0,1-.32-.57c0-.06-.05-.11-.08-.16s.07.16.07.15l-.13-.33q-.12-.35-.21-.69c-.11-.44-.2-.89-.27-1.34a5.92,5.92,0,0,1-.14-.94c0,.32,0,.14,0,0l0-.3-.06-.53c-.07-.64-.12-1.29-.15-1.94a34.88,34.88,0,0,1,0-4.09,1.51,1.51,0,0,0-1.51-1.5,1.54,1.54,0,0,0-1.5,1.5Z" transform="translate(0 0.59)"/><path d="M144.77,155.19c.75,2.27,1.45,4.57,2.27,6.81a5.89,5.89,0,0,0,2.1,3,5.6,5.6,0,0,0,3.12.85,15.3,15.3,0,0,0,3.16-.42c1.14-.25,2.27-.53,3.39-.85a59.27,59.27,0,0,0,6.7-2.38l1.74-.77.37-.17-.07,0,.24-.1q.42-.17.84-.3a7.94,7.94,0,0,1,.8-.22l.2,0c.06,0,.35-.06.1,0s0,0,0,0l.24,0h.44c.05,0,.21,0,0,0s0,0,.09,0l.37.1c.27.08-.1,0-.09-.05l.26.14a1.51,1.51,0,1,0,1.52-2.6c-2.24-1.23-4.68-.34-6.82.62l-1.53.68s-.21.09,0,0,0,0-.08,0l-.37.15-.79.31c-1.05.41-2.11.79-3.18,1.13a43.3,43.3,0,0,1-6.34,1.61,1.25,1.25,0,0,0-.19,0s.38-.05.12,0l-.33,0c-.23,0-.47,0-.7,0s-.43,0-.64,0,.34.06,0,0a2.74,2.74,0,0,1-.39-.09l-.29-.1c-.15,0,.16.08.16.07l-.16-.08a1.35,1.35,0,0,1-.26-.15s-.07-.06-.11-.07c.29.14.17.13.06,0a2.72,2.72,0,0,1-.24-.24c-.17-.17,0,.05.06.09a.94.94,0,0,0-.09-.12,4.8,4.8,0,0,1-.37-.67.75.75,0,0,0-.06-.13c.19.33.07.15,0,0s-.09-.24-.13-.36c-.11-.29-.2-.58-.3-.87l-.63-1.9c-.42-1.29-.85-2.57-1.28-3.86a1.5,1.5,0,0,0-2.9.8Z" transform="translate(0 0.59)"/><path d="M152.24,166.07a15.56,15.56,0,0,0,1.64,4.64c.78,1.49,1.39,3.23,2.63,4.41a4.54,4.54,0,0,0,2.86,1.28,11.18,11.18,0,0,0,3.19-.5l3.17-.76.61-.14.21,0c-.25,0,.2,0,.25,0l.44,0,.33,0h.18c.2,0-.32-.06-.13,0s.46.09.69.16l.33.11c.24.08.22,0,0,0a2.15,2.15,0,0,1,.66.33c.19.11.37.23.55.35l.29.21c.32.23-.16-.14.09.06s.71.61,1.06.94a23.74,23.74,0,0,0,4.7,4c4.84,2.61,10.46-.46,13.16-4.7,2.88-4.51,3.45-10.27,3.65-15.49.09-2.33.07-4.67.07-7a110.33,110.33,0,0,0-.53-11.64,83.93,83.93,0,0,0-5.92-23.91c-1.57-3.73-3.45-7.33-4.8-11.13a31.45,31.45,0,0,1-1.5-6,41.92,41.92,0,0,1-.34-6c0-4.23.38-8.47.17-12.71-.17-3.4-.48-8.22-4.39-9.44A6.22,6.22,0,0,0,170,74.43a20.29,20.29,0,0,0-3.76,4.19,39.35,39.35,0,0,0-6.79,30.25,36.09,36.09,0,0,0,1.3,4.9,1.53,1.53,0,0,0,1.85,1,1.51,1.51,0,0,0,1.05-1.85,34.55,34.55,0,0,1-1.28-4.82,31,31,0,0,1-.55-4.7,36,36,0,0,1,.1-5c.07-.88.16-1.56.27-2.27s.28-1.62.46-2.41a36.29,36.29,0,0,1,6-13.45,17.74,17.74,0,0,1,3.11-3.53,4.37,4.37,0,0,1,2.1-1c.18,0,0,0,0,0h.32s.3,0,.07,0a3,3,0,0,1,.32.06l.24.08c.26.08-.16-.1.05,0l.19.1s.32.22.19.12.08.07.11.1a.93.93,0,0,1,.14.14,1.8,1.8,0,0,1,.19.2c-.17-.19,0,0,0,0s.17.27.25.41.09.17.13.25.14.34,0,.1a10,10,0,0,1,.53,2.09c0,.27,0,.14,0,.08,0,.13,0,.26.05.4s.05.46.07.69q.08.8.12,1.59c.05,1,.07,2,.07,3,0,2-.08,4.07-.15,6.11a52.39,52.39,0,0,0,.66,12.32,51.83,51.83,0,0,0,4,11.08,95.4,95.4,0,0,1,4.31,10.71A84.23,84.23,0,0,1,188.63,137a119.39,119.39,0,0,1,1.24,20c0,2.46-.06,4.92-.29,7.36,0,.32-.06.63-.1.95,0,.14,0,.29,0,.44l0,.25c0,.29,0-.15,0,0-.1.62-.19,1.24-.31,1.86a26.88,26.88,0,0,1-.94,3.63c-.09.28-.2.56-.31.84l-.15.38c.14-.35-.07.16-.11.23a13.87,13.87,0,0,1-.8,1.53c-.14.24-.29.48-.45.71s-.15.22-.23.32-.18.24-.05.07-.06.08-.09.11a10.88,10.88,0,0,1-1.14,1.21l-.33.29-.13.11c-.15.14.21-.15,0,0s-.48.34-.74.5-.49.29-.74.42l-.37.18-.15.07c.31-.15,0,0,0,0a12,12,0,0,1-1.84.52c-.27.06.27,0-.09,0-.12,0-.24,0-.37,0s-.53,0-.8,0,.13,0-.08,0l-.32-.06a5.75,5.75,0,0,1-.71-.2l-.3-.11c.43.14.05,0,0,0s-.43-.22-.64-.34l-.53-.35-.26-.19c-.16-.11.24.19.09.07l-.18-.15c-.36-.29-.71-.6-1-.92a24.79,24.79,0,0,0-4.45-3.8,7.61,7.61,0,0,0-3.18-1,14.07,14.07,0,0,0-4.26.69c-1,.24-2,.51-3,.71a2.67,2.67,0,0,1-1,0,1.19,1.19,0,0,1-.61-.33,5.4,5.4,0,0,1-1.11-1.66c-.35-.73-.72-1.46-1.1-2.18-.16-.31-.31-.61-.46-.92l-.19-.42c.12.29-.08-.2-.1-.26a12.61,12.61,0,0,1-.58-2.33,1.52,1.52,0,0,0-1.85-1.05,1.55,1.55,0,0,0-1.06,1.85Z" transform="translate(0 0.59)"/><path class="cls-6" d="M179.28,101.4a29.26,29.26,0,0,1,3.2,1.86c.49.33,1,.67,1.46,1l.33.25c.06,0,.4.31.19.14l.69.55a63.86,63.86,0,0,1,5.32,5c1.69,1.72,3.34,3.49,5,5.22s3.52,3.44,5.34,5.11a134.58,134.58,0,0,1,10.93,10.7c.41.47.82,1,1.21,1.43l.59.73.13.17.06.08.06.08a3.15,3.15,0,0,1,.22.29c.76,1,1.47,2,2.14,3.1s1.21,2,1.74,3.09c.25.5.48,1,.7,1.5l.08.18c.09.21-.09-.22,0,0l.15.35c.11.28.22.55.32.83a33.78,33.78,0,0,1,1.69,6.35l.12.8c0,.18,0-.07,0-.09s0,.12,0,.19,0,.28.05.43c.07.56.11,1.11.15,1.67a31.84,31.84,0,0,1,.05,3.24c0,1.1-.12,2.19-.25,3.29,0,.13-.05.36,0,.09,0,.15,0,.29-.07.43s-.08.54-.13.81c-.09.55-.21,1.1-.33,1.65-.24,1.06-.52,2.12-.86,3.15-.17.54-.36,1.08-.56,1.61-.09.24-.18.48-.28.71a3.65,3.65,0,0,1-.14.35h0c0,.07-.06.15-.1.23a37.23,37.23,0,0,1-3.23,5.91c-.33.48-.67,1-1,1.43l-.24.32c-.17.22.09-.12-.09.11l-.58.72q-1.11,1.34-2.34,2.58c-.78.78-1.59,1.52-2.44,2.23l-.63.53-.3.24-.15.12c-.19.14.27-.21-.05,0s-.88.66-1.34,1a36,36,0,0,1-5.76,3.28l-.75.33-.1,0L199,187c-.51.2-1,.39-1.53.56-1,.35-2.07.64-3.12.89-.54.12-1.09.23-1.64.33l-.73.12-.15,0-.43,0a27.6,27.6,0,0,1-3.27.2,26.56,26.56,0,0,1-3.21-.17l-.43,0h.09l-.18,0-.86-.14c-.54-.1-1.07-.21-1.59-.34a27.73,27.73,0,0,1-3.21-1l-.71-.29-.18-.08-.41-.18c-.52-.24-1-.5-1.53-.77a26.93,26.93,0,0,1-3-1.87,1.52,1.52,0,0,0-2.06.54,1.54,1.54,0,0,0,.54,2.06,28.59,28.59,0,0,0,13.32,5.12,31,31,0,0,0,13.47-1.51,38.76,38.76,0,0,0,21.26-17.72,37.47,37.47,0,0,0,4.42-13.24,36,36,0,0,0-.75-13.71,37.28,37.28,0,0,0-6.26-13,84.26,84.26,0,0,0-10.83-11.59c-1.89-1.75-3.82-3.46-5.69-5.22s-3.52-3.52-5.24-5.32a66.5,66.5,0,0,0-11.13-10,32.9,32.9,0,0,0-3.2-1.86,1.51,1.51,0,0,0-1.52,2.6Z" transform="translate(0 0.59)"/><path class="cls-6" d="M200.11,199.86q-2.36,7.88-4.7,15.75t-4.67,15.68q-2.36,7.88-4.7,15.75c-1.54,5.15-3.12,10.29-4.52,15.48a112.76,112.76,0,0,0-3.21,15.73c-.08.67-.15,1.33-.21,2a1.5,1.5,0,0,0,1.5,1.5,1.55,1.55,0,0,0,1.51-1.5c.06-.67.13-1.33.21-2l.06-.45c0-.07.06-.44,0-.22l.15-1q.28-1.93.66-3.87c.5-2.6,1.11-5.18,1.77-7.75,1.34-5.16,2.92-10.26,4.44-15.37l4.67-15.68q2.34-7.83,4.67-15.67t4.66-15.61c.19-.66.39-1.32.59-2a1.5,1.5,0,1,0-2.9-.8Z" transform="translate(0 0.59)"/><path d="M153.13,94.65c-4.9,7.45-9.55,15.06-14.21,22.67-5.06,8.27-10.08,16.57-15.21,24.8s-10.49,16.17-15.65,24.31a273.9,273.9,0,0,0-16.28,28.75,132.09,132.09,0,0,0-10.63,30.75c-.27,1.32-.5,2.63-.71,4a1.5,1.5,0,1,0,2.9.8A122.14,122.14,0,0,1,92.83,200a244.74,244.74,0,0,1,15.77-28.82c5.23-8.39,10.79-16.57,16.05-24.94,5.09-8.09,10-16.26,15-24.41,4.77-7.81,9.53-15.62,14.49-23.3.52-.8,1-1.61,1.57-2.4,1.06-1.63-1.54-3.14-2.6-1.52Z" transform="translate(0 0.59)"/><path d="M128.63,161.4a79,79,0,0,0,6.91,9.46c.71.85,1.45,1.67,2.2,2.48a1.5,1.5,0,0,0,2.12,0,1.53,1.53,0,0,0,0-2.12c-1.28-1.39-2.51-2.83-3.69-4.3-.14-.18-.28-.35-.41-.53l-.21-.26c-.1-.14.06.07.06.08a1.18,1.18,0,0,1-.13-.18c-.3-.38-.59-.77-.87-1.16-.56-.75-1.09-1.51-1.62-2.28s-1.19-1.79-1.76-2.71a1.51,1.51,0,1,0-2.6,1.52Z" transform="translate(0 0.59)"/><path d="M131.22,177.58q-4.51,4.15-9,8.38t-8.84,8.58q-4.35,4.29-8.63,8.68T96.34,212q-4.22,4.47-8.34,9l-1,1.12a1.51,1.51,0,1,0,2.13,2.13q4.1-4.53,8.28-9t8.48-8.88q4.27-4.4,8.61-8.7t8.78-8.55c3-2.84,6-5.66,9-8.44l1.12-1a1.52,1.52,0,0,0,0-2.13,1.54,1.54,0,0,0-2.13,0Z" transform="translate(0 0.59)"/><path d="M137.06,163.19l6.69-2.09a1.53,1.53,0,0,0,1.05-1.85A1.51,1.51,0,0,0,143,158.2l-6.69,2.08a1.51,1.51,0,0,0,.8,2.91Z" transform="translate(0 0.59)"/><path d="M84.94,138.6q-1.31,7.52-2.19,15.11t-1.33,14.95q-.47,7.49-.51,15t.32,15q.38,7.5,1.16,15c.06.62.13,1.24.2,1.86a1.54,1.54,0,0,0,1.5,1.5,1.52,1.52,0,0,0,1.51-1.5q-.82-7.43-1.25-14.88t-.43-14.92q0-7.5.39-15c.27-5,.68-9.94,1.22-14.88.13-1.24.28-2.48.43-3.71.07-.62.15-1.24.23-1.85l.12-.89c0,.24,0-.12,0-.2s0-.34.07-.51q.51-3.7,1.12-7.39c.1-.62.21-1.23.31-1.84a1.5,1.5,0,1,0-2.9-.8Z" transform="translate(0 0.59)"/><path d="M85.78,114.5q-5,5.53-10.19,11T65.15,136.12q-3,3-6,5.91a1.51,1.51,0,0,0,0,2.12,1.53,1.53,0,0,0,2.13,0q5.39-5.21,10.64-10.55t10.32-10.77c1.91-2.06,3.81-4.12,5.69-6.2a1.53,1.53,0,0,0,0-2.13,1.51,1.51,0,0,0-2.12,0Z" transform="translate(0 0.59)"/><path d="M69.48,152.72q.26,7.22.69,14.42t1.09,14.4q.38,4,.79,8.09a1.62,1.62,0,0,0,.45,1.06,1.5,1.5,0,0,0,2.56-1.06q-.75-7.19-1.31-14.38t-.92-14.41c-.13-2.71-.24-5.41-.34-8.12a1.53,1.53,0,0,0-1.5-1.51,1.54,1.54,0,0,0-1.51,1.51Z" transform="translate(0 0.59)"/><path d="M70.43,153.9l8.79-8a1.51,1.51,0,0,0,0-2.13,1.54,1.54,0,0,0-2.13,0l-8.79,8a1.52,1.52,0,0,0,0,2.13,1.54,1.54,0,0,0,2.13,0Z" transform="translate(0 0.59)"/><path d="M71.64,135.33v5.27a1.51,1.51,0,0,0,3,0v-5.27a1.51,1.51,0,1,0-3,0Z" transform="translate(0 0.59)"/><path class="cls-6" d="M79.3,231.35q-1.1,7.49-2.5,14.91t-3.13,14.8c-.65,2.76-1.32,5.51-2,8.25a1.51,1.51,0,0,0,2.91.8q1.89-7.32,3.48-14.73t2.86-14.85c.47-2.78.92-5.58,1.32-8.38a1.62,1.62,0,0,0-.15-1.16,1.51,1.51,0,0,0-2.75.36Z" transform="translate(0 0.59)"/><path d="M58.07,144.87q-3.87,14.72-9,29.06Q44,188.09,37.77,201.77q-3.15,6.84-6.59,13.55c-2.26,4.4-4.7,8.72-6.62,13.28a34.91,34.91,0,0,0-3.06,14.51,51.37,51.37,0,0,0,3.29,15.21c2.78,8,6.36,16.46,13.3,21.75a21.59,21.59,0,0,0,2.5,1.65c1.78,1,3.39-1.74,1.61-2.75-7.05-4-10.82-11.89-13.52-19.22a60.27,60.27,0,0,1-3.81-14.11,27.45,27.45,0,0,1,.09-7.3,35,35,0,0,1,1.88-6.89A115.94,115.94,0,0,1,33,218.71q3.45-6.63,6.61-13.41Q46,191.76,51.11,177.71t9.06-28.34c.33-1.22.66-2.43,1-3.65.52-2-2.56-2.83-3.08-.85Z" transform="translate(0 0.59)"/><path d="M58.46,176.06q-1.51,9.69-2.55,19.47t-1.52,19.36q-.53,9.74-.53,19.5t.47,19.41q.49,9.7,1.48,19.36c.08.81.16,1.61.25,2.42a1.53,1.53,0,0,0,1.5,1.5,1.51,1.51,0,0,0,1.51-1.5,376.91,376.91,0,0,1-.42-77.35c.7-7.18,1.6-14.26,2.71-21.37a1.56,1.56,0,0,0-1-1.86,1.52,1.52,0,0,0-1.85,1.06Z" transform="translate(0 0.59)"/><path d="M70.07,55.83c1,3.92,2,7.84,3.16,11.71a92.63,92.63,0,0,0,4.23,11.54A50.35,50.35,0,0,0,83.21,89a39,39,0,0,0,7.94,7.93,26.23,26.23,0,0,0,9.29,4.47,20.62,20.62,0,0,0,10.38-.12,25,25,0,0,0,9.24-5,35,35,0,0,0,7-8,60.92,60.92,0,0,0,5.33-10.69,76.79,76.79,0,0,0,3.47-11.52c.2-.94.39-1.89.56-2.84a1.54,1.54,0,0,0-1-1.84,1.51,1.51,0,0,0-1.84,1,77,77,0,0,1-2.94,11.38c-.32.93-.66,1.85-1,2.77q-.27.7-.57,1.41a1.17,1.17,0,0,1-.12.31s.1-.26,0-.1l-.07.15-.31.72q-1.16,2.63-2.55,5.13a42.08,42.08,0,0,1-2.9,4.54l-.36.48.09-.11a1.58,1.58,0,0,0-.12.15l-.22.27c-.26.33-.54.66-.81,1-.55.64-1.13,1.26-1.73,1.86s-1.23,1.17-1.89,1.72l-.44.36-.23.18.08-.06-.15.12-1,.72c-.68.46-1.37.89-2.09,1.28-.35.19-.71.38-1.08.55l-.55.25-.25.12c-.16.06.15-.07.14-.07l-.17.08a20.69,20.69,0,0,1-4.7,1.27l.17,0-.14,0-.28,0-.66.06c-.41,0-.82,0-1.22,0a21.14,21.14,0,0,1-2.39-.14c-.37,0,.26,0,0,0l-.27,0-.63-.11c-.39-.08-.78-.16-1.17-.26a20.32,20.32,0,0,1-2.29-.73l-.53-.2L98,97.47l-.17-.07-1.11-.52c-.74-.38-1.46-.78-2.16-1.22s-1.44-.94-2.13-1.46L92.23,94l.11.08L92.22,94l-.54-.43c-.33-.27-.66-.55-1-.84A37.64,37.64,0,0,1,87,89q-.42-.49-.84-1L86,87.72l-.09-.12.08.1c-.14-.19-.29-.37-.43-.57C85,86.42,84.49,85.7,84,85a52.47,52.47,0,0,1-2.84-5c-.43-.86-.85-1.74-1.24-2.63-.1-.22-.2-.44-.29-.66s-.09-.21-.14-.31-.08-.21,0,0,0,0,0-.08c-.19-.45-.37-.9-.55-1.35-.73-1.84-1.39-3.7-2-5.59-1.22-3.77-2.25-7.6-3.23-11.45L73,55a1.5,1.5,0,0,0-1.84-1,1.54,1.54,0,0,0-1.05,1.84Z" transform="translate(0 0.59)"/><path d="M131.45,76.13c.23,1.72.48,3.44.86,5.14a48.47,48.47,0,0,0,1.43,5,1.46,1.46,0,1,0,2.82-.78,51.1,51.1,0,0,1-1.43-5c-.38-1.69-.63-3.42-.86-5.14a1.47,1.47,0,0,0-1.8-1,1.45,1.45,0,0,0-.88.67,1.76,1.76,0,0,0-.14,1.13Z" transform="translate(0 0.59)"/><path d="M115.54,109.75c3.76-1.25,6.67-4.25,9.18-7.21,1.21-1.43,2.36-2.91,3.54-4.37,1.56-1.91,3.13-3.81,4.69-5.71l5.41-6.59h-2.07c.73.82,1.43,1.67,2.11,2.54l.06.07c-.12-.14,0,0,0,0l.27.36.5.67c.33.45.65.91,1,1.37s.6.9.89,1.36c.14.22.28.44.41.66l.22.38a1.11,1.11,0,0,1,.2.39s-.09-.26,0-.1.05.13.07.2a.94.94,0,0,0,0,.16c.08.29,0-.08,0-.08s0,.29,0,.38.07-.26,0-.07,0,.18-.07.26,0,.11-.05.16,0-.11,0-.1a1.81,1.81,0,0,1-.19.4c-.13.25-.27.49-.4.73q-3.2,5.83-6.81,11.42t-7.64,10.87l-.48.63-.24.31-.14.18c.07-.09.13-.17,0,0l-1,1.32c-.68.87-1.38,1.73-2.08,2.58-.34.42-.67.85-1,1.24l-.23.24s.31-.19.07-.06l-.12.07c-.16.1.28-.11.1,0s.18,0,.17,0c-.17,0,0-.08.17,0a.42.42,0,0,0-.15,0c.17,0,.3.13.15,0s0-.08.11.09a1.21,1.21,0,0,0-.2-.19c-.1-.09.1.13.1.13a1,1,0,0,0-.09-.13c-.06-.1-.12-.2-.17-.3l-.14-.27c-.08-.16.12.3,0,.13a.88.88,0,0,0,0-.15c-.12-.29-.23-.58-.35-.88a133.91,133.91,0,0,1-4.3-13.16c-.16-.57-.31-1.13-.45-1.7a1.47,1.47,0,0,0-1.8-1,5.16,5.16,0,0,0-3.53,3.77,1.47,1.47,0,0,0,2.83.78,3,3,0,0,1,.11-.43s.11-.3,0-.08,0,0,0-.06a2.88,2.88,0,0,1,.22-.38l0-.07c-.14.2,0,0,0,0s.21-.21.32-.31,0,0-.09.06A1.27,1.27,0,0,0,115,110c.12-.08.25-.15.38-.22s0,0-.07,0,.21-.07.26-.08l-1.81-1a136.91,136.91,0,0,0,4.38,13.87l.66,1.7a7.05,7.05,0,0,0,.72,1.52,3.19,3.19,0,0,0,1.6,1.32,2.55,2.55,0,0,0,2.12-.27,5.76,5.76,0,0,0,1.29-1.27l1.11-1.35c.73-.9,1.45-1.81,2.16-2.72q4.37-5.59,8.29-11.5t7.23-11.88l.81-1.47a6.19,6.19,0,0,0,.76-1.87,3.91,3.91,0,0,0-.21-2.14,11.06,11.06,0,0,0-.93-1.73,55.15,55.15,0,0,0-4.23-5.83c-.37-.44-.75-.88-1.13-1.31a1.47,1.47,0,0,0-2.07,0l-9.46,11.53a81.41,81.41,0,0,1-7.5,8.66c-.39.35-.78.7-1.19,1l-.14.11c.07-.09.23-.17,0,0l-.28.21-.62.43a13,13,0,0,1-1.31.75l-.3.15-.16.07c-.21.09,0,0,.09,0-.24.07-.47.18-.7.26a1.46,1.46,0,1,0,.78,2.82Z" transform="translate(0 0.59)"/><path d="M147.13,96.6l.22-.1-.35.15a6.33,6.33,0,0,1,1.65-.46l-.39.06a6.19,6.19,0,0,1,1.72,0l-.39,0a6.23,6.23,0,0,1,1.19.28,1.47,1.47,0,0,0,1.8-1,1.49,1.49,0,0,0-1-1.8,7.91,7.91,0,0,0-5.91.41A1.47,1.47,0,0,0,145,95a1.51,1.51,0,0,0,.15,1.12,1.47,1.47,0,0,0,.88.68,1.65,1.65,0,0,0,1.13-.15Z" transform="translate(0 0.59)"/><path d="M99.23,85.74c2.14-1.16,4.32-2.24,6.5-3.32a51.05,51.05,0,0,0,5-2.69,12.11,12.11,0,0,0,2-1.54,1.1,1.1,0,0,0-1.55-1.56l-.34.31-.16.14-.09.07c-.13.11,0,0,0,0-.3.2-.58.42-.89.62-.71.46-1.45.88-2.19,1.28-1.89,1-3.82,1.92-5.73,2.88-1.25.63-2.5,1.28-3.73,1.94a1.1,1.1,0,0,0,1.11,1.9Z" transform="translate(0 0.59)"/><path d="M125.37,36.59q2.56,4.56,5.11,9.14a1.41,1.41,0,0,0,2.44-1.43l-5.11-9.14a1.43,1.43,0,0,0-1.93-.5,1.45,1.45,0,0,0-.51,1.93Z" transform="translate(0 0.59)"/><path d="M134.89,44.06c0-.06,0-.13,0-.19s-.07.38,0,.11c0-.1,0-.19.07-.29s.07-.24.11-.36.11-.11-.05.13c0-.05.06-.14.09-.2l.17-.29c.09-.13.31-.33,0,0,.19-.17.34-.38.53-.55l.11-.1c.21-.18-.23.16-.07.06l.28-.19.3-.17.17-.09c.11-.05.31-.07-.06,0,.22,0,.43-.15.65-.2s.2,0,.3-.06c-.37.1-.25,0-.12,0h.56l.15,0c-.34,0-.26-.05-.12,0l.33.08.15,0,.14,0-.2-.08c.12.08.29.14.42.21s.21.14.32.21c.27.17-.17-.15,0,0l.19.16c.12.1.24.22.35.33s.22.24.32.37l.13.15c.16.19,0,0,0-.06a3.84,3.84,0,0,1,.56.82,15.34,15.34,0,0,1,.94,1.68c.06.13.11.25.17.37l.05.12c-.09-.22,0,.09,0,.11.12.3.23.6.33.91a14.23,14.23,0,0,1,.49,1.81c.07.32.12.64.17,1s0-.36,0,0a1.5,1.5,0,0,1,0,.2c0,.17,0,.34,0,.51a15.55,15.55,0,0,1,0,1.93c0,.3,0,.61-.06.91s0,.3-.05.46.06-.36,0,0c0,.1,0,.2-.05.3a14.63,14.63,0,0,1-.4,1.74c-.09.29-.18.57-.28.85,0,.12-.08.23-.13.35a1.43,1.43,0,0,0-.08.22l-.06.13c.08-.18.1-.22.05-.12-.23.52-.48,1-.76,1.55A14.89,14.89,0,0,1,140,60.48a1.33,1.33,0,0,1-.14.19c-.06.09,0,0,.08-.1l-.09.11c-.1.14-.21.27-.32.4s-.41.47-.63.7a15.78,15.78,0,0,1-1.47,1.36l-.18.15c-.22.18.23-.17,0,0l-.38.27c-.28.2-.56.39-.86.57a1.41,1.41,0,0,0,1.43,2.44,17.32,17.32,0,0,0,6.62-22.23c-1.16-2.53-3.1-5.33-6.14-5.52a5.69,5.69,0,0,0-5.88,5.23,1.42,1.42,0,0,0,1.42,1.41,1.44,1.44,0,0,0,1.41-1.41Z" transform="translate(0 0.59)"/><path class="cls-6" d="M114.17,5.72a11.63,11.63,0,0,0-4.66-4.38,17.63,17.63,0,0,0-6.32-1.79A33.26,33.26,0,0,0,89.68,1.34,61.26,61.26,0,0,0,76.14,7.63a93,93,0,0,0-12.2,9.07q-2.8,2.43-5.47,5c-.87.85-1.71,1.75-2.64,2.54l-.15.12-.07.06c-.1.08-.1.09,0,0l.08-.06-.16.11-.16.12c-.25.17-.5.33-.77.48s-.26.11-.37.18l.11,0-.17.06-.42.12a.86.86,0,0,0-.17,0c.38-.11.23,0,.07,0s-.22,0-.33,0c-.29,0,.32.07.12,0l-.19,0a.58.58,0,0,0-.16-.05s.34.17.13.05a2.85,2.85,0,0,1-.37-.23,1.53,1.53,0,0,0-2.08.55,1.56,1.56,0,0,0,.55,2.07,4.15,4.15,0,0,0,3.91.33,10.57,10.57,0,0,0,3.35-2.27c1.77-1.7,3.51-3.42,5.33-5.07s3.74-3.3,5.69-4.85l.68-.53.36-.28.18-.14c.48-.37,1-.73,1.46-1.09,1-.74,2-1.45,3.06-2.14A67.89,67.89,0,0,1,81.64,8c1.08-.58,2.19-1.12,3.31-1.62L85.73,6l.23-.1c.09,0,.19-.14-.09,0a3.76,3.76,0,0,1,.46-.2L88,5.12a49.14,49.14,0,0,1,7-2c.57-.12,1.15-.24,1.72-.33l.7-.11c.21,0-.41.06-.11,0l.17,0,.42-.05a24.66,24.66,0,0,1,3.1-.14c.52,0,1,0,1.57.07l.76.08.16,0-.15,0,.42.06a16.47,16.47,0,0,1,2.94.75l.3.11.2.08.18.08.36.17a11.54,11.54,0,0,1,1.23.71l.58.4c-.41-.27-.07,0,0,0l.32.28a9.54,9.54,0,0,1,1,1l.1.12c.16.18-.08-.11-.08-.12l.23.33c.14.2.27.41.4.62a1.51,1.51,0,1,0,2.61-1.53Z" transform="translate(0 0.59)"/><path class="cls-6" d="M125,11.65a11.55,11.55,0,0,1,1.32.32l.62.22s.38.16.14.05l.21.1a12.64,12.64,0,0,1,1.15.61l.54.35.25.18a.71.71,0,0,1,.14.1c.05,0,.26.2.06,0s.07.06.12.09l.27.23.52.47c.32.3.63.62.92.95.14.16.29.33.43.51l.19.24c-.29-.35,0,0,.06.08.27.38.53.76.77,1.15s.46.78.66,1.18q.17.3.3.6l.15.33,0,.12c.13.29-.1-.25,0-.07a19.2,19.2,0,0,1,.91,2.81c.14.55.25,1.11.34,1.68,0,.15.05.3.08.45a1,1,0,0,0,0,.17c0,.28,0,0,0-.06a8.71,8.71,0,0,1,.11.91,35,35,0,0,1,.15,3.55c0,2.66-.26,5.31-.51,8a1.53,1.53,0,0,0,1.52,1.52A1.56,1.56,0,0,0,138,37c.48-4.94.9-9.95-.15-14.86a18.66,18.66,0,0,0-5.95-10.4,13.26,13.26,0,0,0-6.05-3,1.52,1.52,0,1,0-.81,2.92Z" transform="translate(0 0.59)"/><path d="M89.64,58.48a5.26,5.26,0,0,1,1,.25l.25.09c-.24-.09,0,0,.07,0a4.68,4.68,0,0,1,.54.3,4.27,4.27,0,0,1,.44.3c-.19-.14,0,0,.07.06l.2.17a7.21,7.21,0,0,1,.8.86c-.15-.19,0,.05,0,.08s.11.15.15.22.2.31.28.47.17.32.25.48c.15.31-.06-.18.06.14l.15.41a8.71,8.71,0,0,1,.33,1.24l.06.32,0,.14c0,.25.06.5.07.76a16.24,16.24,0,0,1-.07,2.7c-.1,1-.27,1.91-.3,2.87a6.38,6.38,0,0,0,1.78,4.86A6.13,6.13,0,0,0,100.74,77,1.08,1.08,0,0,0,101.8,76c0-.52-.47-1.13-1.06-1.06a5,5,0,0,1-1,0c-.28,0,.23,0,0,0l-.25-.05a4.11,4.11,0,0,1-.57-.17s-.3-.12-.07,0l-.23-.11-.45-.25L97.68,74c.2.15,0,0-.05,0l-.25-.23c-.12-.12-.23-.25-.35-.38s.12.18,0,0l-.14-.21c-.09-.14-.18-.29-.26-.44s-.07-.15-.1-.23c.1.24,0-.1,0-.15q-.09-.3-.15-.6s-.06-.36,0-.17a1.64,1.64,0,0,1,0-.23,9.15,9.15,0,0,1,0-1.48c.08-.94.24-1.88.32-2.83a14.33,14.33,0,0,0,0-2.7,9.72,9.72,0,0,0-1.77-4.93,7.07,7.07,0,0,0-4.56-2.9,1.1,1.1,0,0,0-1.31.74,1.08,1.08,0,0,0,.74,1.3Z" transform="translate(0 0.59)"/><path d="M85.9,64.74a1.47,1.47,0,0,0,0-2.93,1.47,1.47,0,0,0,0,2.93Z" transform="translate(0 0.59)"/><path d="M104.72,56.85a19.62,19.62,0,0,1,2.17-1.16l.26-.12.12,0a6,6,0,0,1,.59-.23c.4-.16.82-.3,1.23-.44a1.1,1.1,0,0,0-.58-2.12,22.54,22.54,0,0,0-4.9,2.22,1.1,1.1,0,0,0,1.11,1.9Z" transform="translate(0 0.59)"/><path d="M156.09,96.06a6.2,6.2,0,0,1,1-.54l-.36.15a7.6,7.6,0,0,1,1.81-.5l-.4.06a7,7,0,0,1,1.37,0,1.52,1.52,0,0,0,1.51-1.5,1.54,1.54,0,0,0-1.51-1.51,8.5,8.5,0,0,0-5,1.29,1.55,1.55,0,0,0-.69.9,1.5,1.5,0,0,0,2.21,1.7Z" transform="translate(0 0.59)"/><path d="M116.05,32.46a18.3,18.3,0,0,0,9.61,5.1,1.44,1.44,0,0,0,1.73-1,1.42,1.42,0,0,0-1-1.73,16.88,16.88,0,0,1-2.42-.63l-.62-.22-.32-.13c-.27-.11.25.11,0,0s-.76-.35-1.13-.55A17.08,17.08,0,0,1,119.77,32l-.24-.18c-.09-.07-.06,0,.08.07l-.15-.13-.46-.38c-.33-.29-.65-.59-1-.9a1.41,1.41,0,0,0-2,2Z" transform="translate(0 0.59)"/></g><path class="cls-3" d="M220.78,147.35c-.9-5.18-3.16-12.4-9.16-13.5a4.91,4.91,0,0,0-2,0,29.35,29.35,0,0,0-2.68-2,4.05,4.05,0,0,0-5.51,1.44,4.12,4.12,0,0,0,1.45,5.51l.6.41.49.36.28.23.55.47c.63.57,1.24,1.17,1.81,1.8a44.41,44.41,0,0,0,.63,4.59l-1.69,9a4.64,4.64,0,0,0-.06,1.29,32.28,32.28,0,0,0-5.55,14.1c-.18.27-.37.55-.57.81l-.26.33c-.22.27-.45.55-.69.82-.5.58-1,1.15-1.58,1.69l-.13.12a2,2,0,0,1-.48,2.5c-4.22,3.83-10,5.95-15.65,6.8a3.77,3.77,0,0,0,1.84,2.47,11.58,11.58,0,0,0,3,1.11c0,.06,0,.12,0,.18a4.15,4.15,0,0,0,5,2.82,37.55,37.55,0,0,0,23.79-14.6C220.41,168,222.51,157.32,220.78,147.35Z" transform="translate(0 0.59)"/><path class="cls-3" d="M136.56,25.79A19.62,19.62,0,0,0,125.72,9.66,26.22,26.22,0,0,0,115.6,6.55,10.59,10.59,0,0,0,112,7,18.45,18.45,0,0,0,98.69,2.35c-.78,0-1.56.11-2.33.21a5.75,5.75,0,0,0-3.83-.36A45.6,45.6,0,0,0,71.76,13.9c-.12.12-.23.25-.34.38a40.19,40.19,0,0,0-4.5,2.8,15.1,15.1,0,0,0-6.31,5.79c-.09.15-.16.31-.24.47l-.45.26c-1,.55-2,1.07-3,1.54-.37.18-.74.36-1.11.52l-1,.38c-2.74,1-4.91,3.84-3.92,6.9a5.7,5.7,0,0,0,6.91,3.92c.46-.14.91-.3,1.36-.46a2.31,2.31,0,0,1,.39-2.5C64,28.76,69.88,25.46,75.58,22a2.22,2.22,0,0,1,3.36,1.54c.59-.5,1.16-1,1.74-1.52a13.28,13.28,0,0,1,1.9-.17,2,2,0,0,1,1.84.9c2-.59,4.08-1.13,6.15-1.59,1.14-.25,2.27-.47,3.41-.66q.75-.14,1.5-.24l.82-.08a49.57,49.57,0,0,1,6.56-.26q1.64,0,3.27.21l.42.05.24,0c.5.09,1,.17,1.5.27a35.13,35.13,0,0,1,6.43,2,5.61,5.61,0,0,0,4.33-.56,6.07,6.07,0,0,0,2-2l.07,0c.37.23.73.48,1.1.72l.47.41c.38.35.71.74,1.08,1.1l.09.09.1.14c.25.37.49.75.7,1.14.09.17.17.33.25.5.14.45.26.91.4,1.37l0,.14c0,.09,0,.17,0,.25.16,2.93,2.47,5.76,5.62,5.61C133.85,31.27,136.73,28.93,136.56,25.79Z" transform="translate(0 0.59)"/><path d="M179.15,100.94a32.74,32.74,0,0,1,3.19,1.86c.5.33,1,.67,1.46,1l.33.24c.07.05.4.31.19.14l.7.56a67,67,0,0,1,5.32,4.94c1.69,1.73,3.33,3.5,5,5.23s3.51,3.44,5.33,5.1a136.29,136.29,0,0,1,10.93,10.7c.41.47.82.95,1.22,1.44.19.24.39.48.58.73l.14.17.06.08a.8.8,0,1,1,.06.07l.21.29c.76,1,1.48,2,2.14,3.1a32.38,32.38,0,0,1,1.74,3.1c.25.49.48,1,.71,1.5,0,.06.05.12.07.17.09.21-.09-.22,0,0l.14.36c.11.27.22.55.32.82a33.33,33.33,0,0,1,1.69,6.36c.05.26.08.53.12.8s0-.08,0-.09l0,.18c0,.14,0,.29,0,.43.06.56.11,1.12.14,1.68.07,1.07.09,2.15.06,3.23s-.12,2.2-.26,3.29c0,.13-.05.37,0,.1l-.06.43c0,.27-.09.53-.13.8-.1.56-.21,1.11-.33,1.66q-.36,1.59-.87,3.15c-.17.54-.36,1.08-.56,1.61l-.27.71-.15.35c-.1.26,0,0,0,0s-.07.16-.1.23a36.42,36.42,0,0,1-3.24,5.91q-.5.74-1,1.44l-.24.31c-.17.23.09-.11-.08.11l-.58.72c-.74.9-1.53,1.76-2.35,2.58s-1.59,1.53-2.43,2.24l-.64.53-.3.23-.15.12c-.19.15.28-.21-.05,0l-1.33,1a36.8,36.8,0,0,1-5.76,3.27l-.75.33c.24-.1,0,0-.11,0l-.46.19c-.51.2-1,.38-1.53.56-1,.34-2.06.64-3.11.88-.55.13-1.09.24-1.64.33-.25,0-.49.09-.74.12s-.46.07-.15,0l-.43.05a29.56,29.56,0,0,1-3.26.2,28.51,28.51,0,0,1-3.21-.17l-.44-.05h.1l-.19,0-.86-.14c-.53-.09-1.06-.21-1.59-.34a23.73,23.73,0,0,1-3.2-1l-.72-.28c.29.12-.11,0-.17-.08l-.42-.19c-.52-.24-1-.49-1.52-.76a28.64,28.64,0,0,1-3-1.87,1.52,1.52,0,0,0-2.06.54,1.55,1.55,0,0,0,.54,2.06,28.78,28.78,0,0,0,13.32,5.12A31.27,31.27,0,0,0,198.08,190a38.87,38.87,0,0,0,21.26-17.72A37.53,37.53,0,0,0,223.77,159,36.39,36.39,0,0,0,223,145.3a37.17,37.17,0,0,0-6.27-13,83.68,83.68,0,0,0-10.83-11.6c-1.89-1.74-3.81-3.45-5.68-5.22s-3.53-3.51-5.24-5.31c-3.45-3.62-6.95-7.24-11.14-10a32.74,32.74,0,0,0-3.19-1.86,1.55,1.55,0,0,0-2.06.54,1.53,1.53,0,0,0,.54,2.06Z" transform="translate(0 0.59)"/><path d="M114,6.31a11.72,11.72,0,0,0-4.67-4.38A17.84,17.84,0,0,0,103,.14a33.19,33.19,0,0,0-13.5,1.8A60.37,60.37,0,0,0,76,8.22a94.89,94.89,0,0,0-12.21,9.07q-2.8,2.43-5.47,5c-.87.84-1.71,1.75-2.63,2.53l-.15.13-.08.06h0l.08-.06-.16.12-.16.11a6.65,6.65,0,0,1-.77.48c-.12.06-.26.11-.37.18l.11,0-.17.06a3.31,3.31,0,0,1-.42.12l-.17,0c.38-.11.23,0,.07,0h-.32c-.3,0,.31.06.12,0L53.1,26a1.42,1.42,0,0,0-.16-.05s.35.17.13.05l-.37-.22a1.52,1.52,0,0,0-2.08.54,1.56,1.56,0,0,0,.55,2.07,4.15,4.15,0,0,0,3.91.33,10.59,10.59,0,0,0,3.35-2.26c1.77-1.71,3.51-3.43,5.34-5.08s3.74-3.3,5.69-4.85l.67-.53.36-.28c-.34.27.09-.07.18-.13l1.46-1.1c1-.73,2-1.45,3.07-2.14a71,71,0,0,1,6.29-3.75C82.58,8,83.68,7.47,84.8,7l.78-.34.23-.1c.09,0,.2-.13-.09,0a3.71,3.71,0,0,1,.46-.19c.55-.23,1.11-.45,1.67-.65a47.91,47.91,0,0,1,7-2c.57-.12,1.15-.23,1.72-.33l.71-.1c.2,0-.42,0-.12,0l.17,0,.42,0a24.74,24.74,0,0,1,3.1-.14c.53,0,1.05,0,1.57.07l.76.08.17,0-.16,0,.42.06a17.36,17.36,0,0,1,2.94.75l.31.12c.06,0,.45.18.19.07l.18.08.36.17a10.63,10.63,0,0,1,1.23.71c.2.13.38.28.58.41-.41-.27-.07-.06,0,0l.33.28a9.45,9.45,0,0,1,1,1l.1.12-.09-.12c.07.12.16.22.23.33s.27.41.4.62A1.52,1.52,0,0,0,114,6.31Z" transform="translate(0 0.59)"/><path d="M124.72,11.67A11.58,11.58,0,0,1,126,12c.21.06.41.14.61.21l.14.06c-.24-.11.16.07.22.09.39.19.77.39,1.14.61.19.12.37.23.55.36l.25.17.14.1s.25.2.06,0,.07.06.12.1l.26.22.53.47c.32.3.62.62.92,1l.43.51.19.24c-.29-.35,0,0,.06.09.27.37.53.76.77,1.15s.46.77.66,1.17c.11.2.2.4.3.61l.15.32s0,.08.05.13c.13.28-.1-.25,0-.08a20,20,0,0,1,.91,2.81c.13.56.25,1.12.34,1.68,0,.15.05.3.07.45l0,.17c0,.28,0,0,0-.06.06.3.07.61.1.91a35.14,35.14,0,0,1,.16,3.55c0,2.67-.26,5.32-.51,8a1.52,1.52,0,0,0,1.52,1.52A1.56,1.56,0,0,0,137.68,37c.47-4.94.9-10-.15-14.85a18.68,18.68,0,0,0-5.95-10.41,13.26,13.26,0,0,0-6.05-3,1.55,1.55,0,0,0-1.87,1.06,1.53,1.53,0,0,0,1.06,1.86Z" transform="translate(0 0.59)"/><path d="M107.88,22.38A7.76,7.76,0,0,0,101.44,19c-2.78-.11-5.4,1.06-7.83,2.27l-1.91,1-.89.42-.46.2L90.1,23c-.28.12.22-.09-.08,0a35.5,35.5,0,0,1-4,1.36c-.68.19-1.38.35-2.07.48-.35.07-.7.14-1,.19l-.5.08a1.46,1.46,0,0,1-.22,0c.39,0,0,0-.11,0a18,18,0,0,1-2.08.13c-.35,0-.69,0-1,0l-.43,0c-.37,0,.31.06,0,0l-.32-.05a8.48,8.48,0,0,1-1.1-.29l-.26-.09-.1,0c-.16-.06-.13-.05.07,0a1.84,1.84,0,0,0-.4-.19,6.59,6.59,0,0,1-.85-.51L75.33,24c.16.13.19.15.07.06L75.33,24,75,23.66c-.12-.12-.23-.23-.34-.36l-.12-.13c-.21-.26,0,0,0,0s-.27-.39-.3-.44a2.82,2.82,0,0,1-.21-.38c0-.05,0-.11-.08-.16-.12-.25.12.31,0,0a4.11,4.11,0,0,1-.15-.46c0-.14,0-.29-.09-.43.1.35,0,.19,0,.07a3,3,0,0,1,0-.31,1.41,1.41,0,1,0-2.82,0,7.22,7.22,0,0,0,4.44,6.2c2.87,1.25,6,1,9,.42a34.17,34.17,0,0,0,8.46-2.8c1.26-.6,2.49-1.27,3.76-1.85.17-.07.33-.16.5-.22,0,0-.28.12,0,0l.25-.1c.34-.14.68-.26,1-.37s.66-.2,1-.28.62-.1.92-.18c0,0-.36,0-.12,0l.26,0a4.36,4.36,0,0,1,.51,0c.3,0,.6,0,.9,0,.11,0,.65.09.18,0l.42.07a8.46,8.46,0,0,1,.9.23l.43.16c.19.07-.33-.15-.06,0l.22.11a7.54,7.54,0,0,1,.77.47c.09.06.12.14-.09-.08l.19.16c.12.11.24.22.35.34s.18.21.27.31c-.24-.27-.1-.14,0-.06l.16.25a1.41,1.41,0,1,0,2.44-1.43Z" transform="translate(0 0.59)"/></g></g></g></svg>